G04 #@! TF.GenerationSoftware,KiCad,Pcbnew,9.0.4*
G04 #@! TF.CreationDate,2025-12-28T16:32:26+01:00*
G04 #@! TF.ProjectId,UWU_AK_V3_Mouse,5557555f-414b-45f5-9633-5f4d6f757365,rev?*
G04 #@! TF.SameCoordinates,Original*
G04 #@! TF.FileFunction,Profile,NP*
%FSLAX46Y46*%
G04 Gerber Fmt 4.6, Leading zero omitted, Abs format (unit mm)*
G04 Created by KiCad (PCBNEW 9.0.4) date 2025-12-28 16:32:26*
%MOMM*%
%LPD*%
G01*
G04 APERTURE LIST*
G04 #@! TA.AperFunction,Profile*
%ADD10C,0.050000*%
G04 #@! TD*
G04 APERTURE END LIST*
D10*
X138000000Y-85250000D02*
X138000000Y-62155000D01*
X131750000Y-86250000D02*
G75*
G02*
X132750000Y-85250000I1000000J0D01*
G01*
X126250000Y-87250000D02*
X117000000Y-87250000D01*
X138000000Y-62155000D02*
X105500000Y-62155000D01*
X105500000Y-62155000D02*
X105500000Y-85250003D01*
X117000000Y-87250000D02*
G75*
G02*
X116000000Y-86250000I0J1000000D01*
G01*
X105500000Y-110500000D02*
X138000000Y-110500000D01*
X105500000Y-87250000D02*
X105500000Y-110500000D01*
X138000000Y-87250000D02*
X132750000Y-87250000D01*
X110500000Y-87250000D02*
X105500000Y-87250000D01*
X116000000Y-86250000D02*
G75*
G02*
X117000000Y-85250000I1000000J0D01*
G01*
X111499996Y-86250001D02*
G75*
G02*
X110500001Y-87249996I-999996J1D01*
G01*
X132750000Y-85250000D02*
X138000000Y-85250000D01*
X127249997Y-86250001D02*
G75*
G02*
X126250000Y-87249997I-999997J1D01*
G01*
X110500001Y-85250003D02*
G75*
G02*
X111499997Y-86250001I-1J-999997D01*
G01*
X117000000Y-85250000D02*
X126250000Y-85250000D01*
X110500000Y-85250003D02*
X105500000Y-85250003D01*
X126250000Y-85250002D02*
G75*
G02*
X127249998Y-86250000I0J-999998D01*
G01*
X138000000Y-110500000D02*
X138000000Y-87250000D01*
X132750000Y-87250000D02*
G75*
G02*
X131750000Y-86250000I0J1000000D01*
G01*
M02*
