G04 #@! TF.GenerationSoftware,KiCad,Pcbnew,9.0.4*
G04 #@! TF.CreationDate,2025-12-28T16:32:26+01:00*
G04 #@! TF.ProjectId,UWU_AK_V3_Mouse,5557555f-414b-45f5-9633-5f4d6f757365,rev?*
G04 #@! TF.SameCoordinates,Original*
G04 #@! TF.FileFunction,Legend,Top*
G04 #@! TF.FilePolarity,Positive*
%FSLAX46Y46*%
G04 Gerber Fmt 4.6, Leading zero omitted, Abs format (unit mm)*
G04 Created by KiCad (PCBNEW 9.0.4) date 2025-12-28 16:32:26*
%MOMM*%
%LPD*%
G01*
G04 APERTURE LIST*
G04 Aperture macros list*
%AMRoundRect*
0 Rectangle with rounded corners*
0 $1 Rounding radius*
0 $2 $3 $4 $5 $6 $7 $8 $9 X,Y pos of 4 corners*
0 Add a 4 corners polygon primitive as box body*
4,1,4,$2,$3,$4,$5,$6,$7,$8,$9,$2,$3,0*
0 Add four circle primitives for the rounded corners*
1,1,$1+$1,$2,$3*
1,1,$1+$1,$4,$5*
1,1,$1+$1,$6,$7*
1,1,$1+$1,$8,$9*
0 Add four rect primitives between the rounded corners*
20,1,$1+$1,$2,$3,$4,$5,0*
20,1,$1+$1,$4,$5,$6,$7,0*
20,1,$1+$1,$6,$7,$8,$9,0*
20,1,$1+$1,$8,$9,$2,$3,0*%
G04 Aperture macros list end*
%ADD10C,0.150000*%
%ADD11C,0.125000*%
%ADD12C,0.120000*%
%ADD13C,0.200000*%
%ADD14C,0.100000*%
%ADD15RoundRect,0.250000X0.475000X-0.337500X0.475000X0.337500X-0.475000X0.337500X-0.475000X-0.337500X0*%
%ADD16RoundRect,0.250000X0.337500X0.475000X-0.337500X0.475000X-0.337500X-0.475000X0.337500X-0.475000X0*%
%ADD17RoundRect,0.250000X-0.475000X0.337500X-0.475000X-0.337500X0.475000X-0.337500X0.475000X0.337500X0*%
%ADD18RoundRect,0.250000X0.450000X-0.350000X0.450000X0.350000X-0.450000X0.350000X-0.450000X-0.350000X0*%
%ADD19RoundRect,0.250000X-0.325000X-0.450000X0.325000X-0.450000X0.325000X0.450000X-0.325000X0.450000X0*%
%ADD20RoundRect,0.500000X1.500000X-0.500000X1.500000X0.500000X-1.500000X0.500000X-1.500000X-0.500000X0*%
%ADD21RoundRect,0.250000X-0.337500X-0.475000X0.337500X-0.475000X0.337500X0.475000X-0.337500X0.475000X0*%
%ADD22R,1.528000X0.650000*%
%ADD23RoundRect,0.600000X-3.400000X-1.400000X3.400000X-1.400000X3.400000X1.400000X-3.400000X1.400000X0*%
%ADD24RoundRect,0.525000X3.475000X1.225000X-3.475000X1.225000X-3.475000X-1.225000X3.475000X-1.225000X0*%
%ADD25RoundRect,0.600000X3.400000X1.400000X-3.400000X1.400000X-3.400000X-1.400000X3.400000X-1.400000X0*%
%ADD26RoundRect,0.250000X-0.450000X0.350000X-0.450000X-0.350000X0.450000X-0.350000X0.450000X0.350000X0*%
%ADD27RoundRect,0.375000X-0.625000X-0.375000X0.625000X-0.375000X0.625000X0.375000X-0.625000X0.375000X0*%
%ADD28RoundRect,0.500000X-0.500000X-1.400000X0.500000X-1.400000X0.500000X1.400000X-0.500000X1.400000X0*%
%ADD29RoundRect,0.250000X0.650000X-1.000000X0.650000X1.000000X-0.650000X1.000000X-0.650000X-1.000000X0*%
%ADD30RoundRect,0.250000X-0.350000X-0.450000X0.350000X-0.450000X0.350000X0.450000X-0.350000X0.450000X0*%
G04 APERTURE END LIST*
D10*
X110376800Y-82482017D02*
X110343466Y-82582017D01*
X110343466Y-82582017D02*
X110343466Y-82748684D01*
X110343466Y-82748684D02*
X110376800Y-82815350D01*
X110376800Y-82815350D02*
X110410133Y-82848684D01*
X110410133Y-82848684D02*
X110476800Y-82882017D01*
X110476800Y-82882017D02*
X110543466Y-82882017D01*
X110543466Y-82882017D02*
X110610133Y-82848684D01*
X110610133Y-82848684D02*
X110643466Y-82815350D01*
X110643466Y-82815350D02*
X110676800Y-82748684D01*
X110676800Y-82748684D02*
X110710133Y-82615350D01*
X110710133Y-82615350D02*
X110743466Y-82548684D01*
X110743466Y-82548684D02*
X110776800Y-82515350D01*
X110776800Y-82515350D02*
X110843466Y-82482017D01*
X110843466Y-82482017D02*
X110910133Y-82482017D01*
X110910133Y-82482017D02*
X110976800Y-82515350D01*
X110976800Y-82515350D02*
X111010133Y-82548684D01*
X111010133Y-82548684D02*
X111043466Y-82615350D01*
X111043466Y-82615350D02*
X111043466Y-82782017D01*
X111043466Y-82782017D02*
X111010133Y-82882017D01*
X110810133Y-83182017D02*
X110110133Y-83182017D01*
X110776800Y-83182017D02*
X110810133Y-83248684D01*
X110810133Y-83248684D02*
X110810133Y-83382017D01*
X110810133Y-83382017D02*
X110776800Y-83448684D01*
X110776800Y-83448684D02*
X110743466Y-83482017D01*
X110743466Y-83482017D02*
X110676800Y-83515351D01*
X110676800Y-83515351D02*
X110476800Y-83515351D01*
X110476800Y-83515351D02*
X110410133Y-83482017D01*
X110410133Y-83482017D02*
X110376800Y-83448684D01*
X110376800Y-83448684D02*
X110343466Y-83382017D01*
X110343466Y-83382017D02*
X110343466Y-83248684D01*
X110343466Y-83248684D02*
X110376800Y-83182017D01*
X110343466Y-83815350D02*
X111043466Y-83815350D01*
X110610133Y-83882017D02*
X110343466Y-84082017D01*
X110810133Y-84082017D02*
X110543466Y-83815350D01*
D11*
G36*
X131284874Y-109556613D02*
G01*
X131280783Y-109568581D01*
X131266434Y-109577069D01*
X131238773Y-109582198D01*
X131195420Y-109583907D01*
X131152006Y-109582198D01*
X131124345Y-109577069D01*
X131109630Y-109568520D01*
X131105233Y-109556552D01*
X131105233Y-108845317D01*
X130775994Y-108845317D01*
X130775994Y-109556552D01*
X130771536Y-109568520D01*
X130756882Y-109577069D01*
X130729527Y-109582198D01*
X130685807Y-109583907D01*
X130642393Y-109582198D01*
X130614733Y-109577069D01*
X130600383Y-109568581D01*
X130596292Y-109556613D01*
X130596292Y-108753482D01*
X130600230Y-108727452D01*
X130610642Y-108710800D01*
X130626939Y-108700474D01*
X130648866Y-108696817D01*
X131232972Y-108696817D01*
X131255410Y-108700529D01*
X131271196Y-108710800D01*
X131281097Y-108727385D01*
X131284874Y-108753482D01*
X131284874Y-109556613D01*
G37*
G36*
X131669495Y-109480593D02*
G01*
X131666315Y-109522677D01*
X131658370Y-109549604D01*
X131647269Y-109565956D01*
X131630889Y-109577062D01*
X131605539Y-109584790D01*
X131567707Y-109587815D01*
X131529835Y-109584825D01*
X131504613Y-109577213D01*
X131488450Y-109566322D01*
X131477457Y-109550254D01*
X131469678Y-109524404D01*
X131466591Y-109484684D01*
X131469782Y-109442126D01*
X131477736Y-109415014D01*
X131488817Y-109398649D01*
X131505246Y-109387562D01*
X131530809Y-109379825D01*
X131569112Y-109376789D01*
X131606463Y-109379774D01*
X131631481Y-109387395D01*
X131647636Y-109398344D01*
X131658606Y-109414388D01*
X131666395Y-109440400D01*
X131669495Y-109480593D01*
G37*
G36*
X132880879Y-109555270D02*
G01*
X132877093Y-109567543D01*
X132863476Y-109576397D01*
X132837159Y-109581831D01*
X132795516Y-109583907D01*
X132754483Y-109581831D01*
X132728532Y-109576397D01*
X132714916Y-109567543D01*
X132710825Y-109555270D01*
X132710825Y-108837501D01*
X132709420Y-108837501D01*
X132453271Y-109554537D01*
X132444356Y-109569253D01*
X132427625Y-109578473D01*
X132400636Y-109582869D01*
X132361008Y-109583907D01*
X132321379Y-109582198D01*
X132294391Y-109576763D01*
X132277660Y-109567543D01*
X132269478Y-109554537D01*
X132022243Y-108837501D01*
X132020839Y-108837501D01*
X132020839Y-109555270D01*
X132017053Y-109567543D01*
X132003070Y-109576397D01*
X131976753Y-109581831D01*
X131935415Y-109583907D01*
X131894443Y-109581831D01*
X131868126Y-109576397D01*
X131854448Y-109567543D01*
X131850724Y-109555270D01*
X131850724Y-108768442D01*
X131855693Y-108736733D01*
X131869164Y-108715258D01*
X131890160Y-108701628D01*
X131918379Y-108696817D01*
X132035860Y-108696817D01*
X132089837Y-108701946D01*
X132111194Y-108708927D01*
X132128794Y-108719043D01*
X132143684Y-108732658D01*
X132156149Y-108750429D01*
X132175261Y-108798483D01*
X132366503Y-109324583D01*
X132369251Y-109324583D01*
X132567332Y-108799827D01*
X132586749Y-108751406D01*
X132611357Y-108719349D01*
X132626548Y-108708925D01*
X132644513Y-108701946D01*
X132688904Y-108696817D01*
X132809865Y-108696817D01*
X132841617Y-108701580D01*
X132863476Y-108715563D01*
X132876421Y-108738094D01*
X132880879Y-108768442D01*
X132880879Y-109555270D01*
G37*
G36*
X133382682Y-108911645D02*
G01*
X133436287Y-108921887D01*
X133483657Y-108940147D01*
X133520001Y-108964935D01*
X133548066Y-108997741D01*
X133567812Y-109039795D01*
X133578813Y-109087989D01*
X133582833Y-109148483D01*
X133582833Y-109558628D01*
X133575994Y-109573710D01*
X133554439Y-109581526D01*
X133511086Y-109583907D01*
X133466329Y-109581526D01*
X133446545Y-109573710D01*
X133440744Y-109558628D01*
X133440744Y-109510146D01*
X133400356Y-109546151D01*
X133355015Y-109573039D01*
X133304847Y-109589845D01*
X133248098Y-109595631D01*
X133200855Y-109592353D01*
X133158949Y-109582930D01*
X133120618Y-109566994D01*
X133088546Y-109545317D01*
X133062300Y-109517508D01*
X133042445Y-109483401D01*
X133030380Y-109444453D01*
X133026081Y-109397184D01*
X133026564Y-109392665D01*
X133194120Y-109392665D01*
X133200436Y-109427408D01*
X133218361Y-109452688D01*
X133246091Y-109468635D01*
X133285650Y-109474487D01*
X133320487Y-109469870D01*
X133352267Y-109456107D01*
X133381774Y-109434429D01*
X133414122Y-109402252D01*
X133414122Y-109298632D01*
X133348543Y-109298632D01*
X133308381Y-109300311D01*
X133277468Y-109304799D01*
X133249891Y-109312812D01*
X133229658Y-109323178D01*
X133213467Y-109336980D01*
X133202669Y-109352854D01*
X133196338Y-109371105D01*
X133194120Y-109392665D01*
X133026564Y-109392665D01*
X133031527Y-109346272D01*
X133046903Y-109304494D01*
X133072511Y-109268949D01*
X133109063Y-109239525D01*
X133153767Y-109217799D01*
X133211889Y-109201545D01*
X133275887Y-109192510D01*
X133354710Y-109189211D01*
X133414122Y-109189211D01*
X133414122Y-109151964D01*
X133408321Y-109101284D01*
X133400482Y-109081060D01*
X133389209Y-109065075D01*
X133374044Y-109052723D01*
X133353672Y-109043703D01*
X133330046Y-109038688D01*
X133298656Y-109036803D01*
X133256978Y-109039372D01*
X133221842Y-109046573D01*
X133162063Y-109068066D01*
X133118649Y-109089621D01*
X133101740Y-109097276D01*
X133090317Y-109099330D01*
X133077006Y-109094628D01*
X133067419Y-109081133D01*
X133061618Y-109059518D01*
X133059603Y-109031186D01*
X133063023Y-108998152D01*
X133075968Y-108976231D01*
X133109429Y-108954249D01*
X133165483Y-108931596D01*
X133235458Y-108914499D01*
X133313677Y-108907843D01*
X133382682Y-108911645D01*
G37*
G36*
X134332512Y-108927274D02*
G01*
X134346641Y-108937519D01*
X134355018Y-108953744D01*
X134358243Y-108978918D01*
X134358243Y-109439316D01*
X134427913Y-109439316D01*
X134444716Y-109441380D01*
X134454230Y-109446460D01*
X134459772Y-109455719D01*
X134462107Y-109473998D01*
X134462107Y-109778264D01*
X134458688Y-109788766D01*
X134446353Y-109796277D01*
X134423150Y-109801039D01*
X134386941Y-109802749D01*
X134351465Y-109801039D01*
X134328567Y-109796277D01*
X134316233Y-109788827D01*
X134312508Y-109778325D01*
X134312508Y-109580000D01*
X133834342Y-109580000D01*
X133834342Y-109778325D01*
X133830922Y-109788827D01*
X133818588Y-109796277D01*
X133795751Y-109801039D01*
X133760580Y-109802749D01*
X133724371Y-109801039D01*
X133701107Y-109796277D01*
X133688834Y-109788766D01*
X133685415Y-109778264D01*
X133685415Y-109473998D01*
X133687477Y-109455596D01*
X133692254Y-109446460D01*
X133701100Y-109441455D01*
X133718876Y-109439316D01*
X133752337Y-109439316D01*
X133921048Y-109439316D01*
X134185441Y-109439316D01*
X134185441Y-109060251D01*
X134039933Y-109060251D01*
X134014654Y-109208628D01*
X133985956Y-109315240D01*
X133969784Y-109357537D01*
X133954204Y-109388635D01*
X133921048Y-109439316D01*
X133752337Y-109439316D01*
X133793309Y-109374347D01*
X133811124Y-109335589D01*
X133829213Y-109284405D01*
X133844656Y-109227877D01*
X133859926Y-109155750D01*
X133886243Y-108976170D01*
X133890640Y-108953944D01*
X133899188Y-108937152D01*
X133913232Y-108926894D01*
X133934054Y-108923475D01*
X134310432Y-108923475D01*
X134332512Y-108927274D01*
G37*
G36*
X134931434Y-108913757D02*
G01*
X134994740Y-108930069D01*
X135050245Y-108957900D01*
X135094146Y-108995404D01*
X135127983Y-109042629D01*
X135152581Y-109101345D01*
X135166650Y-109166877D01*
X135171693Y-109245570D01*
X135166378Y-109321405D01*
X135151177Y-109387841D01*
X135125117Y-109448154D01*
X135089017Y-109498545D01*
X135042595Y-109539363D01*
X134984481Y-109570352D01*
X134918359Y-109588960D01*
X134837630Y-109595631D01*
X134759512Y-109589653D01*
X134696214Y-109573100D01*
X134640676Y-109545018D01*
X134596502Y-109507459D01*
X134562423Y-109460160D01*
X134537761Y-109401458D01*
X134523681Y-109336002D01*
X134518649Y-109257904D01*
X134519135Y-109251065D01*
X134695542Y-109251065D01*
X134697495Y-109295215D01*
X134703053Y-109334108D01*
X134713126Y-109370253D01*
X134727294Y-109400054D01*
X134747023Y-109424927D01*
X134772723Y-109443468D01*
X134803646Y-109454744D01*
X134843797Y-109458855D01*
X134880983Y-109455183D01*
X134911392Y-109444872D01*
X134937487Y-109427717D01*
X134958531Y-109404206D01*
X134974259Y-109375454D01*
X134985825Y-109339603D01*
X134992382Y-109300216D01*
X134994740Y-109253080D01*
X134992865Y-109208974D01*
X134987534Y-109170099D01*
X134977654Y-109133935D01*
X134963293Y-109104092D01*
X134943387Y-109079120D01*
X134917864Y-109060373D01*
X134887150Y-109048850D01*
X134846484Y-109044619D01*
X134809891Y-109048290D01*
X134779562Y-109058663D01*
X134753496Y-109075838D01*
X134732423Y-109099635D01*
X134716599Y-109128643D01*
X134704762Y-109164603D01*
X134697980Y-109203950D01*
X134695542Y-109251065D01*
X134519135Y-109251065D01*
X134524036Y-109182043D01*
X134539471Y-109115327D01*
X134565838Y-109054750D01*
X134601936Y-109004624D01*
X134648330Y-108964038D01*
X134706167Y-108933183D01*
X134772026Y-108914537D01*
X134852712Y-108907843D01*
X134931434Y-108913757D01*
G37*
G36*
X135898011Y-109556552D02*
G01*
X135893920Y-109568520D01*
X135880242Y-109577069D01*
X135853925Y-109582198D01*
X135812648Y-109583907D01*
X135770577Y-109582198D01*
X135744260Y-109577130D01*
X135730643Y-109568642D01*
X135726552Y-109556735D01*
X135726552Y-109318171D01*
X135479928Y-109318171D01*
X135479928Y-109556735D01*
X135475837Y-109568642D01*
X135461793Y-109577130D01*
X135435476Y-109582198D01*
X135393893Y-109583907D01*
X135352189Y-109582198D01*
X135325872Y-109577069D01*
X135311889Y-109568520D01*
X135307798Y-109556552D01*
X135307798Y-108946922D01*
X135311889Y-108934954D01*
X135325872Y-108926406D01*
X135352189Y-108921277D01*
X135393893Y-108919567D01*
X135435476Y-108921277D01*
X135461793Y-108926467D01*
X135475837Y-108935076D01*
X135479928Y-108947166D01*
X135479928Y-109177487D01*
X135726552Y-109177487D01*
X135726552Y-108947166D01*
X135730643Y-108935076D01*
X135744260Y-108926467D01*
X135770577Y-108921277D01*
X135812648Y-108919567D01*
X135853925Y-108921277D01*
X135880242Y-108926406D01*
X135893920Y-108934954D01*
X135898011Y-108946922D01*
X135898011Y-109556552D01*
G37*
G36*
X136446717Y-108913757D02*
G01*
X136510022Y-108930069D01*
X136565528Y-108957900D01*
X136609429Y-108995404D01*
X136643265Y-109042629D01*
X136667864Y-109101345D01*
X136681933Y-109166877D01*
X136686976Y-109245570D01*
X136681661Y-109321405D01*
X136666460Y-109387841D01*
X136640400Y-109448154D01*
X136604300Y-109498545D01*
X136557877Y-109539363D01*
X136499764Y-109570352D01*
X136433642Y-109588960D01*
X136352913Y-109595631D01*
X136274795Y-109589653D01*
X136211496Y-109573100D01*
X136155958Y-109545018D01*
X136111784Y-109507459D01*
X136077705Y-109460160D01*
X136053044Y-109401458D01*
X136038964Y-109336002D01*
X136033932Y-109257904D01*
X136034418Y-109251065D01*
X136210825Y-109251065D01*
X136212778Y-109295215D01*
X136218335Y-109334108D01*
X136228409Y-109370253D01*
X136242576Y-109400054D01*
X136262306Y-109424927D01*
X136288005Y-109443468D01*
X136318929Y-109454744D01*
X136359080Y-109458855D01*
X136396266Y-109455183D01*
X136426674Y-109444872D01*
X136452769Y-109427717D01*
X136473813Y-109404206D01*
X136489542Y-109375454D01*
X136501107Y-109339603D01*
X136507664Y-109300216D01*
X136510022Y-109253080D01*
X136508148Y-109208974D01*
X136502817Y-109170099D01*
X136492936Y-109133935D01*
X136478576Y-109104092D01*
X136458670Y-109079120D01*
X136433147Y-109060373D01*
X136402432Y-109048850D01*
X136361767Y-109044619D01*
X136325173Y-109048290D01*
X136294844Y-109058663D01*
X136268779Y-109075838D01*
X136247705Y-109099635D01*
X136231882Y-109128643D01*
X136220045Y-109164603D01*
X136213263Y-109203950D01*
X136210825Y-109251065D01*
X136034418Y-109251065D01*
X136039318Y-109182043D01*
X136054754Y-109115327D01*
X136081120Y-109054750D01*
X136117219Y-109004624D01*
X136163613Y-108964038D01*
X136221449Y-108933183D01*
X136287309Y-108914537D01*
X136367995Y-108907843D01*
X136446717Y-108913757D01*
G37*
G36*
X137144375Y-108918418D02*
G01*
X137199825Y-108925856D01*
X137249814Y-108939224D01*
X137287264Y-108956692D01*
X137317808Y-108980259D01*
X137338494Y-109007616D01*
X137350866Y-109039685D01*
X137355225Y-109078508D01*
X137351718Y-109114090D01*
X137341722Y-109144251D01*
X137325488Y-109170099D01*
X137303518Y-109191358D01*
X137275574Y-109207894D01*
X137240430Y-109219619D01*
X137284653Y-109231612D01*
X137319358Y-109249316D01*
X137346310Y-109272376D01*
X137366444Y-109301284D01*
X137378828Y-109335615D01*
X137383190Y-109376851D01*
X137378107Y-109427016D01*
X137363712Y-109468747D01*
X137339476Y-109504568D01*
X137304605Y-109534387D01*
X137261659Y-109556790D01*
X137205565Y-109574199D01*
X137143435Y-109584155D01*
X137065553Y-109587815D01*
X137016032Y-109587449D01*
X136971641Y-109586472D01*
X136928593Y-109584396D01*
X136882493Y-109580366D01*
X136853730Y-109573691D01*
X136836697Y-109561315D01*
X136826882Y-109542312D01*
X136823080Y-109512405D01*
X136823080Y-109465144D01*
X136983609Y-109465144D01*
X137006507Y-109467526D01*
X137030748Y-109469235D01*
X137054989Y-109470273D01*
X137076543Y-109470579D01*
X137111430Y-109468828D01*
X137138703Y-109464106D01*
X137162990Y-109455872D01*
X137181018Y-109445422D01*
X137195335Y-109431732D01*
X137204954Y-109415807D01*
X137210537Y-109397731D01*
X137212465Y-109377278D01*
X137210571Y-109356370D01*
X137205259Y-109339176D01*
X137195884Y-109324375D01*
X137181385Y-109311943D01*
X137162991Y-109302813D01*
X137137665Y-109295945D01*
X137073124Y-109290816D01*
X136983609Y-109290816D01*
X136983609Y-109465144D01*
X136823080Y-109465144D01*
X136823080Y-109037597D01*
X136983609Y-109037597D01*
X136983609Y-109189211D01*
X137075811Y-109189211D01*
X137129629Y-109183439D01*
X137164288Y-109168695D01*
X137181154Y-109152956D01*
X137191178Y-109133480D01*
X137194696Y-109109038D01*
X137188162Y-109076737D01*
X137179861Y-109063832D01*
X137167341Y-109052801D01*
X137151548Y-109044531D01*
X137129483Y-109037964D01*
X137072391Y-109032896D01*
X137023543Y-109034239D01*
X136983609Y-109037597D01*
X136823080Y-109037597D01*
X136823080Y-108989726D01*
X136826687Y-108960994D01*
X136836025Y-108942526D01*
X136851756Y-108930011D01*
X136875654Y-108923108D01*
X136914916Y-108920422D01*
X136963093Y-108918040D01*
X137017070Y-108916331D01*
X137073796Y-108915659D01*
X137144375Y-108918418D01*
G37*
G36*
X131284874Y-84306613D02*
G01*
X131280783Y-84318581D01*
X131266434Y-84327069D01*
X131238773Y-84332198D01*
X131195420Y-84333907D01*
X131152006Y-84332198D01*
X131124345Y-84327069D01*
X131109630Y-84318520D01*
X131105233Y-84306552D01*
X131105233Y-83595317D01*
X130775994Y-83595317D01*
X130775994Y-84306552D01*
X130771536Y-84318520D01*
X130756882Y-84327069D01*
X130729527Y-84332198D01*
X130685807Y-84333907D01*
X130642393Y-84332198D01*
X130614733Y-84327069D01*
X130600383Y-84318581D01*
X130596292Y-84306613D01*
X130596292Y-83503482D01*
X130600230Y-83477452D01*
X130610642Y-83460800D01*
X130626939Y-83450474D01*
X130648866Y-83446817D01*
X131232972Y-83446817D01*
X131255410Y-83450529D01*
X131271196Y-83460800D01*
X131281097Y-83477385D01*
X131284874Y-83503482D01*
X131284874Y-84306613D01*
G37*
G36*
X131669495Y-84230593D02*
G01*
X131666315Y-84272677D01*
X131658370Y-84299604D01*
X131647269Y-84315956D01*
X131630889Y-84327062D01*
X131605539Y-84334790D01*
X131567707Y-84337815D01*
X131529835Y-84334825D01*
X131504613Y-84327213D01*
X131488450Y-84316322D01*
X131477457Y-84300254D01*
X131469678Y-84274404D01*
X131466591Y-84234684D01*
X131469782Y-84192126D01*
X131477736Y-84165014D01*
X131488817Y-84148649D01*
X131505246Y-84137562D01*
X131530809Y-84129825D01*
X131569112Y-84126789D01*
X131606463Y-84129774D01*
X131631481Y-84137395D01*
X131647636Y-84148344D01*
X131658606Y-84164388D01*
X131666395Y-84190400D01*
X131669495Y-84230593D01*
G37*
G36*
X132880879Y-84305270D02*
G01*
X132877093Y-84317543D01*
X132863476Y-84326397D01*
X132837159Y-84331831D01*
X132795516Y-84333907D01*
X132754483Y-84331831D01*
X132728532Y-84326397D01*
X132714916Y-84317543D01*
X132710825Y-84305270D01*
X132710825Y-83587501D01*
X132709420Y-83587501D01*
X132453271Y-84304537D01*
X132444356Y-84319253D01*
X132427625Y-84328473D01*
X132400636Y-84332869D01*
X132361008Y-84333907D01*
X132321379Y-84332198D01*
X132294391Y-84326763D01*
X132277660Y-84317543D01*
X132269478Y-84304537D01*
X132022243Y-83587501D01*
X132020839Y-83587501D01*
X132020839Y-84305270D01*
X132017053Y-84317543D01*
X132003070Y-84326397D01*
X131976753Y-84331831D01*
X131935415Y-84333907D01*
X131894443Y-84331831D01*
X131868126Y-84326397D01*
X131854448Y-84317543D01*
X131850724Y-84305270D01*
X131850724Y-83518442D01*
X131855693Y-83486733D01*
X131869164Y-83465258D01*
X131890160Y-83451628D01*
X131918379Y-83446817D01*
X132035860Y-83446817D01*
X132089837Y-83451946D01*
X132111194Y-83458927D01*
X132128794Y-83469043D01*
X132143684Y-83482658D01*
X132156149Y-83500429D01*
X132175261Y-83548483D01*
X132366503Y-84074583D01*
X132369251Y-84074583D01*
X132567332Y-83549827D01*
X132586749Y-83501406D01*
X132611357Y-83469349D01*
X132626548Y-83458925D01*
X132644513Y-83451946D01*
X132688904Y-83446817D01*
X132809865Y-83446817D01*
X132841617Y-83451580D01*
X132863476Y-83465563D01*
X132876421Y-83488094D01*
X132880879Y-83518442D01*
X132880879Y-84305270D01*
G37*
G36*
X133382682Y-83661645D02*
G01*
X133436287Y-83671887D01*
X133483657Y-83690147D01*
X133520001Y-83714935D01*
X133548066Y-83747741D01*
X133567812Y-83789795D01*
X133578813Y-83837989D01*
X133582833Y-83898483D01*
X133582833Y-84308628D01*
X133575994Y-84323710D01*
X133554439Y-84331526D01*
X133511086Y-84333907D01*
X133466329Y-84331526D01*
X133446545Y-84323710D01*
X133440744Y-84308628D01*
X133440744Y-84260146D01*
X133400356Y-84296151D01*
X133355015Y-84323039D01*
X133304847Y-84339845D01*
X133248098Y-84345631D01*
X133200855Y-84342353D01*
X133158949Y-84332930D01*
X133120618Y-84316994D01*
X133088546Y-84295317D01*
X133062300Y-84267508D01*
X133042445Y-84233401D01*
X133030380Y-84194453D01*
X133026081Y-84147184D01*
X133026564Y-84142665D01*
X133194120Y-84142665D01*
X133200436Y-84177408D01*
X133218361Y-84202688D01*
X133246091Y-84218635D01*
X133285650Y-84224487D01*
X133320487Y-84219870D01*
X133352267Y-84206107D01*
X133381774Y-84184429D01*
X133414122Y-84152252D01*
X133414122Y-84048632D01*
X133348543Y-84048632D01*
X133308381Y-84050311D01*
X133277468Y-84054799D01*
X133249891Y-84062812D01*
X133229658Y-84073178D01*
X133213467Y-84086980D01*
X133202669Y-84102854D01*
X133196338Y-84121105D01*
X133194120Y-84142665D01*
X133026564Y-84142665D01*
X133031527Y-84096272D01*
X133046903Y-84054494D01*
X133072511Y-84018949D01*
X133109063Y-83989525D01*
X133153767Y-83967799D01*
X133211889Y-83951545D01*
X133275887Y-83942510D01*
X133354710Y-83939211D01*
X133414122Y-83939211D01*
X133414122Y-83901964D01*
X133408321Y-83851284D01*
X133400482Y-83831060D01*
X133389209Y-83815075D01*
X133374044Y-83802723D01*
X133353672Y-83793703D01*
X133330046Y-83788688D01*
X133298656Y-83786803D01*
X133256978Y-83789372D01*
X133221842Y-83796573D01*
X133162063Y-83818066D01*
X133118649Y-83839621D01*
X133101740Y-83847276D01*
X133090317Y-83849330D01*
X133077006Y-83844628D01*
X133067419Y-83831133D01*
X133061618Y-83809518D01*
X133059603Y-83781186D01*
X133063023Y-83748152D01*
X133075968Y-83726231D01*
X133109429Y-83704249D01*
X133165483Y-83681596D01*
X133235458Y-83664499D01*
X133313677Y-83657843D01*
X133382682Y-83661645D01*
G37*
G36*
X134332512Y-83677274D02*
G01*
X134346641Y-83687519D01*
X134355018Y-83703744D01*
X134358243Y-83728918D01*
X134358243Y-84189316D01*
X134427913Y-84189316D01*
X134444716Y-84191380D01*
X134454230Y-84196460D01*
X134459772Y-84205719D01*
X134462107Y-84223998D01*
X134462107Y-84528264D01*
X134458688Y-84538766D01*
X134446353Y-84546277D01*
X134423150Y-84551039D01*
X134386941Y-84552749D01*
X134351465Y-84551039D01*
X134328567Y-84546277D01*
X134316233Y-84538827D01*
X134312508Y-84528325D01*
X134312508Y-84330000D01*
X133834342Y-84330000D01*
X133834342Y-84528325D01*
X133830922Y-84538827D01*
X133818588Y-84546277D01*
X133795751Y-84551039D01*
X133760580Y-84552749D01*
X133724371Y-84551039D01*
X133701107Y-84546277D01*
X133688834Y-84538766D01*
X133685415Y-84528264D01*
X133685415Y-84223998D01*
X133687477Y-84205596D01*
X133692254Y-84196460D01*
X133701100Y-84191455D01*
X133718876Y-84189316D01*
X133752337Y-84189316D01*
X133921048Y-84189316D01*
X134185441Y-84189316D01*
X134185441Y-83810251D01*
X134039933Y-83810251D01*
X134014654Y-83958628D01*
X133985956Y-84065240D01*
X133969784Y-84107537D01*
X133954204Y-84138635D01*
X133921048Y-84189316D01*
X133752337Y-84189316D01*
X133793309Y-84124347D01*
X133811124Y-84085589D01*
X133829213Y-84034405D01*
X133844656Y-83977877D01*
X133859926Y-83905750D01*
X133886243Y-83726170D01*
X133890640Y-83703944D01*
X133899188Y-83687152D01*
X133913232Y-83676894D01*
X133934054Y-83673475D01*
X134310432Y-83673475D01*
X134332512Y-83677274D01*
G37*
G36*
X134931434Y-83663757D02*
G01*
X134994740Y-83680069D01*
X135050245Y-83707900D01*
X135094146Y-83745404D01*
X135127983Y-83792629D01*
X135152581Y-83851345D01*
X135166650Y-83916877D01*
X135171693Y-83995570D01*
X135166378Y-84071405D01*
X135151177Y-84137841D01*
X135125117Y-84198154D01*
X135089017Y-84248545D01*
X135042595Y-84289363D01*
X134984481Y-84320352D01*
X134918359Y-84338960D01*
X134837630Y-84345631D01*
X134759512Y-84339653D01*
X134696214Y-84323100D01*
X134640676Y-84295018D01*
X134596502Y-84257459D01*
X134562423Y-84210160D01*
X134537761Y-84151458D01*
X134523681Y-84086002D01*
X134518649Y-84007904D01*
X134519135Y-84001065D01*
X134695542Y-84001065D01*
X134697495Y-84045215D01*
X134703053Y-84084108D01*
X134713126Y-84120253D01*
X134727294Y-84150054D01*
X134747023Y-84174927D01*
X134772723Y-84193468D01*
X134803646Y-84204744D01*
X134843797Y-84208855D01*
X134880983Y-84205183D01*
X134911392Y-84194872D01*
X134937487Y-84177717D01*
X134958531Y-84154206D01*
X134974259Y-84125454D01*
X134985825Y-84089603D01*
X134992382Y-84050216D01*
X134994740Y-84003080D01*
X134992865Y-83958974D01*
X134987534Y-83920099D01*
X134977654Y-83883935D01*
X134963293Y-83854092D01*
X134943387Y-83829120D01*
X134917864Y-83810373D01*
X134887150Y-83798850D01*
X134846484Y-83794619D01*
X134809891Y-83798290D01*
X134779562Y-83808663D01*
X134753496Y-83825838D01*
X134732423Y-83849635D01*
X134716599Y-83878643D01*
X134704762Y-83914603D01*
X134697980Y-83953950D01*
X134695542Y-84001065D01*
X134519135Y-84001065D01*
X134524036Y-83932043D01*
X134539471Y-83865327D01*
X134565838Y-83804750D01*
X134601936Y-83754624D01*
X134648330Y-83714038D01*
X134706167Y-83683183D01*
X134772026Y-83664537D01*
X134852712Y-83657843D01*
X134931434Y-83663757D01*
G37*
G36*
X135898011Y-84306552D02*
G01*
X135893920Y-84318520D01*
X135880242Y-84327069D01*
X135853925Y-84332198D01*
X135812648Y-84333907D01*
X135770577Y-84332198D01*
X135744260Y-84327130D01*
X135730643Y-84318642D01*
X135726552Y-84306735D01*
X135726552Y-84068171D01*
X135479928Y-84068171D01*
X135479928Y-84306735D01*
X135475837Y-84318642D01*
X135461793Y-84327130D01*
X135435476Y-84332198D01*
X135393893Y-84333907D01*
X135352189Y-84332198D01*
X135325872Y-84327069D01*
X135311889Y-84318520D01*
X135307798Y-84306552D01*
X135307798Y-83696922D01*
X135311889Y-83684954D01*
X135325872Y-83676406D01*
X135352189Y-83671277D01*
X135393893Y-83669567D01*
X135435476Y-83671277D01*
X135461793Y-83676467D01*
X135475837Y-83685076D01*
X135479928Y-83697166D01*
X135479928Y-83927487D01*
X135726552Y-83927487D01*
X135726552Y-83697166D01*
X135730643Y-83685076D01*
X135744260Y-83676467D01*
X135770577Y-83671277D01*
X135812648Y-83669567D01*
X135853925Y-83671277D01*
X135880242Y-83676406D01*
X135893920Y-83684954D01*
X135898011Y-83696922D01*
X135898011Y-84306552D01*
G37*
G36*
X136446717Y-83663757D02*
G01*
X136510022Y-83680069D01*
X136565528Y-83707900D01*
X136609429Y-83745404D01*
X136643265Y-83792629D01*
X136667864Y-83851345D01*
X136681933Y-83916877D01*
X136686976Y-83995570D01*
X136681661Y-84071405D01*
X136666460Y-84137841D01*
X136640400Y-84198154D01*
X136604300Y-84248545D01*
X136557877Y-84289363D01*
X136499764Y-84320352D01*
X136433642Y-84338960D01*
X136352913Y-84345631D01*
X136274795Y-84339653D01*
X136211496Y-84323100D01*
X136155958Y-84295018D01*
X136111784Y-84257459D01*
X136077705Y-84210160D01*
X136053044Y-84151458D01*
X136038964Y-84086002D01*
X136033932Y-84007904D01*
X136034418Y-84001065D01*
X136210825Y-84001065D01*
X136212778Y-84045215D01*
X136218335Y-84084108D01*
X136228409Y-84120253D01*
X136242576Y-84150054D01*
X136262306Y-84174927D01*
X136288005Y-84193468D01*
X136318929Y-84204744D01*
X136359080Y-84208855D01*
X136396266Y-84205183D01*
X136426674Y-84194872D01*
X136452769Y-84177717D01*
X136473813Y-84154206D01*
X136489542Y-84125454D01*
X136501107Y-84089603D01*
X136507664Y-84050216D01*
X136510022Y-84003080D01*
X136508148Y-83958974D01*
X136502817Y-83920099D01*
X136492936Y-83883935D01*
X136478576Y-83854092D01*
X136458670Y-83829120D01*
X136433147Y-83810373D01*
X136402432Y-83798850D01*
X136361767Y-83794619D01*
X136325173Y-83798290D01*
X136294844Y-83808663D01*
X136268779Y-83825838D01*
X136247705Y-83849635D01*
X136231882Y-83878643D01*
X136220045Y-83914603D01*
X136213263Y-83953950D01*
X136210825Y-84001065D01*
X136034418Y-84001065D01*
X136039318Y-83932043D01*
X136054754Y-83865327D01*
X136081120Y-83804750D01*
X136117219Y-83754624D01*
X136163613Y-83714038D01*
X136221449Y-83683183D01*
X136287309Y-83664537D01*
X136367995Y-83657843D01*
X136446717Y-83663757D01*
G37*
G36*
X137144375Y-83668418D02*
G01*
X137199825Y-83675856D01*
X137249814Y-83689224D01*
X137287264Y-83706692D01*
X137317808Y-83730259D01*
X137338494Y-83757616D01*
X137350866Y-83789685D01*
X137355225Y-83828508D01*
X137351718Y-83864090D01*
X137341722Y-83894251D01*
X137325488Y-83920099D01*
X137303518Y-83941358D01*
X137275574Y-83957894D01*
X137240430Y-83969619D01*
X137284653Y-83981612D01*
X137319358Y-83999316D01*
X137346310Y-84022376D01*
X137366444Y-84051284D01*
X137378828Y-84085615D01*
X137383190Y-84126851D01*
X137378107Y-84177016D01*
X137363712Y-84218747D01*
X137339476Y-84254568D01*
X137304605Y-84284387D01*
X137261659Y-84306790D01*
X137205565Y-84324199D01*
X137143435Y-84334155D01*
X137065553Y-84337815D01*
X137016032Y-84337449D01*
X136971641Y-84336472D01*
X136928593Y-84334396D01*
X136882493Y-84330366D01*
X136853730Y-84323691D01*
X136836697Y-84311315D01*
X136826882Y-84292312D01*
X136823080Y-84262405D01*
X136823080Y-84215144D01*
X136983609Y-84215144D01*
X137006507Y-84217526D01*
X137030748Y-84219235D01*
X137054989Y-84220273D01*
X137076543Y-84220579D01*
X137111430Y-84218828D01*
X137138703Y-84214106D01*
X137162990Y-84205872D01*
X137181018Y-84195422D01*
X137195335Y-84181732D01*
X137204954Y-84165807D01*
X137210537Y-84147731D01*
X137212465Y-84127278D01*
X137210571Y-84106370D01*
X137205259Y-84089176D01*
X137195884Y-84074375D01*
X137181385Y-84061943D01*
X137162991Y-84052813D01*
X137137665Y-84045945D01*
X137073124Y-84040816D01*
X136983609Y-84040816D01*
X136983609Y-84215144D01*
X136823080Y-84215144D01*
X136823080Y-83787597D01*
X136983609Y-83787597D01*
X136983609Y-83939211D01*
X137075811Y-83939211D01*
X137129629Y-83933439D01*
X137164288Y-83918695D01*
X137181154Y-83902956D01*
X137191178Y-83883480D01*
X137194696Y-83859038D01*
X137188162Y-83826737D01*
X137179861Y-83813832D01*
X137167341Y-83802801D01*
X137151548Y-83794531D01*
X137129483Y-83787964D01*
X137072391Y-83782896D01*
X137023543Y-83784239D01*
X136983609Y-83787597D01*
X136823080Y-83787597D01*
X136823080Y-83739726D01*
X136826687Y-83710994D01*
X136836025Y-83692526D01*
X136851756Y-83680011D01*
X136875654Y-83673108D01*
X136914916Y-83670422D01*
X136963093Y-83668040D01*
X137017070Y-83666331D01*
X137073796Y-83665659D01*
X137144375Y-83668418D01*
G37*
D10*
X110376800Y-76982017D02*
X110343466Y-77082017D01*
X110343466Y-77082017D02*
X110343466Y-77248684D01*
X110343466Y-77248684D02*
X110376800Y-77315350D01*
X110376800Y-77315350D02*
X110410133Y-77348684D01*
X110410133Y-77348684D02*
X110476800Y-77382017D01*
X110476800Y-77382017D02*
X110543466Y-77382017D01*
X110543466Y-77382017D02*
X110610133Y-77348684D01*
X110610133Y-77348684D02*
X110643466Y-77315350D01*
X110643466Y-77315350D02*
X110676800Y-77248684D01*
X110676800Y-77248684D02*
X110710133Y-77115350D01*
X110710133Y-77115350D02*
X110743466Y-77048684D01*
X110743466Y-77048684D02*
X110776800Y-77015350D01*
X110776800Y-77015350D02*
X110843466Y-76982017D01*
X110843466Y-76982017D02*
X110910133Y-76982017D01*
X110910133Y-76982017D02*
X110976800Y-77015350D01*
X110976800Y-77015350D02*
X111010133Y-77048684D01*
X111010133Y-77048684D02*
X111043466Y-77115350D01*
X111043466Y-77115350D02*
X111043466Y-77282017D01*
X111043466Y-77282017D02*
X111010133Y-77382017D01*
X110810133Y-77682017D02*
X110110133Y-77682017D01*
X110776800Y-77682017D02*
X110810133Y-77748684D01*
X110810133Y-77748684D02*
X110810133Y-77882017D01*
X110810133Y-77882017D02*
X110776800Y-77948684D01*
X110776800Y-77948684D02*
X110743466Y-77982017D01*
X110743466Y-77982017D02*
X110676800Y-78015351D01*
X110676800Y-78015351D02*
X110476800Y-78015351D01*
X110476800Y-78015351D02*
X110410133Y-77982017D01*
X110410133Y-77982017D02*
X110376800Y-77948684D01*
X110376800Y-77948684D02*
X110343466Y-77882017D01*
X110343466Y-77882017D02*
X110343466Y-77748684D01*
X110343466Y-77748684D02*
X110376800Y-77682017D01*
X110343466Y-78315350D02*
X111043466Y-78315350D01*
X110610133Y-78382017D02*
X110343466Y-78582017D01*
X110810133Y-78582017D02*
X110543466Y-78315350D01*
X120999366Y-78950000D02*
X121032700Y-78983333D01*
X121032700Y-78983333D02*
X121066033Y-79083333D01*
X121066033Y-79083333D02*
X121066033Y-79150000D01*
X121066033Y-79150000D02*
X121032700Y-79250000D01*
X121032700Y-79250000D02*
X120966033Y-79316667D01*
X120966033Y-79316667D02*
X120899366Y-79350000D01*
X120899366Y-79350000D02*
X120766033Y-79383333D01*
X120766033Y-79383333D02*
X120666033Y-79383333D01*
X120666033Y-79383333D02*
X120532700Y-79350000D01*
X120532700Y-79350000D02*
X120466033Y-79316667D01*
X120466033Y-79316667D02*
X120399366Y-79250000D01*
X120399366Y-79250000D02*
X120366033Y-79150000D01*
X120366033Y-79150000D02*
X120366033Y-79083333D01*
X120366033Y-79083333D02*
X120399366Y-78983333D01*
X120399366Y-78983333D02*
X120432700Y-78950000D01*
X121066033Y-78283333D02*
X121066033Y-78683333D01*
X121066033Y-78483333D02*
X120366033Y-78483333D01*
X120366033Y-78483333D02*
X120466033Y-78550000D01*
X120466033Y-78550000D02*
X120532700Y-78616667D01*
X120532700Y-78616667D02*
X120566033Y-78683333D01*
X121066033Y-77616666D02*
X121066033Y-78016666D01*
X121066033Y-77816666D02*
X120366033Y-77816666D01*
X120366033Y-77816666D02*
X120466033Y-77883333D01*
X120466033Y-77883333D02*
X120532700Y-77950000D01*
X120532700Y-77950000D02*
X120566033Y-78016666D01*
X126883333Y-73404366D02*
X126850000Y-73437700D01*
X126850000Y-73437700D02*
X126750000Y-73471033D01*
X126750000Y-73471033D02*
X126683333Y-73471033D01*
X126683333Y-73471033D02*
X126583333Y-73437700D01*
X126583333Y-73437700D02*
X126516667Y-73371033D01*
X126516667Y-73371033D02*
X126483333Y-73304366D01*
X126483333Y-73304366D02*
X126450000Y-73171033D01*
X126450000Y-73171033D02*
X126450000Y-73071033D01*
X126450000Y-73071033D02*
X126483333Y-72937700D01*
X126483333Y-72937700D02*
X126516667Y-72871033D01*
X126516667Y-72871033D02*
X126583333Y-72804366D01*
X126583333Y-72804366D02*
X126683333Y-72771033D01*
X126683333Y-72771033D02*
X126750000Y-72771033D01*
X126750000Y-72771033D02*
X126850000Y-72804366D01*
X126850000Y-72804366D02*
X126883333Y-72837700D01*
X127150000Y-72837700D02*
X127183333Y-72804366D01*
X127183333Y-72804366D02*
X127250000Y-72771033D01*
X127250000Y-72771033D02*
X127416667Y-72771033D01*
X127416667Y-72771033D02*
X127483333Y-72804366D01*
X127483333Y-72804366D02*
X127516667Y-72837700D01*
X127516667Y-72837700D02*
X127550000Y-72904366D01*
X127550000Y-72904366D02*
X127550000Y-72971033D01*
X127550000Y-72971033D02*
X127516667Y-73071033D01*
X127516667Y-73071033D02*
X127116667Y-73471033D01*
X127116667Y-73471033D02*
X127550000Y-73471033D01*
X126999366Y-78950000D02*
X127032700Y-78983333D01*
X127032700Y-78983333D02*
X127066033Y-79083333D01*
X127066033Y-79083333D02*
X127066033Y-79150000D01*
X127066033Y-79150000D02*
X127032700Y-79250000D01*
X127032700Y-79250000D02*
X126966033Y-79316667D01*
X126966033Y-79316667D02*
X126899366Y-79350000D01*
X126899366Y-79350000D02*
X126766033Y-79383333D01*
X126766033Y-79383333D02*
X126666033Y-79383333D01*
X126666033Y-79383333D02*
X126532700Y-79350000D01*
X126532700Y-79350000D02*
X126466033Y-79316667D01*
X126466033Y-79316667D02*
X126399366Y-79250000D01*
X126399366Y-79250000D02*
X126366033Y-79150000D01*
X126366033Y-79150000D02*
X126366033Y-79083333D01*
X126366033Y-79083333D02*
X126399366Y-78983333D01*
X126399366Y-78983333D02*
X126432700Y-78950000D01*
X127066033Y-78283333D02*
X127066033Y-78683333D01*
X127066033Y-78483333D02*
X126366033Y-78483333D01*
X126366033Y-78483333D02*
X126466033Y-78550000D01*
X126466033Y-78550000D02*
X126532700Y-78616667D01*
X126532700Y-78616667D02*
X126566033Y-78683333D01*
X126432700Y-78016666D02*
X126399366Y-77983333D01*
X126399366Y-77983333D02*
X126366033Y-77916666D01*
X126366033Y-77916666D02*
X126366033Y-77750000D01*
X126366033Y-77750000D02*
X126399366Y-77683333D01*
X126399366Y-77683333D02*
X126432700Y-77650000D01*
X126432700Y-77650000D02*
X126499366Y-77616666D01*
X126499366Y-77616666D02*
X126566033Y-77616666D01*
X126566033Y-77616666D02*
X126666033Y-77650000D01*
X126666033Y-77650000D02*
X127066033Y-78050000D01*
X127066033Y-78050000D02*
X127066033Y-77616666D01*
X125204819Y-103642857D02*
X124728628Y-103976190D01*
X125204819Y-104214285D02*
X124204819Y-104214285D01*
X124204819Y-104214285D02*
X124204819Y-103833333D01*
X124204819Y-103833333D02*
X124252438Y-103738095D01*
X124252438Y-103738095D02*
X124300057Y-103690476D01*
X124300057Y-103690476D02*
X124395295Y-103642857D01*
X124395295Y-103642857D02*
X124538152Y-103642857D01*
X124538152Y-103642857D02*
X124633390Y-103690476D01*
X124633390Y-103690476D02*
X124681009Y-103738095D01*
X124681009Y-103738095D02*
X124728628Y-103833333D01*
X124728628Y-103833333D02*
X124728628Y-104214285D01*
X125204819Y-102690476D02*
X125204819Y-103261904D01*
X125204819Y-102976190D02*
X124204819Y-102976190D01*
X124204819Y-102976190D02*
X124347676Y-103071428D01*
X124347676Y-103071428D02*
X124442914Y-103166666D01*
X124442914Y-103166666D02*
X124490533Y-103261904D01*
X125204819Y-101738095D02*
X125204819Y-102309523D01*
X125204819Y-102023809D02*
X124204819Y-102023809D01*
X124204819Y-102023809D02*
X124347676Y-102119047D01*
X124347676Y-102119047D02*
X124442914Y-102214285D01*
X124442914Y-102214285D02*
X124490533Y-102309523D01*
X120511905Y-100704819D02*
X120511905Y-99704819D01*
X120511905Y-99704819D02*
X120750000Y-99704819D01*
X120750000Y-99704819D02*
X120892857Y-99752438D01*
X120892857Y-99752438D02*
X120988095Y-99847676D01*
X120988095Y-99847676D02*
X121035714Y-99942914D01*
X121035714Y-99942914D02*
X121083333Y-100133390D01*
X121083333Y-100133390D02*
X121083333Y-100276247D01*
X121083333Y-100276247D02*
X121035714Y-100466723D01*
X121035714Y-100466723D02*
X120988095Y-100561961D01*
X120988095Y-100561961D02*
X120892857Y-100657200D01*
X120892857Y-100657200D02*
X120750000Y-100704819D01*
X120750000Y-100704819D02*
X120511905Y-100704819D01*
X122035714Y-100704819D02*
X121464286Y-100704819D01*
X121750000Y-100704819D02*
X121750000Y-99704819D01*
X121750000Y-99704819D02*
X121654762Y-99847676D01*
X121654762Y-99847676D02*
X121559524Y-99942914D01*
X121559524Y-99942914D02*
X121464286Y-99990533D01*
X120483333Y-75471033D02*
X120483333Y-74771033D01*
X120483333Y-74771033D02*
X120650000Y-74771033D01*
X120650000Y-74771033D02*
X120750000Y-74804366D01*
X120750000Y-74804366D02*
X120816667Y-74871033D01*
X120816667Y-74871033D02*
X120850000Y-74937700D01*
X120850000Y-74937700D02*
X120883333Y-75071033D01*
X120883333Y-75071033D02*
X120883333Y-75171033D01*
X120883333Y-75171033D02*
X120850000Y-75304366D01*
X120850000Y-75304366D02*
X120816667Y-75371033D01*
X120816667Y-75371033D02*
X120750000Y-75437700D01*
X120750000Y-75437700D02*
X120650000Y-75471033D01*
X120650000Y-75471033D02*
X120483333Y-75471033D01*
X121550000Y-75471033D02*
X121150000Y-75471033D01*
X121350000Y-75471033D02*
X121350000Y-74771033D01*
X121350000Y-74771033D02*
X121283333Y-74871033D01*
X121283333Y-74871033D02*
X121216667Y-74937700D01*
X121216667Y-74937700D02*
X121150000Y-74971033D01*
X111249366Y-81200000D02*
X111282700Y-81233333D01*
X111282700Y-81233333D02*
X111316033Y-81333333D01*
X111316033Y-81333333D02*
X111316033Y-81400000D01*
X111316033Y-81400000D02*
X111282700Y-81500000D01*
X111282700Y-81500000D02*
X111216033Y-81566667D01*
X111216033Y-81566667D02*
X111149366Y-81600000D01*
X111149366Y-81600000D02*
X111016033Y-81633333D01*
X111016033Y-81633333D02*
X110916033Y-81633333D01*
X110916033Y-81633333D02*
X110782700Y-81600000D01*
X110782700Y-81600000D02*
X110716033Y-81566667D01*
X110716033Y-81566667D02*
X110649366Y-81500000D01*
X110649366Y-81500000D02*
X110616033Y-81400000D01*
X110616033Y-81400000D02*
X110616033Y-81333333D01*
X110616033Y-81333333D02*
X110649366Y-81233333D01*
X110649366Y-81233333D02*
X110682700Y-81200000D01*
X111316033Y-80533333D02*
X111316033Y-80933333D01*
X111316033Y-80733333D02*
X110616033Y-80733333D01*
X110616033Y-80733333D02*
X110716033Y-80800000D01*
X110716033Y-80800000D02*
X110782700Y-80866667D01*
X110782700Y-80866667D02*
X110816033Y-80933333D01*
X110616033Y-80100000D02*
X110616033Y-80033333D01*
X110616033Y-80033333D02*
X110649366Y-79966666D01*
X110649366Y-79966666D02*
X110682700Y-79933333D01*
X110682700Y-79933333D02*
X110749366Y-79900000D01*
X110749366Y-79900000D02*
X110882700Y-79866666D01*
X110882700Y-79866666D02*
X111049366Y-79866666D01*
X111049366Y-79866666D02*
X111182700Y-79900000D01*
X111182700Y-79900000D02*
X111249366Y-79933333D01*
X111249366Y-79933333D02*
X111282700Y-79966666D01*
X111282700Y-79966666D02*
X111316033Y-80033333D01*
X111316033Y-80033333D02*
X111316033Y-80100000D01*
X111316033Y-80100000D02*
X111282700Y-80166666D01*
X111282700Y-80166666D02*
X111249366Y-80200000D01*
X111249366Y-80200000D02*
X111182700Y-80233333D01*
X111182700Y-80233333D02*
X111049366Y-80266666D01*
X111049366Y-80266666D02*
X110882700Y-80266666D01*
X110882700Y-80266666D02*
X110749366Y-80233333D01*
X110749366Y-80233333D02*
X110682700Y-80200000D01*
X110682700Y-80200000D02*
X110649366Y-80166666D01*
X110649366Y-80166666D02*
X110616033Y-80100000D01*
X114566666Y-78566033D02*
X114566666Y-77866033D01*
X115299999Y-78499366D02*
X115266666Y-78532700D01*
X115266666Y-78532700D02*
X115166666Y-78566033D01*
X115166666Y-78566033D02*
X115099999Y-78566033D01*
X115099999Y-78566033D02*
X114999999Y-78532700D01*
X114999999Y-78532700D02*
X114933333Y-78466033D01*
X114933333Y-78466033D02*
X114899999Y-78399366D01*
X114899999Y-78399366D02*
X114866666Y-78266033D01*
X114866666Y-78266033D02*
X114866666Y-78166033D01*
X114866666Y-78166033D02*
X114899999Y-78032700D01*
X114899999Y-78032700D02*
X114933333Y-77966033D01*
X114933333Y-77966033D02*
X114999999Y-77899366D01*
X114999999Y-77899366D02*
X115099999Y-77866033D01*
X115099999Y-77866033D02*
X115166666Y-77866033D01*
X115166666Y-77866033D02*
X115266666Y-77899366D01*
X115266666Y-77899366D02*
X115299999Y-77932700D01*
X115966666Y-78566033D02*
X115566666Y-78566033D01*
X115766666Y-78566033D02*
X115766666Y-77866033D01*
X115766666Y-77866033D02*
X115699999Y-77966033D01*
X115699999Y-77966033D02*
X115633333Y-78032700D01*
X115633333Y-78032700D02*
X115566666Y-78066033D01*
X111319642Y-103109580D02*
X111272023Y-103157200D01*
X111272023Y-103157200D02*
X111129166Y-103204819D01*
X111129166Y-103204819D02*
X111033928Y-103204819D01*
X111033928Y-103204819D02*
X110891071Y-103157200D01*
X110891071Y-103157200D02*
X110795833Y-103061961D01*
X110795833Y-103061961D02*
X110748214Y-102966723D01*
X110748214Y-102966723D02*
X110700595Y-102776247D01*
X110700595Y-102776247D02*
X110700595Y-102633390D01*
X110700595Y-102633390D02*
X110748214Y-102442914D01*
X110748214Y-102442914D02*
X110795833Y-102347676D01*
X110795833Y-102347676D02*
X110891071Y-102252438D01*
X110891071Y-102252438D02*
X111033928Y-102204819D01*
X111033928Y-102204819D02*
X111129166Y-102204819D01*
X111129166Y-102204819D02*
X111272023Y-102252438D01*
X111272023Y-102252438D02*
X111319642Y-102300057D01*
X112272023Y-103204819D02*
X111700595Y-103204819D01*
X111986309Y-103204819D02*
X111986309Y-102204819D01*
X111986309Y-102204819D02*
X111891071Y-102347676D01*
X111891071Y-102347676D02*
X111795833Y-102442914D01*
X111795833Y-102442914D02*
X111700595Y-102490533D01*
X112891071Y-102204819D02*
X112986309Y-102204819D01*
X112986309Y-102204819D02*
X113081547Y-102252438D01*
X113081547Y-102252438D02*
X113129166Y-102300057D01*
X113129166Y-102300057D02*
X113176785Y-102395295D01*
X113176785Y-102395295D02*
X113224404Y-102585771D01*
X113224404Y-102585771D02*
X113224404Y-102823866D01*
X113224404Y-102823866D02*
X113176785Y-103014342D01*
X113176785Y-103014342D02*
X113129166Y-103109580D01*
X113129166Y-103109580D02*
X113081547Y-103157200D01*
X113081547Y-103157200D02*
X112986309Y-103204819D01*
X112986309Y-103204819D02*
X112891071Y-103204819D01*
X112891071Y-103204819D02*
X112795833Y-103157200D01*
X112795833Y-103157200D02*
X112748214Y-103109580D01*
X112748214Y-103109580D02*
X112700595Y-103014342D01*
X112700595Y-103014342D02*
X112652976Y-102823866D01*
X112652976Y-102823866D02*
X112652976Y-102585771D01*
X112652976Y-102585771D02*
X112700595Y-102395295D01*
X112700595Y-102395295D02*
X112748214Y-102300057D01*
X112748214Y-102300057D02*
X112795833Y-102252438D01*
X112795833Y-102252438D02*
X112891071Y-102204819D01*
X127083333Y-98609580D02*
X127035714Y-98657200D01*
X127035714Y-98657200D02*
X126892857Y-98704819D01*
X126892857Y-98704819D02*
X126797619Y-98704819D01*
X126797619Y-98704819D02*
X126654762Y-98657200D01*
X126654762Y-98657200D02*
X126559524Y-98561961D01*
X126559524Y-98561961D02*
X126511905Y-98466723D01*
X126511905Y-98466723D02*
X126464286Y-98276247D01*
X126464286Y-98276247D02*
X126464286Y-98133390D01*
X126464286Y-98133390D02*
X126511905Y-97942914D01*
X126511905Y-97942914D02*
X126559524Y-97847676D01*
X126559524Y-97847676D02*
X126654762Y-97752438D01*
X126654762Y-97752438D02*
X126797619Y-97704819D01*
X126797619Y-97704819D02*
X126892857Y-97704819D01*
X126892857Y-97704819D02*
X127035714Y-97752438D01*
X127035714Y-97752438D02*
X127083333Y-97800057D01*
X127464286Y-97800057D02*
X127511905Y-97752438D01*
X127511905Y-97752438D02*
X127607143Y-97704819D01*
X127607143Y-97704819D02*
X127845238Y-97704819D01*
X127845238Y-97704819D02*
X127940476Y-97752438D01*
X127940476Y-97752438D02*
X127988095Y-97800057D01*
X127988095Y-97800057D02*
X128035714Y-97895295D01*
X128035714Y-97895295D02*
X128035714Y-97990533D01*
X128035714Y-97990533D02*
X127988095Y-98133390D01*
X127988095Y-98133390D02*
X127416667Y-98704819D01*
X127416667Y-98704819D02*
X128035714Y-98704819D01*
X134999366Y-78866666D02*
X135032700Y-78899999D01*
X135032700Y-78899999D02*
X135066033Y-78999999D01*
X135066033Y-78999999D02*
X135066033Y-79066666D01*
X135066033Y-79066666D02*
X135032700Y-79166666D01*
X135032700Y-79166666D02*
X134966033Y-79233333D01*
X134966033Y-79233333D02*
X134899366Y-79266666D01*
X134899366Y-79266666D02*
X134766033Y-79299999D01*
X134766033Y-79299999D02*
X134666033Y-79299999D01*
X134666033Y-79299999D02*
X134532700Y-79266666D01*
X134532700Y-79266666D02*
X134466033Y-79233333D01*
X134466033Y-79233333D02*
X134399366Y-79166666D01*
X134399366Y-79166666D02*
X134366033Y-79066666D01*
X134366033Y-79066666D02*
X134366033Y-78999999D01*
X134366033Y-78999999D02*
X134399366Y-78899999D01*
X134399366Y-78899999D02*
X134432700Y-78866666D01*
X134366033Y-78633333D02*
X134366033Y-78166666D01*
X134366033Y-78166666D02*
X135066033Y-78466666D01*
X114273810Y-106954819D02*
X114273810Y-105954819D01*
X115321428Y-106859580D02*
X115273809Y-106907200D01*
X115273809Y-106907200D02*
X115130952Y-106954819D01*
X115130952Y-106954819D02*
X115035714Y-106954819D01*
X115035714Y-106954819D02*
X114892857Y-106907200D01*
X114892857Y-106907200D02*
X114797619Y-106811961D01*
X114797619Y-106811961D02*
X114750000Y-106716723D01*
X114750000Y-106716723D02*
X114702381Y-106526247D01*
X114702381Y-106526247D02*
X114702381Y-106383390D01*
X114702381Y-106383390D02*
X114750000Y-106192914D01*
X114750000Y-106192914D02*
X114797619Y-106097676D01*
X114797619Y-106097676D02*
X114892857Y-106002438D01*
X114892857Y-106002438D02*
X115035714Y-105954819D01*
X115035714Y-105954819D02*
X115130952Y-105954819D01*
X115130952Y-105954819D02*
X115273809Y-106002438D01*
X115273809Y-106002438D02*
X115321428Y-106050057D01*
X116273809Y-106954819D02*
X115702381Y-106954819D01*
X115988095Y-106954819D02*
X115988095Y-105954819D01*
X115988095Y-105954819D02*
X115892857Y-106097676D01*
X115892857Y-106097676D02*
X115797619Y-106192914D01*
X115797619Y-106192914D02*
X115702381Y-106240533D01*
X133204819Y-103666666D02*
X132728628Y-103999999D01*
X133204819Y-104238094D02*
X132204819Y-104238094D01*
X132204819Y-104238094D02*
X132204819Y-103857142D01*
X132204819Y-103857142D02*
X132252438Y-103761904D01*
X132252438Y-103761904D02*
X132300057Y-103714285D01*
X132300057Y-103714285D02*
X132395295Y-103666666D01*
X132395295Y-103666666D02*
X132538152Y-103666666D01*
X132538152Y-103666666D02*
X132633390Y-103714285D01*
X132633390Y-103714285D02*
X132681009Y-103761904D01*
X132681009Y-103761904D02*
X132728628Y-103857142D01*
X132728628Y-103857142D02*
X132728628Y-104238094D01*
X132204819Y-102761904D02*
X132204819Y-103238094D01*
X132204819Y-103238094D02*
X132681009Y-103285713D01*
X132681009Y-103285713D02*
X132633390Y-103238094D01*
X132633390Y-103238094D02*
X132585771Y-103142856D01*
X132585771Y-103142856D02*
X132585771Y-102904761D01*
X132585771Y-102904761D02*
X132633390Y-102809523D01*
X132633390Y-102809523D02*
X132681009Y-102761904D01*
X132681009Y-102761904D02*
X132776247Y-102714285D01*
X132776247Y-102714285D02*
X133014342Y-102714285D01*
X133014342Y-102714285D02*
X133109580Y-102761904D01*
X133109580Y-102761904D02*
X133157200Y-102809523D01*
X133157200Y-102809523D02*
X133204819Y-102904761D01*
X133204819Y-102904761D02*
X133204819Y-103142856D01*
X133204819Y-103142856D02*
X133157200Y-103238094D01*
X133157200Y-103238094D02*
X133109580Y-103285713D01*
X129204819Y-103666666D02*
X128728628Y-103999999D01*
X129204819Y-104238094D02*
X128204819Y-104238094D01*
X128204819Y-104238094D02*
X128204819Y-103857142D01*
X128204819Y-103857142D02*
X128252438Y-103761904D01*
X128252438Y-103761904D02*
X128300057Y-103714285D01*
X128300057Y-103714285D02*
X128395295Y-103666666D01*
X128395295Y-103666666D02*
X128538152Y-103666666D01*
X128538152Y-103666666D02*
X128633390Y-103714285D01*
X128633390Y-103714285D02*
X128681009Y-103761904D01*
X128681009Y-103761904D02*
X128728628Y-103857142D01*
X128728628Y-103857142D02*
X128728628Y-104238094D01*
X129204819Y-102714285D02*
X129204819Y-103285713D01*
X129204819Y-102999999D02*
X128204819Y-102999999D01*
X128204819Y-102999999D02*
X128347676Y-103095237D01*
X128347676Y-103095237D02*
X128442914Y-103190475D01*
X128442914Y-103190475D02*
X128490533Y-103285713D01*
X130999366Y-78866666D02*
X131032700Y-78899999D01*
X131032700Y-78899999D02*
X131066033Y-78999999D01*
X131066033Y-78999999D02*
X131066033Y-79066666D01*
X131066033Y-79066666D02*
X131032700Y-79166666D01*
X131032700Y-79166666D02*
X130966033Y-79233333D01*
X130966033Y-79233333D02*
X130899366Y-79266666D01*
X130899366Y-79266666D02*
X130766033Y-79299999D01*
X130766033Y-79299999D02*
X130666033Y-79299999D01*
X130666033Y-79299999D02*
X130532700Y-79266666D01*
X130532700Y-79266666D02*
X130466033Y-79233333D01*
X130466033Y-79233333D02*
X130399366Y-79166666D01*
X130399366Y-79166666D02*
X130366033Y-79066666D01*
X130366033Y-79066666D02*
X130366033Y-78999999D01*
X130366033Y-78999999D02*
X130399366Y-78899999D01*
X130399366Y-78899999D02*
X130432700Y-78866666D01*
X130599366Y-78266666D02*
X131066033Y-78266666D01*
X130332700Y-78433333D02*
X130832700Y-78599999D01*
X130832700Y-78599999D02*
X130832700Y-78166666D01*
X123204819Y-103642857D02*
X122728628Y-103976190D01*
X123204819Y-104214285D02*
X122204819Y-104214285D01*
X122204819Y-104214285D02*
X122204819Y-103833333D01*
X122204819Y-103833333D02*
X122252438Y-103738095D01*
X122252438Y-103738095D02*
X122300057Y-103690476D01*
X122300057Y-103690476D02*
X122395295Y-103642857D01*
X122395295Y-103642857D02*
X122538152Y-103642857D01*
X122538152Y-103642857D02*
X122633390Y-103690476D01*
X122633390Y-103690476D02*
X122681009Y-103738095D01*
X122681009Y-103738095D02*
X122728628Y-103833333D01*
X122728628Y-103833333D02*
X122728628Y-104214285D01*
X123204819Y-102690476D02*
X123204819Y-103261904D01*
X123204819Y-102976190D02*
X122204819Y-102976190D01*
X122204819Y-102976190D02*
X122347676Y-103071428D01*
X122347676Y-103071428D02*
X122442914Y-103166666D01*
X122442914Y-103166666D02*
X122490533Y-103261904D01*
X122300057Y-102309523D02*
X122252438Y-102261904D01*
X122252438Y-102261904D02*
X122204819Y-102166666D01*
X122204819Y-102166666D02*
X122204819Y-101928571D01*
X122204819Y-101928571D02*
X122252438Y-101833333D01*
X122252438Y-101833333D02*
X122300057Y-101785714D01*
X122300057Y-101785714D02*
X122395295Y-101738095D01*
X122395295Y-101738095D02*
X122490533Y-101738095D01*
X122490533Y-101738095D02*
X122633390Y-101785714D01*
X122633390Y-101785714D02*
X123204819Y-102357142D01*
X123204819Y-102357142D02*
X123204819Y-101738095D01*
X137204819Y-103666666D02*
X136728628Y-103999999D01*
X137204819Y-104238094D02*
X136204819Y-104238094D01*
X136204819Y-104238094D02*
X136204819Y-103857142D01*
X136204819Y-103857142D02*
X136252438Y-103761904D01*
X136252438Y-103761904D02*
X136300057Y-103714285D01*
X136300057Y-103714285D02*
X136395295Y-103666666D01*
X136395295Y-103666666D02*
X136538152Y-103666666D01*
X136538152Y-103666666D02*
X136633390Y-103714285D01*
X136633390Y-103714285D02*
X136681009Y-103761904D01*
X136681009Y-103761904D02*
X136728628Y-103857142D01*
X136728628Y-103857142D02*
X136728628Y-104238094D01*
X136538152Y-102809523D02*
X137204819Y-102809523D01*
X136157200Y-103047618D02*
X136871485Y-103285713D01*
X136871485Y-103285713D02*
X136871485Y-102666666D01*
X123488095Y-87454819D02*
X123488095Y-88264342D01*
X123488095Y-88264342D02*
X123535714Y-88359580D01*
X123535714Y-88359580D02*
X123583333Y-88407200D01*
X123583333Y-88407200D02*
X123678571Y-88454819D01*
X123678571Y-88454819D02*
X123869047Y-88454819D01*
X123869047Y-88454819D02*
X123964285Y-88407200D01*
X123964285Y-88407200D02*
X124011904Y-88359580D01*
X124011904Y-88359580D02*
X124059523Y-88264342D01*
X124059523Y-88264342D02*
X124059523Y-87454819D01*
X125059523Y-88454819D02*
X124488095Y-88454819D01*
X124773809Y-88454819D02*
X124773809Y-87454819D01*
X124773809Y-87454819D02*
X124678571Y-87597676D01*
X124678571Y-87597676D02*
X124583333Y-87692914D01*
X124583333Y-87692914D02*
X124488095Y-87740533D01*
X129066033Y-78866666D02*
X128732700Y-79099999D01*
X129066033Y-79266666D02*
X128366033Y-79266666D01*
X128366033Y-79266666D02*
X128366033Y-78999999D01*
X128366033Y-78999999D02*
X128399366Y-78933333D01*
X128399366Y-78933333D02*
X128432700Y-78899999D01*
X128432700Y-78899999D02*
X128499366Y-78866666D01*
X128499366Y-78866666D02*
X128599366Y-78866666D01*
X128599366Y-78866666D02*
X128666033Y-78899999D01*
X128666033Y-78899999D02*
X128699366Y-78933333D01*
X128699366Y-78933333D02*
X128732700Y-78999999D01*
X128732700Y-78999999D02*
X128732700Y-79266666D01*
X129066033Y-78199999D02*
X129066033Y-78599999D01*
X129066033Y-78399999D02*
X128366033Y-78399999D01*
X128366033Y-78399999D02*
X128466033Y-78466666D01*
X128466033Y-78466666D02*
X128532700Y-78533333D01*
X128532700Y-78533333D02*
X128566033Y-78599999D01*
X121083333Y-98609580D02*
X121035714Y-98657200D01*
X121035714Y-98657200D02*
X120892857Y-98704819D01*
X120892857Y-98704819D02*
X120797619Y-98704819D01*
X120797619Y-98704819D02*
X120654762Y-98657200D01*
X120654762Y-98657200D02*
X120559524Y-98561961D01*
X120559524Y-98561961D02*
X120511905Y-98466723D01*
X120511905Y-98466723D02*
X120464286Y-98276247D01*
X120464286Y-98276247D02*
X120464286Y-98133390D01*
X120464286Y-98133390D02*
X120511905Y-97942914D01*
X120511905Y-97942914D02*
X120559524Y-97847676D01*
X120559524Y-97847676D02*
X120654762Y-97752438D01*
X120654762Y-97752438D02*
X120797619Y-97704819D01*
X120797619Y-97704819D02*
X120892857Y-97704819D01*
X120892857Y-97704819D02*
X121035714Y-97752438D01*
X121035714Y-97752438D02*
X121083333Y-97800057D01*
X122035714Y-98704819D02*
X121464286Y-98704819D01*
X121750000Y-98704819D02*
X121750000Y-97704819D01*
X121750000Y-97704819D02*
X121654762Y-97847676D01*
X121654762Y-97847676D02*
X121559524Y-97942914D01*
X121559524Y-97942914D02*
X121464286Y-97990533D01*
X127109580Y-103642857D02*
X127157200Y-103690476D01*
X127157200Y-103690476D02*
X127204819Y-103833333D01*
X127204819Y-103833333D02*
X127204819Y-103928571D01*
X127204819Y-103928571D02*
X127157200Y-104071428D01*
X127157200Y-104071428D02*
X127061961Y-104166666D01*
X127061961Y-104166666D02*
X126966723Y-104214285D01*
X126966723Y-104214285D02*
X126776247Y-104261904D01*
X126776247Y-104261904D02*
X126633390Y-104261904D01*
X126633390Y-104261904D02*
X126442914Y-104214285D01*
X126442914Y-104214285D02*
X126347676Y-104166666D01*
X126347676Y-104166666D02*
X126252438Y-104071428D01*
X126252438Y-104071428D02*
X126204819Y-103928571D01*
X126204819Y-103928571D02*
X126204819Y-103833333D01*
X126204819Y-103833333D02*
X126252438Y-103690476D01*
X126252438Y-103690476D02*
X126300057Y-103642857D01*
X127204819Y-102690476D02*
X127204819Y-103261904D01*
X127204819Y-102976190D02*
X126204819Y-102976190D01*
X126204819Y-102976190D02*
X126347676Y-103071428D01*
X126347676Y-103071428D02*
X126442914Y-103166666D01*
X126442914Y-103166666D02*
X126490533Y-103261904D01*
X126300057Y-102309523D02*
X126252438Y-102261904D01*
X126252438Y-102261904D02*
X126204819Y-102166666D01*
X126204819Y-102166666D02*
X126204819Y-101928571D01*
X126204819Y-101928571D02*
X126252438Y-101833333D01*
X126252438Y-101833333D02*
X126300057Y-101785714D01*
X126300057Y-101785714D02*
X126395295Y-101738095D01*
X126395295Y-101738095D02*
X126490533Y-101738095D01*
X126490533Y-101738095D02*
X126633390Y-101785714D01*
X126633390Y-101785714D02*
X127204819Y-102357142D01*
X127204819Y-102357142D02*
X127204819Y-101738095D01*
X116983333Y-63816033D02*
X116983333Y-63116033D01*
X116983333Y-63116033D02*
X117150000Y-63116033D01*
X117150000Y-63116033D02*
X117250000Y-63149366D01*
X117250000Y-63149366D02*
X117316667Y-63216033D01*
X117316667Y-63216033D02*
X117350000Y-63282700D01*
X117350000Y-63282700D02*
X117383333Y-63416033D01*
X117383333Y-63416033D02*
X117383333Y-63516033D01*
X117383333Y-63516033D02*
X117350000Y-63649366D01*
X117350000Y-63649366D02*
X117316667Y-63716033D01*
X117316667Y-63716033D02*
X117250000Y-63782700D01*
X117250000Y-63782700D02*
X117150000Y-63816033D01*
X117150000Y-63816033D02*
X116983333Y-63816033D01*
X117650000Y-63182700D02*
X117683333Y-63149366D01*
X117683333Y-63149366D02*
X117750000Y-63116033D01*
X117750000Y-63116033D02*
X117916667Y-63116033D01*
X117916667Y-63116033D02*
X117983333Y-63149366D01*
X117983333Y-63149366D02*
X118016667Y-63182700D01*
X118016667Y-63182700D02*
X118050000Y-63249366D01*
X118050000Y-63249366D02*
X118050000Y-63316033D01*
X118050000Y-63316033D02*
X118016667Y-63416033D01*
X118016667Y-63416033D02*
X117616667Y-63816033D01*
X117616667Y-63816033D02*
X118050000Y-63816033D01*
X125066033Y-78950000D02*
X124732700Y-79183333D01*
X125066033Y-79350000D02*
X124366033Y-79350000D01*
X124366033Y-79350000D02*
X124366033Y-79083333D01*
X124366033Y-79083333D02*
X124399366Y-79016667D01*
X124399366Y-79016667D02*
X124432700Y-78983333D01*
X124432700Y-78983333D02*
X124499366Y-78950000D01*
X124499366Y-78950000D02*
X124599366Y-78950000D01*
X124599366Y-78950000D02*
X124666033Y-78983333D01*
X124666033Y-78983333D02*
X124699366Y-79016667D01*
X124699366Y-79016667D02*
X124732700Y-79083333D01*
X124732700Y-79083333D02*
X124732700Y-79350000D01*
X125066033Y-78283333D02*
X125066033Y-78683333D01*
X125066033Y-78483333D02*
X124366033Y-78483333D01*
X124366033Y-78483333D02*
X124466033Y-78550000D01*
X124466033Y-78550000D02*
X124532700Y-78616667D01*
X124532700Y-78616667D02*
X124566033Y-78683333D01*
X125066033Y-77616666D02*
X125066033Y-78016666D01*
X125066033Y-77816666D02*
X124366033Y-77816666D01*
X124366033Y-77816666D02*
X124466033Y-77883333D01*
X124466033Y-77883333D02*
X124532700Y-77950000D01*
X124532700Y-77950000D02*
X124566033Y-78016666D01*
X120883333Y-73499366D02*
X120850000Y-73532700D01*
X120850000Y-73532700D02*
X120750000Y-73566033D01*
X120750000Y-73566033D02*
X120683333Y-73566033D01*
X120683333Y-73566033D02*
X120583333Y-73532700D01*
X120583333Y-73532700D02*
X120516667Y-73466033D01*
X120516667Y-73466033D02*
X120483333Y-73399366D01*
X120483333Y-73399366D02*
X120450000Y-73266033D01*
X120450000Y-73266033D02*
X120450000Y-73166033D01*
X120450000Y-73166033D02*
X120483333Y-73032700D01*
X120483333Y-73032700D02*
X120516667Y-72966033D01*
X120516667Y-72966033D02*
X120583333Y-72899366D01*
X120583333Y-72899366D02*
X120683333Y-72866033D01*
X120683333Y-72866033D02*
X120750000Y-72866033D01*
X120750000Y-72866033D02*
X120850000Y-72899366D01*
X120850000Y-72899366D02*
X120883333Y-72932700D01*
X121550000Y-73566033D02*
X121150000Y-73566033D01*
X121350000Y-73566033D02*
X121350000Y-72866033D01*
X121350000Y-72866033D02*
X121283333Y-72966033D01*
X121283333Y-72966033D02*
X121216667Y-73032700D01*
X121216667Y-73032700D02*
X121150000Y-73066033D01*
X121109580Y-103642857D02*
X121157200Y-103690476D01*
X121157200Y-103690476D02*
X121204819Y-103833333D01*
X121204819Y-103833333D02*
X121204819Y-103928571D01*
X121204819Y-103928571D02*
X121157200Y-104071428D01*
X121157200Y-104071428D02*
X121061961Y-104166666D01*
X121061961Y-104166666D02*
X120966723Y-104214285D01*
X120966723Y-104214285D02*
X120776247Y-104261904D01*
X120776247Y-104261904D02*
X120633390Y-104261904D01*
X120633390Y-104261904D02*
X120442914Y-104214285D01*
X120442914Y-104214285D02*
X120347676Y-104166666D01*
X120347676Y-104166666D02*
X120252438Y-104071428D01*
X120252438Y-104071428D02*
X120204819Y-103928571D01*
X120204819Y-103928571D02*
X120204819Y-103833333D01*
X120204819Y-103833333D02*
X120252438Y-103690476D01*
X120252438Y-103690476D02*
X120300057Y-103642857D01*
X121204819Y-102690476D02*
X121204819Y-103261904D01*
X121204819Y-102976190D02*
X120204819Y-102976190D01*
X120204819Y-102976190D02*
X120347676Y-103071428D01*
X120347676Y-103071428D02*
X120442914Y-103166666D01*
X120442914Y-103166666D02*
X120490533Y-103261904D01*
X121204819Y-101738095D02*
X121204819Y-102309523D01*
X121204819Y-102023809D02*
X120204819Y-102023809D01*
X120204819Y-102023809D02*
X120347676Y-102119047D01*
X120347676Y-102119047D02*
X120442914Y-102214285D01*
X120442914Y-102214285D02*
X120490533Y-102309523D01*
X116761905Y-88704819D02*
X116761905Y-87704819D01*
X116761905Y-87704819D02*
X117000000Y-87704819D01*
X117000000Y-87704819D02*
X117142857Y-87752438D01*
X117142857Y-87752438D02*
X117238095Y-87847676D01*
X117238095Y-87847676D02*
X117285714Y-87942914D01*
X117285714Y-87942914D02*
X117333333Y-88133390D01*
X117333333Y-88133390D02*
X117333333Y-88276247D01*
X117333333Y-88276247D02*
X117285714Y-88466723D01*
X117285714Y-88466723D02*
X117238095Y-88561961D01*
X117238095Y-88561961D02*
X117142857Y-88657200D01*
X117142857Y-88657200D02*
X117000000Y-88704819D01*
X117000000Y-88704819D02*
X116761905Y-88704819D01*
X117714286Y-87800057D02*
X117761905Y-87752438D01*
X117761905Y-87752438D02*
X117857143Y-87704819D01*
X117857143Y-87704819D02*
X118095238Y-87704819D01*
X118095238Y-87704819D02*
X118190476Y-87752438D01*
X118190476Y-87752438D02*
X118238095Y-87800057D01*
X118238095Y-87800057D02*
X118285714Y-87895295D01*
X118285714Y-87895295D02*
X118285714Y-87990533D01*
X118285714Y-87990533D02*
X118238095Y-88133390D01*
X118238095Y-88133390D02*
X117666667Y-88704819D01*
X117666667Y-88704819D02*
X118285714Y-88704819D01*
X137066033Y-78866666D02*
X136732700Y-79099999D01*
X137066033Y-79266666D02*
X136366033Y-79266666D01*
X136366033Y-79266666D02*
X136366033Y-78999999D01*
X136366033Y-78999999D02*
X136399366Y-78933333D01*
X136399366Y-78933333D02*
X136432700Y-78899999D01*
X136432700Y-78899999D02*
X136499366Y-78866666D01*
X136499366Y-78866666D02*
X136599366Y-78866666D01*
X136599366Y-78866666D02*
X136666033Y-78899999D01*
X136666033Y-78899999D02*
X136699366Y-78933333D01*
X136699366Y-78933333D02*
X136732700Y-78999999D01*
X136732700Y-78999999D02*
X136732700Y-79266666D01*
X136599366Y-78266666D02*
X137066033Y-78266666D01*
X136332700Y-78433333D02*
X136832700Y-78599999D01*
X136832700Y-78599999D02*
X136832700Y-78166666D01*
X123066033Y-78950000D02*
X122732700Y-79183333D01*
X123066033Y-79350000D02*
X122366033Y-79350000D01*
X122366033Y-79350000D02*
X122366033Y-79083333D01*
X122366033Y-79083333D02*
X122399366Y-79016667D01*
X122399366Y-79016667D02*
X122432700Y-78983333D01*
X122432700Y-78983333D02*
X122499366Y-78950000D01*
X122499366Y-78950000D02*
X122599366Y-78950000D01*
X122599366Y-78950000D02*
X122666033Y-78983333D01*
X122666033Y-78983333D02*
X122699366Y-79016667D01*
X122699366Y-79016667D02*
X122732700Y-79083333D01*
X122732700Y-79083333D02*
X122732700Y-79350000D01*
X123066033Y-78283333D02*
X123066033Y-78683333D01*
X123066033Y-78483333D02*
X122366033Y-78483333D01*
X122366033Y-78483333D02*
X122466033Y-78550000D01*
X122466033Y-78550000D02*
X122532700Y-78616667D01*
X122532700Y-78616667D02*
X122566033Y-78683333D01*
X122432700Y-78016666D02*
X122399366Y-77983333D01*
X122399366Y-77983333D02*
X122366033Y-77916666D01*
X122366033Y-77916666D02*
X122366033Y-77750000D01*
X122366033Y-77750000D02*
X122399366Y-77683333D01*
X122399366Y-77683333D02*
X122432700Y-77650000D01*
X122432700Y-77650000D02*
X122499366Y-77616666D01*
X122499366Y-77616666D02*
X122566033Y-77616666D01*
X122566033Y-77616666D02*
X122666033Y-77650000D01*
X122666033Y-77650000D02*
X123066033Y-78050000D01*
X123066033Y-78050000D02*
X123066033Y-77616666D01*
X133066033Y-78866666D02*
X132732700Y-79099999D01*
X133066033Y-79266666D02*
X132366033Y-79266666D01*
X132366033Y-79266666D02*
X132366033Y-78999999D01*
X132366033Y-78999999D02*
X132399366Y-78933333D01*
X132399366Y-78933333D02*
X132432700Y-78899999D01*
X132432700Y-78899999D02*
X132499366Y-78866666D01*
X132499366Y-78866666D02*
X132599366Y-78866666D01*
X132599366Y-78866666D02*
X132666033Y-78899999D01*
X132666033Y-78899999D02*
X132699366Y-78933333D01*
X132699366Y-78933333D02*
X132732700Y-78999999D01*
X132732700Y-78999999D02*
X132732700Y-79266666D01*
X132366033Y-78233333D02*
X132366033Y-78566666D01*
X132366033Y-78566666D02*
X132699366Y-78599999D01*
X132699366Y-78599999D02*
X132666033Y-78566666D01*
X132666033Y-78566666D02*
X132632700Y-78499999D01*
X132632700Y-78499999D02*
X132632700Y-78333333D01*
X132632700Y-78333333D02*
X132666033Y-78266666D01*
X132666033Y-78266666D02*
X132699366Y-78233333D01*
X132699366Y-78233333D02*
X132766033Y-78199999D01*
X132766033Y-78199999D02*
X132932700Y-78199999D01*
X132932700Y-78199999D02*
X132999366Y-78233333D01*
X132999366Y-78233333D02*
X133032700Y-78266666D01*
X133032700Y-78266666D02*
X133066033Y-78333333D01*
X133066033Y-78333333D02*
X133066033Y-78499999D01*
X133066033Y-78499999D02*
X133032700Y-78566666D01*
X133032700Y-78566666D02*
X132999366Y-78599999D01*
X127083333Y-100704819D02*
X126750000Y-100228628D01*
X126511905Y-100704819D02*
X126511905Y-99704819D01*
X126511905Y-99704819D02*
X126892857Y-99704819D01*
X126892857Y-99704819D02*
X126988095Y-99752438D01*
X126988095Y-99752438D02*
X127035714Y-99800057D01*
X127035714Y-99800057D02*
X127083333Y-99895295D01*
X127083333Y-99895295D02*
X127083333Y-100038152D01*
X127083333Y-100038152D02*
X127035714Y-100133390D01*
X127035714Y-100133390D02*
X126988095Y-100181009D01*
X126988095Y-100181009D02*
X126892857Y-100228628D01*
X126892857Y-100228628D02*
X126511905Y-100228628D01*
X127940476Y-99704819D02*
X127750000Y-99704819D01*
X127750000Y-99704819D02*
X127654762Y-99752438D01*
X127654762Y-99752438D02*
X127607143Y-99800057D01*
X127607143Y-99800057D02*
X127511905Y-99942914D01*
X127511905Y-99942914D02*
X127464286Y-100133390D01*
X127464286Y-100133390D02*
X127464286Y-100514342D01*
X127464286Y-100514342D02*
X127511905Y-100609580D01*
X127511905Y-100609580D02*
X127559524Y-100657200D01*
X127559524Y-100657200D02*
X127654762Y-100704819D01*
X127654762Y-100704819D02*
X127845238Y-100704819D01*
X127845238Y-100704819D02*
X127940476Y-100657200D01*
X127940476Y-100657200D02*
X127988095Y-100609580D01*
X127988095Y-100609580D02*
X128035714Y-100514342D01*
X128035714Y-100514342D02*
X128035714Y-100276247D01*
X128035714Y-100276247D02*
X127988095Y-100181009D01*
X127988095Y-100181009D02*
X127940476Y-100133390D01*
X127940476Y-100133390D02*
X127845238Y-100085771D01*
X127845238Y-100085771D02*
X127654762Y-100085771D01*
X127654762Y-100085771D02*
X127559524Y-100133390D01*
X127559524Y-100133390D02*
X127511905Y-100181009D01*
X127511905Y-100181009D02*
X127464286Y-100276247D01*
X135109580Y-103666666D02*
X135157200Y-103714285D01*
X135157200Y-103714285D02*
X135204819Y-103857142D01*
X135204819Y-103857142D02*
X135204819Y-103952380D01*
X135204819Y-103952380D02*
X135157200Y-104095237D01*
X135157200Y-104095237D02*
X135061961Y-104190475D01*
X135061961Y-104190475D02*
X134966723Y-104238094D01*
X134966723Y-104238094D02*
X134776247Y-104285713D01*
X134776247Y-104285713D02*
X134633390Y-104285713D01*
X134633390Y-104285713D02*
X134442914Y-104238094D01*
X134442914Y-104238094D02*
X134347676Y-104190475D01*
X134347676Y-104190475D02*
X134252438Y-104095237D01*
X134252438Y-104095237D02*
X134204819Y-103952380D01*
X134204819Y-103952380D02*
X134204819Y-103857142D01*
X134204819Y-103857142D02*
X134252438Y-103714285D01*
X134252438Y-103714285D02*
X134300057Y-103666666D01*
X134204819Y-103333332D02*
X134204819Y-102666666D01*
X134204819Y-102666666D02*
X135204819Y-103095237D01*
X131109580Y-103666666D02*
X131157200Y-103714285D01*
X131157200Y-103714285D02*
X131204819Y-103857142D01*
X131204819Y-103857142D02*
X131204819Y-103952380D01*
X131204819Y-103952380D02*
X131157200Y-104095237D01*
X131157200Y-104095237D02*
X131061961Y-104190475D01*
X131061961Y-104190475D02*
X130966723Y-104238094D01*
X130966723Y-104238094D02*
X130776247Y-104285713D01*
X130776247Y-104285713D02*
X130633390Y-104285713D01*
X130633390Y-104285713D02*
X130442914Y-104238094D01*
X130442914Y-104238094D02*
X130347676Y-104190475D01*
X130347676Y-104190475D02*
X130252438Y-104095237D01*
X130252438Y-104095237D02*
X130204819Y-103952380D01*
X130204819Y-103952380D02*
X130204819Y-103857142D01*
X130204819Y-103857142D02*
X130252438Y-103714285D01*
X130252438Y-103714285D02*
X130300057Y-103666666D01*
X130538152Y-102809523D02*
X131204819Y-102809523D01*
X130157200Y-103047618D02*
X130871485Y-103285713D01*
X130871485Y-103285713D02*
X130871485Y-102666666D01*
X126883333Y-75471033D02*
X126650000Y-75137700D01*
X126483333Y-75471033D02*
X126483333Y-74771033D01*
X126483333Y-74771033D02*
X126750000Y-74771033D01*
X126750000Y-74771033D02*
X126816667Y-74804366D01*
X126816667Y-74804366D02*
X126850000Y-74837700D01*
X126850000Y-74837700D02*
X126883333Y-74904366D01*
X126883333Y-74904366D02*
X126883333Y-75004366D01*
X126883333Y-75004366D02*
X126850000Y-75071033D01*
X126850000Y-75071033D02*
X126816667Y-75104366D01*
X126816667Y-75104366D02*
X126750000Y-75137700D01*
X126750000Y-75137700D02*
X126483333Y-75137700D01*
X127483333Y-74771033D02*
X127350000Y-74771033D01*
X127350000Y-74771033D02*
X127283333Y-74804366D01*
X127283333Y-74804366D02*
X127250000Y-74837700D01*
X127250000Y-74837700D02*
X127183333Y-74937700D01*
X127183333Y-74937700D02*
X127150000Y-75071033D01*
X127150000Y-75071033D02*
X127150000Y-75337700D01*
X127150000Y-75337700D02*
X127183333Y-75404366D01*
X127183333Y-75404366D02*
X127216667Y-75437700D01*
X127216667Y-75437700D02*
X127283333Y-75471033D01*
X127283333Y-75471033D02*
X127416667Y-75471033D01*
X127416667Y-75471033D02*
X127483333Y-75437700D01*
X127483333Y-75437700D02*
X127516667Y-75404366D01*
X127516667Y-75404366D02*
X127550000Y-75337700D01*
X127550000Y-75337700D02*
X127550000Y-75171033D01*
X127550000Y-75171033D02*
X127516667Y-75104366D01*
X127516667Y-75104366D02*
X127483333Y-75071033D01*
X127483333Y-75071033D02*
X127416667Y-75037700D01*
X127416667Y-75037700D02*
X127283333Y-75037700D01*
X127283333Y-75037700D02*
X127216667Y-75071033D01*
X127216667Y-75071033D02*
X127183333Y-75104366D01*
X127183333Y-75104366D02*
X127150000Y-75171033D01*
X123716666Y-62866033D02*
X123716666Y-63432700D01*
X123716666Y-63432700D02*
X123750000Y-63499366D01*
X123750000Y-63499366D02*
X123783333Y-63532700D01*
X123783333Y-63532700D02*
X123850000Y-63566033D01*
X123850000Y-63566033D02*
X123983333Y-63566033D01*
X123983333Y-63566033D02*
X124050000Y-63532700D01*
X124050000Y-63532700D02*
X124083333Y-63499366D01*
X124083333Y-63499366D02*
X124116666Y-63432700D01*
X124116666Y-63432700D02*
X124116666Y-62866033D01*
X124816666Y-63566033D02*
X124416666Y-63566033D01*
X124616666Y-63566033D02*
X124616666Y-62866033D01*
X124616666Y-62866033D02*
X124549999Y-62966033D01*
X124549999Y-62966033D02*
X124483333Y-63032700D01*
X124483333Y-63032700D02*
X124416666Y-63066033D01*
D12*
X120015000Y-81666253D02*
X120015000Y-81143747D01*
X121485000Y-81666253D02*
X121485000Y-81143747D01*
X124511253Y-72420000D02*
X123988747Y-72420000D01*
X124511253Y-73890000D02*
X123988747Y-73890000D01*
X126015000Y-81143747D02*
X126015000Y-81666253D01*
X127485000Y-81143747D02*
X127485000Y-81666253D01*
X124015000Y-106727064D02*
X124015000Y-106272936D01*
X125485000Y-106727064D02*
X125485000Y-106272936D01*
X116390000Y-99290000D02*
X116390000Y-101210000D01*
X116390000Y-101210000D02*
X119250000Y-101210000D01*
X119250000Y-99290000D02*
X116390000Y-99290000D01*
X116390000Y-74195000D02*
X116390000Y-76115000D01*
X116390000Y-76115000D02*
X119250000Y-76115000D01*
X119250000Y-74195000D02*
X116390000Y-74195000D01*
X108451247Y-79920000D02*
X108973753Y-79920000D01*
X108451247Y-81390000D02*
X108973753Y-81390000D01*
D13*
X113652000Y-78953000D02*
X116848000Y-78953000D01*
X113652000Y-83857000D02*
X113652000Y-78953000D01*
X116848000Y-78953000D02*
X116848000Y-83857000D01*
X116848000Y-83857000D02*
X113652000Y-83857000D01*
X118725000Y-83985000D02*
X117198000Y-83985000D01*
D14*
X113000000Y-90500000D02*
X114250000Y-90500000D01*
X113625000Y-97750000D02*
X113625000Y-96250000D01*
X114250000Y-97000000D02*
X113000000Y-97000000D01*
X115000000Y-99500000D02*
X105500000Y-99499999D01*
X105500000Y-89000000D01*
X115000000Y-89000000D01*
X115000000Y-99500000D01*
X115000000Y-100750000D02*
X105500000Y-100750000D01*
X105500000Y-87500000D01*
X114999999Y-87500000D01*
X115000000Y-100750000D01*
X130250000Y-98250000D02*
X131500000Y-98250000D01*
X130875000Y-97500000D02*
X130875000Y-99000000D01*
X131375000Y-91750000D02*
X130125000Y-91750000D01*
X129375000Y-87500000D02*
X137875000Y-87500000D01*
X137875000Y-89500000D01*
X129375000Y-89500000D01*
X129375000Y-87500000D01*
X129375000Y-87500000D02*
X137875000Y-87500000D01*
X137875000Y-101000000D01*
X129375000Y-101000000D01*
X129375000Y-87500000D01*
D12*
X108451247Y-105015000D02*
X108973753Y-105015000D01*
X108451247Y-106485000D02*
X108973753Y-106485000D01*
X124511253Y-97515000D02*
X123988747Y-97515000D01*
X124511253Y-98985000D02*
X123988747Y-98985000D01*
X134015000Y-81666253D02*
X134015000Y-81143747D01*
X135485000Y-81666253D02*
X135485000Y-81143747D01*
D13*
X113652000Y-104048000D02*
X116848000Y-104048000D01*
X113652000Y-108952000D02*
X113652000Y-104048000D01*
X116848000Y-104048000D02*
X116848000Y-108952000D01*
X116848000Y-108952000D02*
X113652000Y-108952000D01*
X118725000Y-109080000D02*
X117198000Y-109080000D01*
D12*
X132015000Y-106727064D02*
X132015000Y-106272936D01*
X133485000Y-106727064D02*
X133485000Y-106272936D01*
X128015000Y-106727064D02*
X128015000Y-106272936D01*
X129485000Y-106727064D02*
X129485000Y-106272936D01*
D14*
X130250000Y-73250000D02*
X131500000Y-73250000D01*
X130875000Y-72500000D02*
X130875000Y-74000000D01*
X131375000Y-66750000D02*
X130125000Y-66750000D01*
X129375000Y-62500000D02*
X137875000Y-62500000D01*
X137875000Y-64500000D01*
X129375000Y-64500000D01*
X129375000Y-62500000D01*
X129375000Y-62500000D02*
X137875000Y-62500000D01*
X137875000Y-76000000D01*
X129375000Y-76000000D01*
X129375000Y-62500000D01*
D12*
X130015000Y-81143747D02*
X130015000Y-81666253D01*
X131485000Y-81143747D02*
X131485000Y-81666253D01*
X122015000Y-106272936D02*
X122015000Y-106727064D01*
X123485000Y-106272936D02*
X123485000Y-106727064D01*
X136015000Y-106272936D02*
X136015000Y-106727064D01*
X137485000Y-106272936D02*
X137485000Y-106727064D01*
X122400000Y-89090000D02*
X126160000Y-89090000D01*
X122400000Y-95910000D02*
X126160000Y-95910000D01*
X126160000Y-89090000D02*
X126160000Y-90350000D01*
X126160000Y-95910000D02*
X126160000Y-94650000D01*
X121120000Y-89190000D02*
X120880000Y-88860000D01*
X121360000Y-88860000D01*
X121120000Y-89190000D01*
G36*
X121120000Y-89190000D02*
G01*
X120880000Y-88860000D01*
X121360000Y-88860000D01*
X121120000Y-89190000D01*
G37*
X128015000Y-81632064D02*
X128015000Y-81177936D01*
X129485000Y-81632064D02*
X129485000Y-81177936D01*
X117988747Y-97515000D02*
X118511253Y-97515000D01*
X117988747Y-98985000D02*
X118511253Y-98985000D01*
D14*
X113000000Y-65405000D02*
X114250000Y-65405000D01*
X113625000Y-72655000D02*
X113625000Y-71155000D01*
X114250000Y-71905000D02*
X113000000Y-71905000D01*
X115000000Y-74405000D02*
X105500000Y-74404999D01*
X105500000Y-63905000D01*
X115000000Y-63905000D01*
X115000000Y-74405000D01*
X115000000Y-75655000D02*
X105500000Y-75655000D01*
X105500000Y-62405000D01*
X114999999Y-62405000D01*
X115000000Y-75655000D01*
D12*
X126015000Y-106238747D02*
X126015000Y-106761253D01*
X127485000Y-106238747D02*
X127485000Y-106761253D01*
X115850000Y-70915000D02*
X115850000Y-65405000D01*
X115850000Y-70915000D02*
X119150000Y-70915000D01*
X119150000Y-70915000D02*
X119150000Y-65405000D01*
X124015000Y-81632064D02*
X124015000Y-81177936D01*
X125485000Y-81632064D02*
X125485000Y-81177936D01*
X117988747Y-72420000D02*
X118511253Y-72420000D01*
X117988747Y-73890000D02*
X118511253Y-73890000D01*
X120015000Y-106761253D02*
X120015000Y-106238747D01*
X121485000Y-106761253D02*
X121485000Y-106238747D01*
X115850000Y-96010000D02*
X115850000Y-90500000D01*
X115850000Y-96010000D02*
X119150000Y-96010000D01*
X119150000Y-96010000D02*
X119150000Y-90500000D01*
X136015000Y-81177936D02*
X136015000Y-81632064D01*
X137485000Y-81177936D02*
X137485000Y-81632064D01*
X122015000Y-81177936D02*
X122015000Y-81632064D01*
X123485000Y-81177936D02*
X123485000Y-81632064D01*
X132015000Y-81632064D02*
X132015000Y-81177936D01*
X133485000Y-81632064D02*
X133485000Y-81177936D01*
X124022936Y-99515000D02*
X124477064Y-99515000D01*
X124022936Y-100985000D02*
X124477064Y-100985000D01*
X134015000Y-106761253D02*
X134015000Y-106238747D01*
X135485000Y-106761253D02*
X135485000Y-106238747D01*
X130015000Y-106238747D02*
X130015000Y-106761253D01*
X131485000Y-106238747D02*
X131485000Y-106761253D01*
X124022936Y-74420000D02*
X124477064Y-74420000D01*
X124022936Y-75890000D02*
X124477064Y-75890000D01*
X122400000Y-63995000D02*
X126160000Y-63995000D01*
X122400000Y-70815000D02*
X126160000Y-70815000D01*
X126160000Y-63995000D02*
X126160000Y-65255000D01*
X126160000Y-70815000D02*
X126160000Y-69555000D01*
X121120000Y-64095000D02*
X120880000Y-63765000D01*
X121360000Y-63765000D01*
X121120000Y-64095000D01*
G36*
X121120000Y-64095000D02*
G01*
X120880000Y-63765000D01*
X121360000Y-63765000D01*
X121120000Y-64095000D01*
G37*
%LPC*%
D15*
X120750000Y-82442500D03*
X120750000Y-80367500D03*
D16*
X125287500Y-73155000D03*
X123212500Y-73155000D03*
D17*
X126750000Y-80367500D03*
X126750000Y-82442500D03*
D18*
X124750000Y-107500000D03*
X124750000Y-105500000D03*
D19*
X117225001Y-100250000D03*
X119274999Y-100250000D03*
X117225001Y-75155000D03*
X119274999Y-75155000D03*
D20*
X107750000Y-77905000D03*
D21*
X107675000Y-80655000D03*
X109750000Y-80655000D03*
D22*
X117961000Y-83310000D03*
X117961000Y-82040000D03*
X117961000Y-80770000D03*
X117961000Y-79500000D03*
X112539000Y-79500000D03*
X112539000Y-80770000D03*
X112539000Y-82040000D03*
X112539000Y-83310000D03*
D23*
X108500000Y-97000000D03*
X108500000Y-91500001D03*
D24*
X135875000Y-98250000D03*
D25*
X135875000Y-91750000D03*
D21*
X107675000Y-105750000D03*
X109750000Y-105750000D03*
D16*
X125287500Y-98250000D03*
X123212500Y-98250000D03*
D15*
X134750000Y-82442500D03*
X134750000Y-80367500D03*
D20*
X107750000Y-103000000D03*
D22*
X117961000Y-108405000D03*
X117961000Y-107135000D03*
X117961000Y-105865000D03*
X117961000Y-104595000D03*
X112539000Y-104595000D03*
X112539000Y-105865000D03*
X112539000Y-107135000D03*
X112539000Y-108405000D03*
D18*
X132750000Y-107500000D03*
X132750000Y-105500000D03*
X128750000Y-107500000D03*
X128750000Y-105500000D03*
D24*
X135875000Y-73250000D03*
D25*
X135875000Y-66750000D03*
D17*
X130750000Y-80367500D03*
X130750000Y-82442500D03*
D26*
X122750000Y-105500000D03*
X122750000Y-107500000D03*
X136750000Y-105500000D03*
X136750000Y-107500000D03*
D27*
X121100000Y-90200000D03*
X121100000Y-92500000D03*
D28*
X127400000Y-92500000D03*
D27*
X121100000Y-94800000D03*
D18*
X128750000Y-82405000D03*
X128750000Y-80405000D03*
D21*
X117212500Y-98250000D03*
X119287500Y-98250000D03*
D23*
X108500000Y-71905000D03*
X108500000Y-66405001D03*
D17*
X126750000Y-105462500D03*
X126750000Y-107537500D03*
D29*
X117500000Y-69405001D03*
X117500000Y-65404999D03*
D20*
X107750000Y-108500000D03*
D18*
X124750000Y-82405000D03*
X124750000Y-80405000D03*
D21*
X117212500Y-73155000D03*
X119287500Y-73155000D03*
D15*
X120750000Y-107537500D03*
X120750000Y-105462500D03*
D29*
X117500000Y-94500001D03*
X117500000Y-90499999D03*
D26*
X136750000Y-80405000D03*
X136750000Y-82405000D03*
D20*
X107750000Y-83405000D03*
D26*
X122750000Y-80405000D03*
X122750000Y-82405000D03*
D18*
X132750000Y-82405000D03*
X132750000Y-80405000D03*
D30*
X123250000Y-100250000D03*
X125250000Y-100250000D03*
D15*
X134750000Y-107537500D03*
X134750000Y-105462500D03*
D17*
X130750000Y-105462500D03*
X130750000Y-107537500D03*
D30*
X123250000Y-75155000D03*
X125250000Y-75155000D03*
D27*
X121100000Y-65105000D03*
X121100000Y-67405000D03*
D28*
X127400000Y-67405000D03*
D27*
X121100000Y-69705000D03*
%LPD*%
M02*
