G04 #@! TF.GenerationSoftware,KiCad,Pcbnew,9.0.4*
G04 #@! TF.CreationDate,2025-12-28T16:32:26+01:00*
G04 #@! TF.ProjectId,UWU_AK_V3_Mouse,5557555f-414b-45f5-9633-5f4d6f757365,rev?*
G04 #@! TF.SameCoordinates,Original*
G04 #@! TF.FileFunction,Copper,L4,Bot*
G04 #@! TF.FilePolarity,Positive*
%FSLAX46Y46*%
G04 Gerber Fmt 4.6, Leading zero omitted, Abs format (unit mm)*
G04 Created by KiCad (PCBNEW 9.0.4) date 2025-12-28 16:32:26*
%MOMM*%
%LPD*%
G01*
G04 APERTURE LIST*
G04 Aperture macros list*
%AMRoundRect*
0 Rectangle with rounded corners*
0 $1 Rounding radius*
0 $2 $3 $4 $5 $6 $7 $8 $9 X,Y pos of 4 corners*
0 Add a 4 corners polygon primitive as box body*
4,1,4,$2,$3,$4,$5,$6,$7,$8,$9,$2,$3,0*
0 Add four circle primitives for the rounded corners*
1,1,$1+$1,$2,$3*
1,1,$1+$1,$4,$5*
1,1,$1+$1,$6,$7*
1,1,$1+$1,$8,$9*
0 Add four rect primitives between the rounded corners*
20,1,$1+$1,$2,$3,$4,$5,0*
20,1,$1+$1,$4,$5,$6,$7,0*
20,1,$1+$1,$6,$7,$8,$9,0*
20,1,$1+$1,$8,$9,$2,$3,0*%
%AMFreePoly0*
4,1,6,1.000000,0.000000,0.500000,-0.750000,-0.500000,-0.750000,-0.500000,0.750000,0.500000,0.750000,1.000000,0.000000,1.000000,0.000000,$1*%
%AMFreePoly1*
4,1,6,0.500000,-0.750000,-0.650000,-0.750000,-0.150000,0.000000,-0.650000,0.750000,0.500000,0.750000,0.500000,-0.750000,0.500000,-0.750000,$1*%
G04 Aperture macros list end*
G04 #@! TA.AperFunction,ComponentPad*
%ADD10RoundRect,0.600000X-3.400000X-1.400000X3.400000X-1.400000X3.400000X1.400000X-3.400000X1.400000X0*%
G04 #@! TD*
G04 #@! TA.AperFunction,ComponentPad*
%ADD11RoundRect,0.525000X3.475000X1.225000X-3.475000X1.225000X-3.475000X-1.225000X3.475000X-1.225000X0*%
G04 #@! TD*
G04 #@! TA.AperFunction,SMDPad,CuDef*
%ADD12RoundRect,0.250000X0.450000X-0.350000X0.450000X0.350000X-0.450000X0.350000X-0.450000X-0.350000X0*%
G04 #@! TD*
G04 #@! TA.AperFunction,SMDPad,CuDef*
%ADD13RoundRect,0.250000X0.475000X-0.337500X0.475000X0.337500X-0.475000X0.337500X-0.475000X-0.337500X0*%
G04 #@! TD*
G04 #@! TA.AperFunction,SMDPad,CuDef*
%ADD14RoundRect,0.250000X0.250000X0.750000X-0.250000X0.750000X-0.250000X-0.750000X0.250000X-0.750000X0*%
G04 #@! TD*
G04 #@! TA.AperFunction,SMDPad,CuDef*
%ADD15RoundRect,0.100000X-0.637500X-0.100000X0.637500X-0.100000X0.637500X0.100000X-0.637500X0.100000X0*%
G04 #@! TD*
G04 #@! TA.AperFunction,SMDPad,CuDef*
%ADD16RoundRect,0.250000X-0.475000X0.337500X-0.475000X-0.337500X0.475000X-0.337500X0.475000X0.337500X0*%
G04 #@! TD*
G04 #@! TA.AperFunction,SMDPad,CuDef*
%ADD17RoundRect,0.500000X-1.500000X0.500000X-1.500000X-0.500000X1.500000X-0.500000X1.500000X0.500000X0*%
G04 #@! TD*
G04 #@! TA.AperFunction,SMDPad,CuDef*
%ADD18RoundRect,0.250000X-0.450000X0.350000X-0.450000X-0.350000X0.450000X-0.350000X0.450000X0.350000X0*%
G04 #@! TD*
G04 #@! TA.AperFunction,SMDPad,CuDef*
%ADD19RoundRect,0.250000X-0.750000X0.250000X-0.750000X-0.250000X0.750000X-0.250000X0.750000X0.250000X0*%
G04 #@! TD*
G04 #@! TA.AperFunction,SMDPad,CuDef*
%ADD20FreePoly0,270.000000*%
G04 #@! TD*
G04 #@! TA.AperFunction,SMDPad,CuDef*
%ADD21FreePoly1,270.000000*%
G04 #@! TD*
G04 #@! TA.AperFunction,SMDPad,CuDef*
%ADD22RoundRect,0.250000X-0.450000X0.325000X-0.450000X-0.325000X0.450000X-0.325000X0.450000X0.325000X0*%
G04 #@! TD*
G04 #@! TA.AperFunction,SMDPad,CuDef*
%ADD23RoundRect,0.500000X1.500000X-0.500000X1.500000X0.500000X-1.500000X0.500000X-1.500000X-0.500000X0*%
G04 #@! TD*
G04 #@! TA.AperFunction,SMDPad,CuDef*
%ADD24RoundRect,0.150000X0.150000X-0.587500X0.150000X0.587500X-0.150000X0.587500X-0.150000X-0.587500X0*%
G04 #@! TD*
G04 #@! TA.AperFunction,SMDPad,CuDef*
%ADD25RoundRect,0.137500X0.612500X0.137500X-0.612500X0.137500X-0.612500X-0.137500X0.612500X-0.137500X0*%
G04 #@! TD*
G04 #@! TA.AperFunction,ViaPad*
%ADD26C,0.600000*%
G04 #@! TD*
G04 #@! TA.AperFunction,Conductor*
%ADD27C,0.200000*%
G04 #@! TD*
G04 #@! TA.AperFunction,Conductor*
%ADD28C,0.250000*%
G04 #@! TD*
G04 #@! TA.AperFunction,Conductor*
%ADD29C,0.350000*%
G04 #@! TD*
G04 APERTURE END LIST*
D10*
X108500000Y-97000000D03*
D11*
X135875000Y-98250000D03*
X135875000Y-73250000D03*
D10*
X108500000Y-71905000D03*
D12*
X123950000Y-106187500D03*
X123950000Y-104187500D03*
D13*
X109500000Y-83192500D03*
X109500000Y-81117500D03*
X114500000Y-93537500D03*
X114500000Y-91462500D03*
D14*
X121750000Y-89000000D03*
D15*
X114750000Y-107950000D03*
X114750000Y-107300000D03*
X114750000Y-106650000D03*
X114750000Y-106000000D03*
X114750000Y-105350000D03*
X114750000Y-104700000D03*
X114750000Y-104050000D03*
X114750000Y-103400000D03*
X114750000Y-102750000D03*
X114750000Y-102100000D03*
X120475000Y-102100000D03*
X120475000Y-102750000D03*
X120475000Y-103400000D03*
X120475000Y-104050000D03*
X120475000Y-104700000D03*
X120475000Y-105350000D03*
X120475000Y-106000000D03*
X120475000Y-106650000D03*
X120475000Y-107300000D03*
X120475000Y-107950000D03*
D14*
X125250000Y-63905000D03*
D16*
X107750000Y-75080000D03*
X107750000Y-77155000D03*
D17*
X128500000Y-63905000D03*
D12*
X123950000Y-100687500D03*
X123950000Y-98687500D03*
D18*
X112250000Y-91500000D03*
X112250000Y-93500000D03*
X130450000Y-98687500D03*
X130450000Y-100687500D03*
D12*
X130000000Y-69905000D03*
X130000000Y-67905000D03*
D19*
X127500000Y-109000000D03*
D20*
X111500000Y-74930000D03*
D21*
X111500000Y-76380000D03*
D22*
X127250000Y-67880001D03*
X127250000Y-69929999D03*
D23*
X135000000Y-80155000D03*
X135000000Y-83405000D03*
D14*
X121750000Y-63905000D03*
D18*
X111500000Y-81155000D03*
X111500000Y-83155000D03*
D19*
X124750000Y-109000000D03*
D14*
X118250000Y-89000000D03*
X125250000Y-89000000D03*
D17*
X128500000Y-89000000D03*
D22*
X127250000Y-92975001D03*
X127250000Y-95024999D03*
D13*
X109500000Y-108287500D03*
X109500000Y-106212500D03*
D23*
X135000000Y-105250000D03*
D24*
X128200000Y-80780000D03*
X126300000Y-80780000D03*
X127250000Y-78904999D03*
D14*
X123500000Y-63905000D03*
D18*
X130450000Y-79092500D03*
X130450000Y-81092500D03*
D13*
X114500000Y-68442500D03*
X114500000Y-66367500D03*
D12*
X130000000Y-95000000D03*
X130000000Y-93000000D03*
D18*
X130450000Y-104187500D03*
X130450000Y-106187500D03*
D19*
X124750000Y-83905000D03*
D12*
X123950000Y-81092500D03*
X123950000Y-79092500D03*
D18*
X112250000Y-66405000D03*
X112250000Y-68405000D03*
D14*
X120000000Y-63905000D03*
D18*
X111500000Y-106250000D03*
X111500000Y-108250000D03*
D19*
X127500000Y-83905000D03*
D16*
X107750000Y-100175000D03*
X107750000Y-102250000D03*
D14*
X118250000Y-63905000D03*
D24*
X128200000Y-105875000D03*
X126300000Y-105875000D03*
X127250000Y-103999999D03*
D12*
X123950000Y-75592500D03*
X123950000Y-73592500D03*
D25*
X120150000Y-95595001D03*
X120150000Y-96865000D03*
X120150000Y-98135000D03*
X120150000Y-99404999D03*
X114850000Y-99404999D03*
X114850000Y-98135000D03*
X114850000Y-96865000D03*
X114850000Y-95595001D03*
D24*
X128200000Y-100437500D03*
X126300000Y-100437500D03*
X127250000Y-98562499D03*
D25*
X120150000Y-70500001D03*
X120150000Y-71770000D03*
X120150000Y-73040000D03*
X120150000Y-74309999D03*
X114850000Y-74309999D03*
X114850000Y-73040000D03*
X114850000Y-71770000D03*
X114850000Y-70500001D03*
D14*
X120000000Y-89000000D03*
D17*
X115000000Y-89000000D03*
X135000000Y-102000000D03*
X135000000Y-76905000D03*
D16*
X107499999Y-106212500D03*
X107499999Y-108287500D03*
D15*
X114750000Y-82855000D03*
X114750000Y-82205000D03*
X114750000Y-81555000D03*
X114750000Y-80905000D03*
X114750000Y-80255000D03*
X114750000Y-79605000D03*
X114750000Y-78955000D03*
X114750000Y-78305000D03*
X114750000Y-77655000D03*
X114750000Y-77005000D03*
X120475000Y-77005000D03*
X120475000Y-77655000D03*
X120475000Y-78305000D03*
X120475000Y-78955000D03*
X120475000Y-79605000D03*
X120475000Y-80255000D03*
X120475000Y-80905000D03*
X120475000Y-81555000D03*
X120475000Y-82205000D03*
X120475000Y-82855000D03*
D20*
X111500000Y-100025000D03*
D21*
X111500000Y-101475000D03*
D16*
X107499999Y-81117500D03*
X107499999Y-83192500D03*
D18*
X130450000Y-73592500D03*
X130450000Y-75592500D03*
D23*
X135000000Y-108500000D03*
D17*
X115000000Y-63905000D03*
D14*
X123500000Y-89000000D03*
D24*
X128200000Y-75342500D03*
X126300000Y-75342500D03*
X127250000Y-73467499D03*
D26*
X113500000Y-69405000D03*
X108000000Y-88500000D03*
X136500000Y-69905000D03*
X132000000Y-109250000D03*
X114000000Y-109250000D03*
X134000000Y-63655000D03*
X135250000Y-95000000D03*
X134000000Y-88750000D03*
X128750000Y-72155000D03*
X113500000Y-94500000D03*
X132750000Y-88750000D03*
X121500000Y-73905000D03*
X121500000Y-99000000D03*
X108000000Y-63405000D03*
X134000000Y-69905000D03*
X130000000Y-109250000D03*
X132750000Y-69905000D03*
X109000000Y-63405000D03*
X109000000Y-88500000D03*
X132750000Y-63655000D03*
X135750000Y-78405000D03*
X133750000Y-103500000D03*
X133750000Y-78405000D03*
X106500000Y-79655000D03*
X135250000Y-63655000D03*
X132000000Y-84155000D03*
X110000000Y-63405000D03*
X135250000Y-88750000D03*
X106500000Y-104750000D03*
X136500000Y-95000000D03*
X119279009Y-107625421D03*
X129000000Y-101500000D03*
X119279009Y-82530421D03*
X130000000Y-84155000D03*
X136500000Y-63655000D03*
X131000000Y-84155000D03*
X107000000Y-63405000D03*
X135250000Y-69905000D03*
X107000000Y-88500000D03*
X132000000Y-100500000D03*
X136500000Y-88750000D03*
X132000000Y-75405000D03*
X132750000Y-95000000D03*
X129000000Y-76405000D03*
X131000000Y-109250000D03*
X114000000Y-84155000D03*
X110000000Y-88500000D03*
X134000000Y-95000000D03*
X128750000Y-97250000D03*
X135750000Y-103500000D03*
X124000000Y-93250000D03*
X124750000Y-93250000D03*
X125500000Y-68155000D03*
X110500000Y-104250000D03*
X124000000Y-92500000D03*
X112250000Y-63905000D03*
X125750000Y-103250000D03*
X111500000Y-109500000D03*
X126000000Y-96750000D03*
X125500000Y-94000000D03*
X125500000Y-93250000D03*
X124750000Y-92500000D03*
X124000000Y-68905000D03*
X126000000Y-71655000D03*
X125750000Y-78155000D03*
X131750000Y-78405000D03*
X124000000Y-94000000D03*
X124750000Y-68905000D03*
X125500000Y-68905000D03*
X111500000Y-84405000D03*
X125500000Y-92500000D03*
X112250000Y-89000000D03*
X124750000Y-68155000D03*
X131750000Y-103500000D03*
X110500000Y-79155000D03*
X124750000Y-94000000D03*
X116250000Y-82655000D03*
X116250000Y-107750000D03*
X122433733Y-84355001D03*
X122433733Y-109450001D03*
X117000000Y-102250000D03*
X117000000Y-77155000D03*
D27*
X112250000Y-87750000D02*
X112250000Y-85250000D01*
X112250000Y-85250000D02*
X112750000Y-84750000D01*
X128500000Y-85000000D02*
X128500000Y-87500000D01*
D28*
X124750000Y-96750000D02*
X126000000Y-96750000D01*
D27*
X107725000Y-108475000D02*
X107500000Y-108250000D01*
D29*
X113250000Y-82655000D02*
X112750000Y-83155000D01*
X115000000Y-89000000D02*
X112250000Y-89000000D01*
X115750000Y-94250000D02*
X115750000Y-91750000D01*
X112750000Y-108250000D02*
X107500000Y-108250000D01*
D28*
X123950000Y-104187500D02*
X124812500Y-104187500D01*
D29*
X115000000Y-63905000D02*
X112250000Y-63905000D01*
X115750000Y-66655000D02*
X115500000Y-66405000D01*
X115500000Y-66405000D02*
X112250000Y-66405000D01*
X113250000Y-107750000D02*
X112750000Y-108250000D01*
X114850000Y-95150000D02*
X115000000Y-95000000D01*
X131750000Y-79405000D02*
X131750000Y-78405000D01*
D28*
X124750000Y-71655000D02*
X126000000Y-71655000D01*
D29*
X114750000Y-80905000D02*
X113500000Y-80905000D01*
X115000000Y-95000000D02*
X115750000Y-94250000D01*
X111500000Y-109500000D02*
X111500000Y-108250000D01*
D28*
X123950000Y-98687500D02*
X123950000Y-97550000D01*
D29*
X131750000Y-104500000D02*
X131750000Y-103500000D01*
D28*
X123950000Y-79092500D02*
X124812500Y-79092500D01*
D29*
X114750000Y-106000000D02*
X113500000Y-106000000D01*
X113500000Y-80905000D02*
X113250000Y-81155000D01*
D28*
X123950000Y-73592500D02*
X123950000Y-72455000D01*
D29*
X111500000Y-84405000D02*
X111500000Y-83155000D01*
X114850000Y-95595001D02*
X114850000Y-95150000D01*
D28*
X123950000Y-97550000D02*
X124750000Y-96750000D01*
D29*
X112750000Y-83155000D02*
X107500000Y-83155000D01*
D28*
X124812500Y-104187500D02*
X125750000Y-103250000D01*
D29*
X113250000Y-81155000D02*
X113250000Y-82655000D01*
X115750000Y-69155000D02*
X115750000Y-66655000D01*
X135000000Y-105250000D02*
X132500000Y-105250000D01*
X113500000Y-106000000D02*
X113250000Y-106250000D01*
X115500000Y-91500000D02*
X112250000Y-91500000D01*
X135000000Y-80155000D02*
X132500000Y-80155000D01*
X114850000Y-70055000D02*
X115000000Y-69905000D01*
X113250000Y-106250000D02*
X113250000Y-107750000D01*
D28*
X124812500Y-79092500D02*
X125750000Y-78155000D01*
D29*
X115750000Y-91750000D02*
X115500000Y-91500000D01*
X115000000Y-69905000D02*
X115750000Y-69155000D01*
X114500000Y-91462500D02*
X114500000Y-89250000D01*
X114500000Y-66367500D02*
X114500000Y-64155000D01*
X114850000Y-70500001D02*
X114850000Y-70055000D01*
X132500000Y-80155000D02*
X131750000Y-79405000D01*
X132500000Y-105250000D02*
X131750000Y-104500000D01*
D28*
X123950000Y-72455000D02*
X124750000Y-71655000D01*
D27*
X107725000Y-83380000D02*
X107500000Y-83155000D01*
D28*
X114750000Y-82205000D02*
X115800000Y-82205000D01*
X115800000Y-107300000D02*
X116250000Y-107750000D01*
X115800000Y-82205000D02*
X116250000Y-82655000D01*
X114750000Y-107300000D02*
X115800000Y-107300000D01*
X114750000Y-82855000D02*
X114750000Y-83655000D01*
X114750000Y-107950000D02*
X114750000Y-108750000D01*
X122433733Y-109450001D02*
X115450001Y-109450001D01*
X115450001Y-84355001D02*
X114750000Y-83655000D01*
X115450001Y-109450001D02*
X114750000Y-108750000D01*
X122433733Y-84355001D02*
X115450001Y-84355001D01*
X117000000Y-103500000D02*
X117000000Y-102250000D01*
X116450000Y-78955000D02*
X117000000Y-78405000D01*
X114750000Y-78955000D02*
X116450000Y-78955000D01*
X114750000Y-104050000D02*
X116450000Y-104050000D01*
X117000000Y-78405000D02*
X117000000Y-77155000D01*
X116450000Y-104050000D02*
X117000000Y-103500000D01*
X120150000Y-71770000D02*
X121135000Y-71770000D01*
X120475000Y-103400000D02*
X118650000Y-103400000D01*
X118635000Y-71770000D02*
X120150000Y-71770000D01*
X121500000Y-92500000D02*
X123500000Y-90500000D01*
X121500000Y-71405000D02*
X121500000Y-67405000D01*
X120475000Y-78305000D02*
X118650000Y-78305000D01*
X121500000Y-67405000D02*
X123500000Y-65405000D01*
X118635000Y-96865000D02*
X120150000Y-96865000D01*
X121135000Y-71770000D02*
X121500000Y-71405000D01*
X118250000Y-97250000D02*
X118635000Y-96865000D01*
X123500000Y-90500000D02*
X123500000Y-89500000D01*
X118650000Y-103400000D02*
X118250000Y-103000000D01*
X118250000Y-72155000D02*
X118635000Y-71770000D01*
X118250000Y-77905000D02*
X118250000Y-72155000D01*
X121500000Y-96500000D02*
X121500000Y-92500000D01*
X123500000Y-65405000D02*
X123500000Y-64405000D01*
X118250000Y-103000000D02*
X118250000Y-97250000D01*
X120150000Y-96865000D02*
X121135000Y-96865000D01*
X118650000Y-78305000D02*
X118250000Y-77905000D01*
X121135000Y-96865000D02*
X121500000Y-96500000D01*
X116250000Y-99750000D02*
X117000000Y-99000000D01*
X116250000Y-102250000D02*
X115750000Y-102750000D01*
X117000000Y-69655000D02*
X120000000Y-66655000D01*
X117000000Y-94750000D02*
X120000000Y-91750000D01*
X116250000Y-74655000D02*
X117000000Y-73905000D01*
X116250000Y-99750000D02*
X116250000Y-102250000D01*
X120000000Y-66655000D02*
X120000000Y-63905000D01*
X114850000Y-99404999D02*
X115904999Y-99404999D01*
X115750000Y-102750000D02*
X115250000Y-102750000D01*
X117000000Y-98750000D02*
X117000000Y-94750000D01*
X115904999Y-74309999D02*
X116000000Y-74405000D01*
X115904999Y-99404999D02*
X116000000Y-99500000D01*
X114850000Y-74309999D02*
X115904999Y-74309999D01*
X120000000Y-91750000D02*
X120000000Y-89000000D01*
X116000000Y-99500000D02*
X116250000Y-99750000D01*
X115750000Y-77655000D02*
X115250000Y-77655000D01*
X116250000Y-74655000D02*
X116250000Y-77155000D01*
X117000000Y-73655000D02*
X117000000Y-69655000D01*
X117000000Y-73905000D02*
X117000000Y-73655000D01*
X117000000Y-99000000D02*
X117000000Y-98750000D01*
X116250000Y-77155000D02*
X115750000Y-77655000D01*
X116000000Y-74405000D02*
X116250000Y-74655000D01*
X122750000Y-83405000D02*
X121500000Y-82155000D01*
X123250000Y-109000000D02*
X122750000Y-108500000D01*
X124750000Y-83905000D02*
X123250000Y-83905000D01*
X122750000Y-108500000D02*
X121500000Y-107250000D01*
X123250000Y-83905000D02*
X122750000Y-83405000D01*
X121500000Y-82155000D02*
X120500000Y-82155000D01*
X121500000Y-107250000D02*
X120500000Y-107250000D01*
X124750000Y-109000000D02*
X123250000Y-109000000D01*
X123250000Y-107750000D02*
X127000000Y-107750000D01*
X127000000Y-82655000D02*
X127500000Y-83155000D01*
X120475000Y-81555000D02*
X122150000Y-81555000D01*
X122150000Y-106650000D02*
X123250000Y-107750000D01*
X120475000Y-106650000D02*
X122150000Y-106650000D01*
X127500000Y-108250000D02*
X127500000Y-109000000D01*
X122150000Y-81555000D02*
X123250000Y-82655000D01*
X123250000Y-82655000D02*
X127000000Y-82655000D01*
X127500000Y-83155000D02*
X127500000Y-83905000D01*
X127000000Y-107750000D02*
X127500000Y-108250000D01*
X120475000Y-104700000D02*
X121550000Y-104700000D01*
X126000000Y-98500000D02*
X127250000Y-98500000D01*
X125500000Y-74905000D02*
X125500000Y-73905000D01*
X124812500Y-75592500D02*
X125250000Y-75155000D01*
X122000000Y-76155000D02*
X122500000Y-75655000D01*
X121550000Y-104700000D02*
X122000000Y-104250000D01*
X125500000Y-99000000D02*
X126000000Y-98500000D01*
X122000000Y-104250000D02*
X122000000Y-101250000D01*
X125250000Y-100250000D02*
X125500000Y-100000000D01*
X123950000Y-75592500D02*
X124812500Y-75592500D01*
X125250000Y-75155000D02*
X125500000Y-74905000D01*
X125500000Y-73905000D02*
X126000000Y-73405000D01*
X120475000Y-79605000D02*
X121550000Y-79605000D01*
X122000000Y-79155000D02*
X122000000Y-76155000D01*
X126000000Y-73405000D02*
X127250000Y-73405000D01*
X122500000Y-100750000D02*
X123750000Y-100750000D01*
X122000000Y-101250000D02*
X122500000Y-100750000D01*
X124812500Y-100687500D02*
X125250000Y-100250000D01*
X122500000Y-75655000D02*
X123750000Y-75655000D01*
X125500000Y-100000000D02*
X125500000Y-99000000D01*
X123950000Y-100687500D02*
X124812500Y-100687500D01*
X121550000Y-79605000D02*
X122000000Y-79155000D01*
X128200000Y-75342500D02*
X128200000Y-74205000D01*
X128200000Y-74205000D02*
X128750000Y-73655000D01*
X128750000Y-73655000D02*
X130500000Y-73655000D01*
X128200000Y-100437500D02*
X128200000Y-99300000D01*
X128200000Y-99300000D02*
X128750000Y-98750000D01*
X128750000Y-98750000D02*
X130500000Y-98750000D01*
X115865000Y-98135000D02*
X116250000Y-97750000D01*
X114750000Y-78305000D02*
X113650000Y-78305000D01*
X116250000Y-94250000D02*
X118250000Y-92250000D01*
X114750000Y-103400000D02*
X113650000Y-103400000D01*
X113250000Y-77905000D02*
X113250000Y-73405000D01*
X116250000Y-69155000D02*
X118250000Y-67155000D01*
X115865000Y-73040000D02*
X116250000Y-72655000D01*
X116250000Y-72655000D02*
X116250000Y-69155000D01*
X113650000Y-78305000D02*
X113250000Y-77905000D01*
X113615000Y-98135000D02*
X113250000Y-98500000D01*
X113250000Y-98500000D02*
X113500000Y-98250000D01*
X114850000Y-73040000D02*
X115865000Y-73040000D01*
X113250000Y-103000000D02*
X113250000Y-98500000D01*
X113250000Y-73405000D02*
X113500000Y-73155000D01*
X118250000Y-67155000D02*
X118250000Y-64405000D01*
X114850000Y-98135000D02*
X113615000Y-98135000D01*
X116250000Y-97750000D02*
X116250000Y-94250000D01*
X114850000Y-73040000D02*
X113615000Y-73040000D01*
X113615000Y-73040000D02*
X113250000Y-73405000D01*
X113650000Y-103400000D02*
X113250000Y-103000000D01*
X118250000Y-92250000D02*
X118250000Y-89500000D01*
X114850000Y-98135000D02*
X115865000Y-98135000D01*
X120475000Y-80255000D02*
X122100000Y-80255000D01*
X120475000Y-105350000D02*
X122100000Y-105350000D01*
X124812500Y-106187500D02*
X125250000Y-105750000D01*
X123950000Y-106187500D02*
X124812500Y-106187500D01*
X125500000Y-104500000D02*
X126000000Y-104000000D01*
X125250000Y-80655000D02*
X125500000Y-80405000D01*
X125500000Y-79405000D02*
X126000000Y-78905000D01*
X122750000Y-80905000D02*
X123750000Y-80905000D01*
X123950000Y-81092500D02*
X124812500Y-81092500D01*
X126000000Y-78905000D02*
X127250000Y-78905000D01*
X122100000Y-105350000D02*
X122750000Y-106000000D01*
X125500000Y-105500000D02*
X125500000Y-104500000D01*
X125250000Y-105750000D02*
X125500000Y-105500000D01*
X126000000Y-104000000D02*
X127250000Y-104000000D01*
X122100000Y-80255000D02*
X122750000Y-80905000D01*
X122750000Y-106000000D02*
X123750000Y-106000000D01*
X125500000Y-80405000D02*
X125500000Y-79405000D01*
X124812500Y-81092500D02*
X125250000Y-80655000D01*
X128200000Y-79705000D02*
X128750000Y-79155000D01*
X128200000Y-105875000D02*
X128200000Y-104800000D01*
X128750000Y-104250000D02*
X130000000Y-104250000D01*
X128200000Y-80780000D02*
X128200000Y-79705000D01*
X128200000Y-104800000D02*
X128750000Y-104250000D01*
X128750000Y-79155000D02*
X130000000Y-79155000D01*
X130750000Y-102000000D02*
X130500000Y-101750000D01*
X135000000Y-76905000D02*
X130750000Y-76905000D01*
X130500000Y-101750000D02*
X130500000Y-100750000D01*
X130500000Y-76655000D02*
X130500000Y-75655000D01*
X135000000Y-102000000D02*
X130750000Y-102000000D01*
X130750000Y-76905000D02*
X130500000Y-76655000D01*
D29*
X131500000Y-108500000D02*
X130500000Y-107500000D01*
X130500000Y-107500000D02*
X130500000Y-106250000D01*
X130500000Y-82405000D02*
X130500000Y-81155000D01*
X135000000Y-108500000D02*
X131500000Y-108500000D01*
X135000000Y-83405000D02*
X131500000Y-83405000D01*
X131500000Y-83405000D02*
X130500000Y-82405000D01*
D28*
X113250000Y-71155000D02*
X113250000Y-70155000D01*
X113865000Y-96865000D02*
X113250000Y-96250000D01*
X113250000Y-70155000D02*
X112250000Y-69155000D01*
X113250000Y-96250000D02*
X113250000Y-95250000D01*
X112250000Y-68905000D02*
X112250000Y-68655000D01*
X112250000Y-94250000D02*
X112250000Y-93500000D01*
X114850000Y-71770000D02*
X113865000Y-71770000D01*
X113250000Y-95250000D02*
X112250000Y-94250000D01*
X113865000Y-71770000D02*
X113250000Y-71155000D01*
X114850000Y-96865000D02*
X113865000Y-96865000D01*
X112250000Y-94000000D02*
X112250000Y-93750000D01*
X112250000Y-69155000D02*
X112250000Y-68405000D01*
X118300000Y-78955000D02*
X118250000Y-78905000D01*
X118250000Y-104000000D02*
X117750000Y-103500000D01*
X120250000Y-67655000D02*
X121750000Y-66155000D01*
X120150000Y-70500001D02*
X118654999Y-70500001D01*
X118654999Y-95595001D02*
X117750000Y-96500000D01*
X118300000Y-104050000D02*
X118250000Y-104000000D01*
X117750000Y-78405000D02*
X117750000Y-71405000D01*
X120250000Y-70405000D02*
X120250000Y-67655000D01*
X120250000Y-92750000D02*
X121750000Y-91250000D01*
X118250000Y-78905000D02*
X117750000Y-78405000D01*
X121750000Y-66155000D02*
X121750000Y-63905000D01*
X120475000Y-78955000D02*
X118300000Y-78955000D01*
X120250000Y-95500000D02*
X120250000Y-92750000D01*
X118654999Y-70500001D02*
X117750000Y-71405000D01*
X120475000Y-104050000D02*
X118300000Y-104050000D01*
X120150000Y-95595001D02*
X118654999Y-95595001D01*
X121750000Y-91250000D02*
X121750000Y-89000000D01*
X117750000Y-103500000D02*
X117750000Y-96500000D01*
X118750000Y-77405000D02*
X119000000Y-77655000D01*
X120150000Y-73040000D02*
X120899999Y-73040000D01*
X122000000Y-71939999D02*
X122000000Y-68405000D01*
X120899999Y-98135000D02*
X122000000Y-97034999D01*
X122000000Y-93500000D02*
X125250000Y-90250000D01*
X118750000Y-98500000D02*
X118750000Y-102500000D01*
X125250000Y-65155000D02*
X125250000Y-64155000D01*
X119115000Y-98135000D02*
X118750000Y-98500000D01*
X120150000Y-98135000D02*
X120899999Y-98135000D01*
X120899999Y-73040000D02*
X122000000Y-71939999D01*
X122000000Y-68405000D02*
X125250000Y-65155000D01*
X119115000Y-73040000D02*
X118750000Y-73405000D01*
X118750000Y-73405000D02*
X118750000Y-77405000D01*
X119000000Y-77655000D02*
X120000000Y-77655000D01*
X120150000Y-98135000D02*
X119115000Y-98135000D01*
X119000000Y-102750000D02*
X120000000Y-102750000D01*
X120150000Y-73040000D02*
X119115000Y-73040000D01*
X122000000Y-97034999D02*
X122000000Y-93500000D01*
X125250000Y-90250000D02*
X125250000Y-89250000D01*
X118750000Y-102500000D02*
X119000000Y-102750000D01*
X114750000Y-104700000D02*
X113300000Y-104700000D01*
X112500000Y-106250000D02*
X113000000Y-105750000D01*
X109750000Y-101750000D02*
X111500000Y-101750000D01*
X113300000Y-104700000D02*
X113250000Y-104750000D01*
X111500000Y-81155000D02*
X112500000Y-81155000D01*
X114750000Y-79605000D02*
X113300000Y-79605000D01*
X113300000Y-79605000D02*
X113250000Y-79655000D01*
X111500000Y-101475000D02*
X111500000Y-106250000D01*
X111500000Y-76380000D02*
X111500000Y-81155000D01*
X109250000Y-77155000D02*
X109750000Y-76655000D01*
X113000000Y-79905000D02*
X113250000Y-79655000D01*
X111500000Y-106250000D02*
X112500000Y-106250000D01*
X113000000Y-105000000D02*
X113250000Y-104750000D01*
X113000000Y-80655000D02*
X113000000Y-79905000D01*
X112500000Y-81155000D02*
X113000000Y-80655000D01*
X109750000Y-76655000D02*
X111500000Y-76655000D01*
X107750000Y-102250000D02*
X109250000Y-102250000D01*
X109250000Y-102250000D02*
X109750000Y-101750000D01*
X113000000Y-105750000D02*
X113000000Y-105000000D01*
X107750000Y-77155000D02*
X109250000Y-77155000D01*
X129975001Y-67880001D02*
X130000000Y-67905000D01*
X129975001Y-92975001D02*
X130000000Y-93000000D01*
X127250000Y-92975001D02*
X129975001Y-92975001D01*
X127250000Y-67880001D02*
X129975001Y-67880001D01*
X122500000Y-74405000D02*
X122500000Y-73155000D01*
X122500000Y-98250000D02*
X122500000Y-96250000D01*
X120475000Y-102100000D02*
X120475000Y-101525000D01*
X122500000Y-73155000D02*
X122500000Y-71155000D01*
X120500000Y-76405000D02*
X122500000Y-74405000D01*
X120475000Y-101525000D02*
X120500000Y-101500000D01*
X120475000Y-77005000D02*
X120475000Y-76430000D01*
X123750000Y-95000000D02*
X127250000Y-95000000D01*
X123500000Y-95250000D02*
X123750000Y-95000000D01*
X123750000Y-69905000D02*
X127250000Y-69905000D01*
X120500000Y-101500000D02*
X122500000Y-99500000D01*
X122500000Y-71155000D02*
X123500000Y-70155000D01*
X123500000Y-70155000D02*
X123750000Y-69905000D01*
X122500000Y-96250000D02*
X123500000Y-95250000D01*
X120475000Y-76430000D02*
X120500000Y-76405000D01*
X122500000Y-99500000D02*
X122500000Y-98250000D01*
G04 #@! TA.AperFunction,Conductor*
G36*
X112820842Y-98776287D02*
G01*
X112864884Y-98830527D01*
X112874500Y-98878404D01*
X112874500Y-103049436D01*
X112881215Y-103074499D01*
X112900089Y-103144937D01*
X112900090Y-103144938D01*
X112932169Y-103200500D01*
X112949526Y-103230563D01*
X113349525Y-103630562D01*
X113419438Y-103700475D01*
X113482729Y-103737016D01*
X113505062Y-103749910D01*
X113552811Y-103762705D01*
X113552812Y-103762705D01*
X113562903Y-103765408D01*
X113600564Y-103775500D01*
X113600565Y-103775500D01*
X113639203Y-103775500D01*
X113706242Y-103795185D01*
X113751997Y-103847989D01*
X113761228Y-103912189D01*
X113762324Y-103912269D01*
X113762000Y-103916737D01*
X113762000Y-104183262D01*
X113762324Y-104187731D01*
X113761170Y-104187814D01*
X113752095Y-104251798D01*
X113706440Y-104304688D01*
X113639438Y-104324500D01*
X113250564Y-104324500D01*
X113155063Y-104350089D01*
X113155060Y-104350090D01*
X113069437Y-104399524D01*
X113006478Y-104462485D01*
X113006477Y-104462485D01*
X112769438Y-104699525D01*
X112699527Y-104769435D01*
X112699525Y-104769437D01*
X112699525Y-104769438D01*
X112655214Y-104846187D01*
X112650089Y-104855064D01*
X112645865Y-104870829D01*
X112629861Y-104930559D01*
X112629860Y-104930564D01*
X112624500Y-104950565D01*
X112624500Y-105543100D01*
X112615855Y-105572541D01*
X112609331Y-105602529D01*
X112605577Y-105607543D01*
X112604815Y-105610139D01*
X112588179Y-105630783D01*
X112566690Y-105652271D01*
X112505366Y-105685755D01*
X112435675Y-105680769D01*
X112379745Y-105638900D01*
X112307546Y-105542454D01*
X112259849Y-105506748D01*
X112192335Y-105456206D01*
X112192328Y-105456202D01*
X112057482Y-105405908D01*
X112057483Y-105405908D01*
X111997883Y-105399501D01*
X111997881Y-105399500D01*
X111997873Y-105399500D01*
X111997864Y-105399500D01*
X111994548Y-105399322D01*
X111994615Y-105398065D01*
X111932461Y-105379815D01*
X111886706Y-105327011D01*
X111875500Y-105275500D01*
X111875500Y-102354500D01*
X111895185Y-102287461D01*
X111947989Y-102241706D01*
X111999500Y-102230500D01*
X112250002Y-102230500D01*
X112250003Y-102230499D01*
X112347776Y-102211051D01*
X112430666Y-102155666D01*
X112486051Y-102072776D01*
X112505500Y-101975000D01*
X112505500Y-100825000D01*
X112500643Y-100775417D01*
X112462589Y-100683274D01*
X112392170Y-100612708D01*
X112392169Y-100612707D01*
X112392168Y-100612706D01*
X112392169Y-100612706D01*
X112300109Y-100574462D01*
X112300110Y-100574462D01*
X112200416Y-100574356D01*
X112200414Y-100574357D01*
X112108278Y-100612409D01*
X112108270Y-100612413D01*
X111568783Y-100972071D01*
X111502083Y-100992879D01*
X111434723Y-100974324D01*
X111431217Y-100972071D01*
X110891730Y-100612413D01*
X110891723Y-100612409D01*
X110847775Y-100588948D01*
X110750001Y-100569500D01*
X110749998Y-100569500D01*
X110652228Y-100588947D01*
X110652221Y-100588950D01*
X110569334Y-100644333D01*
X110569333Y-100644334D01*
X110513950Y-100727221D01*
X110513947Y-100727228D01*
X110494500Y-100824995D01*
X110494500Y-101250500D01*
X110474815Y-101317539D01*
X110422011Y-101363294D01*
X110370500Y-101374500D01*
X109700564Y-101374500D01*
X109605063Y-101400089D01*
X109605060Y-101400090D01*
X109519440Y-101449522D01*
X109519435Y-101449526D01*
X109130782Y-101838181D01*
X109103854Y-101852884D01*
X109078036Y-101869477D01*
X109071835Y-101870368D01*
X109069459Y-101871666D01*
X109043101Y-101874500D01*
X108831102Y-101874500D01*
X108764063Y-101854815D01*
X108718308Y-101802011D01*
X108714920Y-101793833D01*
X108668797Y-101670171D01*
X108668793Y-101670164D01*
X108582548Y-101554956D01*
X108582546Y-101554955D01*
X108582546Y-101554954D01*
X108549686Y-101530355D01*
X108546950Y-101526699D01*
X108542797Y-101524803D01*
X108526208Y-101498990D01*
X108507817Y-101474421D01*
X108506801Y-101468792D01*
X108505023Y-101466025D01*
X108500000Y-101431090D01*
X108500000Y-101293279D01*
X108519685Y-101226240D01*
X108558903Y-101187740D01*
X108693345Y-101104815D01*
X108817315Y-100980845D01*
X108909356Y-100831624D01*
X108909358Y-100831619D01*
X108964505Y-100665197D01*
X108964506Y-100665190D01*
X108974999Y-100562486D01*
X108975000Y-100562473D01*
X108975000Y-100425000D01*
X106525001Y-100425000D01*
X106525001Y-100562486D01*
X106535494Y-100665197D01*
X106590641Y-100831619D01*
X106590643Y-100831624D01*
X106682684Y-100980845D01*
X106806654Y-101104815D01*
X106941097Y-101187740D01*
X106947921Y-101195327D01*
X106957203Y-101199566D01*
X106970891Y-101220865D01*
X106987821Y-101239688D01*
X106990465Y-101251323D01*
X106994977Y-101258344D01*
X107000000Y-101293279D01*
X107000000Y-101431090D01*
X106980315Y-101498129D01*
X106950313Y-101530356D01*
X106917451Y-101554956D01*
X106831206Y-101670164D01*
X106831202Y-101670171D01*
X106780910Y-101805013D01*
X106780909Y-101805017D01*
X106774500Y-101864627D01*
X106774500Y-101864634D01*
X106774500Y-101864635D01*
X106774500Y-102635370D01*
X106774501Y-102635376D01*
X106780908Y-102694983D01*
X106831202Y-102829828D01*
X106831206Y-102829835D01*
X106917452Y-102945044D01*
X106917455Y-102945047D01*
X107032664Y-103031293D01*
X107032671Y-103031297D01*
X107167517Y-103081591D01*
X107167516Y-103081591D01*
X107174444Y-103082335D01*
X107227127Y-103088000D01*
X108272872Y-103087999D01*
X108332483Y-103081591D01*
X108467331Y-103031296D01*
X108582546Y-102945046D01*
X108668796Y-102829831D01*
X108680298Y-102798990D01*
X108714920Y-102706167D01*
X108756791Y-102650233D01*
X108822255Y-102625816D01*
X108831102Y-102625500D01*
X109299435Y-102625500D01*
X109299436Y-102625500D01*
X109347186Y-102612705D01*
X109394938Y-102599910D01*
X109480562Y-102550475D01*
X109550475Y-102480562D01*
X109550474Y-102480562D01*
X109869220Y-102161817D01*
X109930543Y-102128334D01*
X109956900Y-102125500D01*
X110487806Y-102125500D01*
X110554845Y-102145185D01*
X110560657Y-102149868D01*
X110569333Y-102155665D01*
X110569334Y-102155666D01*
X110652224Y-102211051D01*
X110652227Y-102211051D01*
X110652228Y-102211052D01*
X110749995Y-102230499D01*
X110749998Y-102230500D01*
X110750000Y-102230500D01*
X111000500Y-102230500D01*
X111067539Y-102250185D01*
X111113294Y-102302989D01*
X111124500Y-102354500D01*
X111124500Y-103796614D01*
X111104815Y-103863653D01*
X111052011Y-103909408D01*
X110982853Y-103919352D01*
X110919297Y-103890327D01*
X110912819Y-103884295D01*
X110838017Y-103809493D01*
X110838011Y-103809488D01*
X110712488Y-103737017D01*
X110712489Y-103737017D01*
X110688402Y-103730563D01*
X110572475Y-103699500D01*
X110427525Y-103699500D01*
X110311598Y-103730563D01*
X110287511Y-103737017D01*
X110161988Y-103809488D01*
X110161982Y-103809493D01*
X110059493Y-103911982D01*
X110059488Y-103911988D01*
X109987017Y-104037511D01*
X109987016Y-104037515D01*
X109949500Y-104177525D01*
X109949500Y-104322475D01*
X109983822Y-104450565D01*
X109987017Y-104462488D01*
X110059488Y-104588011D01*
X110059490Y-104588013D01*
X110059491Y-104588015D01*
X110161985Y-104690509D01*
X110161986Y-104690510D01*
X110161988Y-104690511D01*
X110287511Y-104762982D01*
X110287512Y-104762982D01*
X110287515Y-104762984D01*
X110427525Y-104800500D01*
X110427528Y-104800500D01*
X110572472Y-104800500D01*
X110572475Y-104800500D01*
X110712485Y-104762984D01*
X110838015Y-104690509D01*
X110912819Y-104615705D01*
X110974142Y-104582220D01*
X111043834Y-104587204D01*
X111099767Y-104629076D01*
X111124184Y-104694540D01*
X111124500Y-104703386D01*
X111124500Y-105275500D01*
X111104815Y-105342539D01*
X111052011Y-105388294D01*
X111005389Y-105398450D01*
X111005423Y-105399099D01*
X111005429Y-105399146D01*
X111005426Y-105399146D01*
X111005436Y-105399324D01*
X111002123Y-105399501D01*
X110942516Y-105405908D01*
X110807671Y-105456202D01*
X110807664Y-105456206D01*
X110772766Y-105482331D01*
X110707301Y-105506748D01*
X110639029Y-105491896D01*
X110592917Y-105448161D01*
X110567315Y-105406654D01*
X110443345Y-105282684D01*
X110294124Y-105190643D01*
X110294119Y-105190641D01*
X110127697Y-105135494D01*
X110127690Y-105135493D01*
X110024986Y-105125000D01*
X109750000Y-105125000D01*
X109750000Y-106088500D01*
X109730315Y-106155539D01*
X109677511Y-106201294D01*
X109626000Y-106212500D01*
X109500000Y-106212500D01*
X109500000Y-106338500D01*
X109480315Y-106405539D01*
X109427511Y-106451294D01*
X109376000Y-106462500D01*
X106275000Y-106462500D01*
X106275000Y-106599986D01*
X106285493Y-106702697D01*
X106340640Y-106869119D01*
X106340642Y-106869124D01*
X106432683Y-107018345D01*
X106556653Y-107142315D01*
X106705874Y-107234356D01*
X106705879Y-107234358D01*
X106798139Y-107264930D01*
X106855584Y-107304702D01*
X106882407Y-107369218D01*
X106870092Y-107437994D01*
X106822549Y-107489194D01*
X106802470Y-107498817D01*
X106782673Y-107506201D01*
X106782663Y-107506206D01*
X106667454Y-107592452D01*
X106667451Y-107592455D01*
X106581205Y-107707664D01*
X106581201Y-107707671D01*
X106530909Y-107842513D01*
X106530908Y-107842517D01*
X106524499Y-107902127D01*
X106524499Y-107902134D01*
X106524499Y-107902135D01*
X106524499Y-108672870D01*
X106524500Y-108672876D01*
X106530907Y-108732483D01*
X106581201Y-108867328D01*
X106581205Y-108867335D01*
X106667451Y-108982544D01*
X106667454Y-108982547D01*
X106782663Y-109068793D01*
X106782670Y-109068797D01*
X106917516Y-109119091D01*
X106917515Y-109119091D01*
X106924443Y-109119835D01*
X106977126Y-109125500D01*
X108022871Y-109125499D01*
X108082482Y-109119091D01*
X108217330Y-109068796D01*
X108332545Y-108982546D01*
X108400733Y-108891457D01*
X108456666Y-108849588D01*
X108526358Y-108844604D01*
X108587681Y-108878089D01*
X108599265Y-108891458D01*
X108643353Y-108950351D01*
X108648737Y-108957544D01*
X108667455Y-108982547D01*
X108782664Y-109068793D01*
X108782671Y-109068797D01*
X108917517Y-109119091D01*
X108917516Y-109119091D01*
X108924444Y-109119835D01*
X108977127Y-109125500D01*
X110022872Y-109125499D01*
X110082483Y-109119091D01*
X110217331Y-109068796D01*
X110332546Y-108982546D01*
X110418796Y-108867331D01*
X110418796Y-108867329D01*
X110422590Y-108862262D01*
X110478524Y-108820391D01*
X110548216Y-108815407D01*
X110609539Y-108848892D01*
X110621123Y-108862261D01*
X110692454Y-108957546D01*
X110807664Y-109043793D01*
X110807671Y-109043797D01*
X110933667Y-109090790D01*
X110989600Y-109132661D01*
X111014018Y-109198125D01*
X110999167Y-109266398D01*
X110997722Y-109268971D01*
X110987017Y-109287512D01*
X110987016Y-109287514D01*
X110987016Y-109287515D01*
X110949500Y-109427525D01*
X110949500Y-109572475D01*
X110982009Y-109693797D01*
X110987017Y-109712488D01*
X111045337Y-109813500D01*
X111061810Y-109881400D01*
X111038958Y-109947427D01*
X110984037Y-109990617D01*
X110937950Y-109999500D01*
X106124500Y-109999500D01*
X106057461Y-109979815D01*
X106011706Y-109927011D01*
X106000500Y-109875500D01*
X106000500Y-105825013D01*
X106274999Y-105825013D01*
X106274999Y-105962500D01*
X107249999Y-105962500D01*
X107749999Y-105962500D01*
X109250000Y-105962500D01*
X109250000Y-105125000D01*
X108975029Y-105125000D01*
X108975012Y-105125001D01*
X108872302Y-105135494D01*
X108705880Y-105190641D01*
X108705871Y-105190645D01*
X108565095Y-105277477D01*
X108497703Y-105295917D01*
X108434902Y-105277477D01*
X108294123Y-105190643D01*
X108294118Y-105190641D01*
X108127696Y-105135494D01*
X108127689Y-105135493D01*
X108024985Y-105125000D01*
X107749999Y-105125000D01*
X107749999Y-105962500D01*
X107249999Y-105962500D01*
X107249999Y-105125000D01*
X106975028Y-105125000D01*
X106975011Y-105125001D01*
X106872301Y-105135494D01*
X106705879Y-105190641D01*
X106705874Y-105190643D01*
X106556653Y-105282684D01*
X106432683Y-105406654D01*
X106340642Y-105555875D01*
X106340640Y-105555880D01*
X106285493Y-105722302D01*
X106285492Y-105722309D01*
X106274999Y-105825013D01*
X106000500Y-105825013D01*
X106000500Y-99374500D01*
X106020185Y-99307461D01*
X106072989Y-99261706D01*
X106124500Y-99250500D01*
X106533696Y-99250500D01*
X106600735Y-99270185D01*
X106646490Y-99322989D01*
X106656434Y-99392147D01*
X106639235Y-99439597D01*
X106590643Y-99518375D01*
X106590641Y-99518380D01*
X106535494Y-99684802D01*
X106535493Y-99684809D01*
X106525000Y-99787513D01*
X106525000Y-99925000D01*
X108974999Y-99925000D01*
X108974999Y-99787528D01*
X108974998Y-99787513D01*
X108964505Y-99684802D01*
X108909358Y-99518380D01*
X108909356Y-99518375D01*
X108860765Y-99439597D01*
X108842325Y-99372204D01*
X108863248Y-99305541D01*
X108916890Y-99260771D01*
X108966304Y-99250500D01*
X111973952Y-99250500D01*
X111973954Y-99250500D01*
X112015495Y-99247683D01*
X112195021Y-99203037D01*
X112360753Y-99120842D01*
X112504940Y-99004940D01*
X112620842Y-98860753D01*
X112639411Y-98823310D01*
X112686832Y-98771997D01*
X112754467Y-98754467D01*
X112820842Y-98776287D01*
G37*
G04 #@! TD.AperFunction*
G04 #@! TA.AperFunction,Conductor*
G36*
X113687292Y-108016968D02*
G01*
X113743226Y-108058839D01*
X113766663Y-108115270D01*
X113771926Y-108151391D01*
X113823303Y-108256485D01*
X113906014Y-108339196D01*
X113906015Y-108339196D01*
X113906017Y-108339198D01*
X114011107Y-108390573D01*
X114024031Y-108392456D01*
X114079239Y-108400500D01*
X114079240Y-108400500D01*
X114250500Y-108400500D01*
X114317539Y-108420185D01*
X114363294Y-108472989D01*
X114374500Y-108524500D01*
X114374500Y-108799435D01*
X114400090Y-108894938D01*
X114436237Y-108957546D01*
X114449523Y-108980559D01*
X114449525Y-108980561D01*
X114449526Y-108980563D01*
X115149526Y-109680563D01*
X115219439Y-109750476D01*
X115249989Y-109768114D01*
X115298203Y-109818681D01*
X115311425Y-109887289D01*
X115285456Y-109952153D01*
X115228542Y-109992681D01*
X115187987Y-109999500D01*
X112062050Y-109999500D01*
X111995011Y-109979815D01*
X111949256Y-109927011D01*
X111939312Y-109857853D01*
X111954663Y-109813500D01*
X111991036Y-109750500D01*
X112012984Y-109712485D01*
X112050500Y-109572475D01*
X112050500Y-109427525D01*
X112012984Y-109287515D01*
X112002278Y-109268971D01*
X111985805Y-109201075D01*
X112008656Y-109135047D01*
X112063576Y-109091855D01*
X112066333Y-109090790D01*
X112110007Y-109074501D01*
X112175649Y-109050018D01*
X112192326Y-109043798D01*
X112192326Y-109043797D01*
X112192331Y-109043796D01*
X112307546Y-108957546D01*
X112393796Y-108842331D01*
X112409796Y-108799432D01*
X112425934Y-108756166D01*
X112467806Y-108700233D01*
X112533270Y-108675816D01*
X112542116Y-108675500D01*
X112806016Y-108675500D01*
X112806018Y-108675500D01*
X112914237Y-108646503D01*
X113011263Y-108590485D01*
X113556280Y-108045467D01*
X113617601Y-108011984D01*
X113687292Y-108016968D01*
G37*
G04 #@! TD.AperFunction*
G04 #@! TA.AperFunction,Conductor*
G36*
X131559926Y-99105686D02*
G01*
X131609332Y-99155091D01*
X131624500Y-99214519D01*
X131624500Y-99518558D01*
X131639157Y-99648648D01*
X131639159Y-99648658D01*
X131696877Y-99813604D01*
X131696878Y-99813606D01*
X131789853Y-99961576D01*
X131913424Y-100085147D01*
X132061394Y-100178122D01*
X132226343Y-100235841D01*
X132226349Y-100235841D01*
X132226351Y-100235842D01*
X132267750Y-100240506D01*
X132356442Y-100250499D01*
X132356445Y-100250500D01*
X132356448Y-100250500D01*
X137375500Y-100250500D01*
X137442539Y-100270185D01*
X137488294Y-100322989D01*
X137499500Y-100374500D01*
X137499500Y-109875500D01*
X137479815Y-109942539D01*
X137427011Y-109988294D01*
X137375500Y-109999500D01*
X122962120Y-109999500D01*
X122895081Y-109979815D01*
X122849326Y-109927011D01*
X122839382Y-109857853D01*
X122868407Y-109794297D01*
X122874174Y-109788102D01*
X122874237Y-109788021D01*
X122874242Y-109788016D01*
X122946717Y-109662486D01*
X122984233Y-109522476D01*
X122984233Y-109479134D01*
X123003918Y-109412095D01*
X123056722Y-109366340D01*
X123125880Y-109356396D01*
X123140317Y-109359357D01*
X123200564Y-109375500D01*
X123200565Y-109375500D01*
X123426533Y-109375500D01*
X123493572Y-109395185D01*
X123539327Y-109447989D01*
X123542715Y-109456166D01*
X123556203Y-109492330D01*
X123556206Y-109492335D01*
X123642452Y-109607544D01*
X123642455Y-109607547D01*
X123757664Y-109693793D01*
X123757671Y-109693797D01*
X123892517Y-109744091D01*
X123892516Y-109744091D01*
X123899444Y-109744835D01*
X123952127Y-109750500D01*
X125547872Y-109750499D01*
X125607483Y-109744091D01*
X125742331Y-109693796D01*
X125857546Y-109607546D01*
X125943796Y-109492331D01*
X125994091Y-109357483D01*
X126000500Y-109297873D01*
X126000499Y-108702128D01*
X125995299Y-108653757D01*
X125994091Y-108642516D01*
X125943797Y-108507671D01*
X125943793Y-108507664D01*
X125857547Y-108392456D01*
X125857548Y-108392456D01*
X125857546Y-108392454D01*
X125799186Y-108348765D01*
X125757316Y-108292833D01*
X125752332Y-108223141D01*
X125785817Y-108161818D01*
X125847141Y-108128334D01*
X125873498Y-108125500D01*
X126376502Y-108125500D01*
X126443541Y-108145185D01*
X126489296Y-108197989D01*
X126499240Y-108267147D01*
X126470215Y-108330703D01*
X126450816Y-108348764D01*
X126392454Y-108392454D01*
X126392453Y-108392455D01*
X126392452Y-108392456D01*
X126306206Y-108507664D01*
X126306202Y-108507671D01*
X126255910Y-108642513D01*
X126255909Y-108642517D01*
X126249500Y-108702127D01*
X126249500Y-108702134D01*
X126249500Y-108702135D01*
X126249500Y-109297870D01*
X126249501Y-109297876D01*
X126255908Y-109357483D01*
X126306202Y-109492328D01*
X126306206Y-109492335D01*
X126392452Y-109607544D01*
X126392455Y-109607547D01*
X126507664Y-109693793D01*
X126507671Y-109693797D01*
X126642517Y-109744091D01*
X126642516Y-109744091D01*
X126649444Y-109744835D01*
X126702127Y-109750500D01*
X128297872Y-109750499D01*
X128357483Y-109744091D01*
X128492331Y-109693796D01*
X128607546Y-109607546D01*
X128693796Y-109492331D01*
X128744091Y-109357483D01*
X128750500Y-109297873D01*
X128750499Y-108702128D01*
X128745299Y-108653757D01*
X128744091Y-108642516D01*
X128693797Y-108507671D01*
X128693793Y-108507664D01*
X128607547Y-108392455D01*
X128607544Y-108392452D01*
X128492335Y-108306206D01*
X128492328Y-108306202D01*
X128357482Y-108255908D01*
X128357483Y-108255908D01*
X128297883Y-108249501D01*
X128297881Y-108249500D01*
X128297873Y-108249500D01*
X128297865Y-108249500D01*
X127983761Y-108249500D01*
X127916722Y-108229815D01*
X127870967Y-108177011D01*
X127863986Y-108157592D01*
X127849912Y-108105065D01*
X127849911Y-108105064D01*
X127849911Y-108105063D01*
X127800475Y-108019437D01*
X127230563Y-107449526D01*
X127230562Y-107449525D01*
X127144940Y-107400091D01*
X127144939Y-107400090D01*
X127057993Y-107376793D01*
X127057993Y-107376792D01*
X127057990Y-107376792D01*
X127049437Y-107374500D01*
X127049436Y-107374500D01*
X127049435Y-107374500D01*
X123456899Y-107374500D01*
X123389860Y-107354815D01*
X123369218Y-107338181D01*
X123269335Y-107238298D01*
X123235850Y-107176975D01*
X123240834Y-107107283D01*
X123282706Y-107051350D01*
X123348170Y-107026933D01*
X123385531Y-107029940D01*
X123392510Y-107031588D01*
X123392517Y-107031591D01*
X123452127Y-107038000D01*
X124447872Y-107037999D01*
X124507483Y-107031591D01*
X124642331Y-106981296D01*
X124757546Y-106895046D01*
X124843796Y-106779831D01*
X124894091Y-106644983D01*
X124895496Y-106631917D01*
X124922234Y-106567366D01*
X124956785Y-106537786D01*
X124957434Y-106537410D01*
X124957438Y-106537410D01*
X125043062Y-106487975D01*
X125112975Y-106418062D01*
X125288319Y-106242718D01*
X125349642Y-106209233D01*
X125419334Y-106214217D01*
X125475267Y-106256089D01*
X125499684Y-106321553D01*
X125500000Y-106330399D01*
X125500000Y-106528149D01*
X125502899Y-106564989D01*
X125502900Y-106564995D01*
X125548716Y-106722693D01*
X125548717Y-106722696D01*
X125632314Y-106864052D01*
X125632321Y-106864061D01*
X125748438Y-106980178D01*
X125748447Y-106980185D01*
X125889801Y-107063781D01*
X126047514Y-107109600D01*
X126047511Y-107109600D01*
X126049998Y-107109795D01*
X126050000Y-107109795D01*
X126550000Y-107109795D01*
X126550001Y-107109795D01*
X126552486Y-107109600D01*
X126710198Y-107063781D01*
X126851552Y-106980185D01*
X126851561Y-106980178D01*
X126967678Y-106864061D01*
X126967685Y-106864052D01*
X127051282Y-106722696D01*
X127051283Y-106722693D01*
X127097099Y-106564995D01*
X127097100Y-106564989D01*
X127099999Y-106528149D01*
X127100000Y-106528134D01*
X127100000Y-106125000D01*
X126550000Y-106125000D01*
X126550000Y-107109795D01*
X126050000Y-107109795D01*
X126050000Y-105999000D01*
X126069685Y-105931961D01*
X126122489Y-105886206D01*
X126174000Y-105875000D01*
X126300000Y-105875000D01*
X126300000Y-105749000D01*
X126319685Y-105681961D01*
X126372489Y-105636206D01*
X126424000Y-105625000D01*
X127100000Y-105625000D01*
X127100000Y-105221865D01*
X127099999Y-105221850D01*
X127097100Y-105185010D01*
X127097099Y-105185007D01*
X127085939Y-105146594D01*
X127086138Y-105076725D01*
X127124079Y-105018054D01*
X127187717Y-104989210D01*
X127205006Y-104987998D01*
X127431518Y-104987998D01*
X127525304Y-104973145D01*
X127525305Y-104973144D01*
X127534943Y-104971618D01*
X127535263Y-104973642D01*
X127592500Y-104972003D01*
X127652335Y-105008079D01*
X127683168Y-105070778D01*
X127675209Y-105140192D01*
X127671473Y-105148223D01*
X127664353Y-105162196D01*
X127664352Y-105162198D01*
X127649500Y-105255975D01*
X127649500Y-106494017D01*
X127658399Y-106550205D01*
X127664354Y-106587804D01*
X127721950Y-106700842D01*
X127721952Y-106700844D01*
X127721954Y-106700847D01*
X127811652Y-106790545D01*
X127811654Y-106790546D01*
X127811658Y-106790550D01*
X127924694Y-106848145D01*
X127924698Y-106848147D01*
X128018475Y-106862999D01*
X128018481Y-106863000D01*
X128381518Y-106862999D01*
X128475304Y-106848146D01*
X128588342Y-106790550D01*
X128678050Y-106700842D01*
X128735646Y-106587804D01*
X128735646Y-106587802D01*
X128735647Y-106587801D01*
X128746901Y-106516740D01*
X128750500Y-106494019D01*
X128750499Y-105255982D01*
X128735646Y-105162196D01*
X128678050Y-105049158D01*
X128678046Y-105049154D01*
X128678045Y-105049152D01*
X128667645Y-105038752D01*
X128634160Y-104977429D01*
X128639144Y-104907737D01*
X128667640Y-104863395D01*
X128869219Y-104661816D01*
X128930542Y-104628334D01*
X128956899Y-104625500D01*
X129376000Y-104625500D01*
X129443039Y-104645185D01*
X129488794Y-104697989D01*
X129500000Y-104749500D01*
X129500000Y-105778332D01*
X129499572Y-105786311D01*
X129499678Y-105786317D01*
X129499500Y-105789621D01*
X129499501Y-105789623D01*
X129499500Y-105789633D01*
X129499500Y-106585370D01*
X129499501Y-106585376D01*
X129505908Y-106644983D01*
X129556202Y-106779828D01*
X129556206Y-106779835D01*
X129642452Y-106895044D01*
X129642455Y-106895047D01*
X129757664Y-106981293D01*
X129757671Y-106981297D01*
X129892516Y-107031591D01*
X129952113Y-107037999D01*
X129952122Y-107037999D01*
X129952127Y-107038000D01*
X129952131Y-107037999D01*
X129955434Y-107038177D01*
X129955424Y-107038355D01*
X129955431Y-107038356D01*
X129955417Y-107038477D01*
X129955366Y-107039446D01*
X130017478Y-107057644D01*
X130063264Y-107110421D01*
X130074500Y-107161999D01*
X130074500Y-107443982D01*
X130074500Y-107556018D01*
X130084263Y-107592452D01*
X130103497Y-107664236D01*
X130103498Y-107664239D01*
X130112982Y-107680666D01*
X130159515Y-107761263D01*
X131159515Y-108761263D01*
X131238737Y-108840485D01*
X131335763Y-108896503D01*
X131443982Y-108925500D01*
X132625501Y-108925500D01*
X132692540Y-108945185D01*
X132738295Y-108997989D01*
X132748931Y-109046879D01*
X132749341Y-109046859D01*
X132749467Y-109049346D01*
X132749501Y-109049500D01*
X132749501Y-109050018D01*
X132760000Y-109152796D01*
X132760001Y-109152799D01*
X132808937Y-109300475D01*
X132815186Y-109319334D01*
X132907288Y-109468656D01*
X133031344Y-109592712D01*
X133180666Y-109684814D01*
X133347203Y-109739999D01*
X133449991Y-109750500D01*
X136550008Y-109750499D01*
X136652797Y-109739999D01*
X136819334Y-109684814D01*
X136968656Y-109592712D01*
X137092712Y-109468656D01*
X137184814Y-109319334D01*
X137239999Y-109152797D01*
X137250500Y-109050009D01*
X137250499Y-107949992D01*
X137239999Y-107847203D01*
X137184814Y-107680666D01*
X137092712Y-107531344D01*
X136968656Y-107407288D01*
X136833222Y-107323752D01*
X136819336Y-107315187D01*
X136819331Y-107315185D01*
X136802154Y-107309493D01*
X136652797Y-107260001D01*
X136652795Y-107260000D01*
X136550010Y-107249500D01*
X133449998Y-107249500D01*
X133449981Y-107249501D01*
X133347203Y-107260000D01*
X133347200Y-107260001D01*
X133180668Y-107315185D01*
X133180663Y-107315187D01*
X133031342Y-107407289D01*
X132907289Y-107531342D01*
X132815187Y-107680663D01*
X132815185Y-107680668D01*
X132788750Y-107760443D01*
X132760001Y-107847203D01*
X132760001Y-107847204D01*
X132760000Y-107847204D01*
X132749500Y-107949983D01*
X132749500Y-107950500D01*
X132749468Y-107950605D01*
X132749340Y-107953139D01*
X132749179Y-107953130D01*
X132749179Y-107953132D01*
X132749155Y-107953129D01*
X132748734Y-107953108D01*
X132729815Y-108017539D01*
X132677011Y-108063294D01*
X132625500Y-108074500D01*
X131727610Y-108074500D01*
X131660571Y-108054815D01*
X131639929Y-108038181D01*
X130961819Y-107360071D01*
X130947115Y-107333143D01*
X130930523Y-107307325D01*
X130929631Y-107301124D01*
X130928334Y-107298748D01*
X130925500Y-107272390D01*
X130925500Y-107148264D01*
X130945185Y-107081225D01*
X130997989Y-107035470D01*
X131006167Y-107032082D01*
X131142328Y-106981297D01*
X131142327Y-106981297D01*
X131142331Y-106981296D01*
X131257546Y-106895046D01*
X131343796Y-106779831D01*
X131394091Y-106644983D01*
X131400500Y-106585373D01*
X131400499Y-105789628D01*
X131394091Y-105730017D01*
X131392406Y-105725500D01*
X131343797Y-105595171D01*
X131343796Y-105595169D01*
X131318892Y-105561902D01*
X131274732Y-105502912D01*
X131250316Y-105437449D01*
X131250000Y-105428602D01*
X131250000Y-104946397D01*
X131256239Y-104925148D01*
X131257819Y-104903063D01*
X131268431Y-104883626D01*
X131269685Y-104879358D01*
X131274721Y-104872101D01*
X131294122Y-104846185D01*
X131350055Y-104804316D01*
X131419747Y-104799332D01*
X131481067Y-104832815D01*
X132238737Y-105590485D01*
X132335763Y-105646503D01*
X132443981Y-105675500D01*
X132443982Y-105675500D01*
X132625501Y-105675500D01*
X132692540Y-105695185D01*
X132738295Y-105747989D01*
X132748931Y-105796879D01*
X132749341Y-105796859D01*
X132749467Y-105799346D01*
X132749501Y-105799500D01*
X132749501Y-105800018D01*
X132760000Y-105902796D01*
X132760001Y-105902799D01*
X132815185Y-106069331D01*
X132815187Y-106069336D01*
X132848992Y-106124142D01*
X132907288Y-106218656D01*
X133031344Y-106342712D01*
X133180666Y-106434814D01*
X133347203Y-106489999D01*
X133449991Y-106500500D01*
X136550008Y-106500499D01*
X136652797Y-106489999D01*
X136819334Y-106434814D01*
X136968656Y-106342712D01*
X137092712Y-106218656D01*
X137184814Y-106069334D01*
X137239999Y-105902797D01*
X137250500Y-105800009D01*
X137250499Y-104699992D01*
X137250451Y-104699525D01*
X137239999Y-104597203D01*
X137239998Y-104597200D01*
X137235034Y-104582220D01*
X137184814Y-104430666D01*
X137092712Y-104281344D01*
X136968656Y-104157288D01*
X136819334Y-104065186D01*
X136652797Y-104010001D01*
X136652795Y-104010000D01*
X136550010Y-103999500D01*
X133449998Y-103999500D01*
X133449981Y-103999501D01*
X133347203Y-104010000D01*
X133347200Y-104010001D01*
X133180668Y-104065185D01*
X133180663Y-104065187D01*
X133031342Y-104157289D01*
X132907289Y-104281342D01*
X132815187Y-104430663D01*
X132815185Y-104430668D01*
X132792368Y-104499525D01*
X132760183Y-104596656D01*
X132760001Y-104597204D01*
X132759999Y-104597212D01*
X132757688Y-104619828D01*
X132731290Y-104684519D01*
X132674108Y-104724668D01*
X132604297Y-104727529D01*
X132546650Y-104694902D01*
X132211819Y-104360071D01*
X132178334Y-104298748D01*
X132175500Y-104272390D01*
X132175500Y-103897236D01*
X132192112Y-103835238D01*
X132262984Y-103712485D01*
X132300500Y-103572475D01*
X132300500Y-103427525D01*
X132262984Y-103287515D01*
X132262800Y-103287197D01*
X132190511Y-103161988D01*
X132190506Y-103161982D01*
X132088017Y-103059493D01*
X132088011Y-103059488D01*
X131962488Y-102987017D01*
X131962489Y-102987017D01*
X131951006Y-102983940D01*
X131822475Y-102949500D01*
X131677525Y-102949500D01*
X131548993Y-102983940D01*
X131537511Y-102987017D01*
X131411988Y-103059488D01*
X131411982Y-103059493D01*
X131309493Y-103161982D01*
X131309488Y-103161988D01*
X131237017Y-103287511D01*
X131233908Y-103295019D01*
X131231892Y-103294184D01*
X131201472Y-103344077D01*
X131138621Y-103374598D01*
X131074741Y-103368494D01*
X131007482Y-103343408D01*
X131007483Y-103343408D01*
X130947883Y-103337001D01*
X130947881Y-103337000D01*
X130947873Y-103337000D01*
X130947864Y-103337000D01*
X129952129Y-103337000D01*
X129952123Y-103337001D01*
X129892516Y-103343408D01*
X129757671Y-103393702D01*
X129757664Y-103393706D01*
X129642455Y-103479952D01*
X129642452Y-103479955D01*
X129556206Y-103595164D01*
X129556202Y-103595171D01*
X129505908Y-103730016D01*
X129502281Y-103763757D01*
X129475543Y-103828307D01*
X129418150Y-103868155D01*
X129378992Y-103874500D01*
X128799436Y-103874500D01*
X128700564Y-103874500D01*
X128692007Y-103876793D01*
X128605060Y-103900090D01*
X128605059Y-103900091D01*
X128519436Y-103949526D01*
X128519437Y-103949526D01*
X128012180Y-104456782D01*
X127950857Y-104490267D01*
X127881165Y-104485283D01*
X127825232Y-104443411D01*
X127800815Y-104377947D01*
X127800499Y-104369123D01*
X127800499Y-103380981D01*
X127785646Y-103287195D01*
X127728050Y-103174157D01*
X127728046Y-103174153D01*
X127728045Y-103174151D01*
X127638347Y-103084453D01*
X127638344Y-103084451D01*
X127638342Y-103084449D01*
X127561517Y-103045304D01*
X127525301Y-103026851D01*
X127431524Y-103011999D01*
X127068482Y-103011999D01*
X126987519Y-103024822D01*
X126974696Y-103026853D01*
X126861658Y-103084449D01*
X126861657Y-103084450D01*
X126861652Y-103084453D01*
X126771954Y-103174151D01*
X126771951Y-103174156D01*
X126714352Y-103287197D01*
X126699500Y-103380974D01*
X126699500Y-103500500D01*
X126696949Y-103509185D01*
X126698238Y-103518147D01*
X126687259Y-103542187D01*
X126679815Y-103567539D01*
X126672974Y-103573466D01*
X126669213Y-103581703D01*
X126646978Y-103595992D01*
X126627011Y-103613294D01*
X126616496Y-103615581D01*
X126610435Y-103619477D01*
X126575500Y-103624500D01*
X126381172Y-103624500D01*
X126314133Y-103604815D01*
X126268378Y-103552011D01*
X126258434Y-103482853D01*
X126261397Y-103468406D01*
X126262984Y-103462485D01*
X126300500Y-103322475D01*
X126300500Y-103177525D01*
X126262984Y-103037515D01*
X126259393Y-103031296D01*
X126190511Y-102911988D01*
X126190506Y-102911982D01*
X126088017Y-102809493D01*
X126088011Y-102809488D01*
X125962488Y-102737017D01*
X125962489Y-102737017D01*
X125951006Y-102733940D01*
X125822475Y-102699500D01*
X125677525Y-102699500D01*
X125548993Y-102733940D01*
X125537511Y-102737017D01*
X125411988Y-102809488D01*
X125411982Y-102809493D01*
X125309493Y-102911982D01*
X125309488Y-102911988D01*
X125237017Y-103037511D01*
X125237016Y-103037515D01*
X125199500Y-103177525D01*
X125199500Y-103177527D01*
X125199500Y-103218100D01*
X125179815Y-103285139D01*
X125163181Y-103305781D01*
X124957826Y-103511135D01*
X124896503Y-103544620D01*
X124826811Y-103539636D01*
X124770879Y-103497764D01*
X124757546Y-103479954D01*
X124757544Y-103479953D01*
X124757544Y-103479952D01*
X124642335Y-103393706D01*
X124642328Y-103393702D01*
X124507482Y-103343408D01*
X124507483Y-103343408D01*
X124447883Y-103337001D01*
X124447881Y-103337000D01*
X124447873Y-103337000D01*
X124447864Y-103337000D01*
X123452129Y-103337000D01*
X123452123Y-103337001D01*
X123392516Y-103343408D01*
X123257671Y-103393702D01*
X123257664Y-103393706D01*
X123142455Y-103479952D01*
X123142452Y-103479955D01*
X123056206Y-103595164D01*
X123056202Y-103595171D01*
X123005908Y-103730017D01*
X122999501Y-103789616D01*
X122999500Y-103789635D01*
X122999500Y-104585363D01*
X122999679Y-104588680D01*
X122999572Y-104588685D01*
X123000000Y-104596656D01*
X123000000Y-105419600D01*
X122980315Y-105486639D01*
X122927511Y-105532394D01*
X122858353Y-105542338D01*
X122794797Y-105513313D01*
X122788319Y-105507281D01*
X122345715Y-105064678D01*
X122330563Y-105049526D01*
X122330562Y-105049525D01*
X122244938Y-105000090D01*
X122174798Y-104981296D01*
X122149436Y-104974500D01*
X122149435Y-104974500D01*
X122149434Y-104974500D01*
X122105899Y-104974500D01*
X122038860Y-104954815D01*
X121993105Y-104902011D01*
X121983161Y-104832853D01*
X122012186Y-104769297D01*
X122018218Y-104762819D01*
X122300471Y-104480566D01*
X122300474Y-104480563D01*
X122306898Y-104469437D01*
X122349910Y-104394938D01*
X122361824Y-104350475D01*
X122368784Y-104324501D01*
X122370203Y-104319204D01*
X122375500Y-104299436D01*
X122375500Y-104200564D01*
X122375500Y-101456899D01*
X122395185Y-101389860D01*
X122411819Y-101369218D01*
X122619219Y-101161819D01*
X122646146Y-101147115D01*
X122671965Y-101130523D01*
X122678165Y-101129631D01*
X122680542Y-101128334D01*
X122706900Y-101125500D01*
X122912547Y-101125500D01*
X122979586Y-101145185D01*
X123025341Y-101197989D01*
X123028729Y-101206167D01*
X123056202Y-101279828D01*
X123056206Y-101279835D01*
X123142452Y-101395044D01*
X123142455Y-101395047D01*
X123257664Y-101481293D01*
X123257671Y-101481297D01*
X123392517Y-101531591D01*
X123392516Y-101531591D01*
X123399444Y-101532335D01*
X123452127Y-101538000D01*
X124447872Y-101537999D01*
X124507483Y-101531591D01*
X124642331Y-101481296D01*
X124757546Y-101395046D01*
X124843796Y-101279831D01*
X124894091Y-101144983D01*
X124895496Y-101131917D01*
X124922234Y-101067366D01*
X124956785Y-101037786D01*
X124957434Y-101037410D01*
X124957438Y-101037410D01*
X125043062Y-100987975D01*
X125112975Y-100918062D01*
X125288319Y-100742718D01*
X125349642Y-100709233D01*
X125419334Y-100714217D01*
X125475267Y-100756089D01*
X125499684Y-100821553D01*
X125500000Y-100830399D01*
X125500000Y-101090649D01*
X125502899Y-101127489D01*
X125502900Y-101127495D01*
X125548716Y-101285193D01*
X125548717Y-101285196D01*
X125632314Y-101426552D01*
X125632321Y-101426561D01*
X125748438Y-101542678D01*
X125748447Y-101542685D01*
X125889801Y-101626281D01*
X126047514Y-101672100D01*
X126047511Y-101672100D01*
X126049998Y-101672295D01*
X126050000Y-101672295D01*
X126550000Y-101672295D01*
X126550001Y-101672295D01*
X126552486Y-101672100D01*
X126710198Y-101626281D01*
X126851552Y-101542685D01*
X126851561Y-101542678D01*
X126967678Y-101426561D01*
X126967685Y-101426552D01*
X127051282Y-101285196D01*
X127051283Y-101285193D01*
X127097099Y-101127495D01*
X127097100Y-101127489D01*
X127099999Y-101090649D01*
X127100000Y-101090634D01*
X127100000Y-100687500D01*
X126550000Y-100687500D01*
X126550000Y-101672295D01*
X126050000Y-101672295D01*
X126050000Y-100561500D01*
X126069685Y-100494461D01*
X126122489Y-100448706D01*
X126174000Y-100437500D01*
X126300000Y-100437500D01*
X126300000Y-100311500D01*
X126319685Y-100244461D01*
X126372489Y-100198706D01*
X126424000Y-100187500D01*
X127100000Y-100187500D01*
X127100000Y-99784364D01*
X127099999Y-99784350D01*
X127097100Y-99747510D01*
X127097099Y-99747507D01*
X127085939Y-99709094D01*
X127086138Y-99639225D01*
X127124079Y-99580554D01*
X127187717Y-99551710D01*
X127205006Y-99550498D01*
X127431518Y-99550498D01*
X127525304Y-99535645D01*
X127525305Y-99535644D01*
X127534943Y-99534118D01*
X127535263Y-99536142D01*
X127592500Y-99534503D01*
X127652335Y-99570579D01*
X127683168Y-99633278D01*
X127675209Y-99702692D01*
X127671473Y-99710723D01*
X127664353Y-99724696D01*
X127664352Y-99724698D01*
X127649500Y-99818475D01*
X127649500Y-101056517D01*
X127660292Y-101124657D01*
X127664354Y-101150304D01*
X127721950Y-101263342D01*
X127721952Y-101263344D01*
X127721954Y-101263347D01*
X127811652Y-101353045D01*
X127811654Y-101353046D01*
X127811658Y-101353050D01*
X127914669Y-101405537D01*
X127924698Y-101410647D01*
X128018475Y-101425499D01*
X128018481Y-101425500D01*
X128381518Y-101425499D01*
X128475304Y-101410646D01*
X128588342Y-101353050D01*
X128678050Y-101263342D01*
X128735646Y-101150304D01*
X128735646Y-101150302D01*
X128735647Y-101150301D01*
X128750499Y-101056524D01*
X128750500Y-101056519D01*
X128750499Y-99818482D01*
X128735646Y-99724696D01*
X128678050Y-99611658D01*
X128678047Y-99611655D01*
X128678046Y-99611653D01*
X128636396Y-99570004D01*
X128602910Y-99508681D01*
X128607894Y-99438990D01*
X128636393Y-99394643D01*
X128869218Y-99161819D01*
X128930541Y-99128334D01*
X128956899Y-99125500D01*
X129412547Y-99125500D01*
X129479586Y-99145185D01*
X129525341Y-99197989D01*
X129528729Y-99206167D01*
X129556202Y-99279828D01*
X129556203Y-99279829D01*
X129556204Y-99279831D01*
X129642454Y-99395046D01*
X129700310Y-99438357D01*
X129742182Y-99494289D01*
X129750000Y-99537623D01*
X129750000Y-99837375D01*
X129730315Y-99904414D01*
X129700312Y-99936641D01*
X129642452Y-99979955D01*
X129556206Y-100095164D01*
X129556202Y-100095171D01*
X129505908Y-100230017D01*
X129502281Y-100263757D01*
X129499501Y-100289623D01*
X129499500Y-100289635D01*
X129499500Y-101085370D01*
X129499501Y-101085376D01*
X129505908Y-101144983D01*
X129556202Y-101279828D01*
X129556206Y-101279835D01*
X129642452Y-101395044D01*
X129642455Y-101395047D01*
X129757664Y-101481293D01*
X129757671Y-101481297D01*
X129789478Y-101493160D01*
X129892517Y-101531591D01*
X129952127Y-101538000D01*
X130000500Y-101537999D01*
X130067537Y-101557682D01*
X130113293Y-101610485D01*
X130124500Y-101661999D01*
X130124500Y-101799436D01*
X130131476Y-101825473D01*
X130131477Y-101825473D01*
X130131477Y-101825474D01*
X130134882Y-101838181D01*
X130150091Y-101894942D01*
X130191544Y-101966740D01*
X130199522Y-101980557D01*
X130199528Y-101980566D01*
X130344463Y-102125500D01*
X130449525Y-102230562D01*
X130519438Y-102300475D01*
X130595628Y-102344463D01*
X130605062Y-102349910D01*
X130652811Y-102362705D01*
X130652812Y-102362705D01*
X130662903Y-102365408D01*
X130700564Y-102375500D01*
X130700565Y-102375500D01*
X132625501Y-102375500D01*
X132692540Y-102395185D01*
X132738295Y-102447989D01*
X132749501Y-102499500D01*
X132749501Y-102550018D01*
X132760000Y-102652796D01*
X132760001Y-102652799D01*
X132815185Y-102819331D01*
X132815187Y-102819336D01*
X132850069Y-102875888D01*
X132907288Y-102968656D01*
X133031344Y-103092712D01*
X133180666Y-103184814D01*
X133347203Y-103239999D01*
X133449991Y-103250500D01*
X136550008Y-103250499D01*
X136652797Y-103239999D01*
X136819334Y-103184814D01*
X136968656Y-103092712D01*
X137092712Y-102968656D01*
X137184814Y-102819334D01*
X137239999Y-102652797D01*
X137250500Y-102550009D01*
X137250499Y-101449992D01*
X137250451Y-101449526D01*
X137239999Y-101347203D01*
X137239998Y-101347200D01*
X137217673Y-101279828D01*
X137184814Y-101180666D01*
X137092712Y-101031344D01*
X136968656Y-100907288D01*
X136875888Y-100850069D01*
X136819336Y-100815187D01*
X136819331Y-100815185D01*
X136817862Y-100814698D01*
X136652797Y-100760001D01*
X136652795Y-100760000D01*
X136550010Y-100749500D01*
X133449998Y-100749500D01*
X133449981Y-100749501D01*
X133347203Y-100760000D01*
X133347200Y-100760001D01*
X133180668Y-100815185D01*
X133180663Y-100815187D01*
X133031342Y-100907289D01*
X132907289Y-101031342D01*
X132815187Y-101180663D01*
X132815185Y-101180668D01*
X132789446Y-101258344D01*
X132760001Y-101347203D01*
X132760001Y-101347204D01*
X132760000Y-101347204D01*
X132749500Y-101449983D01*
X132749500Y-101500500D01*
X132729815Y-101567539D01*
X132677011Y-101613294D01*
X132625500Y-101624500D01*
X131323591Y-101624500D01*
X131256552Y-101604815D01*
X131210797Y-101552011D01*
X131200853Y-101482853D01*
X131229878Y-101419297D01*
X131249281Y-101401233D01*
X131250809Y-101400089D01*
X131257546Y-101395046D01*
X131343796Y-101279831D01*
X131394091Y-101144983D01*
X131400500Y-101085373D01*
X131400499Y-100289628D01*
X131394091Y-100230017D01*
X131378233Y-100187500D01*
X131343797Y-100095171D01*
X131343796Y-100095169D01*
X131336293Y-100085146D01*
X131274732Y-100002912D01*
X131250316Y-99937449D01*
X131250000Y-99928602D01*
X131250000Y-99446397D01*
X131251981Y-99439650D01*
X131250756Y-99432726D01*
X131261697Y-99406561D01*
X131269685Y-99379358D01*
X131274726Y-99372096D01*
X131343796Y-99279831D01*
X131384318Y-99171186D01*
X131426189Y-99115252D01*
X131491653Y-99090835D01*
X131559926Y-99105686D01*
G37*
G04 #@! TD.AperFunction*
G04 #@! TA.AperFunction,Conductor*
G36*
X117418332Y-103715217D02*
G01*
X117462680Y-103743718D01*
X117756473Y-104037511D01*
X118018397Y-104299435D01*
X118069437Y-104350475D01*
X118155063Y-104399911D01*
X118250564Y-104425500D01*
X118250565Y-104425500D01*
X119364203Y-104425500D01*
X119431242Y-104445185D01*
X119476997Y-104497989D01*
X119486228Y-104562189D01*
X119487324Y-104562269D01*
X119487000Y-104566737D01*
X119487000Y-104833260D01*
X119496926Y-104901392D01*
X119496926Y-104901393D01*
X119530730Y-104970541D01*
X119542488Y-105039414D01*
X119530730Y-105079459D01*
X119496926Y-105148606D01*
X119496926Y-105148607D01*
X119487000Y-105216739D01*
X119487000Y-105483260D01*
X119496926Y-105551392D01*
X119496926Y-105551393D01*
X119530730Y-105620541D01*
X119542488Y-105689414D01*
X119530730Y-105729459D01*
X119496926Y-105798606D01*
X119496926Y-105798607D01*
X119487000Y-105866739D01*
X119487000Y-106133260D01*
X119496926Y-106201392D01*
X119496926Y-106201393D01*
X119530730Y-106270541D01*
X119542488Y-106339414D01*
X119530730Y-106379459D01*
X119496926Y-106448606D01*
X119496926Y-106448607D01*
X119487000Y-106516739D01*
X119487000Y-106783260D01*
X119496926Y-106851392D01*
X119496926Y-106851393D01*
X119530730Y-106920541D01*
X119542488Y-106989414D01*
X119530730Y-107029459D01*
X119496926Y-107098606D01*
X119496926Y-107098607D01*
X119487000Y-107166739D01*
X119487000Y-107433260D01*
X119496926Y-107501392D01*
X119496926Y-107501393D01*
X119530730Y-107570541D01*
X119542488Y-107639414D01*
X119530730Y-107679459D01*
X119496926Y-107748606D01*
X119496926Y-107748607D01*
X119487000Y-107816739D01*
X119487000Y-108083260D01*
X119496926Y-108151391D01*
X119548303Y-108256485D01*
X119631014Y-108339196D01*
X119631015Y-108339196D01*
X119631017Y-108339198D01*
X119736107Y-108390573D01*
X119749031Y-108392456D01*
X119804239Y-108400500D01*
X119804240Y-108400500D01*
X121145761Y-108400500D01*
X121168471Y-108397191D01*
X121213893Y-108390573D01*
X121318983Y-108339198D01*
X121401698Y-108256483D01*
X121453073Y-108151393D01*
X121463000Y-108083260D01*
X121463000Y-108043399D01*
X121482685Y-107976360D01*
X121535489Y-107930605D01*
X121604647Y-107920661D01*
X121668203Y-107949686D01*
X121674681Y-107955718D01*
X122412242Y-108693279D01*
X122445727Y-108754602D01*
X122440743Y-108824294D01*
X122398871Y-108880227D01*
X122356657Y-108900733D01*
X122264230Y-108925500D01*
X122221244Y-108937018D01*
X122095721Y-109009489D01*
X122095715Y-109009494D01*
X122067028Y-109038182D01*
X122005705Y-109071667D01*
X121979347Y-109074501D01*
X115656900Y-109074501D01*
X115589861Y-109054816D01*
X115569219Y-109038182D01*
X115161819Y-108630782D01*
X115147115Y-108603854D01*
X115130523Y-108578036D01*
X115129631Y-108571835D01*
X115128334Y-108569459D01*
X115125500Y-108543101D01*
X115125500Y-108524500D01*
X115145185Y-108457461D01*
X115197989Y-108411706D01*
X115249500Y-108400500D01*
X115420761Y-108400500D01*
X115443471Y-108397191D01*
X115488893Y-108390573D01*
X115593983Y-108339198D01*
X115676698Y-108256483D01*
X115699340Y-108210166D01*
X115746468Y-108158585D01*
X115814002Y-108140670D01*
X115880501Y-108162111D01*
X115898422Y-108176946D01*
X115911985Y-108190509D01*
X115911986Y-108190510D01*
X115911988Y-108190511D01*
X116037511Y-108262982D01*
X116037512Y-108262982D01*
X116037515Y-108262984D01*
X116177525Y-108300500D01*
X116177528Y-108300500D01*
X116322472Y-108300500D01*
X116322475Y-108300500D01*
X116462485Y-108262984D01*
X116588015Y-108190509D01*
X116690509Y-108088015D01*
X116762984Y-107962485D01*
X116800500Y-107822475D01*
X116800500Y-107677525D01*
X116762984Y-107537515D01*
X116742128Y-107501392D01*
X116690511Y-107411988D01*
X116690506Y-107411982D01*
X116588017Y-107309493D01*
X116588011Y-107309488D01*
X116462488Y-107237017D01*
X116462489Y-107237017D01*
X116451006Y-107233940D01*
X116322475Y-107199500D01*
X116322472Y-107199500D01*
X116281899Y-107199500D01*
X116214860Y-107179815D01*
X116194218Y-107163181D01*
X116030563Y-106999526D01*
X116030562Y-106999525D01*
X115944938Y-106950090D01*
X115897186Y-106937295D01*
X115849436Y-106924500D01*
X115849435Y-106924500D01*
X115844210Y-106924500D01*
X115831544Y-106921432D01*
X115806785Y-106907148D01*
X115780648Y-106895584D01*
X115776907Y-106889912D01*
X115771023Y-106886518D01*
X115757915Y-106861114D01*
X115742181Y-106837257D01*
X115741585Y-106829465D01*
X115738985Y-106824427D01*
X115740212Y-106811523D01*
X115738396Y-106787783D01*
X115737676Y-106787731D01*
X115738000Y-106783262D01*
X115738000Y-106516739D01*
X115728073Y-106448608D01*
X115728072Y-106448606D01*
X115694268Y-106379458D01*
X115682510Y-106310587D01*
X115694269Y-106270540D01*
X115728073Y-106201393D01*
X115738000Y-106133260D01*
X115738000Y-105866740D01*
X115728073Y-105798607D01*
X115676698Y-105693517D01*
X115676696Y-105693515D01*
X115676696Y-105693514D01*
X115593985Y-105610803D01*
X115488891Y-105559426D01*
X115420761Y-105549500D01*
X115420760Y-105549500D01*
X114079240Y-105549500D01*
X114079239Y-105549500D01*
X114011111Y-105559425D01*
X114011107Y-105559427D01*
X114006043Y-105561902D01*
X113951587Y-105574500D01*
X113499500Y-105574500D01*
X113490814Y-105571949D01*
X113481853Y-105573238D01*
X113457812Y-105562259D01*
X113432461Y-105554815D01*
X113426533Y-105547974D01*
X113418297Y-105544213D01*
X113404007Y-105521978D01*
X113386706Y-105502011D01*
X113384418Y-105491496D01*
X113380523Y-105485435D01*
X113375500Y-105450500D01*
X113375500Y-105206899D01*
X113395185Y-105139860D01*
X113411819Y-105119218D01*
X113419218Y-105111819D01*
X113441736Y-105099523D01*
X113447989Y-105094105D01*
X113452970Y-105093388D01*
X113480541Y-105078334D01*
X113506899Y-105075500D01*
X113849309Y-105075500D01*
X113903769Y-105088099D01*
X113906016Y-105089197D01*
X113906017Y-105089198D01*
X114011107Y-105140573D01*
X114045173Y-105145536D01*
X114079239Y-105150500D01*
X114079240Y-105150500D01*
X115420761Y-105150500D01*
X115447568Y-105146594D01*
X115488893Y-105140573D01*
X115593983Y-105089198D01*
X115676698Y-105006483D01*
X115728073Y-104901393D01*
X115738000Y-104833260D01*
X115738000Y-104566740D01*
X115738000Y-104566737D01*
X115737676Y-104562269D01*
X115738829Y-104562185D01*
X115747905Y-104498202D01*
X115793560Y-104445312D01*
X115860562Y-104425500D01*
X116499434Y-104425500D01*
X116499436Y-104425500D01*
X116577483Y-104404587D01*
X116594938Y-104399910D01*
X116680562Y-104350475D01*
X116750475Y-104280562D01*
X117287320Y-103743716D01*
X117348641Y-103710233D01*
X117418332Y-103715217D01*
G37*
G04 #@! TD.AperFunction*
G04 #@! TA.AperFunction,Conductor*
G36*
X122043834Y-97624716D02*
G01*
X122099767Y-97666588D01*
X122124184Y-97732052D01*
X122124500Y-97740898D01*
X122124500Y-99293101D01*
X122104815Y-99360140D01*
X122088181Y-99380782D01*
X120174527Y-101294435D01*
X120174525Y-101294437D01*
X120174525Y-101294438D01*
X120125090Y-101380062D01*
X120125090Y-101380063D01*
X120111418Y-101431090D01*
X120106354Y-101449988D01*
X120106353Y-101449991D01*
X120099500Y-101475564D01*
X120099500Y-101525500D01*
X120079815Y-101592539D01*
X120027011Y-101638294D01*
X119975500Y-101649500D01*
X119804239Y-101649500D01*
X119736108Y-101659426D01*
X119631014Y-101710803D01*
X119548303Y-101793514D01*
X119496926Y-101898608D01*
X119487000Y-101966739D01*
X119487000Y-102233262D01*
X119487324Y-102237731D01*
X119486170Y-102237814D01*
X119477095Y-102301798D01*
X119431440Y-102354688D01*
X119364438Y-102374500D01*
X119249500Y-102374500D01*
X119182461Y-102354815D01*
X119136706Y-102302011D01*
X119125500Y-102250500D01*
X119125500Y-98706899D01*
X119134146Y-98677453D01*
X119140668Y-98647472D01*
X119144422Y-98642456D01*
X119145185Y-98639860D01*
X119161819Y-98619218D01*
X119166133Y-98614904D01*
X119227456Y-98581419D01*
X119297148Y-98586403D01*
X119310108Y-98592100D01*
X119416107Y-98646109D01*
X119416108Y-98646109D01*
X119416110Y-98646110D01*
X119416109Y-98646110D01*
X119456818Y-98652557D01*
X119506967Y-98660500D01*
X120793032Y-98660499D01*
X120793037Y-98660499D01*
X120793037Y-98660498D01*
X120838462Y-98653304D01*
X120883888Y-98646110D01*
X120883889Y-98646110D01*
X120883890Y-98646109D01*
X120883893Y-98646109D01*
X120993403Y-98590311D01*
X121080311Y-98503403D01*
X121092142Y-98480181D01*
X121094189Y-98477403D01*
X121094614Y-98475572D01*
X121100741Y-98468512D01*
X121116148Y-98447608D01*
X121125778Y-98438236D01*
X121130561Y-98435475D01*
X121200474Y-98365562D01*
X121912819Y-97653217D01*
X121974142Y-97619732D01*
X122043834Y-97624716D01*
G37*
G04 #@! TD.AperFunction*
G04 #@! TA.AperFunction,Conductor*
G36*
X131641469Y-87269685D02*
G01*
X131668141Y-87292796D01*
X131686276Y-87313724D01*
X131848487Y-87454281D01*
X131977531Y-87537211D01*
X132029048Y-87570320D01*
X132029061Y-87570327D01*
X132224284Y-87659482D01*
X132224288Y-87659483D01*
X132224290Y-87659484D01*
X132430231Y-87719954D01*
X132430232Y-87719954D01*
X132430235Y-87719955D01*
X132493584Y-87729062D01*
X132642682Y-87750500D01*
X132684108Y-87750500D01*
X137375500Y-87750500D01*
X137442539Y-87770185D01*
X137488294Y-87822989D01*
X137499500Y-87874500D01*
X137499500Y-96125500D01*
X137479815Y-96192539D01*
X137427011Y-96238294D01*
X137375500Y-96249500D01*
X132356441Y-96249500D01*
X132226351Y-96264157D01*
X132226341Y-96264159D01*
X132061395Y-96321877D01*
X131913423Y-96414853D01*
X131789853Y-96538423D01*
X131696877Y-96686395D01*
X131639159Y-96851341D01*
X131639157Y-96851351D01*
X131624500Y-96981441D01*
X131624500Y-98160480D01*
X131604815Y-98227519D01*
X131552011Y-98273274D01*
X131482853Y-98283218D01*
X131419297Y-98254193D01*
X131384318Y-98203813D01*
X131343797Y-98095171D01*
X131343793Y-98095164D01*
X131257547Y-97979955D01*
X131257544Y-97979952D01*
X131142335Y-97893706D01*
X131142328Y-97893702D01*
X131007482Y-97843408D01*
X131007483Y-97843408D01*
X130947883Y-97837001D01*
X130947881Y-97837000D01*
X130947873Y-97837000D01*
X130947864Y-97837000D01*
X129952129Y-97837000D01*
X129952123Y-97837001D01*
X129892516Y-97843408D01*
X129757671Y-97893702D01*
X129757664Y-97893706D01*
X129642455Y-97979952D01*
X129642452Y-97979955D01*
X129556206Y-98095164D01*
X129556202Y-98095171D01*
X129505908Y-98230016D01*
X129502281Y-98263757D01*
X129475543Y-98328307D01*
X129418150Y-98368155D01*
X129378992Y-98374500D01*
X128700564Y-98374500D01*
X128652812Y-98387295D01*
X128652811Y-98387294D01*
X128605063Y-98400089D01*
X128605062Y-98400089D01*
X128543777Y-98435473D01*
X128522759Y-98447608D01*
X128519435Y-98449527D01*
X128012180Y-98956782D01*
X127950857Y-98990267D01*
X127881165Y-98985283D01*
X127825232Y-98943411D01*
X127800815Y-98877947D01*
X127800499Y-98869121D01*
X127800499Y-97943481D01*
X127785646Y-97849695D01*
X127728050Y-97736657D01*
X127728046Y-97736653D01*
X127728045Y-97736651D01*
X127638347Y-97646953D01*
X127638344Y-97646951D01*
X127638342Y-97646949D01*
X127561517Y-97607804D01*
X127525301Y-97589351D01*
X127431524Y-97574499D01*
X127068482Y-97574499D01*
X126987519Y-97587322D01*
X126974696Y-97589353D01*
X126861658Y-97646949D01*
X126861657Y-97646950D01*
X126861652Y-97646953D01*
X126771954Y-97736651D01*
X126771951Y-97736656D01*
X126771950Y-97736657D01*
X126761755Y-97756666D01*
X126714352Y-97849697D01*
X126699500Y-97943474D01*
X126699500Y-98000500D01*
X126679815Y-98067539D01*
X126627011Y-98113294D01*
X126575500Y-98124500D01*
X125950564Y-98124500D01*
X125855063Y-98150089D01*
X125855060Y-98150090D01*
X125769440Y-98199522D01*
X125769435Y-98199526D01*
X125269438Y-98699525D01*
X125199526Y-98769436D01*
X125150091Y-98855059D01*
X125150089Y-98855065D01*
X125144273Y-98876769D01*
X125107907Y-98936429D01*
X125045059Y-98966957D01*
X124975684Y-98958660D01*
X124921807Y-98914173D01*
X124900534Y-98847621D01*
X124900499Y-98844731D01*
X124900499Y-98289628D01*
X124894091Y-98230017D01*
X124893159Y-98227519D01*
X124843797Y-98095171D01*
X124843793Y-98095164D01*
X124757547Y-97979955D01*
X124757544Y-97979952D01*
X124642335Y-97893706D01*
X124642328Y-97893702D01*
X124507482Y-97843408D01*
X124507484Y-97843408D01*
X124476367Y-97840063D01*
X124411816Y-97813324D01*
X124371969Y-97755931D01*
X124369476Y-97686106D01*
X124401941Y-97629095D01*
X124869219Y-97161819D01*
X124930542Y-97128334D01*
X124956900Y-97125500D01*
X125545614Y-97125500D01*
X125612653Y-97145185D01*
X125633295Y-97161819D01*
X125661985Y-97190509D01*
X125661986Y-97190510D01*
X125661988Y-97190511D01*
X125787511Y-97262982D01*
X125787512Y-97262982D01*
X125787515Y-97262984D01*
X125927525Y-97300500D01*
X125927528Y-97300500D01*
X126072472Y-97300500D01*
X126072475Y-97300500D01*
X126212485Y-97262984D01*
X126338015Y-97190509D01*
X126440509Y-97088015D01*
X126512984Y-96962485D01*
X126550500Y-96822475D01*
X126550500Y-96677525D01*
X126512984Y-96537515D01*
X126506385Y-96526086D01*
X126440511Y-96411988D01*
X126440506Y-96411982D01*
X126338017Y-96309493D01*
X126338011Y-96309488D01*
X126212488Y-96237017D01*
X126212489Y-96237017D01*
X126201006Y-96233940D01*
X126072475Y-96199500D01*
X125927525Y-96199500D01*
X125798993Y-96233940D01*
X125787511Y-96237017D01*
X125661988Y-96309488D01*
X125661982Y-96309493D01*
X125633295Y-96338181D01*
X125571972Y-96371666D01*
X125545614Y-96374500D01*
X124799436Y-96374500D01*
X124700564Y-96374500D01*
X124692007Y-96376793D01*
X124605060Y-96400090D01*
X124579494Y-96414852D01*
X124579492Y-96414853D01*
X124519438Y-96449524D01*
X124519435Y-96449526D01*
X123719438Y-97249525D01*
X123649527Y-97319435D01*
X123649525Y-97319437D01*
X123649525Y-97319438D01*
X123600090Y-97405062D01*
X123600089Y-97405064D01*
X123595865Y-97420829D01*
X123579861Y-97480559D01*
X123579860Y-97480564D01*
X123574500Y-97500565D01*
X123574500Y-97713000D01*
X123554815Y-97780039D01*
X123502011Y-97825794D01*
X123455389Y-97835950D01*
X123455423Y-97836599D01*
X123455429Y-97836646D01*
X123455426Y-97836646D01*
X123455436Y-97836824D01*
X123452123Y-97837001D01*
X123392516Y-97843408D01*
X123257671Y-97893702D01*
X123257664Y-97893706D01*
X123142455Y-97979952D01*
X123098766Y-98038313D01*
X123042832Y-98080183D01*
X122973140Y-98085167D01*
X122911817Y-98051681D01*
X122878333Y-97990357D01*
X122875500Y-97964001D01*
X122875500Y-96456899D01*
X122895185Y-96389860D01*
X122911819Y-96369218D01*
X123869218Y-95411819D01*
X123930541Y-95378334D01*
X123956899Y-95375500D01*
X126189236Y-95375500D01*
X126256275Y-95395185D01*
X126302030Y-95447989D01*
X126305418Y-95456167D01*
X126356202Y-95592327D01*
X126356206Y-95592334D01*
X126442452Y-95707543D01*
X126442455Y-95707546D01*
X126557664Y-95793792D01*
X126557671Y-95793796D01*
X126692517Y-95844090D01*
X126692516Y-95844090D01*
X126699444Y-95844834D01*
X126752127Y-95850499D01*
X127747872Y-95850498D01*
X127807483Y-95844090D01*
X127942331Y-95793795D01*
X128057546Y-95707545D01*
X128143796Y-95592330D01*
X128194091Y-95457482D01*
X128200273Y-95399986D01*
X128800001Y-95399986D01*
X128810494Y-95502697D01*
X128865641Y-95669119D01*
X128865643Y-95669124D01*
X128957684Y-95818345D01*
X129081654Y-95942315D01*
X129230875Y-96034356D01*
X129230880Y-96034358D01*
X129397302Y-96089505D01*
X129397309Y-96089506D01*
X129500019Y-96099999D01*
X129749999Y-96099999D01*
X130250000Y-96099999D01*
X130499972Y-96099999D01*
X130499986Y-96099998D01*
X130602697Y-96089505D01*
X130769119Y-96034358D01*
X130769124Y-96034356D01*
X130918345Y-95942315D01*
X131042315Y-95818345D01*
X131134356Y-95669124D01*
X131134358Y-95669119D01*
X131189505Y-95502697D01*
X131189506Y-95502690D01*
X131199999Y-95399986D01*
X131200000Y-95399973D01*
X131200000Y-95250000D01*
X130250000Y-95250000D01*
X130250000Y-96099999D01*
X129749999Y-96099999D01*
X129750000Y-96099998D01*
X129750000Y-95250000D01*
X128800001Y-95250000D01*
X128800001Y-95399986D01*
X128200273Y-95399986D01*
X128200500Y-95397872D01*
X128200499Y-95019441D01*
X128200499Y-94652128D01*
X128200499Y-94652127D01*
X128198900Y-94637253D01*
X128211306Y-94568495D01*
X128258917Y-94517358D01*
X128322190Y-94500000D01*
X128676000Y-94500000D01*
X128743039Y-94519685D01*
X128788794Y-94572489D01*
X128800000Y-94624000D01*
X128800000Y-94750000D01*
X131199999Y-94750000D01*
X131199999Y-94600028D01*
X131199998Y-94600013D01*
X131189505Y-94497302D01*
X131134358Y-94330880D01*
X131134356Y-94330875D01*
X131042315Y-94181654D01*
X130918345Y-94057684D01*
X130769121Y-93965642D01*
X130768068Y-93965151D01*
X130767466Y-93964621D01*
X130762975Y-93961851D01*
X130763448Y-93961083D01*
X130715627Y-93918981D01*
X130696473Y-93851788D01*
X130716686Y-93784906D01*
X130746154Y-93753503D01*
X130807546Y-93707546D01*
X130893796Y-93592331D01*
X130944091Y-93457483D01*
X130950500Y-93397873D01*
X130950499Y-92602128D01*
X130944091Y-92542517D01*
X130920983Y-92480562D01*
X130893797Y-92407671D01*
X130893793Y-92407664D01*
X130807547Y-92292455D01*
X130807544Y-92292452D01*
X130692335Y-92206206D01*
X130692328Y-92206202D01*
X130557482Y-92155908D01*
X130557483Y-92155908D01*
X130497883Y-92149501D01*
X130497881Y-92149500D01*
X130497873Y-92149500D01*
X130497864Y-92149500D01*
X129502129Y-92149500D01*
X129502123Y-92149501D01*
X129442516Y-92155908D01*
X129307671Y-92206202D01*
X129307664Y-92206206D01*
X129192455Y-92292452D01*
X129192452Y-92292455D01*
X129106206Y-92407664D01*
X129106202Y-92407671D01*
X129064742Y-92518834D01*
X129022871Y-92574768D01*
X128957407Y-92599185D01*
X128948560Y-92599501D01*
X128301440Y-92599501D01*
X128234401Y-92579816D01*
X128188646Y-92527012D01*
X128185258Y-92518834D01*
X128143797Y-92407672D01*
X128143793Y-92407665D01*
X128057547Y-92292456D01*
X128057544Y-92292453D01*
X127942335Y-92206207D01*
X127942328Y-92206203D01*
X127807482Y-92155909D01*
X127807483Y-92155909D01*
X127747883Y-92149502D01*
X127747881Y-92149501D01*
X127747873Y-92149501D01*
X127747864Y-92149501D01*
X126752129Y-92149501D01*
X126752123Y-92149502D01*
X126692516Y-92155909D01*
X126557671Y-92206203D01*
X126557664Y-92206207D01*
X126442455Y-92292453D01*
X126442452Y-92292456D01*
X126356206Y-92407665D01*
X126356202Y-92407672D01*
X126314517Y-92519438D01*
X126305909Y-92542518D01*
X126299500Y-92602128D01*
X126299500Y-92602135D01*
X126299500Y-92602136D01*
X126299500Y-93347871D01*
X126299501Y-93347877D01*
X126305908Y-93407484D01*
X126356202Y-93542329D01*
X126356203Y-93542330D01*
X126356204Y-93542332D01*
X126442454Y-93657547D01*
X126450308Y-93663426D01*
X126492180Y-93719357D01*
X126500000Y-93762695D01*
X126500000Y-94237304D01*
X126480315Y-94304343D01*
X126450315Y-94336568D01*
X126442453Y-94342453D01*
X126442452Y-94342454D01*
X126356206Y-94457663D01*
X126356202Y-94457670D01*
X126324066Y-94543833D01*
X126282195Y-94599767D01*
X126216730Y-94624184D01*
X126207884Y-94624500D01*
X125953386Y-94624500D01*
X125886347Y-94604815D01*
X125840592Y-94552011D01*
X125830648Y-94482853D01*
X125859673Y-94419297D01*
X125865705Y-94412819D01*
X125896303Y-94382221D01*
X125940509Y-94338015D01*
X126012984Y-94212485D01*
X126050500Y-94072475D01*
X126050500Y-93927525D01*
X126012984Y-93787515D01*
X125954950Y-93686997D01*
X125938478Y-93619101D01*
X125954951Y-93563000D01*
X126012984Y-93462485D01*
X126050500Y-93322475D01*
X126050500Y-93177525D01*
X126012984Y-93037515D01*
X125954950Y-92936997D01*
X125938478Y-92869101D01*
X125954951Y-92813000D01*
X126012984Y-92712485D01*
X126050500Y-92572475D01*
X126050500Y-92427525D01*
X126012984Y-92287515D01*
X125973622Y-92219339D01*
X125940511Y-92161988D01*
X125940506Y-92161982D01*
X125838017Y-92059493D01*
X125838011Y-92059488D01*
X125712488Y-91987017D01*
X125712489Y-91987017D01*
X125688402Y-91980563D01*
X125572475Y-91949500D01*
X125427525Y-91949500D01*
X125311598Y-91980563D01*
X125287511Y-91987017D01*
X125187000Y-92045048D01*
X125119100Y-92061521D01*
X125063000Y-92045048D01*
X124962488Y-91987017D01*
X124962489Y-91987017D01*
X124938402Y-91980563D01*
X124822475Y-91949500D01*
X124677525Y-91949500D01*
X124561598Y-91980563D01*
X124537511Y-91987017D01*
X124437000Y-92045048D01*
X124425334Y-92047878D01*
X124415556Y-92054841D01*
X124392010Y-92055962D01*
X124369100Y-92061521D01*
X124356011Y-92057677D01*
X124345766Y-92058166D01*
X124313000Y-92045048D01*
X124245632Y-92006153D01*
X124197416Y-91955586D01*
X124184193Y-91886979D01*
X124210161Y-91822114D01*
X124219951Y-91811085D01*
X124731601Y-91299435D01*
X125550474Y-90480563D01*
X125567794Y-90450564D01*
X125599910Y-90394938D01*
X125625500Y-90299435D01*
X125625500Y-90295412D01*
X125631393Y-90280011D01*
X125648822Y-90257132D01*
X125663795Y-90232568D01*
X125670778Y-90228311D01*
X125673734Y-90224432D01*
X125682175Y-90221364D01*
X125703869Y-90208141D01*
X125742331Y-90193796D01*
X125857546Y-90107546D01*
X125934855Y-90004274D01*
X125990786Y-89962404D01*
X126060478Y-89957420D01*
X126121801Y-89990905D01*
X126144028Y-90021173D01*
X126160721Y-90053129D01*
X126289246Y-90210753D01*
X126446870Y-90339278D01*
X126627138Y-90433442D01*
X126822671Y-90489390D01*
X126822674Y-90489391D01*
X126941999Y-90499999D01*
X126942002Y-90500000D01*
X128250000Y-90500000D01*
X128750000Y-90500000D01*
X130057998Y-90500000D01*
X130058000Y-90499999D01*
X130177325Y-90489391D01*
X130177328Y-90489390D01*
X130372861Y-90433442D01*
X130553129Y-90339278D01*
X130710753Y-90210753D01*
X130839278Y-90053129D01*
X130933442Y-89872861D01*
X130989390Y-89677328D01*
X130989391Y-89677325D01*
X130999999Y-89558000D01*
X131000000Y-89557998D01*
X131000000Y-89250000D01*
X128750000Y-89250000D01*
X128750000Y-90500000D01*
X128250000Y-90500000D01*
X128250000Y-88750000D01*
X128750000Y-88750000D01*
X131000000Y-88750000D01*
X131000000Y-88442002D01*
X130999999Y-88441999D01*
X130989391Y-88322674D01*
X130989390Y-88322671D01*
X130933442Y-88127138D01*
X130839278Y-87946870D01*
X130710753Y-87789246D01*
X130553129Y-87660721D01*
X130372861Y-87566557D01*
X130177328Y-87510609D01*
X130177325Y-87510608D01*
X130058000Y-87500000D01*
X128750000Y-87500000D01*
X128750000Y-88750000D01*
X128250000Y-88750000D01*
X128250000Y-87500000D01*
X127423833Y-87500000D01*
X127406727Y-87494977D01*
X127388898Y-87494977D01*
X127373898Y-87485337D01*
X127356794Y-87480315D01*
X127345120Y-87466843D01*
X127330120Y-87457203D01*
X127322712Y-87440983D01*
X127311039Y-87427511D01*
X127308501Y-87409865D01*
X127301095Y-87393647D01*
X127303632Y-87375999D01*
X127301095Y-87358353D01*
X127308500Y-87342136D01*
X127311038Y-87324489D01*
X127330120Y-87294798D01*
X127331853Y-87292798D01*
X127390631Y-87255023D01*
X127425566Y-87250000D01*
X131574430Y-87250000D01*
X131641469Y-87269685D01*
G37*
G04 #@! TD.AperFunction*
G04 #@! TA.AperFunction,Conductor*
G36*
X115267539Y-93019685D02*
G01*
X115313294Y-93072489D01*
X115324500Y-93124000D01*
X115324500Y-94022390D01*
X115304815Y-94089429D01*
X115288181Y-94110071D01*
X114509517Y-94888734D01*
X114509512Y-94888740D01*
X114453497Y-94985761D01*
X114450518Y-94992954D01*
X114406677Y-95047357D01*
X114340382Y-95069422D01*
X114335958Y-95069501D01*
X114206962Y-95069501D01*
X114206962Y-95069502D01*
X114116111Y-95083890D01*
X114116110Y-95083890D01*
X114006595Y-95139691D01*
X114006591Y-95139694D01*
X113919693Y-95226592D01*
X113919690Y-95226596D01*
X113919689Y-95226598D01*
X113864718Y-95334486D01*
X113859985Y-95343775D01*
X113836343Y-95368806D01*
X113812987Y-95393994D01*
X113812416Y-95394140D01*
X113812010Y-95394571D01*
X113778630Y-95402837D01*
X113745323Y-95411410D01*
X113744761Y-95411224D01*
X113744189Y-95411366D01*
X113711644Y-95400275D01*
X113678985Y-95389478D01*
X113678613Y-95389019D01*
X113678055Y-95388829D01*
X113656672Y-95361903D01*
X113635034Y-95335163D01*
X113634898Y-95334486D01*
X113634603Y-95334114D01*
X113626237Y-95300983D01*
X113625500Y-95294255D01*
X113625500Y-95200565D01*
X113610595Y-95144938D01*
X113599911Y-95105063D01*
X113550475Y-95019438D01*
X112976324Y-94445287D01*
X112942839Y-94383964D01*
X112947823Y-94314272D01*
X112989692Y-94258341D01*
X113057546Y-94207546D01*
X113143796Y-94092331D01*
X113194091Y-93957483D01*
X113200500Y-93897873D01*
X113200499Y-93123999D01*
X113220183Y-93056961D01*
X113272987Y-93011206D01*
X113324499Y-93000000D01*
X115200500Y-93000000D01*
X115267539Y-93019685D01*
G37*
G04 #@! TD.AperFunction*
G04 #@! TA.AperFunction,Conductor*
G36*
X115891471Y-87269685D02*
G01*
X115918141Y-87292795D01*
X115936273Y-87313721D01*
X115936276Y-87313724D01*
X116098487Y-87454281D01*
X116098493Y-87454285D01*
X116202591Y-87521185D01*
X116248346Y-87573988D01*
X116258290Y-87643147D01*
X116229265Y-87706703D01*
X116170487Y-87744477D01*
X116135552Y-87749500D01*
X113449998Y-87749500D01*
X113449981Y-87749501D01*
X113347203Y-87760000D01*
X113347200Y-87760001D01*
X113180668Y-87815185D01*
X113180663Y-87815187D01*
X113031342Y-87907289D01*
X112907289Y-88031342D01*
X112815187Y-88180663D01*
X112815185Y-88180668D01*
X112808074Y-88202128D01*
X112760001Y-88347203D01*
X112760001Y-88347204D01*
X112760000Y-88347204D01*
X112749409Y-88450872D01*
X112723012Y-88515563D01*
X112665831Y-88555714D01*
X112596020Y-88558576D01*
X112564051Y-88545655D01*
X112462488Y-88487017D01*
X112462489Y-88487017D01*
X112451006Y-88483940D01*
X112322475Y-88449500D01*
X112177525Y-88449500D01*
X112048993Y-88483940D01*
X112037511Y-88487017D01*
X111911988Y-88559488D01*
X111911982Y-88559493D01*
X111809493Y-88661982D01*
X111809488Y-88661988D01*
X111737017Y-88787511D01*
X111737016Y-88787515D01*
X111699500Y-88927525D01*
X111699500Y-89072475D01*
X111737016Y-89212485D01*
X111737017Y-89212488D01*
X111809488Y-89338011D01*
X111809490Y-89338013D01*
X111809491Y-89338015D01*
X111911985Y-89440509D01*
X111911986Y-89440510D01*
X111911988Y-89440511D01*
X112037511Y-89512982D01*
X112037512Y-89512982D01*
X112037515Y-89512984D01*
X112177525Y-89550500D01*
X112177528Y-89550500D01*
X112322472Y-89550500D01*
X112322475Y-89550500D01*
X112462485Y-89512984D01*
X112564055Y-89454342D01*
X112631952Y-89437870D01*
X112697979Y-89460722D01*
X112741170Y-89515643D01*
X112749411Y-89549129D01*
X112760000Y-89652796D01*
X112760001Y-89652799D01*
X112808078Y-89797883D01*
X112815186Y-89819334D01*
X112907288Y-89968656D01*
X113031344Y-90092712D01*
X113180666Y-90184814D01*
X113347203Y-90239999D01*
X113449991Y-90250500D01*
X113950500Y-90250499D01*
X113959186Y-90253049D01*
X113968147Y-90251761D01*
X113992183Y-90262738D01*
X114017539Y-90270183D01*
X114023467Y-90277025D01*
X114031703Y-90280786D01*
X114045989Y-90303017D01*
X114063294Y-90322987D01*
X114065581Y-90333502D01*
X114069477Y-90339564D01*
X114074500Y-90374499D01*
X114074500Y-90502648D01*
X114054815Y-90569687D01*
X114002011Y-90615442D01*
X113963755Y-90625938D01*
X113917516Y-90630909D01*
X113782671Y-90681202D01*
X113782664Y-90681206D01*
X113667455Y-90767452D01*
X113667452Y-90767455D01*
X113581206Y-90882664D01*
X113581202Y-90882671D01*
X113539742Y-90993833D01*
X113526472Y-91011559D01*
X113517273Y-91031703D01*
X113505942Y-91038984D01*
X113497871Y-91049767D01*
X113477122Y-91057505D01*
X113458495Y-91069477D01*
X113436578Y-91072628D01*
X113432407Y-91074184D01*
X113423560Y-91074500D01*
X113292115Y-91074500D01*
X113225076Y-91054815D01*
X113179321Y-91002011D01*
X113175933Y-90993833D01*
X113143797Y-90907671D01*
X113143793Y-90907664D01*
X113057547Y-90792455D01*
X113057544Y-90792452D01*
X112942335Y-90706206D01*
X112942328Y-90706202D01*
X112807482Y-90655908D01*
X112807483Y-90655908D01*
X112747883Y-90649501D01*
X112747881Y-90649500D01*
X112747873Y-90649500D01*
X112747864Y-90649500D01*
X111752129Y-90649500D01*
X111752123Y-90649501D01*
X111692516Y-90655908D01*
X111557671Y-90706202D01*
X111557664Y-90706206D01*
X111442455Y-90792452D01*
X111442452Y-90792455D01*
X111356206Y-90907664D01*
X111356202Y-90907671D01*
X111305908Y-91042517D01*
X111299501Y-91102116D01*
X111299500Y-91102135D01*
X111299500Y-91897870D01*
X111299501Y-91897876D01*
X111305908Y-91957483D01*
X111356202Y-92092328D01*
X111356203Y-92092329D01*
X111356204Y-92092331D01*
X111399002Y-92149502D01*
X111441451Y-92206207D01*
X111442454Y-92207546D01*
X111450308Y-92213425D01*
X111492180Y-92269356D01*
X111500000Y-92312694D01*
X111500000Y-92687305D01*
X111480315Y-92754344D01*
X111450315Y-92786569D01*
X111442453Y-92792454D01*
X111442452Y-92792455D01*
X111356206Y-92907664D01*
X111356202Y-92907671D01*
X111305908Y-93042517D01*
X111299501Y-93102116D01*
X111299500Y-93102135D01*
X111299500Y-93897870D01*
X111299501Y-93897876D01*
X111305908Y-93957483D01*
X111356202Y-94092328D01*
X111356206Y-94092335D01*
X111442452Y-94207544D01*
X111442455Y-94207547D01*
X111557664Y-94293793D01*
X111557671Y-94293797D01*
X111572624Y-94299374D01*
X111692517Y-94344091D01*
X111752127Y-94350500D01*
X111802841Y-94350499D01*
X111806399Y-94351544D01*
X111810012Y-94350707D01*
X111839655Y-94361308D01*
X111869879Y-94370182D01*
X111873329Y-94373351D01*
X111875801Y-94374235D01*
X111882986Y-94382221D01*
X111901093Y-94398852D01*
X111906117Y-94405377D01*
X111949525Y-94480562D01*
X111949526Y-94480563D01*
X112012457Y-94543494D01*
X112017353Y-94549853D01*
X112027215Y-94575239D01*
X112040267Y-94599142D01*
X112039681Y-94607329D01*
X112042654Y-94614981D01*
X112037225Y-94641669D01*
X112035283Y-94668834D01*
X112030363Y-94675404D01*
X112028728Y-94683448D01*
X112009732Y-94702964D01*
X111993411Y-94724767D01*
X111985720Y-94727635D01*
X111979995Y-94733518D01*
X111953464Y-94739666D01*
X111927947Y-94749184D01*
X111919101Y-94749500D01*
X106124500Y-94749500D01*
X106057461Y-94729815D01*
X106011706Y-94677011D01*
X106000500Y-94625500D01*
X106000500Y-87874500D01*
X106020185Y-87807461D01*
X106072989Y-87761706D01*
X106124500Y-87750500D01*
X110573951Y-87750500D01*
X110574013Y-87750496D01*
X110607318Y-87750496D01*
X110607319Y-87750496D01*
X110777852Y-87725976D01*
X110819764Y-87719951D01*
X110819765Y-87719950D01*
X110819769Y-87719950D01*
X111025710Y-87659480D01*
X111220949Y-87570318D01*
X111401511Y-87454277D01*
X111563721Y-87313721D01*
X111581852Y-87292797D01*
X111640630Y-87255023D01*
X111675565Y-87250000D01*
X115824432Y-87250000D01*
X115891471Y-87269685D01*
G37*
G04 #@! TD.AperFunction*
G04 #@! TA.AperFunction,Conductor*
G36*
X113687292Y-82921968D02*
G01*
X113743226Y-82963839D01*
X113766663Y-83020270D01*
X113771926Y-83056391D01*
X113823303Y-83161485D01*
X113906014Y-83244196D01*
X113906015Y-83244196D01*
X113906017Y-83244198D01*
X114011107Y-83295573D01*
X114024031Y-83297456D01*
X114079239Y-83305500D01*
X114079240Y-83305500D01*
X114250500Y-83305500D01*
X114317539Y-83325185D01*
X114363294Y-83377989D01*
X114374500Y-83429500D01*
X114374500Y-83704435D01*
X114400090Y-83799938D01*
X114436237Y-83862546D01*
X114449523Y-83885559D01*
X114449525Y-83885561D01*
X114449526Y-83885563D01*
X115149526Y-84585563D01*
X115219439Y-84655476D01*
X115305063Y-84704911D01*
X115352812Y-84717706D01*
X115352813Y-84717706D01*
X115362904Y-84720409D01*
X115400565Y-84730501D01*
X115400566Y-84730501D01*
X116166671Y-84730501D01*
X116233710Y-84750186D01*
X116279465Y-84802990D01*
X116289409Y-84872148D01*
X116260384Y-84935704D01*
X116233710Y-84958816D01*
X116098493Y-85045714D01*
X116098487Y-85045718D01*
X115936275Y-85186276D01*
X115853352Y-85281973D01*
X115794574Y-85319746D01*
X115760587Y-85324765D01*
X111767713Y-85355246D01*
X111735275Y-85345990D01*
X111702599Y-85337357D01*
X111701359Y-85336312D01*
X111700525Y-85336074D01*
X111675305Y-85314981D01*
X111674153Y-85313723D01*
X111563723Y-85186279D01*
X111533533Y-85160119D01*
X111528690Y-85154829D01*
X111516342Y-85129635D01*
X111501174Y-85106032D01*
X111501174Y-85098685D01*
X111497941Y-85092089D01*
X111501174Y-85064222D01*
X111501174Y-85036163D01*
X111505146Y-85029981D01*
X111505993Y-85022685D01*
X111523780Y-85000986D01*
X111538949Y-84977385D01*
X111546348Y-84973458D01*
X111550289Y-84968651D01*
X111563398Y-84964409D01*
X111588052Y-84951326D01*
X111712485Y-84917984D01*
X111838015Y-84845509D01*
X111940509Y-84743015D01*
X112012984Y-84617485D01*
X112050500Y-84477475D01*
X112050500Y-84332525D01*
X112012984Y-84192515D01*
X112002278Y-84173971D01*
X111985805Y-84106075D01*
X112008656Y-84040047D01*
X112063576Y-83996855D01*
X112066333Y-83995790D01*
X112110007Y-83979501D01*
X112175649Y-83955018D01*
X112192326Y-83948798D01*
X112192326Y-83948797D01*
X112192331Y-83948796D01*
X112307546Y-83862546D01*
X112393796Y-83747331D01*
X112409796Y-83704432D01*
X112425934Y-83661166D01*
X112467806Y-83605233D01*
X112533270Y-83580816D01*
X112542116Y-83580500D01*
X112806016Y-83580500D01*
X112806018Y-83580500D01*
X112914237Y-83551503D01*
X113011263Y-83495485D01*
X113556280Y-82950467D01*
X113617601Y-82916984D01*
X113687292Y-82921968D01*
G37*
G04 #@! TD.AperFunction*
G04 #@! TA.AperFunction,Conductor*
G36*
X129443039Y-79550185D02*
G01*
X129488794Y-79602989D01*
X129500000Y-79654500D01*
X129500000Y-80683332D01*
X129499572Y-80691311D01*
X129499678Y-80691317D01*
X129499500Y-80694621D01*
X129499501Y-80694623D01*
X129499500Y-80694633D01*
X129499500Y-81490370D01*
X129499501Y-81490376D01*
X129505908Y-81549983D01*
X129556202Y-81684828D01*
X129556206Y-81684835D01*
X129642452Y-81800044D01*
X129642455Y-81800047D01*
X129757664Y-81886293D01*
X129757671Y-81886297D01*
X129892516Y-81936591D01*
X129952113Y-81942999D01*
X129952122Y-81942999D01*
X129952127Y-81943000D01*
X129952131Y-81942999D01*
X129955434Y-81943177D01*
X129955424Y-81943355D01*
X129955431Y-81943356D01*
X129955417Y-81943477D01*
X129955366Y-81944446D01*
X130017478Y-81962644D01*
X130063264Y-82015421D01*
X130074500Y-82066999D01*
X130074500Y-82348982D01*
X130074500Y-82461018D01*
X130084263Y-82497452D01*
X130103497Y-82569236D01*
X130103498Y-82569239D01*
X130112982Y-82585666D01*
X130159515Y-82666263D01*
X131238737Y-83745485D01*
X131335763Y-83801503D01*
X131443982Y-83830500D01*
X131556019Y-83830500D01*
X132625501Y-83830500D01*
X132692540Y-83850185D01*
X132738295Y-83902989D01*
X132748931Y-83951879D01*
X132749341Y-83951859D01*
X132749467Y-83954346D01*
X132749501Y-83954500D01*
X132749501Y-83955018D01*
X132760000Y-84057796D01*
X132760001Y-84057799D01*
X132808937Y-84205475D01*
X132815186Y-84224334D01*
X132907288Y-84373656D01*
X133031344Y-84497712D01*
X133055396Y-84512547D01*
X133067416Y-84519961D01*
X133114141Y-84571909D01*
X133125362Y-84640872D01*
X133097519Y-84704954D01*
X133039450Y-84743810D01*
X133002319Y-84749500D01*
X132642682Y-84749500D01*
X132430235Y-84780044D01*
X132430225Y-84780047D01*
X132224284Y-84840517D01*
X132029061Y-84929672D01*
X132029048Y-84929679D01*
X131848483Y-85045721D01*
X131848480Y-85045724D01*
X131701121Y-85173411D01*
X131637566Y-85202436D01*
X131620866Y-85203694D01*
X127414219Y-85235806D01*
X127347031Y-85216634D01*
X127319559Y-85193012D01*
X127318251Y-85191503D01*
X127313723Y-85186277D01*
X127313720Y-85186274D01*
X127313718Y-85186272D01*
X127151518Y-85045726D01*
X127151511Y-85045720D01*
X126970953Y-84929682D01*
X126970942Y-84929676D01*
X126889085Y-84892293D01*
X126836281Y-84846538D01*
X126816597Y-84779498D01*
X126836282Y-84712459D01*
X126889086Y-84666704D01*
X126940593Y-84655499D01*
X128297872Y-84655499D01*
X128357483Y-84649091D01*
X128492331Y-84598796D01*
X128607546Y-84512546D01*
X128693796Y-84397331D01*
X128744091Y-84262483D01*
X128750500Y-84202873D01*
X128750499Y-83607128D01*
X128745299Y-83558757D01*
X128744091Y-83547516D01*
X128693797Y-83412671D01*
X128693793Y-83412664D01*
X128607547Y-83297455D01*
X128607544Y-83297452D01*
X128492335Y-83211206D01*
X128492328Y-83211202D01*
X128357482Y-83160908D01*
X128357483Y-83160908D01*
X128297883Y-83154501D01*
X128297881Y-83154500D01*
X128297873Y-83154500D01*
X128297865Y-83154500D01*
X127983761Y-83154500D01*
X127916722Y-83134815D01*
X127870967Y-83082011D01*
X127863986Y-83062592D01*
X127849912Y-83010065D01*
X127849911Y-83010064D01*
X127849911Y-83010063D01*
X127800475Y-82924437D01*
X127230563Y-82354526D01*
X127230562Y-82354525D01*
X127144940Y-82305091D01*
X127144939Y-82305090D01*
X127057993Y-82281793D01*
X127057993Y-82281792D01*
X127057990Y-82281792D01*
X127049437Y-82279500D01*
X127049436Y-82279500D01*
X127049435Y-82279500D01*
X123456899Y-82279500D01*
X123389860Y-82259815D01*
X123369218Y-82243181D01*
X123269335Y-82143298D01*
X123235850Y-82081975D01*
X123240834Y-82012283D01*
X123282706Y-81956350D01*
X123348170Y-81931933D01*
X123385531Y-81934940D01*
X123392510Y-81936588D01*
X123392517Y-81936591D01*
X123452127Y-81943000D01*
X124447872Y-81942999D01*
X124507483Y-81936591D01*
X124642331Y-81886296D01*
X124757546Y-81800046D01*
X124843796Y-81684831D01*
X124894091Y-81549983D01*
X124895496Y-81536917D01*
X124922234Y-81472366D01*
X124956785Y-81442786D01*
X124957434Y-81442410D01*
X124957438Y-81442410D01*
X125043062Y-81392975D01*
X125112975Y-81323062D01*
X125288319Y-81147718D01*
X125349642Y-81114233D01*
X125419334Y-81119217D01*
X125475267Y-81161089D01*
X125499684Y-81226553D01*
X125500000Y-81235399D01*
X125500000Y-81433149D01*
X125502899Y-81469989D01*
X125502900Y-81469995D01*
X125548716Y-81627693D01*
X125548717Y-81627696D01*
X125632314Y-81769052D01*
X125632321Y-81769061D01*
X125748438Y-81885178D01*
X125748447Y-81885185D01*
X125889801Y-81968781D01*
X126047514Y-82014600D01*
X126047511Y-82014600D01*
X126049998Y-82014795D01*
X126050000Y-82014795D01*
X126550000Y-82014795D01*
X126550001Y-82014795D01*
X126552486Y-82014600D01*
X126710198Y-81968781D01*
X126851552Y-81885185D01*
X126851561Y-81885178D01*
X126967678Y-81769061D01*
X126967685Y-81769052D01*
X127051282Y-81627696D01*
X127051283Y-81627693D01*
X127097099Y-81469995D01*
X127097100Y-81469989D01*
X127099999Y-81433149D01*
X127100000Y-81433134D01*
X127100000Y-81030000D01*
X126550000Y-81030000D01*
X126550000Y-82014795D01*
X126050000Y-82014795D01*
X126050000Y-80904000D01*
X126069685Y-80836961D01*
X126122489Y-80791206D01*
X126174000Y-80780000D01*
X126300000Y-80780000D01*
X126300000Y-80654000D01*
X126319685Y-80586961D01*
X126372489Y-80541206D01*
X126424000Y-80530000D01*
X127100000Y-80530000D01*
X127100000Y-80126865D01*
X127099999Y-80126850D01*
X127097100Y-80090010D01*
X127097099Y-80090007D01*
X127085939Y-80051594D01*
X127086138Y-79981725D01*
X127124079Y-79923054D01*
X127187717Y-79894210D01*
X127205006Y-79892998D01*
X127431518Y-79892998D01*
X127525304Y-79878145D01*
X127525305Y-79878144D01*
X127534943Y-79876618D01*
X127535263Y-79878642D01*
X127592500Y-79877003D01*
X127652335Y-79913079D01*
X127683168Y-79975778D01*
X127675209Y-80045192D01*
X127671473Y-80053223D01*
X127664353Y-80067196D01*
X127664352Y-80067198D01*
X127649500Y-80160975D01*
X127649500Y-81399017D01*
X127658399Y-81455205D01*
X127664354Y-81492804D01*
X127721950Y-81605842D01*
X127721952Y-81605844D01*
X127721954Y-81605847D01*
X127811652Y-81695545D01*
X127811654Y-81695546D01*
X127811658Y-81695550D01*
X127924694Y-81753145D01*
X127924698Y-81753147D01*
X128018475Y-81767999D01*
X128018481Y-81768000D01*
X128381518Y-81767999D01*
X128475304Y-81753146D01*
X128588342Y-81695550D01*
X128678050Y-81605842D01*
X128735646Y-81492804D01*
X128735646Y-81492802D01*
X128735647Y-81492801D01*
X128746901Y-81421740D01*
X128750500Y-81399019D01*
X128750499Y-80160982D01*
X128735646Y-80067196D01*
X128678050Y-79954158D01*
X128678046Y-79954154D01*
X128678045Y-79954152D01*
X128667645Y-79943752D01*
X128634160Y-79882429D01*
X128639144Y-79812737D01*
X128667640Y-79768395D01*
X128869219Y-79566816D01*
X128930542Y-79533334D01*
X128956899Y-79530500D01*
X129376000Y-79530500D01*
X129443039Y-79550185D01*
G37*
G04 #@! TD.AperFunction*
G04 #@! TA.AperFunction,Conductor*
G36*
X112820842Y-73681287D02*
G01*
X112864884Y-73735527D01*
X112874500Y-73783404D01*
X112874500Y-77954436D01*
X112881215Y-77979499D01*
X112900089Y-78049937D01*
X112900090Y-78049938D01*
X112932169Y-78105500D01*
X112949526Y-78135563D01*
X113349525Y-78535562D01*
X113419438Y-78605475D01*
X113482729Y-78642016D01*
X113505062Y-78654910D01*
X113552811Y-78667705D01*
X113552812Y-78667705D01*
X113562903Y-78670408D01*
X113600564Y-78680500D01*
X113600565Y-78680500D01*
X113639203Y-78680500D01*
X113706242Y-78700185D01*
X113751997Y-78752989D01*
X113761228Y-78817189D01*
X113762324Y-78817269D01*
X113762000Y-78821737D01*
X113762000Y-79088262D01*
X113762324Y-79092731D01*
X113761170Y-79092814D01*
X113752095Y-79156798D01*
X113706440Y-79209688D01*
X113639438Y-79229500D01*
X113250564Y-79229500D01*
X113155063Y-79255089D01*
X113155060Y-79255090D01*
X113069437Y-79304524D01*
X113006478Y-79367485D01*
X113006477Y-79367485D01*
X112769438Y-79604525D01*
X112699527Y-79674435D01*
X112699525Y-79674437D01*
X112699525Y-79674438D01*
X112655214Y-79751187D01*
X112650089Y-79760064D01*
X112645865Y-79775829D01*
X112629861Y-79835559D01*
X112629860Y-79835564D01*
X112624500Y-79855565D01*
X112624500Y-80448100D01*
X112615855Y-80477541D01*
X112609331Y-80507529D01*
X112605577Y-80512543D01*
X112604815Y-80515139D01*
X112588179Y-80535783D01*
X112566690Y-80557271D01*
X112505366Y-80590755D01*
X112435675Y-80585769D01*
X112379745Y-80543900D01*
X112307546Y-80447454D01*
X112259849Y-80411748D01*
X112192335Y-80361206D01*
X112192328Y-80361202D01*
X112057482Y-80310908D01*
X112057483Y-80310908D01*
X111997883Y-80304501D01*
X111997881Y-80304500D01*
X111997873Y-80304500D01*
X111997864Y-80304500D01*
X111994548Y-80304322D01*
X111994615Y-80303065D01*
X111932461Y-80284815D01*
X111886706Y-80232011D01*
X111875500Y-80180500D01*
X111875500Y-77259500D01*
X111895185Y-77192461D01*
X111947989Y-77146706D01*
X111999500Y-77135500D01*
X112250002Y-77135500D01*
X112250003Y-77135499D01*
X112347776Y-77116051D01*
X112430666Y-77060666D01*
X112486051Y-76977776D01*
X112505500Y-76880000D01*
X112505500Y-75730000D01*
X112500643Y-75680417D01*
X112462589Y-75588274D01*
X112392170Y-75517708D01*
X112392169Y-75517707D01*
X112392168Y-75517706D01*
X112392169Y-75517706D01*
X112300109Y-75479462D01*
X112300110Y-75479462D01*
X112200416Y-75479356D01*
X112200414Y-75479357D01*
X112108278Y-75517409D01*
X112108270Y-75517413D01*
X111568783Y-75877071D01*
X111502083Y-75897879D01*
X111434723Y-75879324D01*
X111431217Y-75877071D01*
X110891730Y-75517413D01*
X110891723Y-75517409D01*
X110847775Y-75493948D01*
X110750001Y-75474500D01*
X110749998Y-75474500D01*
X110652228Y-75493947D01*
X110652221Y-75493950D01*
X110569334Y-75549333D01*
X110569333Y-75549334D01*
X110513950Y-75632221D01*
X110513947Y-75632228D01*
X110494500Y-75729995D01*
X110494500Y-76155500D01*
X110474815Y-76222539D01*
X110422011Y-76268294D01*
X110370500Y-76279500D01*
X109700564Y-76279500D01*
X109605063Y-76305089D01*
X109605060Y-76305090D01*
X109519440Y-76354522D01*
X109519435Y-76354526D01*
X109130782Y-76743181D01*
X109103854Y-76757884D01*
X109078036Y-76774477D01*
X109071835Y-76775368D01*
X109069459Y-76776666D01*
X109043101Y-76779500D01*
X108831102Y-76779500D01*
X108764063Y-76759815D01*
X108718308Y-76707011D01*
X108714920Y-76698833D01*
X108668797Y-76575171D01*
X108668793Y-76575164D01*
X108582548Y-76459956D01*
X108582546Y-76459955D01*
X108582546Y-76459954D01*
X108549686Y-76435355D01*
X108546950Y-76431699D01*
X108542797Y-76429803D01*
X108526208Y-76403990D01*
X108507817Y-76379421D01*
X108506801Y-76373792D01*
X108505023Y-76371025D01*
X108500000Y-76336090D01*
X108500000Y-76198279D01*
X108519685Y-76131240D01*
X108558903Y-76092740D01*
X108693345Y-76009815D01*
X108817315Y-75885845D01*
X108909356Y-75736624D01*
X108909358Y-75736619D01*
X108964505Y-75570197D01*
X108964506Y-75570190D01*
X108974999Y-75467486D01*
X108975000Y-75467473D01*
X108975000Y-75330000D01*
X106525001Y-75330000D01*
X106525001Y-75467486D01*
X106535494Y-75570197D01*
X106590641Y-75736619D01*
X106590643Y-75736624D01*
X106682684Y-75885845D01*
X106806654Y-76009815D01*
X106941097Y-76092740D01*
X106947921Y-76100327D01*
X106957203Y-76104566D01*
X106970891Y-76125865D01*
X106987821Y-76144688D01*
X106990465Y-76156323D01*
X106994977Y-76163344D01*
X107000000Y-76198279D01*
X107000000Y-76336090D01*
X106980315Y-76403129D01*
X106950313Y-76435356D01*
X106917451Y-76459956D01*
X106831206Y-76575164D01*
X106831202Y-76575171D01*
X106780910Y-76710013D01*
X106780909Y-76710017D01*
X106774500Y-76769627D01*
X106774500Y-76769634D01*
X106774500Y-76769635D01*
X106774500Y-77540370D01*
X106774501Y-77540376D01*
X106780908Y-77599983D01*
X106831202Y-77734828D01*
X106831206Y-77734835D01*
X106917452Y-77850044D01*
X106917455Y-77850047D01*
X107032664Y-77936293D01*
X107032671Y-77936297D01*
X107167517Y-77986591D01*
X107167516Y-77986591D01*
X107174444Y-77987335D01*
X107227127Y-77993000D01*
X108272872Y-77992999D01*
X108332483Y-77986591D01*
X108467331Y-77936296D01*
X108582546Y-77850046D01*
X108668796Y-77734831D01*
X108680298Y-77703990D01*
X108714920Y-77611167D01*
X108756791Y-77555233D01*
X108822255Y-77530816D01*
X108831102Y-77530500D01*
X109299435Y-77530500D01*
X109299436Y-77530500D01*
X109347186Y-77517705D01*
X109394938Y-77504910D01*
X109480562Y-77455475D01*
X109550475Y-77385562D01*
X109550474Y-77385562D01*
X109869220Y-77066817D01*
X109930543Y-77033334D01*
X109956900Y-77030500D01*
X110487806Y-77030500D01*
X110554845Y-77050185D01*
X110560657Y-77054868D01*
X110569333Y-77060665D01*
X110569334Y-77060666D01*
X110652224Y-77116051D01*
X110652227Y-77116051D01*
X110652228Y-77116052D01*
X110749995Y-77135499D01*
X110749998Y-77135500D01*
X110750000Y-77135500D01*
X111000500Y-77135500D01*
X111067539Y-77155185D01*
X111113294Y-77207989D01*
X111124500Y-77259500D01*
X111124500Y-78701614D01*
X111104815Y-78768653D01*
X111052011Y-78814408D01*
X110982853Y-78824352D01*
X110919297Y-78795327D01*
X110912819Y-78789295D01*
X110838017Y-78714493D01*
X110838011Y-78714488D01*
X110712488Y-78642017D01*
X110712489Y-78642017D01*
X110688402Y-78635563D01*
X110572475Y-78604500D01*
X110427525Y-78604500D01*
X110311598Y-78635563D01*
X110287511Y-78642017D01*
X110161988Y-78714488D01*
X110161982Y-78714493D01*
X110059493Y-78816982D01*
X110059488Y-78816988D01*
X109987017Y-78942511D01*
X109987016Y-78942515D01*
X109949500Y-79082525D01*
X109949500Y-79227475D01*
X109983822Y-79355565D01*
X109987017Y-79367488D01*
X110059488Y-79493011D01*
X110059490Y-79493013D01*
X110059491Y-79493015D01*
X110161985Y-79595509D01*
X110161986Y-79595510D01*
X110161988Y-79595511D01*
X110287511Y-79667982D01*
X110287512Y-79667982D01*
X110287515Y-79667984D01*
X110427525Y-79705500D01*
X110427528Y-79705500D01*
X110572472Y-79705500D01*
X110572475Y-79705500D01*
X110712485Y-79667984D01*
X110838015Y-79595509D01*
X110912819Y-79520705D01*
X110974142Y-79487220D01*
X111043834Y-79492204D01*
X111099767Y-79534076D01*
X111124184Y-79599540D01*
X111124500Y-79608386D01*
X111124500Y-80180500D01*
X111104815Y-80247539D01*
X111052011Y-80293294D01*
X111005389Y-80303450D01*
X111005423Y-80304099D01*
X111005429Y-80304146D01*
X111005426Y-80304146D01*
X111005436Y-80304324D01*
X111002123Y-80304501D01*
X110942516Y-80310908D01*
X110807671Y-80361202D01*
X110807664Y-80361206D01*
X110772766Y-80387331D01*
X110707301Y-80411748D01*
X110639029Y-80396896D01*
X110592917Y-80353161D01*
X110567315Y-80311654D01*
X110443345Y-80187684D01*
X110294124Y-80095643D01*
X110294119Y-80095641D01*
X110127697Y-80040494D01*
X110127690Y-80040493D01*
X110024986Y-80030000D01*
X109750000Y-80030000D01*
X109750000Y-80993500D01*
X109730315Y-81060539D01*
X109677511Y-81106294D01*
X109626000Y-81117500D01*
X109500000Y-81117500D01*
X109500000Y-81243500D01*
X109480315Y-81310539D01*
X109427511Y-81356294D01*
X109376000Y-81367500D01*
X106275000Y-81367500D01*
X106275000Y-81504986D01*
X106285493Y-81607697D01*
X106340640Y-81774119D01*
X106340642Y-81774124D01*
X106432683Y-81923345D01*
X106556653Y-82047315D01*
X106705874Y-82139356D01*
X106705879Y-82139358D01*
X106798139Y-82169930D01*
X106855584Y-82209702D01*
X106882407Y-82274218D01*
X106870092Y-82342994D01*
X106822549Y-82394194D01*
X106802470Y-82403817D01*
X106782673Y-82411201D01*
X106782663Y-82411206D01*
X106667454Y-82497452D01*
X106667451Y-82497455D01*
X106581205Y-82612664D01*
X106581201Y-82612671D01*
X106530909Y-82747513D01*
X106530908Y-82747517D01*
X106524499Y-82807127D01*
X106524499Y-82807134D01*
X106524499Y-82807135D01*
X106524499Y-83577870D01*
X106524500Y-83577876D01*
X106530907Y-83637483D01*
X106581201Y-83772328D01*
X106581205Y-83772335D01*
X106667451Y-83887544D01*
X106667454Y-83887547D01*
X106782663Y-83973793D01*
X106782670Y-83973797D01*
X106917516Y-84024091D01*
X106917515Y-84024091D01*
X106924443Y-84024835D01*
X106977126Y-84030500D01*
X108022871Y-84030499D01*
X108082482Y-84024091D01*
X108217330Y-83973796D01*
X108332545Y-83887546D01*
X108400733Y-83796457D01*
X108456666Y-83754588D01*
X108526358Y-83749604D01*
X108587681Y-83783089D01*
X108599265Y-83796458D01*
X108643353Y-83855351D01*
X108648737Y-83862544D01*
X108667455Y-83887547D01*
X108782664Y-83973793D01*
X108782671Y-83973797D01*
X108917517Y-84024091D01*
X108917516Y-84024091D01*
X108924444Y-84024835D01*
X108977127Y-84030500D01*
X110022872Y-84030499D01*
X110082483Y-84024091D01*
X110217331Y-83973796D01*
X110332546Y-83887546D01*
X110418796Y-83772331D01*
X110418796Y-83772329D01*
X110422590Y-83767262D01*
X110478524Y-83725391D01*
X110548216Y-83720407D01*
X110609539Y-83753892D01*
X110621123Y-83767261D01*
X110692454Y-83862546D01*
X110807664Y-83948793D01*
X110807671Y-83948797D01*
X110933667Y-83995790D01*
X110989600Y-84037661D01*
X111014018Y-84103125D01*
X110999167Y-84171398D01*
X110997722Y-84173971D01*
X110987017Y-84192512D01*
X110987016Y-84192514D01*
X110987016Y-84192515D01*
X110949500Y-84332525D01*
X110949500Y-84477475D01*
X110987016Y-84617485D01*
X110987018Y-84617492D01*
X110987652Y-84619022D01*
X110987801Y-84620415D01*
X110989120Y-84625335D01*
X110988352Y-84625540D01*
X110995118Y-84688491D01*
X110963840Y-84750969D01*
X110903749Y-84786619D01*
X110838157Y-84785447D01*
X110819775Y-84780050D01*
X110819765Y-84780047D01*
X110612069Y-84750186D01*
X110607319Y-84749503D01*
X110607318Y-84749503D01*
X106124500Y-84749503D01*
X106057461Y-84729818D01*
X106011706Y-84677014D01*
X106000500Y-84625503D01*
X106000500Y-80730013D01*
X106274999Y-80730013D01*
X106274999Y-80867500D01*
X107249999Y-80867500D01*
X107749999Y-80867500D01*
X109250000Y-80867500D01*
X109250000Y-80030000D01*
X108975029Y-80030000D01*
X108975012Y-80030001D01*
X108872302Y-80040494D01*
X108705880Y-80095641D01*
X108705871Y-80095645D01*
X108565095Y-80182477D01*
X108497703Y-80200917D01*
X108434902Y-80182477D01*
X108294123Y-80095643D01*
X108294118Y-80095641D01*
X108127696Y-80040494D01*
X108127689Y-80040493D01*
X108024985Y-80030000D01*
X107749999Y-80030000D01*
X107749999Y-80867500D01*
X107249999Y-80867500D01*
X107249999Y-80030000D01*
X106975028Y-80030000D01*
X106975011Y-80030001D01*
X106872301Y-80040494D01*
X106705879Y-80095641D01*
X106705874Y-80095643D01*
X106556653Y-80187684D01*
X106432683Y-80311654D01*
X106340642Y-80460875D01*
X106340640Y-80460880D01*
X106285493Y-80627302D01*
X106285492Y-80627309D01*
X106274999Y-80730013D01*
X106000500Y-80730013D01*
X106000500Y-74279500D01*
X106020185Y-74212461D01*
X106072989Y-74166706D01*
X106124500Y-74155500D01*
X106533696Y-74155500D01*
X106600735Y-74175185D01*
X106646490Y-74227989D01*
X106656434Y-74297147D01*
X106639235Y-74344597D01*
X106590643Y-74423375D01*
X106590641Y-74423380D01*
X106535494Y-74589802D01*
X106535493Y-74589809D01*
X106525000Y-74692513D01*
X106525000Y-74830000D01*
X108974999Y-74830000D01*
X108974999Y-74692528D01*
X108974998Y-74692513D01*
X108964505Y-74589802D01*
X108909358Y-74423380D01*
X108909356Y-74423375D01*
X108860765Y-74344597D01*
X108842325Y-74277204D01*
X108863248Y-74210541D01*
X108916890Y-74165771D01*
X108966304Y-74155500D01*
X111973952Y-74155500D01*
X111973954Y-74155500D01*
X112015495Y-74152683D01*
X112195021Y-74108037D01*
X112360753Y-74025842D01*
X112504940Y-73909940D01*
X112620842Y-73765753D01*
X112639411Y-73728310D01*
X112686832Y-73676997D01*
X112754467Y-73659467D01*
X112820842Y-73681287D01*
G37*
G04 #@! TD.AperFunction*
G04 #@! TA.AperFunction,Conductor*
G36*
X131559926Y-74010686D02*
G01*
X131609332Y-74060091D01*
X131624500Y-74119519D01*
X131624500Y-74518558D01*
X131639157Y-74648648D01*
X131639159Y-74648658D01*
X131691663Y-74798704D01*
X131696878Y-74813606D01*
X131789853Y-74961576D01*
X131913424Y-75085147D01*
X132061394Y-75178122D01*
X132226343Y-75235841D01*
X132226349Y-75235841D01*
X132226351Y-75235842D01*
X132267750Y-75240506D01*
X132356442Y-75250499D01*
X132356445Y-75250500D01*
X132356448Y-75250500D01*
X137375500Y-75250500D01*
X137442539Y-75270185D01*
X137488294Y-75322989D01*
X137499500Y-75374500D01*
X137499500Y-84625500D01*
X137479815Y-84692539D01*
X137427011Y-84738294D01*
X137375500Y-84749500D01*
X136997681Y-84749500D01*
X136930642Y-84729815D01*
X136884887Y-84677011D01*
X136874943Y-84607853D01*
X136903968Y-84544297D01*
X136932584Y-84519961D01*
X136968656Y-84497712D01*
X137092712Y-84373656D01*
X137184814Y-84224334D01*
X137239999Y-84057797D01*
X137250500Y-83955009D01*
X137250499Y-82854992D01*
X137239999Y-82752203D01*
X137184814Y-82585666D01*
X137092712Y-82436344D01*
X136968656Y-82312288D01*
X136833222Y-82228752D01*
X136819336Y-82220187D01*
X136819331Y-82220185D01*
X136802154Y-82214493D01*
X136652797Y-82165001D01*
X136652795Y-82165000D01*
X136550010Y-82154500D01*
X133449998Y-82154500D01*
X133449981Y-82154501D01*
X133347203Y-82165000D01*
X133347200Y-82165001D01*
X133180668Y-82220185D01*
X133180663Y-82220187D01*
X133031342Y-82312289D01*
X132907289Y-82436342D01*
X132815187Y-82585663D01*
X132815185Y-82585668D01*
X132788750Y-82665443D01*
X132760001Y-82752203D01*
X132760001Y-82752204D01*
X132760000Y-82752204D01*
X132749500Y-82854983D01*
X132749500Y-82855500D01*
X132749468Y-82855605D01*
X132749340Y-82858139D01*
X132749179Y-82858130D01*
X132749179Y-82858132D01*
X132749155Y-82858129D01*
X132748734Y-82858108D01*
X132729815Y-82922539D01*
X132677011Y-82968294D01*
X132625500Y-82979500D01*
X131727610Y-82979500D01*
X131660571Y-82959815D01*
X131639929Y-82943181D01*
X130961819Y-82265071D01*
X130947115Y-82238143D01*
X130930523Y-82212325D01*
X130929631Y-82206124D01*
X130928334Y-82203748D01*
X130925500Y-82177390D01*
X130925500Y-82053264D01*
X130945185Y-81986225D01*
X130997989Y-81940470D01*
X131006167Y-81937082D01*
X131142328Y-81886297D01*
X131142327Y-81886297D01*
X131142331Y-81886296D01*
X131257546Y-81800046D01*
X131343796Y-81684831D01*
X131394091Y-81549983D01*
X131400500Y-81490373D01*
X131400499Y-80694628D01*
X131394091Y-80635017D01*
X131392406Y-80630500D01*
X131343797Y-80500171D01*
X131343796Y-80500169D01*
X131318892Y-80466902D01*
X131274732Y-80407912D01*
X131250316Y-80342449D01*
X131250000Y-80333602D01*
X131250000Y-79851397D01*
X131256239Y-79830148D01*
X131257819Y-79808063D01*
X131268431Y-79788626D01*
X131269685Y-79784358D01*
X131274721Y-79777101D01*
X131294122Y-79751185D01*
X131350055Y-79709316D01*
X131419747Y-79704332D01*
X131481067Y-79737815D01*
X132238737Y-80495485D01*
X132335763Y-80551503D01*
X132443981Y-80580500D01*
X132443982Y-80580500D01*
X132625501Y-80580500D01*
X132692540Y-80600185D01*
X132738295Y-80652989D01*
X132748931Y-80701879D01*
X132749341Y-80701859D01*
X132749467Y-80704346D01*
X132749501Y-80704500D01*
X132749501Y-80705018D01*
X132760000Y-80807796D01*
X132760001Y-80807799D01*
X132815185Y-80974331D01*
X132815187Y-80974336D01*
X132848992Y-81029142D01*
X132907288Y-81123656D01*
X133031344Y-81247712D01*
X133180666Y-81339814D01*
X133347203Y-81394999D01*
X133449991Y-81405500D01*
X136550008Y-81405499D01*
X136652797Y-81394999D01*
X136819334Y-81339814D01*
X136968656Y-81247712D01*
X137092712Y-81123656D01*
X137184814Y-80974334D01*
X137239999Y-80807797D01*
X137250500Y-80705009D01*
X137250499Y-79604992D01*
X137250451Y-79604525D01*
X137239999Y-79502203D01*
X137239998Y-79502200D01*
X137235034Y-79487220D01*
X137184814Y-79335666D01*
X137092712Y-79186344D01*
X136968656Y-79062288D01*
X136819334Y-78970186D01*
X136652797Y-78915001D01*
X136652795Y-78915000D01*
X136550010Y-78904500D01*
X133449998Y-78904500D01*
X133449981Y-78904501D01*
X133347203Y-78915000D01*
X133347200Y-78915001D01*
X133180668Y-78970185D01*
X133180663Y-78970187D01*
X133031342Y-79062289D01*
X132907289Y-79186342D01*
X132815187Y-79335663D01*
X132815185Y-79335668D01*
X132792368Y-79404525D01*
X132760183Y-79501656D01*
X132760001Y-79502204D01*
X132759999Y-79502212D01*
X132757688Y-79524828D01*
X132731290Y-79589519D01*
X132674108Y-79629668D01*
X132604297Y-79632529D01*
X132546650Y-79599902D01*
X132211819Y-79265071D01*
X132178334Y-79203748D01*
X132175500Y-79177390D01*
X132175500Y-78802236D01*
X132192112Y-78740238D01*
X132262984Y-78617485D01*
X132300500Y-78477475D01*
X132300500Y-78332525D01*
X132262984Y-78192515D01*
X132262800Y-78192197D01*
X132190511Y-78066988D01*
X132190506Y-78066982D01*
X132088017Y-77964493D01*
X132088011Y-77964488D01*
X131962488Y-77892017D01*
X131962489Y-77892017D01*
X131951006Y-77888940D01*
X131822475Y-77854500D01*
X131677525Y-77854500D01*
X131548993Y-77888940D01*
X131537511Y-77892017D01*
X131411988Y-77964488D01*
X131411982Y-77964493D01*
X131309493Y-78066982D01*
X131309488Y-78066988D01*
X131237017Y-78192511D01*
X131233908Y-78200019D01*
X131231892Y-78199184D01*
X131201472Y-78249077D01*
X131138621Y-78279598D01*
X131074741Y-78273494D01*
X131007482Y-78248408D01*
X131007483Y-78248408D01*
X130947883Y-78242001D01*
X130947881Y-78242000D01*
X130947873Y-78242000D01*
X130947864Y-78242000D01*
X129952129Y-78242000D01*
X129952123Y-78242001D01*
X129892516Y-78248408D01*
X129757671Y-78298702D01*
X129757664Y-78298706D01*
X129642455Y-78384952D01*
X129642452Y-78384955D01*
X129556206Y-78500164D01*
X129556202Y-78500171D01*
X129505908Y-78635016D01*
X129502281Y-78668757D01*
X129475543Y-78733307D01*
X129418150Y-78773155D01*
X129378992Y-78779500D01*
X128799436Y-78779500D01*
X128700564Y-78779500D01*
X128692007Y-78781793D01*
X128605060Y-78805090D01*
X128605059Y-78805091D01*
X128519436Y-78854526D01*
X128519437Y-78854526D01*
X128012180Y-79361782D01*
X127950857Y-79395267D01*
X127881165Y-79390283D01*
X127825232Y-79348411D01*
X127800815Y-79282947D01*
X127800499Y-79274123D01*
X127800499Y-78285981D01*
X127785646Y-78192195D01*
X127728050Y-78079157D01*
X127728046Y-78079153D01*
X127728045Y-78079151D01*
X127638347Y-77989453D01*
X127638344Y-77989451D01*
X127638342Y-77989449D01*
X127561517Y-77950304D01*
X127525301Y-77931851D01*
X127431524Y-77916999D01*
X127068482Y-77916999D01*
X126987519Y-77929822D01*
X126974696Y-77931853D01*
X126861658Y-77989449D01*
X126861657Y-77989450D01*
X126861652Y-77989453D01*
X126771954Y-78079151D01*
X126771951Y-78079156D01*
X126714352Y-78192197D01*
X126699500Y-78285974D01*
X126699500Y-78405500D01*
X126696949Y-78414185D01*
X126698238Y-78423147D01*
X126687259Y-78447187D01*
X126679815Y-78472539D01*
X126672974Y-78478466D01*
X126669213Y-78486703D01*
X126646978Y-78500992D01*
X126627011Y-78518294D01*
X126616496Y-78520581D01*
X126610435Y-78524477D01*
X126575500Y-78529500D01*
X126381172Y-78529500D01*
X126314133Y-78509815D01*
X126268378Y-78457011D01*
X126258434Y-78387853D01*
X126261397Y-78373406D01*
X126262984Y-78367485D01*
X126300500Y-78227475D01*
X126300500Y-78082525D01*
X126262984Y-77942515D01*
X126259393Y-77936296D01*
X126190511Y-77816988D01*
X126190506Y-77816982D01*
X126088017Y-77714493D01*
X126088011Y-77714488D01*
X125962488Y-77642017D01*
X125962489Y-77642017D01*
X125951006Y-77638940D01*
X125822475Y-77604500D01*
X125677525Y-77604500D01*
X125548993Y-77638940D01*
X125537511Y-77642017D01*
X125411988Y-77714488D01*
X125411982Y-77714493D01*
X125309493Y-77816982D01*
X125309488Y-77816988D01*
X125237017Y-77942511D01*
X125237016Y-77942515D01*
X125199500Y-78082525D01*
X125199500Y-78082527D01*
X125199500Y-78123100D01*
X125179815Y-78190139D01*
X125163181Y-78210781D01*
X124957826Y-78416135D01*
X124896503Y-78449620D01*
X124826811Y-78444636D01*
X124770879Y-78402764D01*
X124757546Y-78384954D01*
X124757544Y-78384953D01*
X124757544Y-78384952D01*
X124642335Y-78298706D01*
X124642328Y-78298702D01*
X124507482Y-78248408D01*
X124507483Y-78248408D01*
X124447883Y-78242001D01*
X124447881Y-78242000D01*
X124447873Y-78242000D01*
X124447864Y-78242000D01*
X123452129Y-78242000D01*
X123452123Y-78242001D01*
X123392516Y-78248408D01*
X123257671Y-78298702D01*
X123257664Y-78298706D01*
X123142455Y-78384952D01*
X123142452Y-78384955D01*
X123056206Y-78500164D01*
X123056202Y-78500171D01*
X123005908Y-78635017D01*
X122999501Y-78694616D01*
X122999500Y-78694635D01*
X122999500Y-79490363D01*
X122999679Y-79493680D01*
X122999572Y-79493685D01*
X123000000Y-79501656D01*
X123000000Y-80324600D01*
X122980315Y-80391639D01*
X122927511Y-80437394D01*
X122858353Y-80447338D01*
X122794797Y-80418313D01*
X122788319Y-80412281D01*
X122345715Y-79969678D01*
X122330563Y-79954526D01*
X122330562Y-79954525D01*
X122244938Y-79905090D01*
X122174798Y-79886296D01*
X122149436Y-79879500D01*
X122149435Y-79879500D01*
X122149434Y-79879500D01*
X122105899Y-79879500D01*
X122038860Y-79859815D01*
X121993105Y-79807011D01*
X121983161Y-79737853D01*
X122012186Y-79674297D01*
X122018218Y-79667819D01*
X122300471Y-79385566D01*
X122300474Y-79385563D01*
X122306898Y-79374437D01*
X122349910Y-79299938D01*
X122361824Y-79255475D01*
X122368784Y-79229501D01*
X122370203Y-79224204D01*
X122375500Y-79204436D01*
X122375500Y-79105564D01*
X122375500Y-76361899D01*
X122395185Y-76294860D01*
X122411819Y-76274218D01*
X122619219Y-76066819D01*
X122646146Y-76052115D01*
X122671965Y-76035523D01*
X122678165Y-76034631D01*
X122680542Y-76033334D01*
X122706900Y-76030500D01*
X122912547Y-76030500D01*
X122979586Y-76050185D01*
X123025341Y-76102989D01*
X123028729Y-76111167D01*
X123056202Y-76184828D01*
X123056206Y-76184835D01*
X123142452Y-76300044D01*
X123142455Y-76300047D01*
X123257664Y-76386293D01*
X123257671Y-76386297D01*
X123392517Y-76436591D01*
X123392516Y-76436591D01*
X123399444Y-76437335D01*
X123452127Y-76443000D01*
X124447872Y-76442999D01*
X124507483Y-76436591D01*
X124642331Y-76386296D01*
X124757546Y-76300046D01*
X124843796Y-76184831D01*
X124894091Y-76049983D01*
X124895496Y-76036917D01*
X124922234Y-75972366D01*
X124956785Y-75942786D01*
X124957434Y-75942410D01*
X124957438Y-75942410D01*
X125043062Y-75892975D01*
X125112975Y-75823062D01*
X125288319Y-75647718D01*
X125349642Y-75614233D01*
X125419334Y-75619217D01*
X125475267Y-75661089D01*
X125499684Y-75726553D01*
X125500000Y-75735399D01*
X125500000Y-75995649D01*
X125502899Y-76032489D01*
X125502900Y-76032495D01*
X125548716Y-76190193D01*
X125548717Y-76190196D01*
X125632314Y-76331552D01*
X125632321Y-76331561D01*
X125748438Y-76447678D01*
X125748447Y-76447685D01*
X125889801Y-76531281D01*
X126047514Y-76577100D01*
X126047511Y-76577100D01*
X126049998Y-76577295D01*
X126050000Y-76577295D01*
X126550000Y-76577295D01*
X126550001Y-76577295D01*
X126552486Y-76577100D01*
X126710198Y-76531281D01*
X126851552Y-76447685D01*
X126851561Y-76447678D01*
X126967678Y-76331561D01*
X126967685Y-76331552D01*
X127051282Y-76190196D01*
X127051283Y-76190193D01*
X127097099Y-76032495D01*
X127097100Y-76032489D01*
X127099999Y-75995649D01*
X127100000Y-75995634D01*
X127100000Y-75592500D01*
X126550000Y-75592500D01*
X126550000Y-76577295D01*
X126050000Y-76577295D01*
X126050000Y-75466500D01*
X126069685Y-75399461D01*
X126122489Y-75353706D01*
X126174000Y-75342500D01*
X126300000Y-75342500D01*
X126300000Y-75216500D01*
X126319685Y-75149461D01*
X126372489Y-75103706D01*
X126424000Y-75092500D01*
X127100000Y-75092500D01*
X127100000Y-74689364D01*
X127099999Y-74689350D01*
X127097100Y-74652510D01*
X127097099Y-74652507D01*
X127085939Y-74614094D01*
X127086138Y-74544225D01*
X127124079Y-74485554D01*
X127187717Y-74456710D01*
X127205006Y-74455498D01*
X127431518Y-74455498D01*
X127525304Y-74440645D01*
X127525305Y-74440644D01*
X127534943Y-74439118D01*
X127535263Y-74441142D01*
X127592500Y-74439503D01*
X127652335Y-74475579D01*
X127683168Y-74538278D01*
X127675209Y-74607692D01*
X127671473Y-74615723D01*
X127664353Y-74629696D01*
X127664352Y-74629698D01*
X127649500Y-74723475D01*
X127649500Y-75961517D01*
X127660292Y-76029657D01*
X127664354Y-76055304D01*
X127721950Y-76168342D01*
X127721952Y-76168344D01*
X127721954Y-76168347D01*
X127811652Y-76258045D01*
X127811654Y-76258046D01*
X127811658Y-76258050D01*
X127914669Y-76310537D01*
X127924698Y-76315647D01*
X128018475Y-76330499D01*
X128018481Y-76330500D01*
X128381518Y-76330499D01*
X128475304Y-76315646D01*
X128588342Y-76258050D01*
X128678050Y-76168342D01*
X128735646Y-76055304D01*
X128735646Y-76055302D01*
X128735647Y-76055301D01*
X128750499Y-75961524D01*
X128750500Y-75961519D01*
X128750499Y-74723482D01*
X128735646Y-74629696D01*
X128678050Y-74516658D01*
X128678047Y-74516655D01*
X128678046Y-74516653D01*
X128636396Y-74475004D01*
X128602910Y-74413681D01*
X128607894Y-74343990D01*
X128636393Y-74299643D01*
X128869218Y-74066819D01*
X128930541Y-74033334D01*
X128956899Y-74030500D01*
X129412547Y-74030500D01*
X129479586Y-74050185D01*
X129525341Y-74102989D01*
X129528729Y-74111167D01*
X129556202Y-74184828D01*
X129556203Y-74184829D01*
X129556204Y-74184831D01*
X129642454Y-74300046D01*
X129700310Y-74343357D01*
X129742182Y-74399289D01*
X129750000Y-74442623D01*
X129750000Y-74742375D01*
X129730315Y-74809414D01*
X129700312Y-74841641D01*
X129642452Y-74884955D01*
X129556206Y-75000164D01*
X129556202Y-75000171D01*
X129505908Y-75135017D01*
X129499501Y-75194616D01*
X129499501Y-75194623D01*
X129499500Y-75194635D01*
X129499500Y-75990370D01*
X129499501Y-75990376D01*
X129505908Y-76049983D01*
X129556202Y-76184828D01*
X129556206Y-76184835D01*
X129642452Y-76300044D01*
X129642455Y-76300047D01*
X129757664Y-76386293D01*
X129757671Y-76386297D01*
X129789478Y-76398160D01*
X129892517Y-76436591D01*
X129952127Y-76443000D01*
X130000500Y-76442999D01*
X130067537Y-76462682D01*
X130113293Y-76515485D01*
X130124500Y-76566999D01*
X130124500Y-76704436D01*
X130131476Y-76730473D01*
X130131477Y-76730473D01*
X130131477Y-76730474D01*
X130134882Y-76743181D01*
X130150091Y-76799942D01*
X130191544Y-76871740D01*
X130199522Y-76885557D01*
X130199528Y-76885566D01*
X130344463Y-77030500D01*
X130449525Y-77135562D01*
X130519438Y-77205475D01*
X130595628Y-77249463D01*
X130605062Y-77254910D01*
X130652811Y-77267705D01*
X130652812Y-77267705D01*
X130662903Y-77270408D01*
X130700564Y-77280500D01*
X130700565Y-77280500D01*
X132625501Y-77280500D01*
X132692540Y-77300185D01*
X132738295Y-77352989D01*
X132749501Y-77404500D01*
X132749501Y-77455018D01*
X132760000Y-77557796D01*
X132760001Y-77557799D01*
X132815185Y-77724331D01*
X132815187Y-77724336D01*
X132850069Y-77780888D01*
X132907288Y-77873656D01*
X133031344Y-77997712D01*
X133180666Y-78089814D01*
X133347203Y-78144999D01*
X133449991Y-78155500D01*
X136550008Y-78155499D01*
X136652797Y-78144999D01*
X136819334Y-78089814D01*
X136968656Y-77997712D01*
X137092712Y-77873656D01*
X137184814Y-77724334D01*
X137239999Y-77557797D01*
X137250500Y-77455009D01*
X137250499Y-76354992D01*
X137250451Y-76354526D01*
X137239999Y-76252203D01*
X137239998Y-76252200D01*
X137217673Y-76184828D01*
X137184814Y-76085666D01*
X137092712Y-75936344D01*
X136968656Y-75812288D01*
X136875888Y-75755069D01*
X136819336Y-75720187D01*
X136819331Y-75720185D01*
X136817862Y-75719698D01*
X136652797Y-75665001D01*
X136652795Y-75665000D01*
X136550010Y-75654500D01*
X133449998Y-75654500D01*
X133449981Y-75654501D01*
X133347203Y-75665000D01*
X133347200Y-75665001D01*
X133180668Y-75720185D01*
X133180663Y-75720187D01*
X133031342Y-75812289D01*
X132907289Y-75936342D01*
X132815187Y-76085663D01*
X132815185Y-76085668D01*
X132789446Y-76163344D01*
X132760001Y-76252203D01*
X132760001Y-76252204D01*
X132760000Y-76252204D01*
X132749500Y-76354983D01*
X132749500Y-76405500D01*
X132729815Y-76472539D01*
X132677011Y-76518294D01*
X132625500Y-76529500D01*
X131323591Y-76529500D01*
X131256552Y-76509815D01*
X131210797Y-76457011D01*
X131200853Y-76387853D01*
X131229878Y-76324297D01*
X131249281Y-76306233D01*
X131250809Y-76305089D01*
X131257546Y-76300046D01*
X131343796Y-76184831D01*
X131394091Y-76049983D01*
X131400500Y-75990373D01*
X131400499Y-75194628D01*
X131394091Y-75135017D01*
X131378233Y-75092500D01*
X131343797Y-75000171D01*
X131343796Y-75000169D01*
X131314905Y-74961576D01*
X131274732Y-74907912D01*
X131250316Y-74842449D01*
X131250000Y-74833602D01*
X131250000Y-74351397D01*
X131269685Y-74284358D01*
X131274726Y-74277096D01*
X131343796Y-74184831D01*
X131384318Y-74076186D01*
X131426189Y-74020252D01*
X131491653Y-73995835D01*
X131559926Y-74010686D01*
G37*
G04 #@! TD.AperFunction*
G04 #@! TA.AperFunction,Conductor*
G36*
X117418332Y-78620217D02*
G01*
X117462680Y-78648718D01*
X117756473Y-78942511D01*
X118018397Y-79204435D01*
X118069437Y-79255475D01*
X118155063Y-79304911D01*
X118250564Y-79330500D01*
X118250565Y-79330500D01*
X119364203Y-79330500D01*
X119431242Y-79350185D01*
X119476997Y-79402989D01*
X119486228Y-79467189D01*
X119487324Y-79467269D01*
X119487000Y-79471737D01*
X119487000Y-79738260D01*
X119496926Y-79806392D01*
X119496926Y-79806393D01*
X119530730Y-79875541D01*
X119542488Y-79944414D01*
X119530730Y-79984459D01*
X119496926Y-80053606D01*
X119496926Y-80053607D01*
X119487000Y-80121739D01*
X119487000Y-80388260D01*
X119496926Y-80456392D01*
X119496926Y-80456393D01*
X119530730Y-80525541D01*
X119542488Y-80594414D01*
X119530730Y-80634459D01*
X119496926Y-80703606D01*
X119496926Y-80703607D01*
X119487000Y-80771739D01*
X119487000Y-81038260D01*
X119496926Y-81106392D01*
X119496926Y-81106393D01*
X119530730Y-81175541D01*
X119542488Y-81244414D01*
X119530730Y-81284459D01*
X119496926Y-81353606D01*
X119496926Y-81353607D01*
X119487000Y-81421739D01*
X119487000Y-81688260D01*
X119496926Y-81756392D01*
X119496926Y-81756393D01*
X119530730Y-81825541D01*
X119542488Y-81894414D01*
X119530730Y-81934459D01*
X119496926Y-82003606D01*
X119496926Y-82003607D01*
X119487000Y-82071739D01*
X119487000Y-82338260D01*
X119496926Y-82406392D01*
X119496926Y-82406393D01*
X119530730Y-82475541D01*
X119542488Y-82544414D01*
X119530730Y-82584459D01*
X119496926Y-82653606D01*
X119496926Y-82653607D01*
X119487000Y-82721739D01*
X119487000Y-82988260D01*
X119496926Y-83056391D01*
X119548303Y-83161485D01*
X119631014Y-83244196D01*
X119631015Y-83244196D01*
X119631017Y-83244198D01*
X119736107Y-83295573D01*
X119749031Y-83297456D01*
X119804239Y-83305500D01*
X119804240Y-83305500D01*
X121145761Y-83305500D01*
X121168471Y-83302191D01*
X121213893Y-83295573D01*
X121318983Y-83244198D01*
X121401698Y-83161483D01*
X121453073Y-83056393D01*
X121463000Y-82988260D01*
X121463000Y-82948399D01*
X121482685Y-82881360D01*
X121535489Y-82835605D01*
X121604647Y-82825661D01*
X121668203Y-82854686D01*
X121674681Y-82860718D01*
X122412242Y-83598279D01*
X122445727Y-83659602D01*
X122440743Y-83729294D01*
X122398871Y-83785227D01*
X122356657Y-83805733D01*
X122264230Y-83830500D01*
X122221244Y-83842018D01*
X122095721Y-83914489D01*
X122095715Y-83914494D01*
X122067028Y-83943182D01*
X122005705Y-83976667D01*
X121979347Y-83979501D01*
X115656900Y-83979501D01*
X115589861Y-83959816D01*
X115569219Y-83943182D01*
X115161819Y-83535782D01*
X115147115Y-83508854D01*
X115130523Y-83483036D01*
X115129631Y-83476835D01*
X115128334Y-83474459D01*
X115125500Y-83448101D01*
X115125500Y-83429500D01*
X115145185Y-83362461D01*
X115197989Y-83316706D01*
X115249500Y-83305500D01*
X115420761Y-83305500D01*
X115443471Y-83302191D01*
X115488893Y-83295573D01*
X115593983Y-83244198D01*
X115676698Y-83161483D01*
X115699340Y-83115166D01*
X115746468Y-83063585D01*
X115814002Y-83045670D01*
X115880501Y-83067111D01*
X115898422Y-83081946D01*
X115911985Y-83095509D01*
X115911986Y-83095510D01*
X115911988Y-83095511D01*
X116037511Y-83167982D01*
X116037512Y-83167982D01*
X116037515Y-83167984D01*
X116177525Y-83205500D01*
X116177528Y-83205500D01*
X116322472Y-83205500D01*
X116322475Y-83205500D01*
X116462485Y-83167984D01*
X116588015Y-83095509D01*
X116690509Y-82993015D01*
X116762984Y-82867485D01*
X116800500Y-82727475D01*
X116800500Y-82582525D01*
X116762984Y-82442515D01*
X116742128Y-82406392D01*
X116690511Y-82316988D01*
X116690506Y-82316982D01*
X116588017Y-82214493D01*
X116588011Y-82214488D01*
X116462488Y-82142017D01*
X116462489Y-82142017D01*
X116451006Y-82138940D01*
X116322475Y-82104500D01*
X116322472Y-82104500D01*
X116281899Y-82104500D01*
X116214860Y-82084815D01*
X116194218Y-82068181D01*
X116030563Y-81904526D01*
X116030562Y-81904525D01*
X115944938Y-81855090D01*
X115897186Y-81842295D01*
X115849436Y-81829500D01*
X115849435Y-81829500D01*
X115844210Y-81829500D01*
X115831544Y-81826432D01*
X115806785Y-81812148D01*
X115780648Y-81800584D01*
X115776907Y-81794912D01*
X115771023Y-81791518D01*
X115757915Y-81766114D01*
X115742181Y-81742257D01*
X115741585Y-81734465D01*
X115738985Y-81729427D01*
X115740212Y-81716523D01*
X115738396Y-81692783D01*
X115737676Y-81692731D01*
X115738000Y-81688262D01*
X115738000Y-81421739D01*
X115728073Y-81353608D01*
X115728072Y-81353606D01*
X115694268Y-81284458D01*
X115682510Y-81215587D01*
X115694269Y-81175540D01*
X115728073Y-81106393D01*
X115738000Y-81038260D01*
X115738000Y-80771740D01*
X115728073Y-80703607D01*
X115676698Y-80598517D01*
X115676696Y-80598515D01*
X115676696Y-80598514D01*
X115593985Y-80515803D01*
X115488891Y-80464426D01*
X115420761Y-80454500D01*
X115420760Y-80454500D01*
X114079240Y-80454500D01*
X114079239Y-80454500D01*
X114011111Y-80464425D01*
X114011107Y-80464427D01*
X114006043Y-80466902D01*
X113951587Y-80479500D01*
X113499500Y-80479500D01*
X113490814Y-80476949D01*
X113481853Y-80478238D01*
X113457812Y-80467259D01*
X113432461Y-80459815D01*
X113426533Y-80452974D01*
X113418297Y-80449213D01*
X113404007Y-80426978D01*
X113386706Y-80407011D01*
X113384418Y-80396496D01*
X113380523Y-80390435D01*
X113375500Y-80355500D01*
X113375500Y-80111899D01*
X113395185Y-80044860D01*
X113411819Y-80024218D01*
X113419218Y-80016819D01*
X113441736Y-80004523D01*
X113447989Y-79999105D01*
X113452970Y-79998388D01*
X113480541Y-79983334D01*
X113506899Y-79980500D01*
X113849309Y-79980500D01*
X113903769Y-79993099D01*
X113906016Y-79994197D01*
X113906017Y-79994198D01*
X114011107Y-80045573D01*
X114045173Y-80050536D01*
X114079239Y-80055500D01*
X114079240Y-80055500D01*
X115420761Y-80055500D01*
X115447568Y-80051594D01*
X115488893Y-80045573D01*
X115593983Y-79994198D01*
X115676698Y-79911483D01*
X115728073Y-79806393D01*
X115738000Y-79738260D01*
X115738000Y-79471740D01*
X115738000Y-79471737D01*
X115737676Y-79467269D01*
X115738829Y-79467185D01*
X115747905Y-79403202D01*
X115793560Y-79350312D01*
X115860562Y-79330500D01*
X116499434Y-79330500D01*
X116499436Y-79330500D01*
X116577483Y-79309587D01*
X116594938Y-79304910D01*
X116680562Y-79255475D01*
X116750475Y-79185562D01*
X117287320Y-78648716D01*
X117348641Y-78615233D01*
X117418332Y-78620217D01*
G37*
G04 #@! TD.AperFunction*
G04 #@! TA.AperFunction,Conductor*
G36*
X122043834Y-72529716D02*
G01*
X122099767Y-72571588D01*
X122124184Y-72637052D01*
X122124500Y-72645898D01*
X122124500Y-74198101D01*
X122104815Y-74265140D01*
X122088181Y-74285782D01*
X120174527Y-76199435D01*
X120174525Y-76199437D01*
X120174525Y-76199438D01*
X120125090Y-76285062D01*
X120125090Y-76285063D01*
X120111418Y-76336090D01*
X120106354Y-76354988D01*
X120106353Y-76354991D01*
X120099500Y-76380564D01*
X120099500Y-76430500D01*
X120079815Y-76497539D01*
X120027011Y-76543294D01*
X119975500Y-76554500D01*
X119804239Y-76554500D01*
X119736108Y-76564426D01*
X119631014Y-76615803D01*
X119548303Y-76698514D01*
X119496926Y-76803608D01*
X119487000Y-76871739D01*
X119487000Y-77138262D01*
X119487324Y-77142731D01*
X119486170Y-77142814D01*
X119477095Y-77206798D01*
X119431440Y-77259688D01*
X119364438Y-77279500D01*
X119249500Y-77279500D01*
X119182461Y-77259815D01*
X119136706Y-77207011D01*
X119125500Y-77155500D01*
X119125500Y-73611899D01*
X119134146Y-73582453D01*
X119140668Y-73552472D01*
X119144422Y-73547456D01*
X119145185Y-73544860D01*
X119161819Y-73524218D01*
X119166133Y-73519904D01*
X119227456Y-73486419D01*
X119297148Y-73491403D01*
X119310108Y-73497100D01*
X119416107Y-73551109D01*
X119416108Y-73551109D01*
X119416110Y-73551110D01*
X119416109Y-73551110D01*
X119456818Y-73557557D01*
X119506967Y-73565500D01*
X120793032Y-73565499D01*
X120793037Y-73565499D01*
X120793037Y-73565498D01*
X120838462Y-73558304D01*
X120883888Y-73551110D01*
X120883889Y-73551110D01*
X120883890Y-73551109D01*
X120883893Y-73551109D01*
X120993403Y-73495311D01*
X121080311Y-73408403D01*
X121092142Y-73385181D01*
X121094189Y-73382403D01*
X121094614Y-73380572D01*
X121100741Y-73373512D01*
X121116148Y-73352608D01*
X121125778Y-73343236D01*
X121130561Y-73340475D01*
X121200474Y-73270562D01*
X121912819Y-72558217D01*
X121974142Y-72524732D01*
X122043834Y-72529716D01*
G37*
G04 #@! TD.AperFunction*
G04 #@! TA.AperFunction,Conductor*
G36*
X137442539Y-62675185D02*
G01*
X137488294Y-62727989D01*
X137499500Y-62779500D01*
X137499500Y-71125500D01*
X137479815Y-71192539D01*
X137427011Y-71238294D01*
X137375500Y-71249500D01*
X132356441Y-71249500D01*
X132226351Y-71264157D01*
X132226341Y-71264159D01*
X132061395Y-71321877D01*
X131913423Y-71414853D01*
X131789853Y-71538423D01*
X131696877Y-71686395D01*
X131639159Y-71851341D01*
X131639157Y-71851351D01*
X131624500Y-71981441D01*
X131624500Y-73065480D01*
X131604815Y-73132519D01*
X131552011Y-73178274D01*
X131482853Y-73188218D01*
X131419297Y-73159193D01*
X131384318Y-73108813D01*
X131343797Y-73000171D01*
X131343793Y-73000164D01*
X131257547Y-72884955D01*
X131257544Y-72884952D01*
X131142335Y-72798706D01*
X131142328Y-72798702D01*
X131007482Y-72748408D01*
X131007483Y-72748408D01*
X130947883Y-72742001D01*
X130947881Y-72742000D01*
X130947873Y-72742000D01*
X130947864Y-72742000D01*
X129952129Y-72742000D01*
X129952123Y-72742001D01*
X129892516Y-72748408D01*
X129757671Y-72798702D01*
X129757664Y-72798706D01*
X129642455Y-72884952D01*
X129642452Y-72884955D01*
X129556206Y-73000164D01*
X129556202Y-73000171D01*
X129505908Y-73135016D01*
X129502281Y-73168757D01*
X129475543Y-73233307D01*
X129418150Y-73273155D01*
X129378992Y-73279500D01*
X128700564Y-73279500D01*
X128652812Y-73292295D01*
X128652811Y-73292294D01*
X128605063Y-73305089D01*
X128605062Y-73305089D01*
X128543777Y-73340473D01*
X128522759Y-73352608D01*
X128519435Y-73354527D01*
X128012180Y-73861782D01*
X127950857Y-73895267D01*
X127881165Y-73890283D01*
X127825232Y-73848411D01*
X127800815Y-73782947D01*
X127800499Y-73774121D01*
X127800499Y-72848481D01*
X127785646Y-72754695D01*
X127728050Y-72641657D01*
X127728046Y-72641653D01*
X127728045Y-72641651D01*
X127638347Y-72551953D01*
X127638344Y-72551951D01*
X127638342Y-72551949D01*
X127561517Y-72512804D01*
X127525301Y-72494351D01*
X127431524Y-72479499D01*
X127068482Y-72479499D01*
X126987519Y-72492322D01*
X126974696Y-72494353D01*
X126861658Y-72551949D01*
X126861657Y-72551950D01*
X126861652Y-72551953D01*
X126771954Y-72641651D01*
X126771951Y-72641656D01*
X126771950Y-72641657D01*
X126761755Y-72661666D01*
X126714352Y-72754697D01*
X126699500Y-72848474D01*
X126699500Y-72905500D01*
X126679815Y-72972539D01*
X126627011Y-73018294D01*
X126575500Y-73029500D01*
X125950564Y-73029500D01*
X125855063Y-73055089D01*
X125855060Y-73055090D01*
X125769440Y-73104522D01*
X125769435Y-73104526D01*
X125269438Y-73604525D01*
X125199526Y-73674436D01*
X125150091Y-73760059D01*
X125150089Y-73760065D01*
X125144273Y-73781769D01*
X125107907Y-73841429D01*
X125045059Y-73871957D01*
X124975684Y-73863660D01*
X124921807Y-73819173D01*
X124900534Y-73752621D01*
X124900499Y-73749731D01*
X124900499Y-73194628D01*
X124894091Y-73135017D01*
X124893159Y-73132519D01*
X124843797Y-73000171D01*
X124843793Y-73000164D01*
X124757547Y-72884955D01*
X124757544Y-72884952D01*
X124642335Y-72798706D01*
X124642328Y-72798702D01*
X124507482Y-72748408D01*
X124507484Y-72748408D01*
X124476367Y-72745063D01*
X124411816Y-72718324D01*
X124371969Y-72660931D01*
X124369476Y-72591106D01*
X124401941Y-72534095D01*
X124869219Y-72066819D01*
X124930542Y-72033334D01*
X124956900Y-72030500D01*
X125545614Y-72030500D01*
X125612653Y-72050185D01*
X125633295Y-72066819D01*
X125661985Y-72095509D01*
X125661986Y-72095510D01*
X125661988Y-72095511D01*
X125787511Y-72167982D01*
X125787512Y-72167982D01*
X125787515Y-72167984D01*
X125927525Y-72205500D01*
X125927528Y-72205500D01*
X126072472Y-72205500D01*
X126072475Y-72205500D01*
X126212485Y-72167984D01*
X126338015Y-72095509D01*
X126440509Y-71993015D01*
X126512984Y-71867485D01*
X126550500Y-71727475D01*
X126550500Y-71582525D01*
X126512984Y-71442515D01*
X126506385Y-71431086D01*
X126440511Y-71316988D01*
X126440506Y-71316982D01*
X126338017Y-71214493D01*
X126338011Y-71214488D01*
X126212488Y-71142017D01*
X126212489Y-71142017D01*
X126201006Y-71138940D01*
X126072475Y-71104500D01*
X125927525Y-71104500D01*
X125798993Y-71138940D01*
X125787511Y-71142017D01*
X125661988Y-71214488D01*
X125661982Y-71214493D01*
X125633295Y-71243181D01*
X125571972Y-71276666D01*
X125545614Y-71279500D01*
X124799436Y-71279500D01*
X124700564Y-71279500D01*
X124692007Y-71281793D01*
X124605060Y-71305090D01*
X124605059Y-71305091D01*
X124581126Y-71318908D01*
X124562250Y-71329807D01*
X124551546Y-71335986D01*
X124519440Y-71354522D01*
X124519435Y-71354526D01*
X123719438Y-72154525D01*
X123649527Y-72224435D01*
X123649525Y-72224437D01*
X123649525Y-72224438D01*
X123600090Y-72310062D01*
X123600089Y-72310064D01*
X123595865Y-72325829D01*
X123579861Y-72385559D01*
X123579860Y-72385564D01*
X123574500Y-72405565D01*
X123574500Y-72618000D01*
X123554815Y-72685039D01*
X123502011Y-72730794D01*
X123455389Y-72740950D01*
X123455423Y-72741599D01*
X123455429Y-72741646D01*
X123455426Y-72741646D01*
X123455436Y-72741824D01*
X123452123Y-72742001D01*
X123392516Y-72748408D01*
X123257671Y-72798702D01*
X123257664Y-72798706D01*
X123142455Y-72884952D01*
X123098766Y-72943313D01*
X123042832Y-72985183D01*
X122973140Y-72990167D01*
X122911817Y-72956681D01*
X122878333Y-72895357D01*
X122875500Y-72869001D01*
X122875500Y-71361899D01*
X122895185Y-71294860D01*
X122911819Y-71274218D01*
X123869218Y-70316819D01*
X123930541Y-70283334D01*
X123956899Y-70280500D01*
X126189236Y-70280500D01*
X126256275Y-70300185D01*
X126302030Y-70352989D01*
X126305418Y-70361167D01*
X126356202Y-70497327D01*
X126356206Y-70497334D01*
X126442452Y-70612543D01*
X126442455Y-70612546D01*
X126557664Y-70698792D01*
X126557671Y-70698796D01*
X126692517Y-70749090D01*
X126692516Y-70749090D01*
X126699444Y-70749834D01*
X126752127Y-70755499D01*
X127747872Y-70755498D01*
X127807483Y-70749090D01*
X127942331Y-70698795D01*
X128057546Y-70612545D01*
X128143796Y-70497330D01*
X128194091Y-70362482D01*
X128200273Y-70304986D01*
X128800001Y-70304986D01*
X128810494Y-70407697D01*
X128865641Y-70574119D01*
X128865643Y-70574124D01*
X128957684Y-70723345D01*
X129081654Y-70847315D01*
X129230875Y-70939356D01*
X129230880Y-70939358D01*
X129397302Y-70994505D01*
X129397309Y-70994506D01*
X129500019Y-71004999D01*
X129749999Y-71004999D01*
X130250000Y-71004999D01*
X130499972Y-71004999D01*
X130499986Y-71004998D01*
X130602697Y-70994505D01*
X130769119Y-70939358D01*
X130769124Y-70939356D01*
X130918345Y-70847315D01*
X131042315Y-70723345D01*
X131134356Y-70574124D01*
X131134358Y-70574119D01*
X131189505Y-70407697D01*
X131189506Y-70407690D01*
X131199999Y-70304986D01*
X131200000Y-70304973D01*
X131200000Y-70155000D01*
X130250000Y-70155000D01*
X130250000Y-71004999D01*
X129749999Y-71004999D01*
X129750000Y-71004998D01*
X129750000Y-70155000D01*
X128800001Y-70155000D01*
X128800001Y-70304986D01*
X128200273Y-70304986D01*
X128200500Y-70302872D01*
X128200499Y-69924441D01*
X128200499Y-69557128D01*
X128200499Y-69557127D01*
X128198900Y-69542253D01*
X128211306Y-69473495D01*
X128258917Y-69422358D01*
X128322190Y-69405000D01*
X128676000Y-69405000D01*
X128743039Y-69424685D01*
X128788794Y-69477489D01*
X128800000Y-69529000D01*
X128800000Y-69655000D01*
X131199999Y-69655000D01*
X131199999Y-69505028D01*
X131199998Y-69505013D01*
X131189505Y-69402302D01*
X131134358Y-69235880D01*
X131134356Y-69235875D01*
X131042315Y-69086654D01*
X130918345Y-68962684D01*
X130769121Y-68870642D01*
X130768068Y-68870151D01*
X130767466Y-68869621D01*
X130762975Y-68866851D01*
X130763448Y-68866083D01*
X130715627Y-68823981D01*
X130696473Y-68756788D01*
X130716686Y-68689906D01*
X130746154Y-68658503D01*
X130807546Y-68612546D01*
X130893796Y-68497331D01*
X130944091Y-68362483D01*
X130950500Y-68302873D01*
X130950499Y-67507128D01*
X130944091Y-67447517D01*
X130920983Y-67385562D01*
X130893797Y-67312671D01*
X130893793Y-67312664D01*
X130807547Y-67197455D01*
X130807544Y-67197452D01*
X130692335Y-67111206D01*
X130692328Y-67111202D01*
X130557482Y-67060908D01*
X130557483Y-67060908D01*
X130497883Y-67054501D01*
X130497881Y-67054500D01*
X130497873Y-67054500D01*
X130497864Y-67054500D01*
X129502129Y-67054500D01*
X129502123Y-67054501D01*
X129442516Y-67060908D01*
X129307671Y-67111202D01*
X129307664Y-67111206D01*
X129192455Y-67197452D01*
X129192452Y-67197455D01*
X129106206Y-67312664D01*
X129106202Y-67312671D01*
X129064742Y-67423834D01*
X129022871Y-67479768D01*
X128957407Y-67504185D01*
X128948560Y-67504501D01*
X128301440Y-67504501D01*
X128234401Y-67484816D01*
X128188646Y-67432012D01*
X128185258Y-67423834D01*
X128143797Y-67312672D01*
X128143793Y-67312665D01*
X128057547Y-67197456D01*
X128057544Y-67197453D01*
X127942335Y-67111207D01*
X127942328Y-67111203D01*
X127807482Y-67060909D01*
X127807483Y-67060909D01*
X127747883Y-67054502D01*
X127747881Y-67054501D01*
X127747873Y-67054501D01*
X127747864Y-67054501D01*
X126752129Y-67054501D01*
X126752123Y-67054502D01*
X126692516Y-67060909D01*
X126557671Y-67111203D01*
X126557664Y-67111207D01*
X126442455Y-67197453D01*
X126442452Y-67197456D01*
X126356206Y-67312665D01*
X126356202Y-67312672D01*
X126314517Y-67424438D01*
X126305909Y-67447518D01*
X126299500Y-67507128D01*
X126299500Y-67507135D01*
X126299500Y-67507136D01*
X126299500Y-68252871D01*
X126299501Y-68252877D01*
X126305908Y-68312484D01*
X126356202Y-68447329D01*
X126356203Y-68447330D01*
X126356204Y-68447332D01*
X126407072Y-68515283D01*
X126429213Y-68544860D01*
X126442454Y-68562547D01*
X126450308Y-68568426D01*
X126492180Y-68624357D01*
X126500000Y-68667695D01*
X126500000Y-69142304D01*
X126480315Y-69209343D01*
X126450315Y-69241568D01*
X126442453Y-69247453D01*
X126442452Y-69247454D01*
X126356206Y-69362663D01*
X126356202Y-69362670D01*
X126324066Y-69448833D01*
X126282195Y-69504767D01*
X126216730Y-69529184D01*
X126207884Y-69529500D01*
X125953386Y-69529500D01*
X125886347Y-69509815D01*
X125840592Y-69457011D01*
X125830648Y-69387853D01*
X125859673Y-69324297D01*
X125865705Y-69317819D01*
X125896303Y-69287221D01*
X125940509Y-69243015D01*
X126012984Y-69117485D01*
X126050500Y-68977475D01*
X126050500Y-68832525D01*
X126012984Y-68692515D01*
X125954950Y-68591997D01*
X125938478Y-68524101D01*
X125954949Y-68468002D01*
X126012984Y-68367485D01*
X126050500Y-68227475D01*
X126050500Y-68082525D01*
X126012984Y-67942515D01*
X125997794Y-67916206D01*
X125940511Y-67816988D01*
X125940506Y-67816982D01*
X125838017Y-67714493D01*
X125838011Y-67714488D01*
X125712488Y-67642017D01*
X125712489Y-67642017D01*
X125701006Y-67638940D01*
X125572475Y-67604500D01*
X125427525Y-67604500D01*
X125298993Y-67638940D01*
X125287511Y-67642017D01*
X125187000Y-67700048D01*
X125119100Y-67716521D01*
X125063000Y-67700048D01*
X124962488Y-67642017D01*
X124962489Y-67642017D01*
X124951006Y-67638940D01*
X124822475Y-67604500D01*
X124677525Y-67604500D01*
X124548993Y-67638940D01*
X124537511Y-67642017D01*
X124411988Y-67714488D01*
X124411982Y-67714493D01*
X124309493Y-67816982D01*
X124309488Y-67816988D01*
X124237017Y-67942511D01*
X124237016Y-67942515D01*
X124199500Y-68082525D01*
X124199500Y-68082527D01*
X124199500Y-68230500D01*
X124179815Y-68297539D01*
X124127011Y-68343294D01*
X124075500Y-68354500D01*
X124072475Y-68354500D01*
X123927525Y-68354500D01*
X123798993Y-68388940D01*
X123787511Y-68392017D01*
X123661988Y-68464488D01*
X123661982Y-68464493D01*
X123559493Y-68566982D01*
X123559488Y-68566988D01*
X123487017Y-68692511D01*
X123487016Y-68692515D01*
X123449500Y-68832525D01*
X123449500Y-68977475D01*
X123478755Y-69086654D01*
X123487017Y-69117488D01*
X123559488Y-69243011D01*
X123559493Y-69243017D01*
X123663378Y-69346902D01*
X123696863Y-69408225D01*
X123691879Y-69477917D01*
X123650007Y-69533850D01*
X123607805Y-69554354D01*
X123605066Y-69555088D01*
X123605062Y-69555089D01*
X123558433Y-69582011D01*
X123524103Y-69601832D01*
X123519435Y-69604527D01*
X122587181Y-70536782D01*
X122525858Y-70570267D01*
X122456166Y-70565283D01*
X122400233Y-70523411D01*
X122375816Y-70457947D01*
X122375500Y-70449101D01*
X122375500Y-68611899D01*
X122395185Y-68544860D01*
X122411819Y-68524218D01*
X123938709Y-66997328D01*
X125550474Y-65385563D01*
X125567794Y-65355564D01*
X125599910Y-65299938D01*
X125625500Y-65204435D01*
X125625500Y-65200412D01*
X125631393Y-65185011D01*
X125648822Y-65162132D01*
X125663795Y-65137568D01*
X125670778Y-65133311D01*
X125673734Y-65129432D01*
X125682175Y-65126364D01*
X125703869Y-65113141D01*
X125742331Y-65098796D01*
X125857546Y-65012546D01*
X125934855Y-64909274D01*
X125990786Y-64867404D01*
X126060478Y-64862420D01*
X126121801Y-64895905D01*
X126144028Y-64926173D01*
X126160721Y-64958129D01*
X126289246Y-65115753D01*
X126446870Y-65244278D01*
X126627138Y-65338442D01*
X126822671Y-65394390D01*
X126822674Y-65394391D01*
X126941999Y-65404999D01*
X126942002Y-65405000D01*
X128250000Y-65405000D01*
X128750000Y-65405000D01*
X130057998Y-65405000D01*
X130058000Y-65404999D01*
X130177325Y-65394391D01*
X130177328Y-65394390D01*
X130372861Y-65338442D01*
X130553129Y-65244278D01*
X130710753Y-65115753D01*
X130839278Y-64958129D01*
X130933442Y-64777861D01*
X130989390Y-64582328D01*
X130989391Y-64582325D01*
X130999999Y-64463000D01*
X131000000Y-64462998D01*
X131000000Y-64155000D01*
X128750000Y-64155000D01*
X128750000Y-65405000D01*
X128250000Y-65405000D01*
X128250000Y-64029000D01*
X128269685Y-63961961D01*
X128322489Y-63916206D01*
X128374000Y-63905000D01*
X128500000Y-63905000D01*
X128500000Y-63779000D01*
X128519685Y-63711961D01*
X128572489Y-63666206D01*
X128624000Y-63655000D01*
X131000000Y-63655000D01*
X131000000Y-63347002D01*
X130999999Y-63346999D01*
X130989391Y-63227674D01*
X130989390Y-63227671D01*
X130933442Y-63032138D01*
X130839277Y-62851868D01*
X130836555Y-62847737D01*
X130816099Y-62780929D01*
X130835010Y-62713667D01*
X130887283Y-62667307D01*
X130940091Y-62655500D01*
X137375500Y-62655500D01*
X137442539Y-62675185D01*
G37*
G04 #@! TD.AperFunction*
G04 #@! TA.AperFunction,Conductor*
G36*
X115267539Y-67924685D02*
G01*
X115313294Y-67977489D01*
X115324500Y-68029000D01*
X115324500Y-68927390D01*
X115304815Y-68994429D01*
X115288181Y-69015071D01*
X114509517Y-69793734D01*
X114509512Y-69793740D01*
X114453497Y-69890761D01*
X114450518Y-69897954D01*
X114406677Y-69952357D01*
X114340382Y-69974422D01*
X114335958Y-69974501D01*
X114206962Y-69974501D01*
X114206962Y-69974502D01*
X114116111Y-69988890D01*
X114116110Y-69988890D01*
X114006595Y-70044691D01*
X114006591Y-70044694D01*
X113919693Y-70131592D01*
X113919690Y-70131596D01*
X113919689Y-70131598D01*
X113864718Y-70239486D01*
X113859985Y-70248775D01*
X113836343Y-70273806D01*
X113812987Y-70298994D01*
X113812416Y-70299140D01*
X113812010Y-70299571D01*
X113778630Y-70307837D01*
X113745323Y-70316410D01*
X113744761Y-70316224D01*
X113744189Y-70316366D01*
X113711644Y-70305275D01*
X113678985Y-70294478D01*
X113678613Y-70294019D01*
X113678055Y-70293829D01*
X113656672Y-70266903D01*
X113635034Y-70240163D01*
X113634898Y-70239486D01*
X113634603Y-70239114D01*
X113626237Y-70205983D01*
X113625500Y-70199255D01*
X113625500Y-70105565D01*
X113610595Y-70049938D01*
X113599911Y-70010063D01*
X113550475Y-69924438D01*
X112976324Y-69350287D01*
X112942839Y-69288964D01*
X112947823Y-69219272D01*
X112989692Y-69163341D01*
X113057546Y-69112546D01*
X113143796Y-68997331D01*
X113194091Y-68862483D01*
X113200500Y-68802873D01*
X113200499Y-68028999D01*
X113220183Y-67961961D01*
X113272987Y-67916206D01*
X113324499Y-67905000D01*
X115200500Y-67905000D01*
X115267539Y-67924685D01*
G37*
G04 #@! TD.AperFunction*
G04 #@! TA.AperFunction,Conductor*
G36*
X112955809Y-62675185D02*
G01*
X113001564Y-62727989D01*
X113011508Y-62797147D01*
X112982483Y-62860703D01*
X112976451Y-62867181D01*
X112907289Y-62936342D01*
X112815187Y-63085663D01*
X112815185Y-63085668D01*
X112808074Y-63107128D01*
X112760001Y-63252203D01*
X112760001Y-63252204D01*
X112760000Y-63252204D01*
X112749409Y-63355872D01*
X112723012Y-63420563D01*
X112665831Y-63460714D01*
X112596020Y-63463576D01*
X112564051Y-63450655D01*
X112462488Y-63392017D01*
X112462489Y-63392017D01*
X112451006Y-63388940D01*
X112322475Y-63354500D01*
X112177525Y-63354500D01*
X112048993Y-63388940D01*
X112037511Y-63392017D01*
X111911988Y-63464488D01*
X111911982Y-63464493D01*
X111809493Y-63566982D01*
X111809488Y-63566988D01*
X111737017Y-63692511D01*
X111737016Y-63692515D01*
X111699500Y-63832525D01*
X111699500Y-63977475D01*
X111737016Y-64117485D01*
X111737017Y-64117488D01*
X111809488Y-64243011D01*
X111809490Y-64243013D01*
X111809491Y-64243015D01*
X111911985Y-64345509D01*
X111911986Y-64345510D01*
X111911988Y-64345511D01*
X112037511Y-64417982D01*
X112037512Y-64417982D01*
X112037515Y-64417984D01*
X112177525Y-64455500D01*
X112177528Y-64455500D01*
X112322472Y-64455500D01*
X112322475Y-64455500D01*
X112462485Y-64417984D01*
X112564055Y-64359342D01*
X112631952Y-64342870D01*
X112697979Y-64365722D01*
X112741170Y-64420643D01*
X112749411Y-64454129D01*
X112760000Y-64557796D01*
X112760001Y-64557799D01*
X112808078Y-64702883D01*
X112815186Y-64724334D01*
X112907288Y-64873656D01*
X113031344Y-64997712D01*
X113180666Y-65089814D01*
X113347203Y-65144999D01*
X113449991Y-65155500D01*
X113950500Y-65155499D01*
X113959186Y-65158049D01*
X113968147Y-65156761D01*
X113992183Y-65167738D01*
X114017539Y-65175183D01*
X114023467Y-65182025D01*
X114031703Y-65185786D01*
X114045989Y-65208017D01*
X114063294Y-65227987D01*
X114065581Y-65238502D01*
X114069477Y-65244564D01*
X114074500Y-65279499D01*
X114074500Y-65407648D01*
X114054815Y-65474687D01*
X114002011Y-65520442D01*
X113963755Y-65530938D01*
X113917516Y-65535909D01*
X113782671Y-65586202D01*
X113782664Y-65586206D01*
X113667455Y-65672452D01*
X113667452Y-65672455D01*
X113581206Y-65787664D01*
X113581202Y-65787671D01*
X113539742Y-65898833D01*
X113526472Y-65916559D01*
X113517273Y-65936703D01*
X113505942Y-65943984D01*
X113497871Y-65954767D01*
X113477122Y-65962505D01*
X113458495Y-65974477D01*
X113436578Y-65977628D01*
X113432407Y-65979184D01*
X113423560Y-65979500D01*
X113292115Y-65979500D01*
X113225076Y-65959815D01*
X113179321Y-65907011D01*
X113175933Y-65898833D01*
X113143797Y-65812671D01*
X113143793Y-65812664D01*
X113057547Y-65697455D01*
X113057544Y-65697452D01*
X112942335Y-65611206D01*
X112942328Y-65611202D01*
X112807482Y-65560908D01*
X112807483Y-65560908D01*
X112747883Y-65554501D01*
X112747881Y-65554500D01*
X112747873Y-65554500D01*
X112747864Y-65554500D01*
X111752129Y-65554500D01*
X111752123Y-65554501D01*
X111692516Y-65560908D01*
X111557671Y-65611202D01*
X111557664Y-65611206D01*
X111442455Y-65697452D01*
X111442452Y-65697455D01*
X111356206Y-65812664D01*
X111356202Y-65812671D01*
X111305908Y-65947517D01*
X111299501Y-66007116D01*
X111299500Y-66007135D01*
X111299500Y-66802870D01*
X111299501Y-66802876D01*
X111305908Y-66862483D01*
X111356202Y-66997328D01*
X111356203Y-66997329D01*
X111356204Y-66997331D01*
X111399002Y-67054502D01*
X111441451Y-67111207D01*
X111442454Y-67112546D01*
X111450308Y-67118425D01*
X111492180Y-67174356D01*
X111500000Y-67217694D01*
X111500000Y-67592305D01*
X111480315Y-67659344D01*
X111450315Y-67691569D01*
X111442453Y-67697454D01*
X111442452Y-67697455D01*
X111356206Y-67812664D01*
X111356202Y-67812671D01*
X111305908Y-67947517D01*
X111299501Y-68007116D01*
X111299500Y-68007135D01*
X111299500Y-68802870D01*
X111299501Y-68802876D01*
X111305908Y-68862483D01*
X111356202Y-68997328D01*
X111356206Y-68997335D01*
X111442452Y-69112544D01*
X111442455Y-69112547D01*
X111557664Y-69198793D01*
X111557671Y-69198797D01*
X111572624Y-69204374D01*
X111692517Y-69249091D01*
X111752127Y-69255500D01*
X111802841Y-69255499D01*
X111806399Y-69256544D01*
X111810012Y-69255707D01*
X111839655Y-69266308D01*
X111869879Y-69275182D01*
X111873329Y-69278351D01*
X111875801Y-69279235D01*
X111882986Y-69287221D01*
X111901093Y-69303852D01*
X111906117Y-69310377D01*
X111949525Y-69385562D01*
X111949526Y-69385563D01*
X112012457Y-69448494D01*
X112017353Y-69454853D01*
X112027215Y-69480239D01*
X112040267Y-69504142D01*
X112039681Y-69512329D01*
X112042654Y-69519981D01*
X112037225Y-69546669D01*
X112035283Y-69573834D01*
X112030363Y-69580404D01*
X112028728Y-69588448D01*
X112009732Y-69607964D01*
X111993411Y-69629767D01*
X111985720Y-69632635D01*
X111979995Y-69638518D01*
X111953464Y-69644666D01*
X111927947Y-69654184D01*
X111919101Y-69654500D01*
X106124500Y-69654500D01*
X106057461Y-69634815D01*
X106011706Y-69582011D01*
X106000500Y-69530500D01*
X106000500Y-62779500D01*
X106020185Y-62712461D01*
X106072989Y-62666706D01*
X106124500Y-62655500D01*
X112888770Y-62655500D01*
X112955809Y-62675185D01*
G37*
G04 #@! TD.AperFunction*
M02*
