G04 #@! TF.GenerationSoftware,KiCad,Pcbnew,9.0.4*
G04 #@! TF.CreationDate,2025-12-28T16:32:26+01:00*
G04 #@! TF.ProjectId,UWU_AK_V3_Mouse,5557555f-414b-45f5-9633-5f4d6f757365,rev?*
G04 #@! TF.SameCoordinates,Original*
G04 #@! TF.FileFunction,Copper,L2,Inr*
G04 #@! TF.FilePolarity,Positive*
%FSLAX46Y46*%
G04 Gerber Fmt 4.6, Leading zero omitted, Abs format (unit mm)*
G04 Created by KiCad (PCBNEW 9.0.4) date 2025-12-28 16:32:26*
%MOMM*%
%LPD*%
G01*
G04 APERTURE LIST*
G04 Aperture macros list*
%AMRoundRect*
0 Rectangle with rounded corners*
0 $1 Rounding radius*
0 $2 $3 $4 $5 $6 $7 $8 $9 X,Y pos of 4 corners*
0 Add a 4 corners polygon primitive as box body*
4,1,4,$2,$3,$4,$5,$6,$7,$8,$9,$2,$3,0*
0 Add four circle primitives for the rounded corners*
1,1,$1+$1,$2,$3*
1,1,$1+$1,$4,$5*
1,1,$1+$1,$6,$7*
1,1,$1+$1,$8,$9*
0 Add four rect primitives between the rounded corners*
20,1,$1+$1,$2,$3,$4,$5,0*
20,1,$1+$1,$4,$5,$6,$7,0*
20,1,$1+$1,$6,$7,$8,$9,0*
20,1,$1+$1,$8,$9,$2,$3,0*%
G04 Aperture macros list end*
G04 #@! TA.AperFunction,ComponentPad*
%ADD10RoundRect,0.600000X-3.400000X-1.400000X3.400000X-1.400000X3.400000X1.400000X-3.400000X1.400000X0*%
G04 #@! TD*
G04 #@! TA.AperFunction,ComponentPad*
%ADD11RoundRect,0.525000X3.475000X1.225000X-3.475000X1.225000X-3.475000X-1.225000X3.475000X-1.225000X0*%
G04 #@! TD*
G04 #@! TA.AperFunction,ViaPad*
%ADD12C,0.600000*%
G04 #@! TD*
G04 APERTURE END LIST*
D10*
X108500000Y-97000000D03*
D11*
X135875000Y-98250000D03*
X135875000Y-73250000D03*
D10*
X108500000Y-71905000D03*
D12*
X113500000Y-69405000D03*
X108000000Y-88500000D03*
X136500000Y-69905000D03*
X132000000Y-109250000D03*
X114000000Y-109250000D03*
X134000000Y-63655000D03*
X135250000Y-95000000D03*
X134000000Y-88750000D03*
X128750000Y-72155000D03*
X113500000Y-94500000D03*
X132750000Y-88750000D03*
X121500000Y-73905000D03*
X121500000Y-99000000D03*
X108000000Y-63405000D03*
X134000000Y-69905000D03*
X130000000Y-109250000D03*
X132750000Y-69905000D03*
X109000000Y-63405000D03*
X109000000Y-88500000D03*
X132750000Y-63655000D03*
X135750000Y-78405000D03*
X133750000Y-103500000D03*
X133750000Y-78405000D03*
X106500000Y-79655000D03*
X135250000Y-63655000D03*
X132000000Y-84155000D03*
X110000000Y-63405000D03*
X135250000Y-88750000D03*
X106500000Y-104750000D03*
X136500000Y-95000000D03*
X119279009Y-107625421D03*
X129000000Y-101500000D03*
X119279009Y-82530421D03*
X130000000Y-84155000D03*
X136500000Y-63655000D03*
X131000000Y-84155000D03*
X107000000Y-63405000D03*
X135250000Y-69905000D03*
X107000000Y-88500000D03*
X132000000Y-100500000D03*
X136500000Y-88750000D03*
X132000000Y-75405000D03*
X132750000Y-95000000D03*
X129000000Y-76405000D03*
X131000000Y-109250000D03*
X114000000Y-84155000D03*
X110000000Y-88500000D03*
X134000000Y-95000000D03*
X128750000Y-97250000D03*
X135750000Y-103500000D03*
X124000000Y-93250000D03*
X124750000Y-93250000D03*
X125500000Y-68155000D03*
X110500000Y-104250000D03*
X124000000Y-92500000D03*
X112250000Y-63905000D03*
X125750000Y-103250000D03*
X111500000Y-109500000D03*
X126000000Y-96750000D03*
X125500000Y-94000000D03*
X125500000Y-93250000D03*
X124750000Y-92500000D03*
X124000000Y-68905000D03*
X126000000Y-71655000D03*
X125750000Y-78155000D03*
X131750000Y-78405000D03*
X124000000Y-94000000D03*
X124750000Y-68905000D03*
X125500000Y-68905000D03*
X111500000Y-84405000D03*
X125500000Y-92500000D03*
X112250000Y-89000000D03*
X124750000Y-68155000D03*
X131750000Y-103500000D03*
X110500000Y-79155000D03*
X124750000Y-94000000D03*
X116250000Y-82655000D03*
X116250000Y-107750000D03*
X122433733Y-84355001D03*
X122433733Y-109450001D03*
X117000000Y-102250000D03*
X117000000Y-77155000D03*
G04 #@! TA.AperFunction,Conductor*
G36*
X115891469Y-87269685D02*
G01*
X115918141Y-87292796D01*
X115936276Y-87313724D01*
X116098487Y-87454281D01*
X116227531Y-87537211D01*
X116279048Y-87570320D01*
X116279061Y-87570327D01*
X116474284Y-87659482D01*
X116474288Y-87659483D01*
X116474290Y-87659484D01*
X116680231Y-87719954D01*
X116680232Y-87719954D01*
X116680235Y-87719955D01*
X116743584Y-87729062D01*
X116892682Y-87750500D01*
X116892683Y-87750500D01*
X126324136Y-87750500D01*
X126324180Y-87750497D01*
X126357317Y-87750497D01*
X126357318Y-87750497D01*
X126569768Y-87719951D01*
X126680136Y-87687544D01*
X126775700Y-87659485D01*
X126775702Y-87659483D01*
X126775709Y-87659482D01*
X126882678Y-87610630D01*
X126970936Y-87570325D01*
X126970942Y-87570321D01*
X126970948Y-87570319D01*
X127151511Y-87454279D01*
X127313721Y-87313722D01*
X127331853Y-87292797D01*
X127390632Y-87255023D01*
X127425566Y-87250000D01*
X131574430Y-87250000D01*
X131641469Y-87269685D01*
X131668141Y-87292796D01*
X131686276Y-87313724D01*
X131848487Y-87454281D01*
X131977531Y-87537211D01*
X132029048Y-87570320D01*
X132029061Y-87570327D01*
X132224284Y-87659482D01*
X132224288Y-87659483D01*
X132224290Y-87659484D01*
X132430231Y-87719954D01*
X132430232Y-87719954D01*
X132430235Y-87719955D01*
X132493584Y-87729062D01*
X132642682Y-87750500D01*
X132684108Y-87750500D01*
X137375500Y-87750500D01*
X137442539Y-87770185D01*
X137488294Y-87822989D01*
X137499500Y-87874500D01*
X137499500Y-96125500D01*
X137479815Y-96192539D01*
X137427011Y-96238294D01*
X137375500Y-96249500D01*
X132356441Y-96249500D01*
X132226351Y-96264157D01*
X132226341Y-96264159D01*
X132061395Y-96321877D01*
X131913423Y-96414853D01*
X131789853Y-96538423D01*
X131696877Y-96686395D01*
X131639159Y-96851341D01*
X131639157Y-96851351D01*
X131624500Y-96981441D01*
X131624500Y-99518558D01*
X131639157Y-99648648D01*
X131639159Y-99648657D01*
X131696878Y-99813606D01*
X131789853Y-99961576D01*
X131913424Y-100085147D01*
X132061394Y-100178122D01*
X132226343Y-100235841D01*
X132226349Y-100235841D01*
X132226351Y-100235842D01*
X132267750Y-100240506D01*
X132356442Y-100250499D01*
X132356445Y-100250500D01*
X132356448Y-100250500D01*
X137375500Y-100250500D01*
X137442539Y-100270185D01*
X137488294Y-100322989D01*
X137499500Y-100374500D01*
X137499500Y-109875500D01*
X137479815Y-109942539D01*
X137427011Y-109988294D01*
X137375500Y-109999500D01*
X122962120Y-109999500D01*
X122895081Y-109979815D01*
X122849326Y-109927011D01*
X122839382Y-109857853D01*
X122868407Y-109794297D01*
X122874174Y-109788102D01*
X122874237Y-109788021D01*
X122874242Y-109788016D01*
X122946717Y-109662486D01*
X122984233Y-109522476D01*
X122984233Y-109377526D01*
X122946717Y-109237516D01*
X122903107Y-109161982D01*
X122874244Y-109111989D01*
X122874239Y-109111983D01*
X122771750Y-109009494D01*
X122771744Y-109009489D01*
X122646221Y-108937018D01*
X122646222Y-108937018D01*
X122634739Y-108933941D01*
X122506208Y-108899501D01*
X122361258Y-108899501D01*
X122232726Y-108933941D01*
X122221244Y-108937018D01*
X122095721Y-109009489D01*
X122095715Y-109009494D01*
X121993226Y-109111983D01*
X121993221Y-109111989D01*
X121920750Y-109237512D01*
X121920749Y-109237516D01*
X121883233Y-109377526D01*
X121883233Y-109522476D01*
X121920749Y-109662486D01*
X121920750Y-109662489D01*
X121993221Y-109788012D01*
X121998171Y-109794462D01*
X121997102Y-109795282D01*
X122026512Y-109849142D01*
X122021528Y-109918834D01*
X121979656Y-109974767D01*
X121914192Y-109999184D01*
X121905346Y-109999500D01*
X112062050Y-109999500D01*
X111995011Y-109979815D01*
X111949256Y-109927011D01*
X111939312Y-109857853D01*
X111954663Y-109813500D01*
X112012982Y-109712488D01*
X112012981Y-109712488D01*
X112012984Y-109712485D01*
X112050500Y-109572475D01*
X112050500Y-109427525D01*
X112012984Y-109287515D01*
X111940509Y-109161985D01*
X111838015Y-109059491D01*
X111838013Y-109059490D01*
X111838011Y-109059488D01*
X111712488Y-108987017D01*
X111712489Y-108987017D01*
X111701006Y-108983940D01*
X111572475Y-108949500D01*
X111427525Y-108949500D01*
X111298993Y-108983940D01*
X111287511Y-108987017D01*
X111161988Y-109059488D01*
X111161982Y-109059493D01*
X111059493Y-109161982D01*
X111059488Y-109161988D01*
X110987017Y-109287511D01*
X110987016Y-109287515D01*
X110949500Y-109427525D01*
X110949500Y-109572475D01*
X110987016Y-109712485D01*
X110987017Y-109712488D01*
X111045337Y-109813500D01*
X111061810Y-109881400D01*
X111038958Y-109947427D01*
X110984037Y-109990617D01*
X110937950Y-109999500D01*
X106124500Y-109999500D01*
X106057461Y-109979815D01*
X106011706Y-109927011D01*
X106000500Y-109875500D01*
X106000500Y-107677525D01*
X115699500Y-107677525D01*
X115699500Y-107822475D01*
X115737016Y-107962485D01*
X115737017Y-107962488D01*
X115809488Y-108088011D01*
X115809490Y-108088013D01*
X115809491Y-108088015D01*
X115911985Y-108190509D01*
X115911986Y-108190510D01*
X115911988Y-108190511D01*
X116037511Y-108262982D01*
X116037512Y-108262982D01*
X116037515Y-108262984D01*
X116177525Y-108300500D01*
X116177528Y-108300500D01*
X116322472Y-108300500D01*
X116322475Y-108300500D01*
X116462485Y-108262984D01*
X116588015Y-108190509D01*
X116690509Y-108088015D01*
X116762984Y-107962485D01*
X116800500Y-107822475D01*
X116800500Y-107677525D01*
X116762984Y-107537515D01*
X116690509Y-107411985D01*
X116588015Y-107309491D01*
X116588013Y-107309490D01*
X116588011Y-107309488D01*
X116462488Y-107237017D01*
X116462489Y-107237017D01*
X116451006Y-107233940D01*
X116322475Y-107199500D01*
X116177525Y-107199500D01*
X116048993Y-107233940D01*
X116037511Y-107237017D01*
X115911988Y-107309488D01*
X115911982Y-107309493D01*
X115809493Y-107411982D01*
X115809488Y-107411988D01*
X115737017Y-107537511D01*
X115737016Y-107537515D01*
X115699500Y-107677525D01*
X106000500Y-107677525D01*
X106000500Y-104177525D01*
X109949500Y-104177525D01*
X109949500Y-104322475D01*
X109987016Y-104462485D01*
X109987017Y-104462488D01*
X110059488Y-104588011D01*
X110059490Y-104588013D01*
X110059491Y-104588015D01*
X110161985Y-104690509D01*
X110161986Y-104690510D01*
X110161988Y-104690511D01*
X110287511Y-104762982D01*
X110287512Y-104762982D01*
X110287515Y-104762984D01*
X110427525Y-104800500D01*
X110427528Y-104800500D01*
X110572472Y-104800500D01*
X110572475Y-104800500D01*
X110712485Y-104762984D01*
X110838015Y-104690509D01*
X110940509Y-104588015D01*
X111012984Y-104462485D01*
X111050500Y-104322475D01*
X111050500Y-104177525D01*
X111012984Y-104037515D01*
X110956977Y-103940509D01*
X110940511Y-103911988D01*
X110940506Y-103911982D01*
X110838017Y-103809493D01*
X110838011Y-103809488D01*
X110712488Y-103737017D01*
X110712489Y-103737017D01*
X110701006Y-103733940D01*
X110572475Y-103699500D01*
X110427525Y-103699500D01*
X110298993Y-103733940D01*
X110287511Y-103737017D01*
X110161988Y-103809488D01*
X110161982Y-103809493D01*
X110059493Y-103911982D01*
X110059488Y-103911988D01*
X109987017Y-104037511D01*
X109987016Y-104037515D01*
X109949500Y-104177525D01*
X106000500Y-104177525D01*
X106000500Y-103177525D01*
X125199500Y-103177525D01*
X125199500Y-103322475D01*
X125227649Y-103427527D01*
X125237017Y-103462488D01*
X125309488Y-103588011D01*
X125309490Y-103588013D01*
X125309491Y-103588015D01*
X125411985Y-103690509D01*
X125411986Y-103690510D01*
X125411988Y-103690511D01*
X125537511Y-103762982D01*
X125537512Y-103762982D01*
X125537515Y-103762984D01*
X125677525Y-103800500D01*
X125677528Y-103800500D01*
X125822472Y-103800500D01*
X125822475Y-103800500D01*
X125962485Y-103762984D01*
X126088015Y-103690509D01*
X126190509Y-103588015D01*
X126262984Y-103462485D01*
X126272352Y-103427525D01*
X131199500Y-103427525D01*
X131199500Y-103572475D01*
X131231128Y-103690511D01*
X131237017Y-103712488D01*
X131309488Y-103838011D01*
X131309490Y-103838013D01*
X131309491Y-103838015D01*
X131411985Y-103940509D01*
X131411986Y-103940510D01*
X131411988Y-103940511D01*
X131537511Y-104012982D01*
X131537512Y-104012982D01*
X131537515Y-104012984D01*
X131677525Y-104050500D01*
X131677528Y-104050500D01*
X131822472Y-104050500D01*
X131822475Y-104050500D01*
X131962485Y-104012984D01*
X132088015Y-103940509D01*
X132190509Y-103838015D01*
X132262984Y-103712485D01*
X132300500Y-103572475D01*
X132300500Y-103427525D01*
X132262984Y-103287515D01*
X132190509Y-103161985D01*
X132088015Y-103059491D01*
X132088013Y-103059490D01*
X132088011Y-103059488D01*
X131962488Y-102987017D01*
X131962489Y-102987017D01*
X131951006Y-102983940D01*
X131822475Y-102949500D01*
X131677525Y-102949500D01*
X131548993Y-102983940D01*
X131537511Y-102987017D01*
X131411988Y-103059488D01*
X131411982Y-103059493D01*
X131309493Y-103161982D01*
X131309488Y-103161988D01*
X131237017Y-103287511D01*
X131237016Y-103287515D01*
X131199500Y-103427525D01*
X126272352Y-103427525D01*
X126300500Y-103322475D01*
X126300500Y-103177525D01*
X126262984Y-103037515D01*
X126233828Y-102987016D01*
X126190511Y-102911988D01*
X126190506Y-102911982D01*
X126088017Y-102809493D01*
X126088011Y-102809488D01*
X125962488Y-102737017D01*
X125962489Y-102737017D01*
X125951006Y-102733940D01*
X125822475Y-102699500D01*
X125677525Y-102699500D01*
X125548993Y-102733940D01*
X125537511Y-102737017D01*
X125411988Y-102809488D01*
X125411982Y-102809493D01*
X125309493Y-102911982D01*
X125309488Y-102911988D01*
X125237017Y-103037511D01*
X125237016Y-103037515D01*
X125199500Y-103177525D01*
X106000500Y-103177525D01*
X106000500Y-102177525D01*
X116449500Y-102177525D01*
X116449500Y-102322475D01*
X116487016Y-102462485D01*
X116487017Y-102462488D01*
X116559488Y-102588011D01*
X116559490Y-102588013D01*
X116559491Y-102588015D01*
X116661985Y-102690509D01*
X116661986Y-102690510D01*
X116661988Y-102690511D01*
X116787511Y-102762982D01*
X116787512Y-102762982D01*
X116787515Y-102762984D01*
X116927525Y-102800500D01*
X116927528Y-102800500D01*
X117072472Y-102800500D01*
X117072475Y-102800500D01*
X117212485Y-102762984D01*
X117338015Y-102690509D01*
X117440509Y-102588015D01*
X117512984Y-102462485D01*
X117550500Y-102322475D01*
X117550500Y-102177525D01*
X117512984Y-102037515D01*
X117440509Y-101911985D01*
X117338015Y-101809491D01*
X117338013Y-101809490D01*
X117338011Y-101809488D01*
X117212488Y-101737017D01*
X117212489Y-101737017D01*
X117201006Y-101733940D01*
X117072475Y-101699500D01*
X116927525Y-101699500D01*
X116798993Y-101733940D01*
X116787511Y-101737017D01*
X116661988Y-101809488D01*
X116661982Y-101809493D01*
X116559493Y-101911982D01*
X116559488Y-101911988D01*
X116487017Y-102037511D01*
X116487016Y-102037515D01*
X116449500Y-102177525D01*
X106000500Y-102177525D01*
X106000500Y-99374500D01*
X106020185Y-99307461D01*
X106072989Y-99261706D01*
X106124500Y-99250500D01*
X111973952Y-99250500D01*
X111973954Y-99250500D01*
X112015495Y-99247683D01*
X112195021Y-99203037D01*
X112360753Y-99120842D01*
X112504940Y-99004940D01*
X112620842Y-98860753D01*
X112703037Y-98695021D01*
X112747683Y-98515495D01*
X112750500Y-98473954D01*
X112750500Y-96677525D01*
X125449500Y-96677525D01*
X125449500Y-96822475D01*
X125470664Y-96901459D01*
X125487017Y-96962488D01*
X125559488Y-97088011D01*
X125559490Y-97088013D01*
X125559491Y-97088015D01*
X125661985Y-97190509D01*
X125661986Y-97190510D01*
X125661988Y-97190511D01*
X125787511Y-97262982D01*
X125787512Y-97262982D01*
X125787515Y-97262984D01*
X125927525Y-97300500D01*
X125927528Y-97300500D01*
X126072472Y-97300500D01*
X126072475Y-97300500D01*
X126212485Y-97262984D01*
X126338015Y-97190509D01*
X126440509Y-97088015D01*
X126512984Y-96962485D01*
X126550500Y-96822475D01*
X126550500Y-96677525D01*
X126512984Y-96537515D01*
X126506385Y-96526086D01*
X126440511Y-96411988D01*
X126440506Y-96411982D01*
X126338017Y-96309493D01*
X126338011Y-96309488D01*
X126212488Y-96237017D01*
X126212489Y-96237017D01*
X126201006Y-96233940D01*
X126072475Y-96199500D01*
X125927525Y-96199500D01*
X125798993Y-96233940D01*
X125787511Y-96237017D01*
X125661988Y-96309488D01*
X125661982Y-96309493D01*
X125559493Y-96411982D01*
X125559488Y-96411988D01*
X125487017Y-96537511D01*
X125487016Y-96537515D01*
X125449500Y-96677525D01*
X112750500Y-96677525D01*
X112750500Y-95526046D01*
X112747683Y-95484505D01*
X112703037Y-95304979D01*
X112620842Y-95139247D01*
X112570945Y-95077173D01*
X112504940Y-94995059D01*
X112402785Y-94912945D01*
X112360753Y-94879158D01*
X112360751Y-94879157D01*
X112360750Y-94879156D01*
X112195023Y-94796964D01*
X112195021Y-94796963D01*
X112015497Y-94752317D01*
X112015501Y-94752317D01*
X111984339Y-94750204D01*
X111973954Y-94749500D01*
X111973952Y-94749500D01*
X106124500Y-94749500D01*
X106057461Y-94729815D01*
X106011706Y-94677011D01*
X106000500Y-94625500D01*
X106000500Y-92427525D01*
X123449500Y-92427525D01*
X123449500Y-92572475D01*
X123487016Y-92712485D01*
X123487017Y-92712488D01*
X123545048Y-92813000D01*
X123561521Y-92880900D01*
X123545048Y-92937000D01*
X123487017Y-93037511D01*
X123487016Y-93037515D01*
X123449500Y-93177525D01*
X123449500Y-93322475D01*
X123487016Y-93462485D01*
X123487017Y-93462488D01*
X123545048Y-93563000D01*
X123561521Y-93630900D01*
X123545048Y-93687000D01*
X123487017Y-93787511D01*
X123487016Y-93787515D01*
X123449500Y-93927525D01*
X123449500Y-94072475D01*
X123487016Y-94212485D01*
X123487017Y-94212488D01*
X123559488Y-94338011D01*
X123559490Y-94338013D01*
X123559491Y-94338015D01*
X123661985Y-94440509D01*
X123661986Y-94440510D01*
X123661988Y-94440511D01*
X123787511Y-94512982D01*
X123787512Y-94512982D01*
X123787515Y-94512984D01*
X123927525Y-94550500D01*
X123927528Y-94550500D01*
X124072472Y-94550500D01*
X124072475Y-94550500D01*
X124212485Y-94512984D01*
X124313002Y-94454950D01*
X124380899Y-94438478D01*
X124436997Y-94454949D01*
X124537515Y-94512984D01*
X124677525Y-94550500D01*
X124677528Y-94550500D01*
X124822472Y-94550500D01*
X124822475Y-94550500D01*
X124962485Y-94512984D01*
X125063002Y-94454950D01*
X125130899Y-94438478D01*
X125186997Y-94454949D01*
X125287515Y-94512984D01*
X125427525Y-94550500D01*
X125427528Y-94550500D01*
X125572472Y-94550500D01*
X125572475Y-94550500D01*
X125712485Y-94512984D01*
X125838015Y-94440509D01*
X125940509Y-94338015D01*
X126012984Y-94212485D01*
X126050500Y-94072475D01*
X126050500Y-93927525D01*
X126012984Y-93787515D01*
X125954950Y-93686997D01*
X125938478Y-93619101D01*
X125954951Y-93563000D01*
X126012984Y-93462485D01*
X126050500Y-93322475D01*
X126050500Y-93177525D01*
X126012984Y-93037515D01*
X125954950Y-92936997D01*
X125938478Y-92869101D01*
X125954951Y-92813000D01*
X126012984Y-92712485D01*
X126050500Y-92572475D01*
X126050500Y-92427525D01*
X126012984Y-92287515D01*
X125940509Y-92161985D01*
X125838015Y-92059491D01*
X125838013Y-92059490D01*
X125838011Y-92059488D01*
X125712488Y-91987017D01*
X125712489Y-91987017D01*
X125701006Y-91983940D01*
X125572475Y-91949500D01*
X125427525Y-91949500D01*
X125298993Y-91983940D01*
X125287511Y-91987017D01*
X125187000Y-92045048D01*
X125119100Y-92061521D01*
X125063000Y-92045048D01*
X124962488Y-91987017D01*
X124962489Y-91987017D01*
X124951006Y-91983940D01*
X124822475Y-91949500D01*
X124677525Y-91949500D01*
X124548993Y-91983940D01*
X124537511Y-91987017D01*
X124437000Y-92045048D01*
X124369100Y-92061521D01*
X124313000Y-92045048D01*
X124212488Y-91987017D01*
X124212489Y-91987017D01*
X124201006Y-91983940D01*
X124072475Y-91949500D01*
X123927525Y-91949500D01*
X123798993Y-91983940D01*
X123787511Y-91987017D01*
X123661988Y-92059488D01*
X123661982Y-92059493D01*
X123559493Y-92161982D01*
X123559488Y-92161988D01*
X123487017Y-92287511D01*
X123487016Y-92287515D01*
X123449500Y-92427525D01*
X106000500Y-92427525D01*
X106000500Y-88927525D01*
X111699500Y-88927525D01*
X111699500Y-89072475D01*
X111737016Y-89212485D01*
X111737017Y-89212488D01*
X111809488Y-89338011D01*
X111809490Y-89338013D01*
X111809491Y-89338015D01*
X111911985Y-89440509D01*
X111911986Y-89440510D01*
X111911988Y-89440511D01*
X112037511Y-89512982D01*
X112037512Y-89512982D01*
X112037515Y-89512984D01*
X112177525Y-89550500D01*
X112177528Y-89550500D01*
X112322472Y-89550500D01*
X112322475Y-89550500D01*
X112462485Y-89512984D01*
X112588015Y-89440509D01*
X112690509Y-89338015D01*
X112762984Y-89212485D01*
X112800500Y-89072475D01*
X112800500Y-88927525D01*
X112762984Y-88787515D01*
X112690509Y-88661985D01*
X112588015Y-88559491D01*
X112588013Y-88559490D01*
X112588011Y-88559488D01*
X112462488Y-88487017D01*
X112462489Y-88487017D01*
X112451006Y-88483940D01*
X112322475Y-88449500D01*
X112177525Y-88449500D01*
X112048993Y-88483940D01*
X112037511Y-88487017D01*
X111911988Y-88559488D01*
X111911982Y-88559493D01*
X111809493Y-88661982D01*
X111809488Y-88661988D01*
X111737017Y-88787511D01*
X111737016Y-88787515D01*
X111699500Y-88927525D01*
X106000500Y-88927525D01*
X106000500Y-87874500D01*
X106020185Y-87807461D01*
X106072989Y-87761706D01*
X106124500Y-87750500D01*
X110573951Y-87750500D01*
X110574013Y-87750496D01*
X110607318Y-87750496D01*
X110607319Y-87750496D01*
X110777852Y-87725976D01*
X110819764Y-87719951D01*
X110819765Y-87719950D01*
X110819769Y-87719950D01*
X111025710Y-87659480D01*
X111220949Y-87570318D01*
X111401511Y-87454277D01*
X111563721Y-87313721D01*
X111581852Y-87292797D01*
X111640630Y-87255023D01*
X111675565Y-87250000D01*
X115824430Y-87250000D01*
X115891469Y-87269685D01*
G37*
G04 #@! TD.AperFunction*
G04 #@! TA.AperFunction,Conductor*
G36*
X137442539Y-62675185D02*
G01*
X137488294Y-62727989D01*
X137499500Y-62779500D01*
X137499500Y-71125500D01*
X137479815Y-71192539D01*
X137427011Y-71238294D01*
X137375500Y-71249500D01*
X132356441Y-71249500D01*
X132226351Y-71264157D01*
X132226341Y-71264159D01*
X132061395Y-71321877D01*
X131913423Y-71414853D01*
X131789853Y-71538423D01*
X131696877Y-71686395D01*
X131639159Y-71851341D01*
X131639157Y-71851351D01*
X131624500Y-71981441D01*
X131624500Y-74518558D01*
X131639157Y-74648648D01*
X131639159Y-74648657D01*
X131696878Y-74813606D01*
X131789853Y-74961576D01*
X131913424Y-75085147D01*
X132061394Y-75178122D01*
X132226343Y-75235841D01*
X132226349Y-75235841D01*
X132226351Y-75235842D01*
X132267750Y-75240506D01*
X132356442Y-75250499D01*
X132356445Y-75250500D01*
X132356448Y-75250500D01*
X137375500Y-75250500D01*
X137442539Y-75270185D01*
X137488294Y-75322989D01*
X137499500Y-75374500D01*
X137499500Y-84625500D01*
X137479815Y-84692539D01*
X137427011Y-84738294D01*
X137375500Y-84749500D01*
X132642682Y-84749500D01*
X132430235Y-84780044D01*
X132430225Y-84780047D01*
X132224284Y-84840517D01*
X132029061Y-84929672D01*
X132029048Y-84929679D01*
X131848483Y-85045721D01*
X131848480Y-85045724D01*
X131701121Y-85173411D01*
X131637566Y-85202436D01*
X131620866Y-85203694D01*
X127414219Y-85235806D01*
X127347031Y-85216634D01*
X127319559Y-85193012D01*
X127318251Y-85191503D01*
X127313723Y-85186277D01*
X127313720Y-85186274D01*
X127313718Y-85186272D01*
X127151518Y-85045726D01*
X127151511Y-85045720D01*
X126970953Y-84929682D01*
X126970937Y-84929673D01*
X126775713Y-84840518D01*
X126775701Y-84840513D01*
X126569771Y-84780048D01*
X126569767Y-84780047D01*
X126392992Y-84754631D01*
X126357318Y-84749502D01*
X126357317Y-84749502D01*
X126324547Y-84749502D01*
X126324519Y-84749500D01*
X126315892Y-84749500D01*
X123056406Y-84749500D01*
X122989367Y-84729815D01*
X122943612Y-84677011D01*
X122933668Y-84607853D01*
X122944858Y-84575519D01*
X122943605Y-84575000D01*
X122946715Y-84567490D01*
X122946715Y-84567488D01*
X122946717Y-84567486D01*
X122984233Y-84427476D01*
X122984233Y-84282526D01*
X122946717Y-84142516D01*
X122903107Y-84066982D01*
X122874244Y-84016989D01*
X122874239Y-84016983D01*
X122771750Y-83914494D01*
X122771744Y-83914489D01*
X122646221Y-83842018D01*
X122646222Y-83842018D01*
X122634739Y-83838941D01*
X122506208Y-83804501D01*
X122361258Y-83804501D01*
X122232726Y-83838941D01*
X122221244Y-83842018D01*
X122095721Y-83914489D01*
X122095715Y-83914494D01*
X121993226Y-84016983D01*
X121993221Y-84016989D01*
X121920750Y-84142512D01*
X121920749Y-84142516D01*
X121883233Y-84282526D01*
X121883233Y-84427476D01*
X121917673Y-84556007D01*
X121920750Y-84567490D01*
X121923861Y-84575000D01*
X121921476Y-84575987D01*
X121934919Y-84631402D01*
X121912066Y-84697429D01*
X121857144Y-84740618D01*
X121811060Y-84749500D01*
X116892682Y-84749500D01*
X116680235Y-84780044D01*
X116680225Y-84780047D01*
X116474284Y-84840517D01*
X116279061Y-84929672D01*
X116279048Y-84929679D01*
X116098485Y-85045720D01*
X115936275Y-85186276D01*
X115853352Y-85281973D01*
X115794574Y-85319746D01*
X115760587Y-85324765D01*
X111767713Y-85355246D01*
X111735275Y-85345990D01*
X111702599Y-85337357D01*
X111701359Y-85336312D01*
X111700525Y-85336074D01*
X111675305Y-85314981D01*
X111674153Y-85313723D01*
X111563723Y-85186279D01*
X111533533Y-85160119D01*
X111528690Y-85154829D01*
X111516342Y-85129635D01*
X111501174Y-85106032D01*
X111501174Y-85098685D01*
X111497941Y-85092089D01*
X111501174Y-85064222D01*
X111501174Y-85036163D01*
X111505146Y-85029981D01*
X111505993Y-85022685D01*
X111523780Y-85000986D01*
X111538949Y-84977385D01*
X111546348Y-84973458D01*
X111550289Y-84968651D01*
X111563398Y-84964409D01*
X111588052Y-84951326D01*
X111712485Y-84917984D01*
X111838015Y-84845509D01*
X111940509Y-84743015D01*
X112012984Y-84617485D01*
X112050500Y-84477475D01*
X112050500Y-84332525D01*
X112012984Y-84192515D01*
X111940509Y-84066985D01*
X111838015Y-83964491D01*
X111838013Y-83964490D01*
X111838011Y-83964488D01*
X111712488Y-83892017D01*
X111712489Y-83892017D01*
X111701006Y-83888940D01*
X111572475Y-83854500D01*
X111427525Y-83854500D01*
X111298993Y-83888940D01*
X111287511Y-83892017D01*
X111161988Y-83964488D01*
X111161982Y-83964493D01*
X111059493Y-84066982D01*
X111059488Y-84066988D01*
X110987017Y-84192511D01*
X110987016Y-84192515D01*
X110949500Y-84332525D01*
X110949500Y-84477475D01*
X110973619Y-84567486D01*
X110987018Y-84617492D01*
X110987652Y-84619022D01*
X110987801Y-84620415D01*
X110989120Y-84625335D01*
X110988352Y-84625540D01*
X110995118Y-84688491D01*
X110963840Y-84750969D01*
X110903749Y-84786619D01*
X110838157Y-84785447D01*
X110819775Y-84780050D01*
X110819765Y-84780047D01*
X110617515Y-84750969D01*
X110607319Y-84749503D01*
X110607318Y-84749503D01*
X106124500Y-84749503D01*
X106057461Y-84729818D01*
X106011706Y-84677014D01*
X106000500Y-84625503D01*
X106000500Y-82582525D01*
X115699500Y-82582525D01*
X115699500Y-82727475D01*
X115737016Y-82867485D01*
X115737017Y-82867488D01*
X115809488Y-82993011D01*
X115809490Y-82993013D01*
X115809491Y-82993015D01*
X115911985Y-83095509D01*
X115911986Y-83095510D01*
X115911988Y-83095511D01*
X116037511Y-83167982D01*
X116037512Y-83167982D01*
X116037515Y-83167984D01*
X116177525Y-83205500D01*
X116177528Y-83205500D01*
X116322472Y-83205500D01*
X116322475Y-83205500D01*
X116462485Y-83167984D01*
X116588015Y-83095509D01*
X116690509Y-82993015D01*
X116762984Y-82867485D01*
X116800500Y-82727475D01*
X116800500Y-82582525D01*
X116762984Y-82442515D01*
X116690509Y-82316985D01*
X116588015Y-82214491D01*
X116588013Y-82214490D01*
X116588011Y-82214488D01*
X116462488Y-82142017D01*
X116462489Y-82142017D01*
X116451006Y-82138940D01*
X116322475Y-82104500D01*
X116177525Y-82104500D01*
X116048993Y-82138940D01*
X116037511Y-82142017D01*
X115911988Y-82214488D01*
X115911982Y-82214493D01*
X115809493Y-82316982D01*
X115809488Y-82316988D01*
X115737017Y-82442511D01*
X115737016Y-82442515D01*
X115699500Y-82582525D01*
X106000500Y-82582525D01*
X106000500Y-79082525D01*
X109949500Y-79082525D01*
X109949500Y-79227475D01*
X109987016Y-79367485D01*
X109987017Y-79367488D01*
X110059488Y-79493011D01*
X110059490Y-79493013D01*
X110059491Y-79493015D01*
X110161985Y-79595509D01*
X110161986Y-79595510D01*
X110161988Y-79595511D01*
X110287511Y-79667982D01*
X110287512Y-79667982D01*
X110287515Y-79667984D01*
X110427525Y-79705500D01*
X110427528Y-79705500D01*
X110572472Y-79705500D01*
X110572475Y-79705500D01*
X110712485Y-79667984D01*
X110838015Y-79595509D01*
X110940509Y-79493015D01*
X111012984Y-79367485D01*
X111050500Y-79227475D01*
X111050500Y-79082525D01*
X111012984Y-78942515D01*
X110956977Y-78845509D01*
X110940511Y-78816988D01*
X110940506Y-78816982D01*
X110838017Y-78714493D01*
X110838011Y-78714488D01*
X110712488Y-78642017D01*
X110712489Y-78642017D01*
X110701006Y-78638940D01*
X110572475Y-78604500D01*
X110427525Y-78604500D01*
X110298993Y-78638940D01*
X110287511Y-78642017D01*
X110161988Y-78714488D01*
X110161982Y-78714493D01*
X110059493Y-78816982D01*
X110059488Y-78816988D01*
X109987017Y-78942511D01*
X109987016Y-78942515D01*
X109949500Y-79082525D01*
X106000500Y-79082525D01*
X106000500Y-78082525D01*
X125199500Y-78082525D01*
X125199500Y-78227475D01*
X125227649Y-78332527D01*
X125237017Y-78367488D01*
X125309488Y-78493011D01*
X125309490Y-78493013D01*
X125309491Y-78493015D01*
X125411985Y-78595509D01*
X125411986Y-78595510D01*
X125411988Y-78595511D01*
X125537511Y-78667982D01*
X125537512Y-78667982D01*
X125537515Y-78667984D01*
X125677525Y-78705500D01*
X125677528Y-78705500D01*
X125822472Y-78705500D01*
X125822475Y-78705500D01*
X125962485Y-78667984D01*
X126088015Y-78595509D01*
X126190509Y-78493015D01*
X126262984Y-78367485D01*
X126272352Y-78332525D01*
X131199500Y-78332525D01*
X131199500Y-78477475D01*
X131231128Y-78595511D01*
X131237017Y-78617488D01*
X131309488Y-78743011D01*
X131309490Y-78743013D01*
X131309491Y-78743015D01*
X131411985Y-78845509D01*
X131411986Y-78845510D01*
X131411988Y-78845511D01*
X131537511Y-78917982D01*
X131537512Y-78917982D01*
X131537515Y-78917984D01*
X131677525Y-78955500D01*
X131677528Y-78955500D01*
X131822472Y-78955500D01*
X131822475Y-78955500D01*
X131962485Y-78917984D01*
X132088015Y-78845509D01*
X132190509Y-78743015D01*
X132262984Y-78617485D01*
X132300500Y-78477475D01*
X132300500Y-78332525D01*
X132262984Y-78192515D01*
X132190509Y-78066985D01*
X132088015Y-77964491D01*
X132088013Y-77964490D01*
X132088011Y-77964488D01*
X131962488Y-77892017D01*
X131962489Y-77892017D01*
X131951006Y-77888940D01*
X131822475Y-77854500D01*
X131677525Y-77854500D01*
X131548993Y-77888940D01*
X131537511Y-77892017D01*
X131411988Y-77964488D01*
X131411982Y-77964493D01*
X131309493Y-78066982D01*
X131309488Y-78066988D01*
X131237017Y-78192511D01*
X131237016Y-78192515D01*
X131199500Y-78332525D01*
X126272352Y-78332525D01*
X126300500Y-78227475D01*
X126300500Y-78082525D01*
X126262984Y-77942515D01*
X126233828Y-77892016D01*
X126190511Y-77816988D01*
X126190506Y-77816982D01*
X126088017Y-77714493D01*
X126088011Y-77714488D01*
X125962488Y-77642017D01*
X125962489Y-77642017D01*
X125951006Y-77638940D01*
X125822475Y-77604500D01*
X125677525Y-77604500D01*
X125548993Y-77638940D01*
X125537511Y-77642017D01*
X125411988Y-77714488D01*
X125411982Y-77714493D01*
X125309493Y-77816982D01*
X125309488Y-77816988D01*
X125237017Y-77942511D01*
X125237016Y-77942515D01*
X125199500Y-78082525D01*
X106000500Y-78082525D01*
X106000500Y-77082525D01*
X116449500Y-77082525D01*
X116449500Y-77227475D01*
X116487016Y-77367485D01*
X116487017Y-77367488D01*
X116559488Y-77493011D01*
X116559490Y-77493013D01*
X116559491Y-77493015D01*
X116661985Y-77595509D01*
X116661986Y-77595510D01*
X116661988Y-77595511D01*
X116787511Y-77667982D01*
X116787512Y-77667982D01*
X116787515Y-77667984D01*
X116927525Y-77705500D01*
X116927528Y-77705500D01*
X117072472Y-77705500D01*
X117072475Y-77705500D01*
X117212485Y-77667984D01*
X117338015Y-77595509D01*
X117440509Y-77493015D01*
X117512984Y-77367485D01*
X117550500Y-77227475D01*
X117550500Y-77082525D01*
X117512984Y-76942515D01*
X117440509Y-76816985D01*
X117338015Y-76714491D01*
X117338013Y-76714490D01*
X117338011Y-76714488D01*
X117212488Y-76642017D01*
X117212489Y-76642017D01*
X117201006Y-76638940D01*
X117072475Y-76604500D01*
X116927525Y-76604500D01*
X116798993Y-76638940D01*
X116787511Y-76642017D01*
X116661988Y-76714488D01*
X116661982Y-76714493D01*
X116559493Y-76816982D01*
X116559488Y-76816988D01*
X116487017Y-76942511D01*
X116487016Y-76942515D01*
X116449500Y-77082525D01*
X106000500Y-77082525D01*
X106000500Y-74279500D01*
X106020185Y-74212461D01*
X106072989Y-74166706D01*
X106124500Y-74155500D01*
X111973952Y-74155500D01*
X111973954Y-74155500D01*
X112015495Y-74152683D01*
X112195021Y-74108037D01*
X112360753Y-74025842D01*
X112504940Y-73909940D01*
X112620842Y-73765753D01*
X112703037Y-73600021D01*
X112747683Y-73420495D01*
X112750500Y-73378954D01*
X112750500Y-71582525D01*
X125449500Y-71582525D01*
X125449500Y-71727475D01*
X125470664Y-71806459D01*
X125487017Y-71867488D01*
X125559488Y-71993011D01*
X125559490Y-71993013D01*
X125559491Y-71993015D01*
X125661985Y-72095509D01*
X125661986Y-72095510D01*
X125661988Y-72095511D01*
X125787511Y-72167982D01*
X125787512Y-72167982D01*
X125787515Y-72167984D01*
X125927525Y-72205500D01*
X125927528Y-72205500D01*
X126072472Y-72205500D01*
X126072475Y-72205500D01*
X126212485Y-72167984D01*
X126338015Y-72095509D01*
X126440509Y-71993015D01*
X126512984Y-71867485D01*
X126550500Y-71727475D01*
X126550500Y-71582525D01*
X126512984Y-71442515D01*
X126506385Y-71431086D01*
X126440511Y-71316988D01*
X126440506Y-71316982D01*
X126338017Y-71214493D01*
X126338011Y-71214488D01*
X126212488Y-71142017D01*
X126212489Y-71142017D01*
X126201006Y-71138940D01*
X126072475Y-71104500D01*
X125927525Y-71104500D01*
X125798993Y-71138940D01*
X125787511Y-71142017D01*
X125661988Y-71214488D01*
X125661982Y-71214493D01*
X125559493Y-71316982D01*
X125559488Y-71316988D01*
X125487017Y-71442511D01*
X125487016Y-71442515D01*
X125449500Y-71582525D01*
X112750500Y-71582525D01*
X112750500Y-70431046D01*
X112747683Y-70389505D01*
X112703037Y-70209979D01*
X112620842Y-70044247D01*
X112570945Y-69982173D01*
X112504940Y-69900059D01*
X112402785Y-69817945D01*
X112360753Y-69784158D01*
X112360751Y-69784157D01*
X112360750Y-69784156D01*
X112195023Y-69701964D01*
X112195021Y-69701963D01*
X112015497Y-69657317D01*
X112015501Y-69657317D01*
X111984339Y-69655204D01*
X111973954Y-69654500D01*
X111973952Y-69654500D01*
X106124500Y-69654500D01*
X106057461Y-69634815D01*
X106011706Y-69582011D01*
X106000500Y-69530500D01*
X106000500Y-68832525D01*
X123449500Y-68832525D01*
X123449500Y-68977475D01*
X123487016Y-69117485D01*
X123487017Y-69117488D01*
X123559488Y-69243011D01*
X123559490Y-69243013D01*
X123559491Y-69243015D01*
X123661985Y-69345509D01*
X123661986Y-69345510D01*
X123661988Y-69345511D01*
X123787511Y-69417982D01*
X123787512Y-69417982D01*
X123787515Y-69417984D01*
X123927525Y-69455500D01*
X123927528Y-69455500D01*
X124072472Y-69455500D01*
X124072475Y-69455500D01*
X124212485Y-69417984D01*
X124313002Y-69359950D01*
X124380899Y-69343478D01*
X124436997Y-69359949D01*
X124537515Y-69417984D01*
X124677525Y-69455500D01*
X124677528Y-69455500D01*
X124822472Y-69455500D01*
X124822475Y-69455500D01*
X124962485Y-69417984D01*
X125063002Y-69359950D01*
X125130899Y-69343478D01*
X125186997Y-69359949D01*
X125287515Y-69417984D01*
X125427525Y-69455500D01*
X125427528Y-69455500D01*
X125572472Y-69455500D01*
X125572475Y-69455500D01*
X125712485Y-69417984D01*
X125838015Y-69345509D01*
X125940509Y-69243015D01*
X126012984Y-69117485D01*
X126050500Y-68977475D01*
X126050500Y-68832525D01*
X126012984Y-68692515D01*
X125954950Y-68591997D01*
X125938478Y-68524101D01*
X125954949Y-68468002D01*
X126012984Y-68367485D01*
X126050500Y-68227475D01*
X126050500Y-68082525D01*
X126012984Y-67942515D01*
X125940509Y-67816985D01*
X125838015Y-67714491D01*
X125838013Y-67714490D01*
X125838011Y-67714488D01*
X125712488Y-67642017D01*
X125712489Y-67642017D01*
X125701006Y-67638940D01*
X125572475Y-67604500D01*
X125427525Y-67604500D01*
X125298993Y-67638940D01*
X125287511Y-67642017D01*
X125187000Y-67700048D01*
X125119100Y-67716521D01*
X125063000Y-67700048D01*
X124962488Y-67642017D01*
X124962489Y-67642017D01*
X124951006Y-67638940D01*
X124822475Y-67604500D01*
X124677525Y-67604500D01*
X124548993Y-67638940D01*
X124537511Y-67642017D01*
X124411988Y-67714488D01*
X124411982Y-67714493D01*
X124309493Y-67816982D01*
X124309488Y-67816988D01*
X124237017Y-67942511D01*
X124237016Y-67942515D01*
X124199500Y-68082525D01*
X124199500Y-68082527D01*
X124199500Y-68230500D01*
X124179815Y-68297539D01*
X124127011Y-68343294D01*
X124075500Y-68354500D01*
X124072475Y-68354500D01*
X123927525Y-68354500D01*
X123798993Y-68388940D01*
X123787511Y-68392017D01*
X123661988Y-68464488D01*
X123661982Y-68464493D01*
X123559493Y-68566982D01*
X123559488Y-68566988D01*
X123487017Y-68692511D01*
X123487016Y-68692515D01*
X123449500Y-68832525D01*
X106000500Y-68832525D01*
X106000500Y-63832525D01*
X111699500Y-63832525D01*
X111699500Y-63977475D01*
X111737016Y-64117485D01*
X111737017Y-64117488D01*
X111809488Y-64243011D01*
X111809490Y-64243013D01*
X111809491Y-64243015D01*
X111911985Y-64345509D01*
X111911986Y-64345510D01*
X111911988Y-64345511D01*
X112037511Y-64417982D01*
X112037512Y-64417982D01*
X112037515Y-64417984D01*
X112177525Y-64455500D01*
X112177528Y-64455500D01*
X112322472Y-64455500D01*
X112322475Y-64455500D01*
X112462485Y-64417984D01*
X112588015Y-64345509D01*
X112690509Y-64243015D01*
X112762984Y-64117485D01*
X112800500Y-63977475D01*
X112800500Y-63832525D01*
X112762984Y-63692515D01*
X112690509Y-63566985D01*
X112588015Y-63464491D01*
X112588013Y-63464490D01*
X112588011Y-63464488D01*
X112462488Y-63392017D01*
X112462489Y-63392017D01*
X112451006Y-63388940D01*
X112322475Y-63354500D01*
X112177525Y-63354500D01*
X112048993Y-63388940D01*
X112037511Y-63392017D01*
X111911988Y-63464488D01*
X111911982Y-63464493D01*
X111809493Y-63566982D01*
X111809488Y-63566988D01*
X111737017Y-63692511D01*
X111737016Y-63692515D01*
X111699500Y-63832525D01*
X106000500Y-63832525D01*
X106000500Y-62779500D01*
X106020185Y-62712461D01*
X106072989Y-62666706D01*
X106124500Y-62655500D01*
X137375500Y-62655500D01*
X137442539Y-62675185D01*
G37*
G04 #@! TD.AperFunction*
M02*
