M48
; DRILL file {KiCad 9.0.4} date 2025-12-28T16:32:31+0100
; FORMAT={-:-/ absolute / metric / decimal}
; #@! TF.CreationDate,2025-12-28T16:32:31+01:00
; #@! TF.GenerationSoftware,Kicad,Pcbnew,9.0.4
; #@! TF.FileFunction,Plated,1,4,PTH
FMAT,2
METRIC
; #@! TA.AperFunction,Plated,PTH,ViaDrill
T1C0.300
; #@! TA.AperFunction,Plated,PTH,ComponentDrill
T2C1.500
%
G90
G05
T1
X106.5Y-79.655
X106.5Y-104.75
X107.0Y-63.405
X107.0Y-88.5
X108.0Y-63.405
X108.0Y-88.5
X109.0Y-63.405
X109.0Y-88.5
X110.0Y-63.405
X110.0Y-88.5
X110.5Y-79.155
X110.5Y-104.25
X111.5Y-84.405
X111.5Y-109.5
X112.25Y-63.905
X112.25Y-89.0
X113.5Y-69.405
X113.5Y-94.5
X114.0Y-84.155
X114.0Y-109.25
X116.25Y-82.655
X116.25Y-107.75
X117.0Y-77.155
X117.0Y-102.25
X119.279Y-82.53
X119.279Y-107.625
X121.5Y-73.905
X121.5Y-99.0
X122.434Y-84.355
X122.434Y-109.45
X124.0Y-68.905
X124.0Y-92.5
X124.0Y-93.25
X124.0Y-94.0
X124.75Y-68.155
X124.75Y-68.905
X124.75Y-92.5
X124.75Y-93.25
X124.75Y-94.0
X125.5Y-68.155
X125.5Y-68.905
X125.5Y-92.5
X125.5Y-93.25
X125.5Y-94.0
X125.75Y-78.155
X125.75Y-103.25
X126.0Y-71.655
X126.0Y-96.75
X128.75Y-72.155
X128.75Y-97.25
X129.0Y-76.405
X129.0Y-101.5
X130.0Y-84.155
X130.0Y-109.25
X131.0Y-84.155
X131.0Y-109.25
X131.75Y-78.405
X131.75Y-103.5
X132.0Y-75.405
X132.0Y-84.155
X132.0Y-100.5
X132.0Y-109.25
X132.75Y-63.655
X132.75Y-69.905
X132.75Y-88.75
X132.75Y-95.0
X133.75Y-78.405
X133.75Y-103.5
X134.0Y-63.655
X134.0Y-69.905
X134.0Y-88.75
X134.0Y-95.0
X135.25Y-63.655
X135.25Y-69.905
X135.25Y-88.75
X135.25Y-95.0
X135.75Y-78.405
X135.75Y-103.5
X136.5Y-63.655
X136.5Y-69.905
X136.5Y-88.75
X136.5Y-95.0
T2
X104.75Y-71.905G85X110.25Y-71.905
G05
X104.75Y-97.0G85X110.25Y-97.0
G05
X139.625Y-73.25G85X134.125Y-73.25
G05
X139.625Y-98.25G85X134.125Y-98.25
G05
M30
