G04 #@! TF.GenerationSoftware,KiCad,Pcbnew,9.0.4*
G04 #@! TF.CreationDate,2025-12-28T16:32:26+01:00*
G04 #@! TF.ProjectId,UWU_AK_V3_Mouse,5557555f-414b-45f5-9633-5f4d6f757365,rev?*
G04 #@! TF.SameCoordinates,Original*
G04 #@! TF.FileFunction,Soldermask,Top*
G04 #@! TF.FilePolarity,Negative*
%FSLAX46Y46*%
G04 Gerber Fmt 4.6, Leading zero omitted, Abs format (unit mm)*
G04 Created by KiCad (PCBNEW 9.0.4) date 2025-12-28 16:32:26*
%MOMM*%
%LPD*%
G01*
G04 APERTURE LIST*
G04 Aperture macros list*
%AMRoundRect*
0 Rectangle with rounded corners*
0 $1 Rounding radius*
0 $2 $3 $4 $5 $6 $7 $8 $9 X,Y pos of 4 corners*
0 Add a 4 corners polygon primitive as box body*
4,1,4,$2,$3,$4,$5,$6,$7,$8,$9,$2,$3,0*
0 Add four circle primitives for the rounded corners*
1,1,$1+$1,$2,$3*
1,1,$1+$1,$4,$5*
1,1,$1+$1,$6,$7*
1,1,$1+$1,$8,$9*
0 Add four rect primitives between the rounded corners*
20,1,$1+$1,$2,$3,$4,$5,0*
20,1,$1+$1,$4,$5,$6,$7,0*
20,1,$1+$1,$6,$7,$8,$9,0*
20,1,$1+$1,$8,$9,$2,$3,0*%
G04 Aperture macros list end*
%ADD10RoundRect,0.250000X0.475000X-0.337500X0.475000X0.337500X-0.475000X0.337500X-0.475000X-0.337500X0*%
%ADD11RoundRect,0.250000X0.337500X0.475000X-0.337500X0.475000X-0.337500X-0.475000X0.337500X-0.475000X0*%
%ADD12RoundRect,0.250000X-0.475000X0.337500X-0.475000X-0.337500X0.475000X-0.337500X0.475000X0.337500X0*%
%ADD13RoundRect,0.250000X0.450000X-0.350000X0.450000X0.350000X-0.450000X0.350000X-0.450000X-0.350000X0*%
%ADD14RoundRect,0.250000X-0.325000X-0.450000X0.325000X-0.450000X0.325000X0.450000X-0.325000X0.450000X0*%
%ADD15RoundRect,0.500000X1.500000X-0.500000X1.500000X0.500000X-1.500000X0.500000X-1.500000X-0.500000X0*%
%ADD16RoundRect,0.250000X-0.337500X-0.475000X0.337500X-0.475000X0.337500X0.475000X-0.337500X0.475000X0*%
%ADD17R,1.528000X0.650000*%
%ADD18RoundRect,0.600000X-3.400000X-1.400000X3.400000X-1.400000X3.400000X1.400000X-3.400000X1.400000X0*%
%ADD19RoundRect,0.525000X3.475000X1.225000X-3.475000X1.225000X-3.475000X-1.225000X3.475000X-1.225000X0*%
%ADD20RoundRect,0.600000X3.400000X1.400000X-3.400000X1.400000X-3.400000X-1.400000X3.400000X-1.400000X0*%
%ADD21RoundRect,0.250000X-0.450000X0.350000X-0.450000X-0.350000X0.450000X-0.350000X0.450000X0.350000X0*%
%ADD22RoundRect,0.375000X-0.625000X-0.375000X0.625000X-0.375000X0.625000X0.375000X-0.625000X0.375000X0*%
%ADD23RoundRect,0.500000X-0.500000X-1.400000X0.500000X-1.400000X0.500000X1.400000X-0.500000X1.400000X0*%
%ADD24RoundRect,0.250000X0.650000X-1.000000X0.650000X1.000000X-0.650000X1.000000X-0.650000X-1.000000X0*%
%ADD25RoundRect,0.250000X-0.350000X-0.450000X0.350000X-0.450000X0.350000X0.450000X-0.350000X0.450000X0*%
G04 APERTURE END LIST*
D10*
X120750000Y-82442500D03*
X120750000Y-80367500D03*
D11*
X125287500Y-73155000D03*
X123212500Y-73155000D03*
D12*
X126750000Y-80367500D03*
X126750000Y-82442500D03*
D13*
X124750000Y-107500000D03*
X124750000Y-105500000D03*
D14*
X117225001Y-100250000D03*
X119274999Y-100250000D03*
X117225001Y-75155000D03*
X119274999Y-75155000D03*
D15*
X107750000Y-77905000D03*
D16*
X107675000Y-80655000D03*
X109750000Y-80655000D03*
D17*
X117961000Y-83310000D03*
X117961000Y-82040000D03*
X117961000Y-80770000D03*
X117961000Y-79500000D03*
X112539000Y-79500000D03*
X112539000Y-80770000D03*
X112539000Y-82040000D03*
X112539000Y-83310000D03*
D18*
X108500000Y-97000000D03*
X108500000Y-91500001D03*
D19*
X135875000Y-98250000D03*
D20*
X135875000Y-91750000D03*
D16*
X107675000Y-105750000D03*
X109750000Y-105750000D03*
D11*
X125287500Y-98250000D03*
X123212500Y-98250000D03*
D10*
X134750000Y-82442500D03*
X134750000Y-80367500D03*
D15*
X107750000Y-103000000D03*
D17*
X117961000Y-108405000D03*
X117961000Y-107135000D03*
X117961000Y-105865000D03*
X117961000Y-104595000D03*
X112539000Y-104595000D03*
X112539000Y-105865000D03*
X112539000Y-107135000D03*
X112539000Y-108405000D03*
D13*
X132750000Y-107500000D03*
X132750000Y-105500000D03*
X128750000Y-107500000D03*
X128750000Y-105500000D03*
D19*
X135875000Y-73250000D03*
D20*
X135875000Y-66750000D03*
D12*
X130750000Y-80367500D03*
X130750000Y-82442500D03*
D21*
X122750000Y-105500000D03*
X122750000Y-107500000D03*
X136750000Y-105500000D03*
X136750000Y-107500000D03*
D22*
X121100000Y-90200000D03*
X121100000Y-92500000D03*
D23*
X127400000Y-92500000D03*
D22*
X121100000Y-94800000D03*
D13*
X128750000Y-82405000D03*
X128750000Y-80405000D03*
D16*
X117212500Y-98250000D03*
X119287500Y-98250000D03*
D18*
X108500000Y-71905000D03*
X108500000Y-66405001D03*
D12*
X126750000Y-105462500D03*
X126750000Y-107537500D03*
D24*
X117500000Y-69405001D03*
X117500000Y-65404999D03*
D15*
X107750000Y-108500000D03*
D13*
X124750000Y-82405000D03*
X124750000Y-80405000D03*
D16*
X117212500Y-73155000D03*
X119287500Y-73155000D03*
D10*
X120750000Y-107537500D03*
X120750000Y-105462500D03*
D24*
X117500000Y-94500001D03*
X117500000Y-90499999D03*
D21*
X136750000Y-80405000D03*
X136750000Y-82405000D03*
D15*
X107750000Y-83405000D03*
D21*
X122750000Y-80405000D03*
X122750000Y-82405000D03*
D13*
X132750000Y-82405000D03*
X132750000Y-80405000D03*
D25*
X123250000Y-100250000D03*
X125250000Y-100250000D03*
D10*
X134750000Y-107537500D03*
X134750000Y-105462500D03*
D12*
X130750000Y-105462500D03*
X130750000Y-107537500D03*
D25*
X123250000Y-75155000D03*
X125250000Y-75155000D03*
D22*
X121100000Y-65105000D03*
X121100000Y-67405000D03*
D23*
X127400000Y-67405000D03*
D22*
X121100000Y-69705000D03*
M02*
