G04 #@! TF.GenerationSoftware,KiCad,Pcbnew,9.0.4*
G04 #@! TF.CreationDate,2025-12-28T16:32:26+01:00*
G04 #@! TF.ProjectId,UWU_AK_V3_Mouse,5557555f-414b-45f5-9633-5f4d6f757365,rev?*
G04 #@! TF.SameCoordinates,Original*
G04 #@! TF.FileFunction,Copper,L1,Top*
G04 #@! TF.FilePolarity,Positive*
%FSLAX46Y46*%
G04 Gerber Fmt 4.6, Leading zero omitted, Abs format (unit mm)*
G04 Created by KiCad (PCBNEW 9.0.4) date 2025-12-28 16:32:26*
%MOMM*%
%LPD*%
G01*
G04 APERTURE LIST*
G04 Aperture macros list*
%AMRoundRect*
0 Rectangle with rounded corners*
0 $1 Rounding radius*
0 $2 $3 $4 $5 $6 $7 $8 $9 X,Y pos of 4 corners*
0 Add a 4 corners polygon primitive as box body*
4,1,4,$2,$3,$4,$5,$6,$7,$8,$9,$2,$3,0*
0 Add four circle primitives for the rounded corners*
1,1,$1+$1,$2,$3*
1,1,$1+$1,$4,$5*
1,1,$1+$1,$6,$7*
1,1,$1+$1,$8,$9*
0 Add four rect primitives between the rounded corners*
20,1,$1+$1,$2,$3,$4,$5,0*
20,1,$1+$1,$4,$5,$6,$7,0*
20,1,$1+$1,$6,$7,$8,$9,0*
20,1,$1+$1,$8,$9,$2,$3,0*%
G04 Aperture macros list end*
G04 #@! TA.AperFunction,SMDPad,CuDef*
%ADD10RoundRect,0.250000X0.475000X-0.337500X0.475000X0.337500X-0.475000X0.337500X-0.475000X-0.337500X0*%
G04 #@! TD*
G04 #@! TA.AperFunction,SMDPad,CuDef*
%ADD11RoundRect,0.250000X0.337500X0.475000X-0.337500X0.475000X-0.337500X-0.475000X0.337500X-0.475000X0*%
G04 #@! TD*
G04 #@! TA.AperFunction,SMDPad,CuDef*
%ADD12RoundRect,0.250000X-0.475000X0.337500X-0.475000X-0.337500X0.475000X-0.337500X0.475000X0.337500X0*%
G04 #@! TD*
G04 #@! TA.AperFunction,SMDPad,CuDef*
%ADD13RoundRect,0.250000X0.450000X-0.350000X0.450000X0.350000X-0.450000X0.350000X-0.450000X-0.350000X0*%
G04 #@! TD*
G04 #@! TA.AperFunction,SMDPad,CuDef*
%ADD14RoundRect,0.250000X-0.325000X-0.450000X0.325000X-0.450000X0.325000X0.450000X-0.325000X0.450000X0*%
G04 #@! TD*
G04 #@! TA.AperFunction,SMDPad,CuDef*
%ADD15RoundRect,0.500000X1.500000X-0.500000X1.500000X0.500000X-1.500000X0.500000X-1.500000X-0.500000X0*%
G04 #@! TD*
G04 #@! TA.AperFunction,SMDPad,CuDef*
%ADD16RoundRect,0.250000X-0.337500X-0.475000X0.337500X-0.475000X0.337500X0.475000X-0.337500X0.475000X0*%
G04 #@! TD*
G04 #@! TA.AperFunction,SMDPad,CuDef*
%ADD17R,1.528000X0.650000*%
G04 #@! TD*
G04 #@! TA.AperFunction,ComponentPad*
%ADD18RoundRect,0.600000X-3.400000X-1.400000X3.400000X-1.400000X3.400000X1.400000X-3.400000X1.400000X0*%
G04 #@! TD*
G04 #@! TA.AperFunction,SMDPad,CuDef*
%ADD19RoundRect,0.600000X-3.400000X-1.400000X3.400000X-1.400000X3.400000X1.400000X-3.400000X1.400000X0*%
G04 #@! TD*
G04 #@! TA.AperFunction,ComponentPad*
%ADD20RoundRect,0.525000X3.475000X1.225000X-3.475000X1.225000X-3.475000X-1.225000X3.475000X-1.225000X0*%
G04 #@! TD*
G04 #@! TA.AperFunction,SMDPad,CuDef*
%ADD21RoundRect,0.600000X3.400000X1.400000X-3.400000X1.400000X-3.400000X-1.400000X3.400000X-1.400000X0*%
G04 #@! TD*
G04 #@! TA.AperFunction,SMDPad,CuDef*
%ADD22RoundRect,0.250000X-0.450000X0.350000X-0.450000X-0.350000X0.450000X-0.350000X0.450000X0.350000X0*%
G04 #@! TD*
G04 #@! TA.AperFunction,SMDPad,CuDef*
%ADD23RoundRect,0.375000X-0.625000X-0.375000X0.625000X-0.375000X0.625000X0.375000X-0.625000X0.375000X0*%
G04 #@! TD*
G04 #@! TA.AperFunction,SMDPad,CuDef*
%ADD24RoundRect,0.500000X-0.500000X-1.400000X0.500000X-1.400000X0.500000X1.400000X-0.500000X1.400000X0*%
G04 #@! TD*
G04 #@! TA.AperFunction,SMDPad,CuDef*
%ADD25RoundRect,0.250000X0.650000X-1.000000X0.650000X1.000000X-0.650000X1.000000X-0.650000X-1.000000X0*%
G04 #@! TD*
G04 #@! TA.AperFunction,SMDPad,CuDef*
%ADD26RoundRect,0.250000X-0.350000X-0.450000X0.350000X-0.450000X0.350000X0.450000X-0.350000X0.450000X0*%
G04 #@! TD*
G04 #@! TA.AperFunction,ViaPad*
%ADD27C,0.600000*%
G04 #@! TD*
G04 #@! TA.AperFunction,Conductor*
%ADD28C,0.750000*%
G04 #@! TD*
G04 #@! TA.AperFunction,Conductor*
%ADD29C,0.350000*%
G04 #@! TD*
G04 #@! TA.AperFunction,Conductor*
%ADD30C,0.250000*%
G04 #@! TD*
G04 #@! TA.AperFunction,Conductor*
%ADD31C,0.200000*%
G04 #@! TD*
G04 #@! TA.AperFunction,Conductor*
%ADD32C,0.500000*%
G04 #@! TD*
G04 APERTURE END LIST*
D10*
X120750000Y-82442500D03*
X120750000Y-80367500D03*
D11*
X125287500Y-73155000D03*
X123212500Y-73155000D03*
D12*
X126750000Y-80367500D03*
X126750000Y-82442500D03*
D13*
X124750000Y-107500000D03*
X124750000Y-105500000D03*
D14*
X117225001Y-100250000D03*
X119274999Y-100250000D03*
X117225001Y-75155000D03*
X119274999Y-75155000D03*
D15*
X107750000Y-77905000D03*
D16*
X107675000Y-80655000D03*
X109750000Y-80655000D03*
D17*
X117961000Y-83310000D03*
X117961000Y-82040000D03*
X117961000Y-80770000D03*
X117961000Y-79500000D03*
X112539000Y-79500000D03*
X112539000Y-80770000D03*
X112539000Y-82040000D03*
X112539000Y-83310000D03*
D18*
X108500000Y-97000000D03*
D19*
X108500000Y-91500001D03*
D20*
X135875000Y-98250000D03*
D21*
X135875000Y-91750000D03*
D16*
X107675000Y-105750000D03*
X109750000Y-105750000D03*
D11*
X125287500Y-98250000D03*
X123212500Y-98250000D03*
D10*
X134750000Y-82442500D03*
X134750000Y-80367500D03*
D15*
X107750000Y-103000000D03*
D17*
X117961000Y-108405000D03*
X117961000Y-107135000D03*
X117961000Y-105865000D03*
X117961000Y-104595000D03*
X112539000Y-104595000D03*
X112539000Y-105865000D03*
X112539000Y-107135000D03*
X112539000Y-108405000D03*
D13*
X132750000Y-107500000D03*
X132750000Y-105500000D03*
X128750000Y-107500000D03*
X128750000Y-105500000D03*
D20*
X135875000Y-73250000D03*
D21*
X135875000Y-66750000D03*
D12*
X130750000Y-80367500D03*
X130750000Y-82442500D03*
D22*
X122750000Y-105500000D03*
X122750000Y-107500000D03*
X136750000Y-105500000D03*
X136750000Y-107500000D03*
D23*
X121100000Y-90200000D03*
X121100000Y-92500000D03*
D24*
X127400000Y-92500000D03*
D23*
X121100000Y-94800000D03*
D13*
X128750000Y-82405000D03*
X128750000Y-80405000D03*
D16*
X117212500Y-98250000D03*
X119287500Y-98250000D03*
D18*
X108500000Y-71905000D03*
D19*
X108500000Y-66405001D03*
D12*
X126750000Y-105462500D03*
X126750000Y-107537500D03*
D25*
X117500000Y-69405001D03*
X117500000Y-65404999D03*
D15*
X107750000Y-108500000D03*
D13*
X124750000Y-82405000D03*
X124750000Y-80405000D03*
D16*
X117212500Y-73155000D03*
X119287500Y-73155000D03*
D10*
X120750000Y-107537500D03*
X120750000Y-105462500D03*
D25*
X117500000Y-94500001D03*
X117500000Y-90499999D03*
D22*
X136750000Y-80405000D03*
X136750000Y-82405000D03*
D15*
X107750000Y-83405000D03*
D22*
X122750000Y-80405000D03*
X122750000Y-82405000D03*
D13*
X132750000Y-82405000D03*
X132750000Y-80405000D03*
D26*
X123250000Y-100250000D03*
X125250000Y-100250000D03*
D10*
X134750000Y-107537500D03*
X134750000Y-105462500D03*
D12*
X130750000Y-105462500D03*
X130750000Y-107537500D03*
D26*
X123250000Y-75155000D03*
X125250000Y-75155000D03*
D23*
X121100000Y-65105000D03*
X121100000Y-67405000D03*
D24*
X127400000Y-67405000D03*
D23*
X121100000Y-69705000D03*
D27*
X113500000Y-69405000D03*
X108000000Y-88500000D03*
X136500000Y-69905000D03*
X132000000Y-109250000D03*
X114000000Y-109250000D03*
X134000000Y-63655000D03*
X135250000Y-95000000D03*
X134000000Y-88750000D03*
X128750000Y-72155000D03*
X113500000Y-94500000D03*
X132750000Y-88750000D03*
X121500000Y-73905000D03*
X121500000Y-99000000D03*
X108000000Y-63405000D03*
X134000000Y-69905000D03*
X130000000Y-109250000D03*
X132750000Y-69905000D03*
X109000000Y-63405000D03*
X109000000Y-88500000D03*
X132750000Y-63655000D03*
X135750000Y-78405000D03*
X133750000Y-103500000D03*
X133750000Y-78405000D03*
X106500000Y-79655000D03*
X135250000Y-63655000D03*
X132000000Y-84155000D03*
X110000000Y-63405000D03*
X135250000Y-88750000D03*
X106500000Y-104750000D03*
X136500000Y-95000000D03*
X119279009Y-107625421D03*
X129000000Y-101500000D03*
X119279009Y-82530421D03*
X130000000Y-84155000D03*
X136500000Y-63655000D03*
X131000000Y-84155000D03*
X107000000Y-63405000D03*
X135250000Y-69905000D03*
X107000000Y-88500000D03*
X132000000Y-100500000D03*
X136500000Y-88750000D03*
X132000000Y-75405000D03*
X132750000Y-95000000D03*
X129000000Y-76405000D03*
X131000000Y-109250000D03*
X114000000Y-84155000D03*
X110000000Y-88500000D03*
X134000000Y-95000000D03*
X128750000Y-97250000D03*
X135750000Y-103500000D03*
X124000000Y-93250000D03*
X124750000Y-93250000D03*
X125500000Y-68155000D03*
X110500000Y-104250000D03*
X124000000Y-92500000D03*
X112250000Y-63905000D03*
X125750000Y-103250000D03*
X111500000Y-109500000D03*
X126000000Y-96750000D03*
X125500000Y-94000000D03*
X125500000Y-93250000D03*
X124750000Y-92500000D03*
X124000000Y-68905000D03*
X126000000Y-71655000D03*
X125750000Y-78155000D03*
X131750000Y-78405000D03*
X124000000Y-94000000D03*
X124750000Y-68905000D03*
X125500000Y-68905000D03*
X111500000Y-84405000D03*
X125500000Y-92500000D03*
X112250000Y-89000000D03*
X124750000Y-68155000D03*
X131750000Y-103500000D03*
X110500000Y-79155000D03*
X124750000Y-94000000D03*
X116250000Y-82655000D03*
X116250000Y-107750000D03*
X122433733Y-84355001D03*
X122433733Y-109450001D03*
X117000000Y-102250000D03*
X117000000Y-77155000D03*
D28*
X107500000Y-71905000D02*
X113000000Y-71905000D01*
X115750000Y-90500000D02*
X117500000Y-90500000D01*
X115750000Y-65405000D02*
X117500000Y-65405000D01*
X114500000Y-95500000D02*
X114500000Y-91750000D01*
X113000000Y-71905000D02*
X114500000Y-70405000D01*
X113000000Y-97000000D02*
X114500000Y-95500000D01*
X114500000Y-66655000D02*
X115750000Y-65405000D01*
X114500000Y-91750000D02*
X115750000Y-90500000D01*
X107500000Y-97000000D02*
X113000000Y-97000000D01*
X114500000Y-70405000D02*
X114500000Y-66655000D01*
D29*
X110500000Y-79155000D02*
X110250000Y-79155000D01*
X112539000Y-80770000D02*
X109865000Y-80770000D01*
D30*
X125250000Y-100250000D02*
X125250000Y-98250000D01*
X109865000Y-105865000D02*
X109750000Y-105750000D01*
D29*
X109750000Y-104750000D02*
X109750000Y-105500000D01*
X109750000Y-79655000D02*
X109750000Y-80405000D01*
X125287500Y-98250000D02*
X125287500Y-95462500D01*
X110500000Y-104250000D02*
X110250000Y-104250000D01*
X112539000Y-105865000D02*
X109865000Y-105865000D01*
X125287500Y-95462500D02*
X125500000Y-95250000D01*
X110250000Y-79155000D02*
X109750000Y-79655000D01*
X125287500Y-70367500D02*
X125500000Y-70155000D01*
X110250000Y-104250000D02*
X109750000Y-104750000D01*
D30*
X109865000Y-80770000D02*
X109750000Y-80655000D01*
X125250000Y-75155000D02*
X125250000Y-73155000D01*
D29*
X125287500Y-73155000D02*
X125287500Y-70367500D01*
D30*
X117961000Y-83310000D02*
X116905000Y-83310000D01*
X116905000Y-108405000D02*
X116250000Y-107750000D01*
X116905000Y-83310000D02*
X116250000Y-82655000D01*
X117961000Y-108405000D02*
X116905000Y-108405000D01*
D29*
X132750000Y-107500000D02*
X136750000Y-107500000D01*
X132750000Y-82405000D02*
X136750000Y-82405000D01*
D30*
X128750000Y-83905000D02*
X128299999Y-84355001D01*
X128750000Y-82405000D02*
X128750000Y-83905000D01*
X128750000Y-107500000D02*
X128750000Y-109000000D01*
X128299999Y-109450001D02*
X122433733Y-109450001D01*
X128299999Y-84355001D02*
X122433733Y-84355001D01*
X128750000Y-109000000D02*
X128299999Y-109450001D01*
X136750000Y-105500000D02*
X136750000Y-103250000D01*
X136750000Y-80405000D02*
X136750000Y-78155000D01*
X135750000Y-77155000D02*
X117000000Y-77155000D01*
X136750000Y-78155000D02*
X135750000Y-77155000D01*
X135750000Y-102250000D02*
X117000000Y-102250000D01*
X136750000Y-103250000D02*
X135750000Y-102250000D01*
X123250000Y-75155000D02*
X119500000Y-75155000D01*
X119500000Y-75155000D02*
X119250000Y-74905000D01*
X119500000Y-100250000D02*
X119250000Y-100000000D01*
X123250000Y-100250000D02*
X119500000Y-100250000D01*
D28*
X117550000Y-94800000D02*
X117500000Y-94750000D01*
X121100000Y-94800000D02*
X117550000Y-94800000D01*
X121100000Y-69705000D02*
X117550000Y-69705000D01*
X117212500Y-69942500D02*
X117500000Y-69655000D01*
X117212500Y-98250000D02*
X117212500Y-95037500D01*
X117550000Y-69705000D02*
X117500000Y-69655000D01*
X117212500Y-73155000D02*
X117212500Y-69942500D01*
X117212500Y-95037500D02*
X117500000Y-94750000D01*
D29*
X128787500Y-105462500D02*
X128750000Y-105500000D01*
X128787500Y-80367500D02*
X128750000Y-80405000D01*
D31*
X132712500Y-80367500D02*
X132750000Y-80405000D01*
X126750000Y-105462500D02*
X132712500Y-105462500D01*
X132712500Y-105462500D02*
X132750000Y-105500000D01*
X126750000Y-80367500D02*
X132712500Y-80367500D01*
D30*
X117961000Y-105789000D02*
X118000000Y-105750000D01*
X117961000Y-107135000D02*
X117961000Y-105789000D01*
X117961000Y-80694000D02*
X118000000Y-80655000D01*
X119537500Y-80367500D02*
X119250000Y-80655000D01*
X120750000Y-105462500D02*
X119537500Y-105462500D01*
X119537500Y-105462500D02*
X119250000Y-105750000D01*
X119250000Y-80655000D02*
X118250000Y-80655000D01*
X120750000Y-80367500D02*
X119537500Y-80367500D01*
X117961000Y-82040000D02*
X117961000Y-80694000D01*
X119250000Y-105750000D02*
X118250000Y-105750000D01*
D31*
X124750000Y-107500000D02*
X126750000Y-107500000D01*
X124750000Y-82405000D02*
X126750000Y-82405000D01*
D30*
X118500000Y-78405000D02*
X122000000Y-78405000D01*
X122000000Y-103500000D02*
X122750000Y-104250000D01*
X118500000Y-103500000D02*
X122000000Y-103500000D01*
X117961000Y-104595000D02*
X117961000Y-104039000D01*
X122750000Y-79155000D02*
X122750000Y-80155000D01*
X117961000Y-104039000D02*
X118500000Y-103500000D01*
X117961000Y-79500000D02*
X117961000Y-78944000D01*
D31*
X122750000Y-80405000D02*
X124750000Y-80405000D01*
X122750000Y-105500000D02*
X124750000Y-105500000D01*
D30*
X122750000Y-104250000D02*
X122750000Y-105250000D01*
X122000000Y-78405000D02*
X122750000Y-79155000D01*
D29*
X124405000Y-80560000D02*
X124250000Y-80405000D01*
X124405000Y-105655000D02*
X124250000Y-105500000D01*
D30*
X117961000Y-78944000D02*
X118500000Y-78405000D01*
X112539000Y-108405000D02*
X108405000Y-108405000D01*
D32*
X108405000Y-83810000D02*
X108000000Y-83405000D01*
D30*
X112539000Y-83310000D02*
X108405000Y-83310000D01*
X108405000Y-83310000D02*
X108250000Y-83155000D01*
D32*
X108405000Y-108905000D02*
X108000000Y-108500000D01*
D30*
X108405000Y-108405000D02*
X108250000Y-108250000D01*
X112539000Y-104039000D02*
X112000000Y-103500000D01*
X114345000Y-104595000D02*
X112539000Y-104595000D01*
X120000000Y-83655000D02*
X119250000Y-84405000D01*
X112000000Y-103500000D02*
X108000000Y-103500000D01*
X122250000Y-108750000D02*
X120000000Y-108750000D01*
X122750000Y-108250000D02*
X122250000Y-108750000D01*
X115000000Y-83405000D02*
X115000000Y-80155000D01*
X112539000Y-79500000D02*
X112539000Y-78944000D01*
X112539000Y-78944000D02*
X112000000Y-78405000D01*
X116000000Y-109500000D02*
X115000000Y-108500000D01*
X119250000Y-109500000D02*
X116000000Y-109500000D01*
X108000000Y-103500000D02*
X107750000Y-103250000D01*
X108000000Y-78405000D02*
X107750000Y-78155000D01*
X114345000Y-79500000D02*
X112539000Y-79500000D01*
X122750000Y-83155000D02*
X122250000Y-83655000D01*
X119250000Y-84405000D02*
X116000000Y-84405000D01*
X122750000Y-82655000D02*
X122750000Y-83155000D01*
X122750000Y-107750000D02*
X122750000Y-108250000D01*
X115000000Y-105250000D02*
X114345000Y-104595000D01*
X112539000Y-104595000D02*
X112539000Y-104039000D01*
X112000000Y-78405000D02*
X108000000Y-78405000D01*
X120000000Y-108750000D02*
X119250000Y-109500000D01*
X122250000Y-83655000D02*
X120000000Y-83655000D01*
X115000000Y-108500000D02*
X115000000Y-105250000D01*
X116000000Y-84405000D02*
X115000000Y-83405000D01*
X115000000Y-80155000D02*
X114345000Y-79500000D01*
G04 #@! TA.AperFunction,Conductor*
G36*
X128265677Y-64174685D02*
G01*
X128286319Y-64191319D01*
X128713681Y-64618681D01*
X128747166Y-64680004D01*
X128750000Y-64706362D01*
X128750000Y-70353638D01*
X128730315Y-70420677D01*
X128713681Y-70441319D01*
X128286319Y-70868681D01*
X128224996Y-70902166D01*
X128198638Y-70905000D01*
X123051362Y-70905000D01*
X122984323Y-70885315D01*
X122963681Y-70868681D01*
X122586685Y-70491685D01*
X122553200Y-70430362D01*
X122554032Y-70374077D01*
X122581632Y-70263099D01*
X122597600Y-70198889D01*
X122600500Y-70156123D01*
X122600499Y-69253878D01*
X122597600Y-69211111D01*
X122551641Y-69026307D01*
X122512912Y-68948216D01*
X122500000Y-68893122D01*
X122500000Y-68655000D01*
X122000000Y-68155000D01*
X120124000Y-68155000D01*
X120056961Y-68135315D01*
X120011206Y-68082511D01*
X120000000Y-68031000D01*
X120000000Y-66779000D01*
X120019685Y-66711961D01*
X120072489Y-66666206D01*
X120124000Y-66655000D01*
X122000000Y-66655000D01*
X122500000Y-66155000D01*
X122500000Y-65916877D01*
X122512911Y-65861784D01*
X122551641Y-65783693D01*
X122597600Y-65598889D01*
X122600500Y-65556123D01*
X122600499Y-64653878D01*
X122598001Y-64617029D01*
X122613106Y-64548813D01*
X122634026Y-64520973D01*
X122963683Y-64191316D01*
X123025004Y-64157834D01*
X123051362Y-64155000D01*
X128198638Y-64155000D01*
X128265677Y-64174685D01*
G37*
G04 #@! TD.AperFunction*
G04 #@! TA.AperFunction,Conductor*
G36*
X128265677Y-89269685D02*
G01*
X128286319Y-89286319D01*
X128713681Y-89713681D01*
X128747166Y-89775004D01*
X128750000Y-89801362D01*
X128750000Y-95448638D01*
X128730315Y-95515677D01*
X128713681Y-95536319D01*
X128286319Y-95963681D01*
X128224996Y-95997166D01*
X128198638Y-96000000D01*
X123051362Y-96000000D01*
X122984323Y-95980315D01*
X122963681Y-95963681D01*
X122586685Y-95586685D01*
X122553200Y-95525362D01*
X122554032Y-95469077D01*
X122581632Y-95358099D01*
X122597600Y-95293889D01*
X122600500Y-95251123D01*
X122600499Y-94348878D01*
X122597600Y-94306111D01*
X122551641Y-94121307D01*
X122512912Y-94043216D01*
X122500000Y-93988122D01*
X122500000Y-93750000D01*
X122000000Y-93250000D01*
X120124000Y-93250000D01*
X120056961Y-93230315D01*
X120011206Y-93177511D01*
X120000000Y-93126000D01*
X120000000Y-91874000D01*
X120019685Y-91806961D01*
X120072489Y-91761206D01*
X120124000Y-91750000D01*
X122000000Y-91750000D01*
X122500000Y-91250000D01*
X122500000Y-91011877D01*
X122512911Y-90956784D01*
X122551641Y-90878693D01*
X122597600Y-90693889D01*
X122600500Y-90651123D01*
X122600499Y-89748878D01*
X122598001Y-89712029D01*
X122613106Y-89643813D01*
X122634026Y-89615973D01*
X122963683Y-89286316D01*
X123025004Y-89252834D01*
X123051362Y-89250000D01*
X128198638Y-89250000D01*
X128265677Y-89269685D01*
G37*
G04 #@! TD.AperFunction*
G04 #@! TA.AperFunction,Conductor*
G36*
X106199991Y-104250500D02*
G01*
X109300008Y-104250499D01*
X109340574Y-104246355D01*
X109409267Y-104259125D01*
X109460151Y-104307005D01*
X109477072Y-104374795D01*
X109454656Y-104440971D01*
X109440858Y-104457393D01*
X109409518Y-104488733D01*
X109409513Y-104488740D01*
X109353498Y-104585760D01*
X109353497Y-104585763D01*
X109324500Y-104693982D01*
X109323439Y-104702042D01*
X109320362Y-104701636D01*
X109304815Y-104754586D01*
X109252011Y-104800341D01*
X109243833Y-104803729D01*
X109170171Y-104831202D01*
X109170164Y-104831206D01*
X109054956Y-104917452D01*
X109054955Y-104917453D01*
X109054954Y-104917454D01*
X109030356Y-104950312D01*
X108974424Y-104992182D01*
X108931091Y-105000000D01*
X108000000Y-105000000D01*
X108000000Y-106500000D01*
X108931091Y-106500000D01*
X108998130Y-106519685D01*
X109030355Y-106549686D01*
X109054954Y-106582546D01*
X109082415Y-106603103D01*
X109170164Y-106668793D01*
X109170171Y-106668797D01*
X109215118Y-106685561D01*
X109305017Y-106719091D01*
X109364627Y-106725500D01*
X110135372Y-106725499D01*
X110194983Y-106719091D01*
X110329831Y-106668796D01*
X110445046Y-106582546D01*
X110531296Y-106467331D01*
X110567163Y-106371167D01*
X110609034Y-106315233D01*
X110674498Y-106290816D01*
X110683345Y-106290500D01*
X111474598Y-106290500D01*
X111541637Y-106310185D01*
X111577700Y-106345609D01*
X111594399Y-106370601D01*
X111633756Y-106396898D01*
X111677260Y-106425966D01*
X111677264Y-106425967D01*
X111750321Y-106440499D01*
X111750324Y-106440500D01*
X111750326Y-106440500D01*
X113327676Y-106440500D01*
X113327677Y-106440499D01*
X113400740Y-106425966D01*
X113483601Y-106370601D01*
X113538966Y-106287740D01*
X113553500Y-106214674D01*
X113553500Y-105515326D01*
X113553500Y-105515323D01*
X113553499Y-105515321D01*
X113538967Y-105442264D01*
X113538966Y-105442260D01*
X113535108Y-105436486D01*
X113483601Y-105359399D01*
X113444244Y-105333102D01*
X113399439Y-105279491D01*
X113390730Y-105210166D01*
X113420884Y-105147139D01*
X113421548Y-105146405D01*
X113431706Y-105135274D01*
X113483601Y-105100601D01*
X113538910Y-105017823D01*
X113545225Y-105010905D01*
X113567410Y-104997443D01*
X113587321Y-104980804D01*
X113598759Y-104978422D01*
X113604959Y-104974661D01*
X113615516Y-104974933D01*
X113636811Y-104970500D01*
X114138101Y-104970500D01*
X114205140Y-104990185D01*
X114225782Y-105006819D01*
X114588181Y-105369218D01*
X114621666Y-105430541D01*
X114624500Y-105456899D01*
X114624500Y-108549436D01*
X114637277Y-108597123D01*
X114637291Y-108597173D01*
X114637295Y-108597186D01*
X114650090Y-108644938D01*
X114685041Y-108705475D01*
X114685042Y-108705477D01*
X114685041Y-108705477D01*
X114699522Y-108730557D01*
X114699528Y-108730566D01*
X115756782Y-109787819D01*
X115790267Y-109849142D01*
X115785283Y-109918834D01*
X115743411Y-109974767D01*
X115677947Y-109999184D01*
X115669101Y-109999500D01*
X112062050Y-109999500D01*
X111995011Y-109979815D01*
X111949256Y-109927011D01*
X111939312Y-109857853D01*
X111954663Y-109813500D01*
X111991036Y-109750500D01*
X112012984Y-109712485D01*
X112050500Y-109572475D01*
X112050500Y-109427525D01*
X112012984Y-109287515D01*
X112009565Y-109281594D01*
X111943116Y-109166500D01*
X111926643Y-109098600D01*
X111949495Y-109032573D01*
X112004416Y-108989383D01*
X112050503Y-108980500D01*
X113327676Y-108980500D01*
X113327677Y-108980499D01*
X113400740Y-108965966D01*
X113483601Y-108910601D01*
X113538966Y-108827740D01*
X113553500Y-108754674D01*
X113553500Y-108055326D01*
X113553500Y-108055323D01*
X113553499Y-108055321D01*
X113538967Y-107982264D01*
X113538966Y-107982260D01*
X113522095Y-107957011D01*
X113483601Y-107899399D01*
X113428235Y-107862405D01*
X113400739Y-107844033D01*
X113400735Y-107844032D01*
X113327677Y-107829500D01*
X113327674Y-107829500D01*
X111750326Y-107829500D01*
X111750323Y-107829500D01*
X111677264Y-107844032D01*
X111677260Y-107844033D01*
X111594398Y-107899399D01*
X111544291Y-107974391D01*
X111490679Y-108019196D01*
X111441189Y-108029500D01*
X110120599Y-108029500D01*
X110053560Y-108009815D01*
X110007805Y-107957011D01*
X109997241Y-107918101D01*
X109989999Y-107847203D01*
X109934814Y-107680666D01*
X109842712Y-107531344D01*
X109718656Y-107407288D01*
X109569334Y-107315186D01*
X109402797Y-107260001D01*
X109402795Y-107260000D01*
X109300010Y-107249500D01*
X106199998Y-107249500D01*
X106199980Y-107249501D01*
X106137101Y-107255925D01*
X106068408Y-107243155D01*
X106017524Y-107195274D01*
X106000500Y-107132567D01*
X106000500Y-104367433D01*
X106004819Y-104352723D01*
X106004191Y-104337402D01*
X106014463Y-104319878D01*
X106020185Y-104300394D01*
X106031771Y-104290354D01*
X106039526Y-104277126D01*
X106057641Y-104267938D01*
X106072989Y-104254639D01*
X106089093Y-104251985D01*
X106101839Y-104245521D01*
X106137101Y-104244075D01*
X106199991Y-104250500D01*
G37*
G04 #@! TD.AperFunction*
G04 #@! TA.AperFunction,Conductor*
G36*
X130943039Y-107557185D02*
G01*
X130988794Y-107609989D01*
X131000000Y-107661500D01*
X131000000Y-108624999D01*
X131274972Y-108624999D01*
X131274986Y-108624998D01*
X131377697Y-108614505D01*
X131544119Y-108559358D01*
X131544124Y-108559356D01*
X131693345Y-108467315D01*
X131817317Y-108343343D01*
X131842917Y-108301839D01*
X131894864Y-108255114D01*
X131963827Y-108243891D01*
X132022767Y-108267669D01*
X132057664Y-108293793D01*
X132057671Y-108293797D01*
X132192517Y-108344091D01*
X132192516Y-108344091D01*
X132199444Y-108344835D01*
X132252127Y-108350500D01*
X133247872Y-108350499D01*
X133307483Y-108344091D01*
X133442331Y-108293796D01*
X133557546Y-108207546D01*
X133628876Y-108112260D01*
X133684809Y-108070391D01*
X133754501Y-108065407D01*
X133815824Y-108098892D01*
X133827408Y-108112261D01*
X133875264Y-108176188D01*
X133898737Y-108207544D01*
X133917455Y-108232547D01*
X134032664Y-108318793D01*
X134032671Y-108318797D01*
X134167517Y-108369091D01*
X134167516Y-108369091D01*
X134174444Y-108369835D01*
X134227127Y-108375500D01*
X135272872Y-108375499D01*
X135332483Y-108369091D01*
X135467331Y-108318796D01*
X135582546Y-108232546D01*
X135668796Y-108117331D01*
X135668796Y-108117329D01*
X135672590Y-108112262D01*
X135728524Y-108070391D01*
X135798216Y-108065407D01*
X135859539Y-108098892D01*
X135871123Y-108112261D01*
X135942455Y-108207547D01*
X136057664Y-108293793D01*
X136057671Y-108293797D01*
X136192517Y-108344091D01*
X136192516Y-108344091D01*
X136199444Y-108344835D01*
X136252127Y-108350500D01*
X137247872Y-108350499D01*
X137307483Y-108344091D01*
X137332165Y-108334884D01*
X137401856Y-108329899D01*
X137463180Y-108363384D01*
X137496666Y-108424706D01*
X137499500Y-108451066D01*
X137499500Y-109875500D01*
X137479815Y-109942539D01*
X137427011Y-109988294D01*
X137375500Y-109999500D01*
X128562012Y-109999500D01*
X128494973Y-109979815D01*
X128449218Y-109927011D01*
X128439274Y-109857853D01*
X128468299Y-109794297D01*
X128500010Y-109768114D01*
X128530561Y-109750476D01*
X128600474Y-109680563D01*
X129050475Y-109230562D01*
X129099911Y-109144937D01*
X129125500Y-109049436D01*
X129125500Y-108950564D01*
X129125500Y-108474499D01*
X129145185Y-108407460D01*
X129197989Y-108361705D01*
X129244611Y-108351562D01*
X129244576Y-108350900D01*
X129244571Y-108350854D01*
X129244573Y-108350853D01*
X129244564Y-108350676D01*
X129247857Y-108350499D01*
X129247872Y-108350499D01*
X129307483Y-108344091D01*
X129442331Y-108293796D01*
X129477231Y-108267669D01*
X129542694Y-108243251D01*
X129610967Y-108258101D01*
X129657081Y-108301838D01*
X129682680Y-108343340D01*
X129682683Y-108343344D01*
X129806654Y-108467315D01*
X129955875Y-108559356D01*
X129955880Y-108559358D01*
X130122302Y-108614505D01*
X130122309Y-108614506D01*
X130225019Y-108624999D01*
X130499999Y-108624999D01*
X130500000Y-108624998D01*
X130500000Y-107661500D01*
X130519685Y-107594461D01*
X130572489Y-107548706D01*
X130624000Y-107537500D01*
X130876000Y-107537500D01*
X130943039Y-107557185D01*
G37*
G04 #@! TD.AperFunction*
G04 #@! TA.AperFunction,Conductor*
G36*
X119892758Y-95445185D02*
G01*
X119932451Y-95486379D01*
X119976828Y-95561417D01*
X119976834Y-95561425D01*
X120088574Y-95673165D01*
X120088583Y-95673172D01*
X120136998Y-95701804D01*
X120224610Y-95753618D01*
X120376373Y-95797709D01*
X120411837Y-95800500D01*
X121788162Y-95800499D01*
X121823627Y-95797709D01*
X121975390Y-95753618D01*
X121975390Y-95753617D01*
X121982883Y-95751441D01*
X121983367Y-95753110D01*
X122043183Y-95745717D01*
X122106151Y-95775996D01*
X122131938Y-95808653D01*
X122143019Y-95828946D01*
X122229243Y-95944127D01*
X122229247Y-95944131D01*
X122229252Y-95944137D01*
X122424973Y-96139857D01*
X122606239Y-96321123D01*
X122606255Y-96321137D01*
X122606262Y-96321144D01*
X122646480Y-96357271D01*
X122646492Y-96357281D01*
X122646500Y-96357288D01*
X122667142Y-96373922D01*
X122711026Y-96405567D01*
X122841903Y-96465338D01*
X122908942Y-96485023D01*
X122908946Y-96485024D01*
X123051362Y-96505500D01*
X124738000Y-96505500D01*
X124805039Y-96525185D01*
X124850794Y-96577989D01*
X124862000Y-96629500D01*
X124862000Y-97187547D01*
X124842315Y-97254586D01*
X124789511Y-97300341D01*
X124781333Y-97303729D01*
X124707671Y-97331202D01*
X124707664Y-97331206D01*
X124592456Y-97417452D01*
X124592455Y-97417453D01*
X124592454Y-97417454D01*
X124567856Y-97450312D01*
X124564201Y-97453048D01*
X124562304Y-97457203D01*
X124536489Y-97473793D01*
X124511924Y-97492182D01*
X124506294Y-97493197D01*
X124503526Y-97494977D01*
X124468591Y-97500000D01*
X124330779Y-97500000D01*
X124263740Y-97480315D01*
X124225240Y-97441097D01*
X124142315Y-97306654D01*
X124018345Y-97182684D01*
X123869124Y-97090643D01*
X123869119Y-97090641D01*
X123702697Y-97035494D01*
X123702690Y-97035493D01*
X123599986Y-97025000D01*
X123462500Y-97025000D01*
X123462500Y-98126000D01*
X123442815Y-98193039D01*
X123390011Y-98238794D01*
X123338500Y-98250000D01*
X123212500Y-98250000D01*
X123212500Y-98376000D01*
X123192815Y-98443039D01*
X123140011Y-98488794D01*
X123088500Y-98500000D01*
X122125001Y-98500000D01*
X122125001Y-98774986D01*
X122135494Y-98877697D01*
X122190641Y-99044119D01*
X122190643Y-99044124D01*
X122282684Y-99193345D01*
X122406654Y-99317315D01*
X122448161Y-99342917D01*
X122494885Y-99394865D01*
X122506108Y-99463828D01*
X122482331Y-99522766D01*
X122456206Y-99557664D01*
X122456202Y-99557671D01*
X122405908Y-99692517D01*
X122399727Y-99750013D01*
X122399501Y-99752123D01*
X122399322Y-99755452D01*
X122398065Y-99755384D01*
X122379815Y-99817539D01*
X122327011Y-99863294D01*
X122275500Y-99874500D01*
X120224498Y-99874500D01*
X120157459Y-99854815D01*
X120111704Y-99802011D01*
X120101561Y-99755388D01*
X120100899Y-99755423D01*
X120100853Y-99755429D01*
X120100852Y-99755426D01*
X120100675Y-99755436D01*
X120100498Y-99752141D01*
X120100498Y-99752128D01*
X120094090Y-99692517D01*
X120080208Y-99655298D01*
X120043796Y-99557671D01*
X120043792Y-99557664D01*
X120017668Y-99522767D01*
X119993250Y-99457303D01*
X120008101Y-99389030D01*
X120051839Y-99342916D01*
X120093345Y-99317315D01*
X120217315Y-99193345D01*
X120309356Y-99044124D01*
X120309358Y-99044119D01*
X120364505Y-98877697D01*
X120364506Y-98877690D01*
X120374999Y-98774986D01*
X120375000Y-98774973D01*
X120375000Y-98500000D01*
X119411500Y-98500000D01*
X119344461Y-98480315D01*
X119298706Y-98427511D01*
X119287500Y-98376000D01*
X119287500Y-98250000D01*
X119161500Y-98250000D01*
X119094461Y-98230315D01*
X119048706Y-98177511D01*
X119037500Y-98126000D01*
X119037500Y-98000000D01*
X119537500Y-98000000D01*
X120374999Y-98000000D01*
X120374999Y-97725029D01*
X120374998Y-97725013D01*
X122125000Y-97725013D01*
X122125000Y-98000000D01*
X122962500Y-98000000D01*
X122962500Y-97025000D01*
X122825027Y-97025000D01*
X122825012Y-97025001D01*
X122722302Y-97035494D01*
X122555880Y-97090641D01*
X122555875Y-97090643D01*
X122406654Y-97182684D01*
X122282684Y-97306654D01*
X122190643Y-97455875D01*
X122190641Y-97455880D01*
X122135494Y-97622302D01*
X122135493Y-97622309D01*
X122125000Y-97725013D01*
X120374998Y-97725013D01*
X120374998Y-97725012D01*
X120364505Y-97622302D01*
X120309358Y-97455880D01*
X120309356Y-97455875D01*
X120217315Y-97306654D01*
X120093345Y-97182684D01*
X119944124Y-97090643D01*
X119944119Y-97090641D01*
X119777697Y-97035494D01*
X119777690Y-97035493D01*
X119674986Y-97025000D01*
X119537500Y-97025000D01*
X119537500Y-98000000D01*
X119037500Y-98000000D01*
X119037500Y-97025000D01*
X118900027Y-97025000D01*
X118900012Y-97025001D01*
X118797302Y-97035494D01*
X118630880Y-97090641D01*
X118630875Y-97090643D01*
X118481654Y-97182684D01*
X118357684Y-97306654D01*
X118265643Y-97455875D01*
X118265642Y-97455878D01*
X118235069Y-97548141D01*
X118195296Y-97605585D01*
X118130780Y-97632408D01*
X118062004Y-97620093D01*
X118010804Y-97572549D01*
X118001181Y-97552468D01*
X117993798Y-97532673D01*
X117993793Y-97532664D01*
X117907548Y-97417457D01*
X117907546Y-97417454D01*
X117907542Y-97417451D01*
X117907540Y-97417449D01*
X117887687Y-97402586D01*
X117845817Y-97346651D01*
X117838000Y-97303321D01*
X117838000Y-96124500D01*
X117857685Y-96057461D01*
X117910489Y-96011706D01*
X117962000Y-96000500D01*
X118197871Y-96000500D01*
X118197872Y-96000500D01*
X118257483Y-95994092D01*
X118392331Y-95943797D01*
X118507546Y-95857547D01*
X118593796Y-95742332D01*
X118644091Y-95607484D01*
X118650500Y-95547874D01*
X118650500Y-95547846D01*
X118650678Y-95544549D01*
X118651933Y-95544616D01*
X118670185Y-95482461D01*
X118722989Y-95436706D01*
X118774500Y-95425500D01*
X119825719Y-95425500D01*
X119892758Y-95445185D01*
G37*
G04 #@! TD.AperFunction*
G04 #@! TA.AperFunction,Conductor*
G36*
X115891469Y-87269685D02*
G01*
X115918141Y-87292796D01*
X115936276Y-87313724D01*
X116098487Y-87454281D01*
X116227531Y-87537211D01*
X116279048Y-87570320D01*
X116279061Y-87570327D01*
X116474284Y-87659482D01*
X116474288Y-87659483D01*
X116474290Y-87659484D01*
X116680231Y-87719954D01*
X116680232Y-87719954D01*
X116680235Y-87719955D01*
X116743584Y-87729062D01*
X116892682Y-87750500D01*
X116892683Y-87750500D01*
X126324136Y-87750500D01*
X126324180Y-87750497D01*
X126357317Y-87750497D01*
X126357318Y-87750497D01*
X126569768Y-87719951D01*
X126680136Y-87687544D01*
X126775700Y-87659485D01*
X126775702Y-87659483D01*
X126775709Y-87659482D01*
X126882678Y-87610630D01*
X126970936Y-87570325D01*
X126970942Y-87570321D01*
X126970948Y-87570319D01*
X127151511Y-87454279D01*
X127313721Y-87313722D01*
X127331853Y-87292797D01*
X127390632Y-87255023D01*
X127425566Y-87250000D01*
X131574430Y-87250000D01*
X131641469Y-87269685D01*
X131668141Y-87292796D01*
X131686276Y-87313724D01*
X131848487Y-87454281D01*
X131977531Y-87537211D01*
X132029048Y-87570320D01*
X132029061Y-87570327D01*
X132224284Y-87659482D01*
X132224288Y-87659483D01*
X132224290Y-87659484D01*
X132430231Y-87719954D01*
X132430232Y-87719954D01*
X132430235Y-87719955D01*
X132493584Y-87729062D01*
X132642682Y-87750500D01*
X132684108Y-87750500D01*
X137375500Y-87750500D01*
X137442539Y-87770185D01*
X137488294Y-87822989D01*
X137499500Y-87874500D01*
X137499500Y-96125500D01*
X137479815Y-96192539D01*
X137427011Y-96238294D01*
X137375500Y-96249500D01*
X132356441Y-96249500D01*
X132226351Y-96264157D01*
X132226341Y-96264159D01*
X132061395Y-96321877D01*
X131913423Y-96414853D01*
X131789853Y-96538423D01*
X131696877Y-96686395D01*
X131639159Y-96851341D01*
X131639157Y-96851351D01*
X131624500Y-96981441D01*
X131624500Y-99518558D01*
X131639157Y-99648648D01*
X131639159Y-99648658D01*
X131696877Y-99813604D01*
X131696878Y-99813606D01*
X131789853Y-99961576D01*
X131913424Y-100085147D01*
X132061394Y-100178122D01*
X132226343Y-100235841D01*
X132226349Y-100235841D01*
X132226351Y-100235842D01*
X132267750Y-100240506D01*
X132356442Y-100250499D01*
X132356445Y-100250500D01*
X132356448Y-100250500D01*
X137375500Y-100250500D01*
X137442539Y-100270185D01*
X137488294Y-100322989D01*
X137499500Y-100374500D01*
X137499500Y-104548933D01*
X137479815Y-104615972D01*
X137427011Y-104661727D01*
X137357853Y-104671671D01*
X137352828Y-104670843D01*
X137342247Y-104668875D01*
X137307483Y-104655909D01*
X137247873Y-104649500D01*
X137238066Y-104649500D01*
X137226828Y-104647410D01*
X137205453Y-104636566D01*
X137182461Y-104629815D01*
X137174864Y-104621047D01*
X137164518Y-104615799D01*
X137152399Y-104595122D01*
X137136706Y-104577011D01*
X137133708Y-104563230D01*
X137129189Y-104555520D01*
X137129640Y-104544532D01*
X137125500Y-104525500D01*
X137125500Y-103200566D01*
X137125499Y-103200558D01*
X137125228Y-103199547D01*
X137125228Y-103199548D01*
X137119327Y-103177525D01*
X137099911Y-103105063D01*
X137050475Y-103019438D01*
X135980563Y-101949526D01*
X135980562Y-101949525D01*
X135894940Y-101900091D01*
X135894939Y-101900090D01*
X135807993Y-101876793D01*
X135807993Y-101876792D01*
X135807990Y-101876792D01*
X135799437Y-101874500D01*
X135799436Y-101874500D01*
X135799435Y-101874500D01*
X117454386Y-101874500D01*
X117387347Y-101854815D01*
X117366705Y-101838181D01*
X117338017Y-101809493D01*
X117338011Y-101809488D01*
X117212488Y-101737017D01*
X117212489Y-101737017D01*
X117201006Y-101733940D01*
X117072475Y-101699500D01*
X116927525Y-101699500D01*
X116798993Y-101733940D01*
X116787511Y-101737017D01*
X116661988Y-101809488D01*
X116661982Y-101809493D01*
X116559493Y-101911982D01*
X116559488Y-101911988D01*
X116487017Y-102037511D01*
X116487016Y-102037515D01*
X116449500Y-102177525D01*
X116449500Y-102322475D01*
X116483670Y-102449998D01*
X116487017Y-102462488D01*
X116559488Y-102588011D01*
X116559490Y-102588013D01*
X116559491Y-102588015D01*
X116661985Y-102690509D01*
X116661986Y-102690510D01*
X116661988Y-102690511D01*
X116787511Y-102762982D01*
X116787512Y-102762982D01*
X116787515Y-102762984D01*
X116927525Y-102800500D01*
X116927528Y-102800500D01*
X117072472Y-102800500D01*
X117072475Y-102800500D01*
X117212485Y-102762984D01*
X117338015Y-102690509D01*
X117366705Y-102661819D01*
X117428028Y-102628334D01*
X117454386Y-102625500D01*
X125296614Y-102625500D01*
X125363653Y-102645185D01*
X125409408Y-102697989D01*
X125419352Y-102767147D01*
X125390327Y-102830703D01*
X125384295Y-102837181D01*
X125309493Y-102911982D01*
X125309488Y-102911988D01*
X125237017Y-103037511D01*
X125237016Y-103037515D01*
X125199500Y-103177525D01*
X125199500Y-103322475D01*
X125227649Y-103427527D01*
X125237017Y-103462488D01*
X125309488Y-103588011D01*
X125309490Y-103588013D01*
X125309491Y-103588015D01*
X125411985Y-103690509D01*
X125411986Y-103690510D01*
X125411988Y-103690511D01*
X125537511Y-103762982D01*
X125537512Y-103762982D01*
X125537515Y-103762984D01*
X125677525Y-103800500D01*
X125677528Y-103800500D01*
X125822472Y-103800500D01*
X125822475Y-103800500D01*
X125962485Y-103762984D01*
X126088015Y-103690509D01*
X126190509Y-103588015D01*
X126262984Y-103462485D01*
X126272352Y-103427525D01*
X131199500Y-103427525D01*
X131199500Y-103572475D01*
X131231128Y-103690511D01*
X131237017Y-103712488D01*
X131309488Y-103838011D01*
X131309490Y-103838013D01*
X131309491Y-103838015D01*
X131411985Y-103940509D01*
X131411986Y-103940510D01*
X131411988Y-103940511D01*
X131537511Y-104012982D01*
X131537512Y-104012982D01*
X131537515Y-104012984D01*
X131677525Y-104050500D01*
X131677528Y-104050500D01*
X131822472Y-104050500D01*
X131822475Y-104050500D01*
X131962485Y-104012984D01*
X132088015Y-103940509D01*
X132190509Y-103838015D01*
X132262984Y-103712485D01*
X132300500Y-103572475D01*
X132300500Y-103427525D01*
X132262984Y-103287515D01*
X132212783Y-103200565D01*
X132190511Y-103161988D01*
X132190506Y-103161982D01*
X132088017Y-103059493D01*
X132088011Y-103059488D01*
X131962488Y-102987017D01*
X131962489Y-102987017D01*
X131951006Y-102983940D01*
X131822475Y-102949500D01*
X131677525Y-102949500D01*
X131548993Y-102983940D01*
X131537511Y-102987017D01*
X131411988Y-103059488D01*
X131411982Y-103059493D01*
X131309493Y-103161982D01*
X131309488Y-103161988D01*
X131237017Y-103287511D01*
X131237016Y-103287515D01*
X131199500Y-103427525D01*
X126272352Y-103427525D01*
X126300500Y-103322475D01*
X126300500Y-103177525D01*
X126262984Y-103037515D01*
X126252547Y-103019438D01*
X126190511Y-102911988D01*
X126190506Y-102911982D01*
X126115705Y-102837181D01*
X126082220Y-102775858D01*
X126087204Y-102706166D01*
X126129076Y-102650233D01*
X126194540Y-102625816D01*
X126203386Y-102625500D01*
X135543101Y-102625500D01*
X135610140Y-102645185D01*
X135630782Y-102661819D01*
X136338181Y-103369218D01*
X136371666Y-103430541D01*
X136374500Y-103456899D01*
X136374500Y-104525500D01*
X136354815Y-104592539D01*
X136302011Y-104638294D01*
X136255389Y-104648450D01*
X136255423Y-104649099D01*
X136255429Y-104649146D01*
X136255426Y-104649146D01*
X136255436Y-104649324D01*
X136252123Y-104649501D01*
X136192516Y-104655908D01*
X136057671Y-104706202D01*
X136057664Y-104706206D01*
X135942455Y-104792452D01*
X135942452Y-104792455D01*
X135856206Y-104907664D01*
X135856202Y-104907671D01*
X135805908Y-105042517D01*
X135801160Y-105086684D01*
X135799501Y-105102123D01*
X135799500Y-105102135D01*
X135799501Y-105876000D01*
X135779817Y-105943039D01*
X135727013Y-105988794D01*
X135675501Y-106000000D01*
X133824500Y-106000000D01*
X133757461Y-105980315D01*
X133711706Y-105927511D01*
X133700500Y-105876000D01*
X133700499Y-105102129D01*
X133700498Y-105102123D01*
X133700497Y-105102116D01*
X133694091Y-105042517D01*
X133694090Y-105042515D01*
X133643797Y-104907671D01*
X133643793Y-104907664D01*
X133557547Y-104792455D01*
X133557544Y-104792452D01*
X133442335Y-104706206D01*
X133442328Y-104706202D01*
X133307482Y-104655908D01*
X133307483Y-104655908D01*
X133247883Y-104649501D01*
X133247881Y-104649500D01*
X133247873Y-104649500D01*
X133247864Y-104649500D01*
X132252129Y-104649500D01*
X132252123Y-104649501D01*
X132192516Y-104655908D01*
X132057671Y-104706202D01*
X132057664Y-104706206D01*
X131942455Y-104792452D01*
X131871123Y-104887738D01*
X131815189Y-104929609D01*
X131745497Y-104934592D01*
X131684174Y-104901106D01*
X131672591Y-104887737D01*
X131582547Y-104767455D01*
X131582544Y-104767452D01*
X131467335Y-104681206D01*
X131467328Y-104681202D01*
X131332482Y-104630908D01*
X131332483Y-104630908D01*
X131272883Y-104624501D01*
X131272881Y-104624500D01*
X131272873Y-104624500D01*
X131272864Y-104624500D01*
X130227129Y-104624500D01*
X130227123Y-104624501D01*
X130167516Y-104630908D01*
X130032671Y-104681202D01*
X130032664Y-104681206D01*
X129917455Y-104767452D01*
X129827408Y-104887738D01*
X129771474Y-104929608D01*
X129701782Y-104934592D01*
X129640459Y-104901106D01*
X129628876Y-104887738D01*
X129563450Y-104800341D01*
X129557546Y-104792454D01*
X129557544Y-104792453D01*
X129557544Y-104792452D01*
X129442335Y-104706206D01*
X129442328Y-104706202D01*
X129307482Y-104655908D01*
X129307483Y-104655908D01*
X129247883Y-104649501D01*
X129247881Y-104649500D01*
X129247873Y-104649500D01*
X129247864Y-104649500D01*
X128252129Y-104649500D01*
X128252123Y-104649501D01*
X128192516Y-104655908D01*
X128057671Y-104706202D01*
X128057664Y-104706206D01*
X127942455Y-104792452D01*
X127871123Y-104887738D01*
X127815189Y-104929609D01*
X127745497Y-104934592D01*
X127684174Y-104901106D01*
X127672591Y-104887737D01*
X127582547Y-104767455D01*
X127582544Y-104767452D01*
X127467335Y-104681206D01*
X127467328Y-104681202D01*
X127332482Y-104630908D01*
X127332483Y-104630908D01*
X127272883Y-104624501D01*
X127272881Y-104624500D01*
X127272873Y-104624500D01*
X127272864Y-104624500D01*
X126227129Y-104624500D01*
X126227123Y-104624501D01*
X126167516Y-104630908D01*
X126032671Y-104681202D01*
X126032664Y-104681206D01*
X125917455Y-104767452D01*
X125827408Y-104887738D01*
X125771474Y-104929608D01*
X125701782Y-104934592D01*
X125640459Y-104901106D01*
X125628876Y-104887738D01*
X125563450Y-104800341D01*
X125557546Y-104792454D01*
X125557544Y-104792453D01*
X125557544Y-104792452D01*
X125442335Y-104706206D01*
X125442328Y-104706202D01*
X125307482Y-104655908D01*
X125307483Y-104655908D01*
X125247883Y-104649501D01*
X125247881Y-104649500D01*
X125247873Y-104649500D01*
X125247864Y-104649500D01*
X124252129Y-104649500D01*
X124252123Y-104649501D01*
X124192516Y-104655908D01*
X124057671Y-104706202D01*
X124057664Y-104706206D01*
X123942455Y-104792452D01*
X123942452Y-104792455D01*
X123850888Y-104914769D01*
X123848618Y-104913070D01*
X123809420Y-104952264D01*
X123741146Y-104967111D01*
X123675683Y-104942690D01*
X123650554Y-104913689D01*
X123649112Y-104914769D01*
X123557547Y-104792455D01*
X123557544Y-104792452D01*
X123442335Y-104706206D01*
X123442328Y-104706202D01*
X123307482Y-104655908D01*
X123307483Y-104655908D01*
X123247883Y-104649501D01*
X123247881Y-104649500D01*
X123247873Y-104649500D01*
X123247864Y-104649500D01*
X123244548Y-104649322D01*
X123244615Y-104648065D01*
X123182461Y-104629815D01*
X123136706Y-104577011D01*
X123125500Y-104525500D01*
X123125500Y-104200564D01*
X123119326Y-104177525D01*
X123119325Y-104177522D01*
X123099910Y-104105063D01*
X123099909Y-104105060D01*
X123085004Y-104079244D01*
X123050475Y-104019438D01*
X122980562Y-103949525D01*
X122230563Y-103199526D01*
X122230562Y-103199525D01*
X122144940Y-103150091D01*
X122144939Y-103150090D01*
X122057993Y-103126793D01*
X122057993Y-103126792D01*
X122057990Y-103126792D01*
X122049437Y-103124500D01*
X122049436Y-103124500D01*
X122049435Y-103124500D01*
X118549436Y-103124500D01*
X118450564Y-103124500D01*
X118442011Y-103126792D01*
X118442007Y-103126793D01*
X118355060Y-103150090D01*
X118355059Y-103150091D01*
X118269436Y-103199526D01*
X117660526Y-103808436D01*
X117611089Y-103894063D01*
X117606288Y-103911981D01*
X117606288Y-103911985D01*
X117602105Y-103927592D01*
X117565743Y-103987252D01*
X117502897Y-104017783D01*
X117482331Y-104019500D01*
X117172323Y-104019500D01*
X117099264Y-104034032D01*
X117099260Y-104034033D01*
X117016399Y-104089399D01*
X116961033Y-104172260D01*
X116961032Y-104172264D01*
X116946500Y-104245321D01*
X116946500Y-104944678D01*
X116961032Y-105017735D01*
X116961033Y-105017739D01*
X116977589Y-105042517D01*
X117015860Y-105099795D01*
X117016400Y-105100602D01*
X117055755Y-105126898D01*
X117100561Y-105180510D01*
X117109268Y-105249835D01*
X117079114Y-105312862D01*
X117055755Y-105333102D01*
X117016400Y-105359397D01*
X116961033Y-105442260D01*
X116961032Y-105442264D01*
X116946500Y-105515321D01*
X116946500Y-106214678D01*
X116961032Y-106287735D01*
X116961033Y-106287739D01*
X116961034Y-106287740D01*
X117016398Y-106370600D01*
X117016400Y-106370602D01*
X117055755Y-106396898D01*
X117100561Y-106450510D01*
X117109268Y-106519835D01*
X117079114Y-106582862D01*
X117055755Y-106603102D01*
X117016400Y-106629397D01*
X116961033Y-106712260D01*
X116961032Y-106712264D01*
X116946500Y-106785321D01*
X116946500Y-107392599D01*
X116926815Y-107459638D01*
X116874011Y-107505393D01*
X116804853Y-107515337D01*
X116741297Y-107486312D01*
X116715114Y-107454600D01*
X116690513Y-107411991D01*
X116690510Y-107411988D01*
X116690509Y-107411985D01*
X116588015Y-107309491D01*
X116588013Y-107309490D01*
X116588011Y-107309488D01*
X116462488Y-107237017D01*
X116462489Y-107237017D01*
X116451006Y-107233940D01*
X116322475Y-107199500D01*
X116177525Y-107199500D01*
X116048993Y-107233940D01*
X116037511Y-107237017D01*
X115911988Y-107309488D01*
X115911982Y-107309493D01*
X115809493Y-107411982D01*
X115809488Y-107411988D01*
X115737017Y-107537511D01*
X115737016Y-107537515D01*
X115699500Y-107677525D01*
X115699500Y-107822475D01*
X115733920Y-107950929D01*
X115737017Y-107962488D01*
X115809488Y-108088011D01*
X115809490Y-108088013D01*
X115809491Y-108088015D01*
X115911985Y-108190509D01*
X115911986Y-108190510D01*
X115911988Y-108190511D01*
X116037511Y-108262982D01*
X116037512Y-108262982D01*
X116037515Y-108262984D01*
X116177525Y-108300500D01*
X116218101Y-108300500D01*
X116285140Y-108320185D01*
X116305782Y-108336819D01*
X116674432Y-108705471D01*
X116674434Y-108705472D01*
X116674437Y-108705475D01*
X116685412Y-108711811D01*
X116685416Y-108711815D01*
X116685417Y-108711814D01*
X116760062Y-108754910D01*
X116760066Y-108754911D01*
X116807811Y-108767705D01*
X116807812Y-108767705D01*
X116817903Y-108770408D01*
X116855564Y-108780500D01*
X116855565Y-108780500D01*
X116863189Y-108780500D01*
X116869271Y-108782286D01*
X116875502Y-108781113D01*
X116902392Y-108792011D01*
X116930228Y-108800185D01*
X116935856Y-108805574D01*
X116940255Y-108807357D01*
X116959298Y-108828021D01*
X116964502Y-108833004D01*
X116965427Y-108834315D01*
X117016399Y-108910601D01*
X117021816Y-108914220D01*
X117032249Y-108929004D01*
X117040243Y-108952425D01*
X117052102Y-108974142D01*
X117051332Y-108984908D01*
X117054820Y-108995127D01*
X117048883Y-109019151D01*
X117047118Y-109043834D01*
X117040647Y-109052476D01*
X117038058Y-109062957D01*
X117020075Y-109079957D01*
X117005246Y-109099767D01*
X116995132Y-109103539D01*
X116987286Y-109110957D01*
X116962966Y-109115536D01*
X116939782Y-109124184D01*
X116930936Y-109124500D01*
X116206899Y-109124500D01*
X116139860Y-109104815D01*
X116119218Y-109088181D01*
X115411819Y-108380782D01*
X115378334Y-108319459D01*
X115375500Y-108293101D01*
X115375500Y-105200566D01*
X115375500Y-105200565D01*
X115368217Y-105173386D01*
X115361817Y-105149500D01*
X115358169Y-105135885D01*
X115349910Y-105105063D01*
X115349910Y-105105062D01*
X115313800Y-105042517D01*
X115313799Y-105042515D01*
X115300477Y-105019440D01*
X115300473Y-105019435D01*
X114589823Y-104308785D01*
X114589821Y-104308784D01*
X114575563Y-104294526D01*
X114575562Y-104294525D01*
X114489938Y-104245090D01*
X114442186Y-104232295D01*
X114430099Y-104229056D01*
X114430095Y-104229054D01*
X114394436Y-104219500D01*
X114394435Y-104219500D01*
X113636811Y-104219500D01*
X113569772Y-104199815D01*
X113533709Y-104164391D01*
X113483601Y-104089399D01*
X113400739Y-104034033D01*
X113400735Y-104034032D01*
X113327677Y-104019500D01*
X113327674Y-104019500D01*
X113017669Y-104019500D01*
X112950630Y-103999815D01*
X112904875Y-103947011D01*
X112897895Y-103927597D01*
X112893712Y-103911985D01*
X112888910Y-103894062D01*
X112839475Y-103808438D01*
X112769562Y-103738525D01*
X112230563Y-103199526D01*
X112230562Y-103199525D01*
X112144940Y-103150091D01*
X112144939Y-103150090D01*
X112057993Y-103126793D01*
X112057993Y-103126792D01*
X112057990Y-103126792D01*
X112049437Y-103124500D01*
X112049436Y-103124500D01*
X112049435Y-103124500D01*
X110124500Y-103124500D01*
X110057461Y-103104815D01*
X110011706Y-103052011D01*
X110000500Y-103000500D01*
X110000499Y-102449998D01*
X110000498Y-102449980D01*
X109989999Y-102347203D01*
X109989998Y-102347200D01*
X109981804Y-102322472D01*
X109934814Y-102180666D01*
X109842712Y-102031344D01*
X109718656Y-101907288D01*
X109569334Y-101815186D01*
X109402797Y-101760001D01*
X109402795Y-101760000D01*
X109300010Y-101749500D01*
X106199998Y-101749500D01*
X106199980Y-101749501D01*
X106137101Y-101755925D01*
X106068408Y-101743155D01*
X106017524Y-101695274D01*
X106000500Y-101632567D01*
X106000500Y-100749986D01*
X116150002Y-100749986D01*
X116160495Y-100852697D01*
X116215642Y-101019119D01*
X116215644Y-101019124D01*
X116307685Y-101168345D01*
X116431655Y-101292315D01*
X116580876Y-101384356D01*
X116580881Y-101384358D01*
X116747303Y-101439505D01*
X116747310Y-101439506D01*
X116850020Y-101449999D01*
X116975000Y-101449999D01*
X116975001Y-101449998D01*
X116975001Y-100500000D01*
X116150002Y-100500000D01*
X116150002Y-100749986D01*
X106000500Y-100749986D01*
X106000500Y-99750013D01*
X116150001Y-99750013D01*
X116150001Y-100000000D01*
X117101001Y-100000000D01*
X117168040Y-100019685D01*
X117213795Y-100072489D01*
X117225001Y-100124000D01*
X117225001Y-100250000D01*
X117351001Y-100250000D01*
X117418040Y-100269685D01*
X117463795Y-100322489D01*
X117475001Y-100374000D01*
X117475001Y-101449999D01*
X117599973Y-101449999D01*
X117599987Y-101449998D01*
X117702698Y-101439505D01*
X117869120Y-101384358D01*
X117869125Y-101384356D01*
X118018346Y-101292315D01*
X118142316Y-101168345D01*
X118234357Y-101019124D01*
X118234360Y-101019117D01*
X118264930Y-100926863D01*
X118304702Y-100869418D01*
X118369218Y-100842594D01*
X118437994Y-100854909D01*
X118489194Y-100902451D01*
X118498817Y-100922532D01*
X118506199Y-100942323D01*
X118506205Y-100942335D01*
X118592451Y-101057544D01*
X118592454Y-101057547D01*
X118707663Y-101143793D01*
X118707670Y-101143797D01*
X118752617Y-101160561D01*
X118842516Y-101194091D01*
X118902126Y-101200500D01*
X119647871Y-101200499D01*
X119707482Y-101194091D01*
X119842330Y-101143796D01*
X119957545Y-101057546D01*
X120043795Y-100942331D01*
X120094090Y-100807483D01*
X120100499Y-100747873D01*
X120100499Y-100747845D01*
X120100677Y-100744548D01*
X120101933Y-100744615D01*
X120120184Y-100682461D01*
X120172988Y-100636706D01*
X120224499Y-100625500D01*
X122275501Y-100625500D01*
X122342540Y-100645185D01*
X122388295Y-100697989D01*
X122398437Y-100744611D01*
X122399099Y-100744576D01*
X122399146Y-100744571D01*
X122399146Y-100744573D01*
X122399324Y-100744564D01*
X122399501Y-100747876D01*
X122405908Y-100807483D01*
X122456202Y-100942328D01*
X122456206Y-100942335D01*
X122542452Y-101057544D01*
X122542455Y-101057547D01*
X122657664Y-101143793D01*
X122657671Y-101143797D01*
X122792517Y-101194091D01*
X122792516Y-101194091D01*
X122799444Y-101194835D01*
X122852127Y-101200500D01*
X123647872Y-101200499D01*
X123707483Y-101194091D01*
X123842331Y-101143796D01*
X123957546Y-101057546D01*
X123963428Y-101049687D01*
X124019361Y-101007818D01*
X124062694Y-101000000D01*
X124437306Y-101000000D01*
X124504345Y-101019685D01*
X124536570Y-101049686D01*
X124542454Y-101057546D01*
X124542455Y-101057546D01*
X124542456Y-101057548D01*
X124657664Y-101143793D01*
X124657671Y-101143797D01*
X124792517Y-101194091D01*
X124792516Y-101194091D01*
X124799444Y-101194835D01*
X124852127Y-101200500D01*
X125647872Y-101200499D01*
X125707483Y-101194091D01*
X125842331Y-101143796D01*
X125957546Y-101057546D01*
X126043796Y-100942331D01*
X126094091Y-100807483D01*
X126100500Y-100747873D01*
X126100499Y-99752128D01*
X126094091Y-99692517D01*
X126080209Y-99655298D01*
X126043797Y-99557671D01*
X126043793Y-99557664D01*
X125957547Y-99442455D01*
X125862261Y-99371123D01*
X125820391Y-99315189D01*
X125815407Y-99245497D01*
X125848893Y-99184175D01*
X125862262Y-99172590D01*
X125867329Y-99168796D01*
X125867331Y-99168796D01*
X125982546Y-99082546D01*
X126068796Y-98967331D01*
X126119091Y-98832483D01*
X126125500Y-98772873D01*
X126125499Y-97727128D01*
X126119091Y-97667517D01*
X126107599Y-97636706D01*
X126068797Y-97532671D01*
X126068793Y-97532664D01*
X126034442Y-97486777D01*
X126010024Y-97421313D01*
X126024875Y-97353040D01*
X126074280Y-97303634D01*
X126101608Y-97292693D01*
X126212485Y-97262984D01*
X126338015Y-97190509D01*
X126440509Y-97088015D01*
X126512984Y-96962485D01*
X126550500Y-96822475D01*
X126550500Y-96677525D01*
X126546231Y-96661592D01*
X126547894Y-96591742D01*
X126587058Y-96533880D01*
X126651287Y-96506377D01*
X126666006Y-96505500D01*
X128198640Y-96505500D01*
X128208786Y-96504955D01*
X128252678Y-96502603D01*
X128252686Y-96502602D01*
X128252688Y-96502602D01*
X128252689Y-96502602D01*
X128259682Y-96501849D01*
X128279036Y-96499769D01*
X128279046Y-96499767D01*
X128279049Y-96499767D01*
X128288648Y-96498211D01*
X128332448Y-96491114D01*
X128467257Y-96440832D01*
X128528580Y-96407347D01*
X128643761Y-96321123D01*
X129071123Y-95893761D01*
X129107288Y-95853500D01*
X129123922Y-95832858D01*
X129155567Y-95788974D01*
X129215338Y-95658097D01*
X129235023Y-95591058D01*
X129235024Y-95591054D01*
X129255500Y-95448638D01*
X129255500Y-89801362D01*
X129252603Y-89747322D01*
X129252484Y-89746218D01*
X129249770Y-89720977D01*
X129249767Y-89720950D01*
X129241114Y-89667554D01*
X129241114Y-89667552D01*
X129197455Y-89550500D01*
X129190832Y-89532743D01*
X129157347Y-89471420D01*
X129071123Y-89356239D01*
X129071118Y-89356234D01*
X129071113Y-89356228D01*
X128643776Y-88928892D01*
X128643767Y-88928883D01*
X128643761Y-88928877D01*
X128643737Y-88928855D01*
X128603519Y-88892728D01*
X128603507Y-88892718D01*
X128582856Y-88876076D01*
X128538974Y-88844433D01*
X128408100Y-88784663D01*
X128341055Y-88764976D01*
X128293582Y-88758150D01*
X128198638Y-88744500D01*
X123051362Y-88744500D01*
X123051360Y-88744500D01*
X122997311Y-88747397D01*
X122997310Y-88747397D01*
X122970977Y-88750229D01*
X122970950Y-88750232D01*
X122917566Y-88758883D01*
X122782756Y-88809161D01*
X122723388Y-88841576D01*
X122721903Y-88842352D01*
X122721424Y-88842647D01*
X122606242Y-88928872D01*
X122606230Y-88928883D01*
X122417777Y-89117336D01*
X122356454Y-89150821D01*
X122286762Y-89145837D01*
X122252409Y-89126303D01*
X122199025Y-89083392D01*
X122199022Y-89083390D01*
X122028523Y-88998831D01*
X121843824Y-88952897D01*
X121801097Y-88950000D01*
X121350000Y-88950000D01*
X121350000Y-90076000D01*
X121330315Y-90143039D01*
X121277511Y-90188794D01*
X121226000Y-90200000D01*
X121100000Y-90200000D01*
X121100000Y-90326000D01*
X121080315Y-90393039D01*
X121027511Y-90438794D01*
X120976000Y-90450000D01*
X119600000Y-90450000D01*
X119600000Y-90651096D01*
X119602897Y-90693824D01*
X119648831Y-90878523D01*
X119733390Y-91049022D01*
X119733392Y-91049025D01*
X119824745Y-91162673D01*
X119851404Y-91227257D01*
X119838914Y-91296001D01*
X119795138Y-91344675D01*
X119741462Y-91379170D01*
X119741451Y-91379179D01*
X119688659Y-91424923D01*
X119594433Y-91533664D01*
X119594430Y-91533668D01*
X119534664Y-91664534D01*
X119534663Y-91664538D01*
X119534662Y-91664541D01*
X119514977Y-91731580D01*
X119514976Y-91731584D01*
X119494500Y-91874000D01*
X119494500Y-93126000D01*
X119494501Y-93126009D01*
X119506052Y-93233450D01*
X119506054Y-93233462D01*
X119517260Y-93284972D01*
X119551383Y-93387497D01*
X119551386Y-93387503D01*
X119629171Y-93508537D01*
X119629179Y-93508548D01*
X119674923Y-93561340D01*
X119674926Y-93561343D01*
X119674930Y-93561347D01*
X119783664Y-93655567D01*
X119914541Y-93715338D01*
X119981580Y-93735023D01*
X119981584Y-93735024D01*
X119997624Y-93737330D01*
X120003973Y-93740229D01*
X120010949Y-93739998D01*
X120035339Y-93754553D01*
X120061180Y-93766354D01*
X120064954Y-93772226D01*
X120070947Y-93775803D01*
X120083595Y-93801232D01*
X120098955Y-93825132D01*
X120098955Y-93832112D01*
X120102063Y-93838361D01*
X120098955Y-93866589D01*
X120098956Y-93895001D01*
X120094997Y-93902544D01*
X120094418Y-93907811D01*
X120084349Y-93922839D01*
X120076332Y-93938119D01*
X120072242Y-93943167D01*
X119976830Y-94038580D01*
X119927808Y-94121470D01*
X119922073Y-94128551D01*
X119900522Y-94143432D01*
X119881382Y-94161304D01*
X119871118Y-94163737D01*
X119864579Y-94168253D01*
X119850034Y-94168735D01*
X119825719Y-94174500D01*
X118774499Y-94174500D01*
X118707460Y-94154815D01*
X118661705Y-94102011D01*
X118650499Y-94050500D01*
X118650499Y-93452130D01*
X118650498Y-93452124D01*
X118650497Y-93452117D01*
X118644091Y-93392518D01*
X118642218Y-93387497D01*
X118593797Y-93257672D01*
X118593793Y-93257665D01*
X118507547Y-93142456D01*
X118507544Y-93142453D01*
X118392335Y-93056207D01*
X118392328Y-93056203D01*
X118257482Y-93005909D01*
X118257483Y-93005909D01*
X118197883Y-92999502D01*
X118197881Y-92999501D01*
X118197873Y-92999501D01*
X118197864Y-92999501D01*
X116802129Y-92999501D01*
X116802123Y-92999502D01*
X116742516Y-93005909D01*
X116607671Y-93056203D01*
X116607664Y-93056207D01*
X116492455Y-93142453D01*
X116492452Y-93142456D01*
X116406206Y-93257665D01*
X116406202Y-93257672D01*
X116355908Y-93392518D01*
X116349501Y-93452117D01*
X116349501Y-93452124D01*
X116349500Y-93452136D01*
X116349500Y-95547871D01*
X116349501Y-95547877D01*
X116355908Y-95607484D01*
X116406202Y-95742329D01*
X116406206Y-95742336D01*
X116492451Y-95857544D01*
X116492452Y-95857545D01*
X116492454Y-95857547D01*
X116537312Y-95891128D01*
X116579182Y-95947060D01*
X116587000Y-95990393D01*
X116587000Y-97303321D01*
X116567315Y-97370360D01*
X116537313Y-97402586D01*
X116517459Y-97417449D01*
X116517451Y-97417457D01*
X116431206Y-97532664D01*
X116431202Y-97532671D01*
X116380908Y-97667517D01*
X116374501Y-97727116D01*
X116374501Y-97727123D01*
X116374500Y-97727135D01*
X116374500Y-98772870D01*
X116374501Y-98772876D01*
X116380908Y-98832483D01*
X116431202Y-98967328D01*
X116431206Y-98967334D01*
X116473125Y-99023332D01*
X116497542Y-99088796D01*
X116482690Y-99157069D01*
X116438961Y-99203177D01*
X116431659Y-99207681D01*
X116431656Y-99207683D01*
X116307685Y-99331654D01*
X116215644Y-99480875D01*
X116215642Y-99480880D01*
X116160495Y-99647302D01*
X116160494Y-99647309D01*
X116150001Y-99750013D01*
X106000500Y-99750013D01*
X106000500Y-99374500D01*
X106020185Y-99307461D01*
X106072989Y-99261706D01*
X106124500Y-99250500D01*
X111973952Y-99250500D01*
X111973954Y-99250500D01*
X112015495Y-99247683D01*
X112195021Y-99203037D01*
X112360753Y-99120842D01*
X112504940Y-99004940D01*
X112620842Y-98860753D01*
X112703037Y-98695021D01*
X112747683Y-98515495D01*
X112750500Y-98473954D01*
X112750500Y-97749500D01*
X112770185Y-97682461D01*
X112822989Y-97636706D01*
X112874500Y-97625500D01*
X113061608Y-97625500D01*
X113061608Y-97625499D01*
X113128381Y-97612218D01*
X113182452Y-97601463D01*
X113215792Y-97587652D01*
X113296286Y-97554312D01*
X113347509Y-97520084D01*
X113398733Y-97485858D01*
X113485858Y-97398733D01*
X113485858Y-97398731D01*
X113496066Y-97388524D01*
X113496067Y-97388521D01*
X114985857Y-95898734D01*
X114993030Y-95888000D01*
X115054311Y-95796286D01*
X115101463Y-95682452D01*
X115125500Y-95561606D01*
X115125500Y-92060452D01*
X115145185Y-91993413D01*
X115161819Y-91972771D01*
X115972771Y-91161819D01*
X115999698Y-91147115D01*
X116025517Y-91130523D01*
X116031717Y-91129631D01*
X116034094Y-91128334D01*
X116060452Y-91125500D01*
X116225501Y-91125500D01*
X116292540Y-91145185D01*
X116338295Y-91197989D01*
X116349501Y-91249500D01*
X116349501Y-91547875D01*
X116355908Y-91607482D01*
X116406202Y-91742327D01*
X116406206Y-91742334D01*
X116492452Y-91857543D01*
X116492455Y-91857546D01*
X116607664Y-91943792D01*
X116607671Y-91943796D01*
X116742517Y-91994090D01*
X116742516Y-91994090D01*
X116749444Y-91994834D01*
X116802127Y-92000499D01*
X118197872Y-92000498D01*
X118257483Y-91994090D01*
X118392331Y-91943795D01*
X118507546Y-91857545D01*
X118593796Y-91742330D01*
X118644091Y-91607482D01*
X118650500Y-91547872D01*
X118650499Y-89748903D01*
X119600000Y-89748903D01*
X119600000Y-89950000D01*
X120850000Y-89950000D01*
X120850000Y-88950000D01*
X120398903Y-88950000D01*
X120356175Y-88952897D01*
X120171476Y-88998831D01*
X120000977Y-89083390D01*
X120000974Y-89083392D01*
X119852633Y-89202632D01*
X119852632Y-89202633D01*
X119733392Y-89350974D01*
X119733390Y-89350977D01*
X119648831Y-89521476D01*
X119602897Y-89706175D01*
X119600000Y-89748903D01*
X118650499Y-89748903D01*
X118650499Y-89452127D01*
X118644091Y-89392516D01*
X118630556Y-89356228D01*
X118593797Y-89257670D01*
X118593793Y-89257663D01*
X118507547Y-89142454D01*
X118507544Y-89142451D01*
X118392335Y-89056205D01*
X118392328Y-89056201D01*
X118257482Y-89005907D01*
X118257483Y-89005907D01*
X118197883Y-88999500D01*
X118197881Y-88999499D01*
X118197873Y-88999499D01*
X118197864Y-88999499D01*
X116802129Y-88999499D01*
X116802123Y-88999500D01*
X116742516Y-89005907D01*
X116607671Y-89056201D01*
X116607664Y-89056205D01*
X116492455Y-89142451D01*
X116492452Y-89142454D01*
X116406206Y-89257663D01*
X116406202Y-89257670D01*
X116355908Y-89392516D01*
X116349501Y-89452115D01*
X116349501Y-89452122D01*
X116349500Y-89452134D01*
X116349500Y-89750500D01*
X116329815Y-89817539D01*
X116277011Y-89863294D01*
X116225500Y-89874500D01*
X115688389Y-89874500D01*
X115637535Y-89884615D01*
X115637530Y-89884616D01*
X115627971Y-89886518D01*
X115567548Y-89898537D01*
X115520397Y-89918067D01*
X115453715Y-89945688D01*
X115453714Y-89945689D01*
X115431347Y-89960633D01*
X115431344Y-89960635D01*
X115351268Y-90014140D01*
X115307705Y-90057703D01*
X115264142Y-90101267D01*
X114014144Y-91351264D01*
X114014138Y-91351272D01*
X113945690Y-91453708D01*
X113945688Y-91453713D01*
X113898540Y-91567538D01*
X113898537Y-91567546D01*
X113890594Y-91607481D01*
X113879247Y-91664534D01*
X113879246Y-91664538D01*
X113879245Y-91664543D01*
X113874500Y-91688394D01*
X113874500Y-95189547D01*
X113854815Y-95256586D01*
X113838181Y-95277228D01*
X112962181Y-96153228D01*
X112900858Y-96186713D01*
X112831166Y-96181729D01*
X112775233Y-96139857D01*
X112750816Y-96074393D01*
X112750500Y-96065547D01*
X112750500Y-95526048D01*
X112750500Y-95526046D01*
X112747683Y-95484505D01*
X112703037Y-95304979D01*
X112620842Y-95139247D01*
X112570945Y-95077173D01*
X112504940Y-94995059D01*
X112402785Y-94912945D01*
X112360753Y-94879158D01*
X112360751Y-94879157D01*
X112360750Y-94879156D01*
X112195023Y-94796964D01*
X112195021Y-94796963D01*
X112015497Y-94752317D01*
X112015501Y-94752317D01*
X111984339Y-94750204D01*
X111973954Y-94749500D01*
X111973952Y-94749500D01*
X106124500Y-94749500D01*
X106057461Y-94729815D01*
X106011706Y-94677011D01*
X106000500Y-94625500D01*
X106000500Y-88927525D01*
X111699500Y-88927525D01*
X111699500Y-89072475D01*
X111719158Y-89145837D01*
X111737017Y-89212488D01*
X111809488Y-89338011D01*
X111809490Y-89338013D01*
X111809491Y-89338015D01*
X111911985Y-89440509D01*
X111911986Y-89440510D01*
X111911988Y-89440511D01*
X112037511Y-89512982D01*
X112037512Y-89512982D01*
X112037515Y-89512984D01*
X112177525Y-89550500D01*
X112177528Y-89550500D01*
X112322472Y-89550500D01*
X112322475Y-89550500D01*
X112462485Y-89512984D01*
X112588015Y-89440509D01*
X112690509Y-89338015D01*
X112762984Y-89212485D01*
X112800500Y-89072475D01*
X112800500Y-88927525D01*
X112762984Y-88787515D01*
X112761337Y-88784663D01*
X112690511Y-88661988D01*
X112690506Y-88661982D01*
X112588017Y-88559493D01*
X112588011Y-88559488D01*
X112462488Y-88487017D01*
X112462489Y-88487017D01*
X112451006Y-88483940D01*
X112322475Y-88449500D01*
X112177525Y-88449500D01*
X112048993Y-88483940D01*
X112037511Y-88487017D01*
X111911988Y-88559488D01*
X111911982Y-88559493D01*
X111809493Y-88661982D01*
X111809488Y-88661988D01*
X111737017Y-88787511D01*
X111737016Y-88787515D01*
X111699500Y-88927525D01*
X106000500Y-88927525D01*
X106000500Y-87874500D01*
X106020185Y-87807461D01*
X106072989Y-87761706D01*
X106124500Y-87750500D01*
X110573951Y-87750500D01*
X110574013Y-87750496D01*
X110607318Y-87750496D01*
X110607319Y-87750496D01*
X110777852Y-87725976D01*
X110819764Y-87719951D01*
X110819765Y-87719950D01*
X110819769Y-87719950D01*
X111025710Y-87659480D01*
X111220949Y-87570318D01*
X111401511Y-87454277D01*
X111563721Y-87313721D01*
X111581852Y-87292797D01*
X111640630Y-87255023D01*
X111675565Y-87250000D01*
X115824430Y-87250000D01*
X115891469Y-87269685D01*
G37*
G04 #@! TD.AperFunction*
G04 #@! TA.AperFunction,Conductor*
G36*
X119732740Y-105900808D02*
G01*
X119788674Y-105942679D01*
X119805590Y-105973657D01*
X119831202Y-106042328D01*
X119831203Y-106042329D01*
X119831204Y-106042331D01*
X119837301Y-106050475D01*
X119917454Y-106157547D01*
X119950309Y-106182141D01*
X119992181Y-106238074D01*
X120000000Y-106281409D01*
X120000000Y-107000000D01*
X121675500Y-107000000D01*
X121742539Y-107019685D01*
X121788294Y-107072489D01*
X121799500Y-107124000D01*
X121799500Y-107897870D01*
X121799501Y-107897876D01*
X121805908Y-107957483D01*
X121856202Y-108092328D01*
X121856204Y-108092331D01*
X121918980Y-108176189D01*
X121943398Y-108241652D01*
X121928547Y-108309926D01*
X121879142Y-108359331D01*
X121819714Y-108374500D01*
X119950564Y-108374500D01*
X119902812Y-108387295D01*
X119902811Y-108387294D01*
X119855063Y-108400089D01*
X119855062Y-108400089D01*
X119769435Y-108449527D01*
X119130782Y-109088181D01*
X119103854Y-109102884D01*
X119078036Y-109119477D01*
X119071835Y-109120368D01*
X119069459Y-109121666D01*
X119043101Y-109124500D01*
X118991064Y-109124500D01*
X118924025Y-109104815D01*
X118878270Y-109052011D01*
X118868326Y-108982853D01*
X118897351Y-108919297D01*
X118903383Y-108912819D01*
X118905598Y-108910603D01*
X118905597Y-108910603D01*
X118905601Y-108910601D01*
X118960966Y-108827740D01*
X118975500Y-108754674D01*
X118975500Y-108055326D01*
X118975500Y-108055323D01*
X118975499Y-108055321D01*
X118960967Y-107982264D01*
X118960966Y-107982260D01*
X118947753Y-107962485D01*
X118905601Y-107899399D01*
X118866244Y-107873102D01*
X118821439Y-107819491D01*
X118812730Y-107750166D01*
X118842884Y-107687139D01*
X118866243Y-107666898D01*
X118905601Y-107640601D01*
X118960966Y-107557740D01*
X118975500Y-107484674D01*
X118975500Y-106785326D01*
X118975500Y-106785323D01*
X118975499Y-106785321D01*
X118960967Y-106712264D01*
X118960966Y-106712260D01*
X118931925Y-106668797D01*
X118905601Y-106629399D01*
X118866244Y-106603102D01*
X118821439Y-106549491D01*
X118812730Y-106480166D01*
X118842884Y-106417139D01*
X118866243Y-106396898D01*
X118905601Y-106370601D01*
X118960966Y-106287740D01*
X118962225Y-106281409D01*
X118973385Y-106225309D01*
X119005770Y-106163398D01*
X119066485Y-106128824D01*
X119095002Y-106125500D01*
X119299435Y-106125500D01*
X119299436Y-106125500D01*
X119347186Y-106112705D01*
X119394938Y-106099910D01*
X119480562Y-106050475D01*
X119550475Y-105980562D01*
X119601728Y-105929308D01*
X119663049Y-105895824D01*
X119732740Y-105900808D01*
G37*
G04 #@! TD.AperFunction*
G04 #@! TA.AperFunction,Conductor*
G36*
X106199991Y-79155500D02*
G01*
X109300008Y-79155499D01*
X109340574Y-79151355D01*
X109409267Y-79164125D01*
X109460151Y-79212005D01*
X109477072Y-79279795D01*
X109454656Y-79345971D01*
X109440858Y-79362393D01*
X109409518Y-79393733D01*
X109409513Y-79393740D01*
X109353498Y-79490760D01*
X109353497Y-79490763D01*
X109324500Y-79598982D01*
X109323439Y-79607042D01*
X109320362Y-79606636D01*
X109304815Y-79659586D01*
X109252011Y-79705341D01*
X109243833Y-79708729D01*
X109170171Y-79736202D01*
X109170164Y-79736206D01*
X109054956Y-79822452D01*
X109054955Y-79822453D01*
X109054954Y-79822454D01*
X109030356Y-79855312D01*
X108974424Y-79897182D01*
X108931091Y-79905000D01*
X108000000Y-79905000D01*
X108000000Y-81405000D01*
X108931091Y-81405000D01*
X108998130Y-81424685D01*
X109030355Y-81454686D01*
X109054954Y-81487546D01*
X109082415Y-81508103D01*
X109170164Y-81573793D01*
X109170171Y-81573797D01*
X109215118Y-81590561D01*
X109305017Y-81624091D01*
X109364627Y-81630500D01*
X110135372Y-81630499D01*
X110194983Y-81624091D01*
X110329831Y-81573796D01*
X110445046Y-81487546D01*
X110531296Y-81372331D01*
X110567163Y-81276167D01*
X110609034Y-81220233D01*
X110674498Y-81195816D01*
X110683345Y-81195500D01*
X111474598Y-81195500D01*
X111541637Y-81215185D01*
X111577700Y-81250609D01*
X111594399Y-81275601D01*
X111633756Y-81301898D01*
X111677260Y-81330966D01*
X111677264Y-81330967D01*
X111750321Y-81345499D01*
X111750324Y-81345500D01*
X111750326Y-81345500D01*
X113327676Y-81345500D01*
X113327677Y-81345499D01*
X113400740Y-81330966D01*
X113483601Y-81275601D01*
X113538966Y-81192740D01*
X113553500Y-81119674D01*
X113553500Y-80420326D01*
X113553500Y-80420323D01*
X113553499Y-80420321D01*
X113538967Y-80347264D01*
X113538966Y-80347260D01*
X113535108Y-80341486D01*
X113483601Y-80264399D01*
X113444244Y-80238102D01*
X113399439Y-80184491D01*
X113390730Y-80115166D01*
X113420884Y-80052139D01*
X113421548Y-80051405D01*
X113431706Y-80040274D01*
X113483601Y-80005601D01*
X113538910Y-79922823D01*
X113545225Y-79915905D01*
X113567410Y-79902443D01*
X113587321Y-79885804D01*
X113598759Y-79883422D01*
X113604959Y-79879661D01*
X113615516Y-79879933D01*
X113636811Y-79875500D01*
X114138101Y-79875500D01*
X114205140Y-79895185D01*
X114225782Y-79911819D01*
X114588181Y-80274218D01*
X114621666Y-80335541D01*
X114624500Y-80361899D01*
X114624500Y-83454436D01*
X114637277Y-83502123D01*
X114637291Y-83502173D01*
X114637295Y-83502186D01*
X114650090Y-83549938D01*
X114685041Y-83610475D01*
X114685042Y-83610477D01*
X114685041Y-83610477D01*
X114699522Y-83635557D01*
X114699528Y-83635566D01*
X115236110Y-84172147D01*
X115769438Y-84705475D01*
X115855063Y-84754911D01*
X115950564Y-84780500D01*
X115950565Y-84780500D01*
X116088871Y-84780500D01*
X116155910Y-84800185D01*
X116201665Y-84852989D01*
X116211609Y-84922147D01*
X116182584Y-84985703D01*
X116155910Y-85008815D01*
X116098493Y-85045714D01*
X116098487Y-85045718D01*
X115936275Y-85186276D01*
X115853352Y-85281973D01*
X115794574Y-85319746D01*
X115760587Y-85324765D01*
X111767713Y-85355246D01*
X111735275Y-85345990D01*
X111702599Y-85337357D01*
X111701359Y-85336312D01*
X111700525Y-85336074D01*
X111675305Y-85314981D01*
X111674153Y-85313723D01*
X111563723Y-85186279D01*
X111533533Y-85160119D01*
X111528690Y-85154829D01*
X111516342Y-85129635D01*
X111501174Y-85106032D01*
X111501174Y-85098685D01*
X111497941Y-85092089D01*
X111501174Y-85064222D01*
X111501174Y-85036163D01*
X111505146Y-85029981D01*
X111505993Y-85022685D01*
X111523780Y-85000986D01*
X111538949Y-84977385D01*
X111546348Y-84973458D01*
X111550289Y-84968651D01*
X111563398Y-84964409D01*
X111588052Y-84951326D01*
X111712485Y-84917984D01*
X111838015Y-84845509D01*
X111940509Y-84743015D01*
X112012984Y-84617485D01*
X112050500Y-84477475D01*
X112050500Y-84332525D01*
X112012984Y-84192515D01*
X112009565Y-84186594D01*
X111943116Y-84071500D01*
X111926643Y-84003600D01*
X111949495Y-83937573D01*
X112004416Y-83894383D01*
X112050503Y-83885500D01*
X113327676Y-83885500D01*
X113327677Y-83885499D01*
X113400740Y-83870966D01*
X113483601Y-83815601D01*
X113538966Y-83732740D01*
X113553500Y-83659674D01*
X113553500Y-82960326D01*
X113553500Y-82960323D01*
X113553499Y-82960321D01*
X113538967Y-82887264D01*
X113538966Y-82887260D01*
X113522095Y-82862011D01*
X113483601Y-82804399D01*
X113428235Y-82767405D01*
X113400739Y-82749033D01*
X113400735Y-82749032D01*
X113327677Y-82734500D01*
X113327674Y-82734500D01*
X111750326Y-82734500D01*
X111750323Y-82734500D01*
X111677264Y-82749032D01*
X111677260Y-82749033D01*
X111594398Y-82804399D01*
X111544291Y-82879391D01*
X111490679Y-82924196D01*
X111441189Y-82934500D01*
X110120599Y-82934500D01*
X110053560Y-82914815D01*
X110007805Y-82862011D01*
X109997241Y-82823101D01*
X109989999Y-82752203D01*
X109934814Y-82585666D01*
X109842712Y-82436344D01*
X109718656Y-82312288D01*
X109569334Y-82220186D01*
X109402797Y-82165001D01*
X109402795Y-82165000D01*
X109300010Y-82154500D01*
X106199998Y-82154500D01*
X106199980Y-82154501D01*
X106137101Y-82160925D01*
X106068408Y-82148155D01*
X106017524Y-82100274D01*
X106000500Y-82037567D01*
X106000500Y-79272433D01*
X106020185Y-79205394D01*
X106072989Y-79159639D01*
X106137102Y-79149075D01*
X106199991Y-79155500D01*
G37*
G04 #@! TD.AperFunction*
G04 #@! TA.AperFunction,Conductor*
G36*
X130943039Y-82462185D02*
G01*
X130988794Y-82514989D01*
X131000000Y-82566500D01*
X131000000Y-83529999D01*
X131274972Y-83529999D01*
X131274986Y-83529998D01*
X131377697Y-83519505D01*
X131544119Y-83464358D01*
X131544124Y-83464356D01*
X131693345Y-83372315D01*
X131817317Y-83248343D01*
X131842917Y-83206839D01*
X131894864Y-83160114D01*
X131963827Y-83148891D01*
X132022767Y-83172669D01*
X132057664Y-83198793D01*
X132057671Y-83198797D01*
X132192517Y-83249091D01*
X132192516Y-83249091D01*
X132199444Y-83249835D01*
X132252127Y-83255500D01*
X133247872Y-83255499D01*
X133307483Y-83249091D01*
X133442331Y-83198796D01*
X133557546Y-83112546D01*
X133628876Y-83017260D01*
X133684809Y-82975391D01*
X133754501Y-82970407D01*
X133815824Y-83003892D01*
X133827408Y-83017261D01*
X133875264Y-83081188D01*
X133898737Y-83112544D01*
X133917455Y-83137547D01*
X134032664Y-83223793D01*
X134032671Y-83223797D01*
X134167517Y-83274091D01*
X134167516Y-83274091D01*
X134174444Y-83274835D01*
X134227127Y-83280500D01*
X135272872Y-83280499D01*
X135332483Y-83274091D01*
X135467331Y-83223796D01*
X135582546Y-83137546D01*
X135668796Y-83022331D01*
X135668796Y-83022329D01*
X135672590Y-83017262D01*
X135728524Y-82975391D01*
X135798216Y-82970407D01*
X135859539Y-83003892D01*
X135871123Y-83017261D01*
X135942455Y-83112547D01*
X136057664Y-83198793D01*
X136057671Y-83198797D01*
X136192517Y-83249091D01*
X136192516Y-83249091D01*
X136199444Y-83249835D01*
X136252127Y-83255500D01*
X137247872Y-83255499D01*
X137307483Y-83249091D01*
X137332165Y-83239884D01*
X137401856Y-83234899D01*
X137463180Y-83268384D01*
X137496666Y-83329706D01*
X137499500Y-83356066D01*
X137499500Y-84625500D01*
X137479815Y-84692539D01*
X137427011Y-84738294D01*
X137375500Y-84749500D01*
X132642682Y-84749500D01*
X132430235Y-84780044D01*
X132430225Y-84780047D01*
X132224284Y-84840517D01*
X132029061Y-84929672D01*
X132029048Y-84929679D01*
X131848483Y-85045721D01*
X131848480Y-85045724D01*
X131701121Y-85173411D01*
X131637566Y-85202436D01*
X131620866Y-85203694D01*
X127414219Y-85235806D01*
X127347031Y-85216634D01*
X127319559Y-85193012D01*
X127318251Y-85191503D01*
X127313723Y-85186277D01*
X127313720Y-85186274D01*
X127313718Y-85186272D01*
X127151518Y-85045726D01*
X127151511Y-85045720D01*
X127016286Y-84958816D01*
X126970531Y-84906012D01*
X126960588Y-84836854D01*
X126989613Y-84773298D01*
X127048392Y-84735524D01*
X127083326Y-84730501D01*
X128349434Y-84730501D01*
X128349435Y-84730501D01*
X128397185Y-84717706D01*
X128444937Y-84704911D01*
X128530561Y-84655476D01*
X128600474Y-84585563D01*
X129050475Y-84135562D01*
X129099911Y-84049937D01*
X129125500Y-83954436D01*
X129125500Y-83855564D01*
X129125500Y-83379499D01*
X129145185Y-83312460D01*
X129197989Y-83266705D01*
X129244611Y-83256562D01*
X129244576Y-83255900D01*
X129244571Y-83255854D01*
X129244573Y-83255853D01*
X129244564Y-83255676D01*
X129247857Y-83255499D01*
X129247872Y-83255499D01*
X129307483Y-83249091D01*
X129442331Y-83198796D01*
X129477231Y-83172669D01*
X129542694Y-83148251D01*
X129610967Y-83163101D01*
X129657081Y-83206838D01*
X129682680Y-83248340D01*
X129682683Y-83248344D01*
X129806654Y-83372315D01*
X129955875Y-83464356D01*
X129955880Y-83464358D01*
X130122302Y-83519505D01*
X130122309Y-83519506D01*
X130225019Y-83529999D01*
X130499999Y-83529999D01*
X130500000Y-83529998D01*
X130500000Y-82566500D01*
X130519685Y-82499461D01*
X130572489Y-82453706D01*
X130624000Y-82442500D01*
X130876000Y-82442500D01*
X130943039Y-82462185D01*
G37*
G04 #@! TD.AperFunction*
G04 #@! TA.AperFunction,Conductor*
G36*
X119836616Y-70333699D02*
G01*
X119847910Y-70332502D01*
X119869538Y-70343366D01*
X119892758Y-70350185D01*
X119901808Y-70359577D01*
X119910345Y-70363866D01*
X119932451Y-70391379D01*
X119976828Y-70466417D01*
X119976834Y-70466425D01*
X120088574Y-70578165D01*
X120088583Y-70578172D01*
X120136998Y-70606804D01*
X120224610Y-70658618D01*
X120376373Y-70702709D01*
X120411837Y-70705500D01*
X121788162Y-70705499D01*
X121823627Y-70702709D01*
X121975390Y-70658618D01*
X121975390Y-70658617D01*
X121982883Y-70656441D01*
X121983367Y-70658110D01*
X122043183Y-70650717D01*
X122106151Y-70680996D01*
X122131938Y-70713653D01*
X122143019Y-70733946D01*
X122229243Y-70849127D01*
X122229247Y-70849131D01*
X122229252Y-70849137D01*
X122424973Y-71044857D01*
X122606239Y-71226123D01*
X122606255Y-71226137D01*
X122606262Y-71226144D01*
X122646480Y-71262271D01*
X122646492Y-71262281D01*
X122646500Y-71262288D01*
X122667142Y-71278922D01*
X122711026Y-71310567D01*
X122841903Y-71370338D01*
X122908942Y-71390023D01*
X122908946Y-71390024D01*
X123051362Y-71410500D01*
X124738000Y-71410500D01*
X124805039Y-71430185D01*
X124850794Y-71482989D01*
X124862000Y-71534500D01*
X124862000Y-72092547D01*
X124842315Y-72159586D01*
X124789511Y-72205341D01*
X124781333Y-72208729D01*
X124707671Y-72236202D01*
X124707664Y-72236206D01*
X124592456Y-72322452D01*
X124592455Y-72322453D01*
X124592454Y-72322454D01*
X124567856Y-72355312D01*
X124564201Y-72358048D01*
X124562304Y-72362203D01*
X124536489Y-72378793D01*
X124511924Y-72397182D01*
X124506294Y-72398197D01*
X124503526Y-72399977D01*
X124468591Y-72405000D01*
X124330779Y-72405000D01*
X124263740Y-72385315D01*
X124225240Y-72346097D01*
X124142315Y-72211654D01*
X124018345Y-72087684D01*
X123869124Y-71995643D01*
X123869119Y-71995641D01*
X123702697Y-71940494D01*
X123702690Y-71940493D01*
X123599986Y-71930000D01*
X123462500Y-71930000D01*
X123462500Y-73031000D01*
X123442815Y-73098039D01*
X123390011Y-73143794D01*
X123338500Y-73155000D01*
X123212500Y-73155000D01*
X123212500Y-73281000D01*
X123192815Y-73348039D01*
X123140011Y-73393794D01*
X123088500Y-73405000D01*
X122125001Y-73405000D01*
X122125001Y-73679986D01*
X122135494Y-73782697D01*
X122190641Y-73949119D01*
X122190643Y-73949124D01*
X122282684Y-74098345D01*
X122406654Y-74222315D01*
X122448161Y-74247917D01*
X122494885Y-74299865D01*
X122506108Y-74368828D01*
X122482331Y-74427766D01*
X122456206Y-74462664D01*
X122456202Y-74462671D01*
X122405908Y-74597517D01*
X122399727Y-74655013D01*
X122399501Y-74657123D01*
X122399322Y-74660452D01*
X122398065Y-74660384D01*
X122379815Y-74722539D01*
X122327011Y-74768294D01*
X122275500Y-74779500D01*
X120224498Y-74779500D01*
X120157459Y-74759815D01*
X120111704Y-74707011D01*
X120101561Y-74660388D01*
X120100899Y-74660423D01*
X120100853Y-74660429D01*
X120100852Y-74660426D01*
X120100675Y-74660436D01*
X120100498Y-74657141D01*
X120100498Y-74657128D01*
X120094090Y-74597517D01*
X120080208Y-74560298D01*
X120043796Y-74462671D01*
X120043792Y-74462664D01*
X120017668Y-74427767D01*
X119993250Y-74362303D01*
X120008101Y-74294030D01*
X120051839Y-74247916D01*
X120093345Y-74222315D01*
X120217315Y-74098345D01*
X120309356Y-73949124D01*
X120309358Y-73949119D01*
X120364505Y-73782697D01*
X120364506Y-73782690D01*
X120374999Y-73679986D01*
X120375000Y-73679973D01*
X120375000Y-73405000D01*
X119411500Y-73405000D01*
X119344461Y-73385315D01*
X119298706Y-73332511D01*
X119287500Y-73281000D01*
X119287500Y-73155000D01*
X119161500Y-73155000D01*
X119094461Y-73135315D01*
X119048706Y-73082511D01*
X119037500Y-73031000D01*
X119037500Y-72905000D01*
X119537500Y-72905000D01*
X120374999Y-72905000D01*
X120374999Y-72630029D01*
X120374998Y-72630013D01*
X122125000Y-72630013D01*
X122125000Y-72905000D01*
X122962500Y-72905000D01*
X122962500Y-71930000D01*
X122825027Y-71930000D01*
X122825012Y-71930001D01*
X122722302Y-71940494D01*
X122555880Y-71995641D01*
X122555875Y-71995643D01*
X122406654Y-72087684D01*
X122282684Y-72211654D01*
X122190643Y-72360875D01*
X122190641Y-72360880D01*
X122135494Y-72527302D01*
X122135493Y-72527309D01*
X122125000Y-72630013D01*
X120374998Y-72630013D01*
X120374998Y-72630012D01*
X120364505Y-72527302D01*
X120309358Y-72360880D01*
X120309356Y-72360875D01*
X120217315Y-72211654D01*
X120093345Y-72087684D01*
X119944124Y-71995643D01*
X119944119Y-71995641D01*
X119777697Y-71940494D01*
X119777690Y-71940493D01*
X119674986Y-71930000D01*
X119537500Y-71930000D01*
X119537500Y-72905000D01*
X119037500Y-72905000D01*
X119037500Y-71930000D01*
X118900027Y-71930000D01*
X118900012Y-71930001D01*
X118797302Y-71940494D01*
X118630880Y-71995641D01*
X118630875Y-71995643D01*
X118481654Y-72087684D01*
X118357684Y-72211654D01*
X118265643Y-72360875D01*
X118265642Y-72360878D01*
X118235069Y-72453141D01*
X118195296Y-72510585D01*
X118130780Y-72537408D01*
X118062004Y-72525093D01*
X118010804Y-72477549D01*
X118001181Y-72457468D01*
X117993798Y-72437673D01*
X117993793Y-72437664D01*
X117907548Y-72322457D01*
X117907546Y-72322454D01*
X117907542Y-72322451D01*
X117907540Y-72322449D01*
X117887687Y-72307586D01*
X117845817Y-72251651D01*
X117838000Y-72208321D01*
X117838000Y-71029500D01*
X117857685Y-70962461D01*
X117910489Y-70916706D01*
X117962000Y-70905500D01*
X118197871Y-70905500D01*
X118197872Y-70905500D01*
X118257483Y-70899092D01*
X118392331Y-70848797D01*
X118507546Y-70762547D01*
X118593796Y-70647332D01*
X118644091Y-70512484D01*
X118650500Y-70452874D01*
X118650500Y-70452846D01*
X118650678Y-70449549D01*
X118651933Y-70449616D01*
X118670185Y-70387461D01*
X118722989Y-70341706D01*
X118774500Y-70330500D01*
X119825719Y-70330500D01*
X119836616Y-70333699D01*
G37*
G04 #@! TD.AperFunction*
G04 #@! TA.AperFunction,Conductor*
G36*
X137442539Y-62675185D02*
G01*
X137488294Y-62727989D01*
X137499500Y-62779500D01*
X137499500Y-71125500D01*
X137479815Y-71192539D01*
X137427011Y-71238294D01*
X137375500Y-71249500D01*
X132356441Y-71249500D01*
X132226351Y-71264157D01*
X132226341Y-71264159D01*
X132061395Y-71321877D01*
X131913423Y-71414853D01*
X131789853Y-71538423D01*
X131696877Y-71686395D01*
X131639159Y-71851341D01*
X131639157Y-71851351D01*
X131624500Y-71981441D01*
X131624500Y-74518558D01*
X131639157Y-74648648D01*
X131639159Y-74648658D01*
X131696877Y-74813604D01*
X131696878Y-74813606D01*
X131789853Y-74961576D01*
X131913424Y-75085147D01*
X132061394Y-75178122D01*
X132226343Y-75235841D01*
X132226349Y-75235841D01*
X132226351Y-75235842D01*
X132267750Y-75240506D01*
X132356442Y-75250499D01*
X132356445Y-75250500D01*
X132356448Y-75250500D01*
X137375500Y-75250500D01*
X137442539Y-75270185D01*
X137488294Y-75322989D01*
X137499500Y-75374500D01*
X137499500Y-79453933D01*
X137479815Y-79520972D01*
X137427011Y-79566727D01*
X137357853Y-79576671D01*
X137352828Y-79575843D01*
X137342247Y-79573875D01*
X137307483Y-79560909D01*
X137247873Y-79554500D01*
X137238066Y-79554500D01*
X137226828Y-79552410D01*
X137205453Y-79541566D01*
X137182461Y-79534815D01*
X137174864Y-79526047D01*
X137164518Y-79520799D01*
X137152399Y-79500122D01*
X137136706Y-79482011D01*
X137133708Y-79468230D01*
X137129189Y-79460520D01*
X137129640Y-79449532D01*
X137125500Y-79430500D01*
X137125500Y-78105566D01*
X137125499Y-78105558D01*
X137125228Y-78104547D01*
X137125228Y-78104548D01*
X137119327Y-78082525D01*
X137099911Y-78010063D01*
X137050475Y-77924438D01*
X135980563Y-76854526D01*
X135980562Y-76854525D01*
X135894940Y-76805091D01*
X135894939Y-76805090D01*
X135807993Y-76781793D01*
X135807993Y-76781792D01*
X135807990Y-76781792D01*
X135799437Y-76779500D01*
X135799436Y-76779500D01*
X135799435Y-76779500D01*
X117454386Y-76779500D01*
X117387347Y-76759815D01*
X117366705Y-76743181D01*
X117338017Y-76714493D01*
X117338011Y-76714488D01*
X117212488Y-76642017D01*
X117212489Y-76642017D01*
X117201006Y-76638940D01*
X117072475Y-76604500D01*
X116927525Y-76604500D01*
X116798993Y-76638940D01*
X116787511Y-76642017D01*
X116661988Y-76714488D01*
X116661982Y-76714493D01*
X116559493Y-76816982D01*
X116559488Y-76816988D01*
X116487017Y-76942511D01*
X116487016Y-76942515D01*
X116449500Y-77082525D01*
X116449500Y-77227475D01*
X116483670Y-77354998D01*
X116487017Y-77367488D01*
X116559488Y-77493011D01*
X116559490Y-77493013D01*
X116559491Y-77493015D01*
X116661985Y-77595509D01*
X116661986Y-77595510D01*
X116661988Y-77595511D01*
X116787511Y-77667982D01*
X116787512Y-77667982D01*
X116787515Y-77667984D01*
X116927525Y-77705500D01*
X116927528Y-77705500D01*
X117072472Y-77705500D01*
X117072475Y-77705500D01*
X117212485Y-77667984D01*
X117338015Y-77595509D01*
X117366705Y-77566819D01*
X117428028Y-77533334D01*
X117454386Y-77530500D01*
X125296614Y-77530500D01*
X125363653Y-77550185D01*
X125409408Y-77602989D01*
X125419352Y-77672147D01*
X125390327Y-77735703D01*
X125384295Y-77742181D01*
X125309493Y-77816982D01*
X125309488Y-77816988D01*
X125237017Y-77942511D01*
X125237016Y-77942515D01*
X125199500Y-78082525D01*
X125199500Y-78227475D01*
X125227649Y-78332527D01*
X125237017Y-78367488D01*
X125309488Y-78493011D01*
X125309490Y-78493013D01*
X125309491Y-78493015D01*
X125411985Y-78595509D01*
X125411986Y-78595510D01*
X125411988Y-78595511D01*
X125537511Y-78667982D01*
X125537512Y-78667982D01*
X125537515Y-78667984D01*
X125677525Y-78705500D01*
X125677528Y-78705500D01*
X125822472Y-78705500D01*
X125822475Y-78705500D01*
X125962485Y-78667984D01*
X126088015Y-78595509D01*
X126190509Y-78493015D01*
X126262984Y-78367485D01*
X126272352Y-78332525D01*
X131199500Y-78332525D01*
X131199500Y-78477475D01*
X131231128Y-78595511D01*
X131237017Y-78617488D01*
X131309488Y-78743011D01*
X131309490Y-78743013D01*
X131309491Y-78743015D01*
X131411985Y-78845509D01*
X131411986Y-78845510D01*
X131411988Y-78845511D01*
X131537511Y-78917982D01*
X131537512Y-78917982D01*
X131537515Y-78917984D01*
X131677525Y-78955500D01*
X131677528Y-78955500D01*
X131822472Y-78955500D01*
X131822475Y-78955500D01*
X131962485Y-78917984D01*
X132088015Y-78845509D01*
X132190509Y-78743015D01*
X132262984Y-78617485D01*
X132300500Y-78477475D01*
X132300500Y-78332525D01*
X132262984Y-78192515D01*
X132212783Y-78105565D01*
X132190511Y-78066988D01*
X132190506Y-78066982D01*
X132088017Y-77964493D01*
X132088011Y-77964488D01*
X131962488Y-77892017D01*
X131962489Y-77892017D01*
X131951006Y-77888940D01*
X131822475Y-77854500D01*
X131677525Y-77854500D01*
X131548993Y-77888940D01*
X131537511Y-77892017D01*
X131411988Y-77964488D01*
X131411982Y-77964493D01*
X131309493Y-78066982D01*
X131309488Y-78066988D01*
X131237017Y-78192511D01*
X131237016Y-78192515D01*
X131199500Y-78332525D01*
X126272352Y-78332525D01*
X126300500Y-78227475D01*
X126300500Y-78082525D01*
X126262984Y-77942515D01*
X126252547Y-77924438D01*
X126190511Y-77816988D01*
X126190506Y-77816982D01*
X126115705Y-77742181D01*
X126082220Y-77680858D01*
X126087204Y-77611166D01*
X126129076Y-77555233D01*
X126194540Y-77530816D01*
X126203386Y-77530500D01*
X135543101Y-77530500D01*
X135610140Y-77550185D01*
X135630782Y-77566819D01*
X136338181Y-78274218D01*
X136371666Y-78335541D01*
X136374500Y-78361899D01*
X136374500Y-79430500D01*
X136354815Y-79497539D01*
X136302011Y-79543294D01*
X136255389Y-79553450D01*
X136255423Y-79554099D01*
X136255429Y-79554146D01*
X136255426Y-79554146D01*
X136255436Y-79554324D01*
X136252123Y-79554501D01*
X136192516Y-79560908D01*
X136057671Y-79611202D01*
X136057664Y-79611206D01*
X135942455Y-79697452D01*
X135942452Y-79697455D01*
X135856206Y-79812664D01*
X135856202Y-79812671D01*
X135805908Y-79947517D01*
X135801160Y-79991684D01*
X135799501Y-80007123D01*
X135799500Y-80007135D01*
X135799501Y-80781000D01*
X135779817Y-80848039D01*
X135727013Y-80893794D01*
X135675501Y-80905000D01*
X133824500Y-80905000D01*
X133757461Y-80885315D01*
X133711706Y-80832511D01*
X133700500Y-80781000D01*
X133700499Y-80007129D01*
X133700498Y-80007123D01*
X133700497Y-80007116D01*
X133694091Y-79947517D01*
X133694090Y-79947515D01*
X133643797Y-79812671D01*
X133643793Y-79812664D01*
X133557547Y-79697455D01*
X133557544Y-79697452D01*
X133442335Y-79611206D01*
X133442328Y-79611202D01*
X133307482Y-79560908D01*
X133307483Y-79560908D01*
X133247883Y-79554501D01*
X133247881Y-79554500D01*
X133247873Y-79554500D01*
X133247864Y-79554500D01*
X132252129Y-79554500D01*
X132252123Y-79554501D01*
X132192516Y-79560908D01*
X132057671Y-79611202D01*
X132057664Y-79611206D01*
X131942455Y-79697452D01*
X131871123Y-79792738D01*
X131815189Y-79834609D01*
X131745497Y-79839592D01*
X131684174Y-79806106D01*
X131672591Y-79792737D01*
X131582547Y-79672455D01*
X131582544Y-79672452D01*
X131467335Y-79586206D01*
X131467328Y-79586202D01*
X131332482Y-79535908D01*
X131332483Y-79535908D01*
X131272883Y-79529501D01*
X131272881Y-79529500D01*
X131272873Y-79529500D01*
X131272864Y-79529500D01*
X130227129Y-79529500D01*
X130227123Y-79529501D01*
X130167516Y-79535908D01*
X130032671Y-79586202D01*
X130032664Y-79586206D01*
X129917455Y-79672452D01*
X129827408Y-79792738D01*
X129771474Y-79834608D01*
X129701782Y-79839592D01*
X129640459Y-79806106D01*
X129628876Y-79792738D01*
X129563450Y-79705341D01*
X129557546Y-79697454D01*
X129557544Y-79697453D01*
X129557544Y-79697452D01*
X129442335Y-79611206D01*
X129442328Y-79611202D01*
X129307482Y-79560908D01*
X129307483Y-79560908D01*
X129247883Y-79554501D01*
X129247881Y-79554500D01*
X129247873Y-79554500D01*
X129247864Y-79554500D01*
X128252129Y-79554500D01*
X128252123Y-79554501D01*
X128192516Y-79560908D01*
X128057671Y-79611202D01*
X128057664Y-79611206D01*
X127942455Y-79697452D01*
X127871123Y-79792738D01*
X127815189Y-79834609D01*
X127745497Y-79839592D01*
X127684174Y-79806106D01*
X127672591Y-79792737D01*
X127582547Y-79672455D01*
X127582544Y-79672452D01*
X127467335Y-79586206D01*
X127467328Y-79586202D01*
X127332482Y-79535908D01*
X127332483Y-79535908D01*
X127272883Y-79529501D01*
X127272881Y-79529500D01*
X127272873Y-79529500D01*
X127272864Y-79529500D01*
X126227129Y-79529500D01*
X126227123Y-79529501D01*
X126167516Y-79535908D01*
X126032671Y-79586202D01*
X126032664Y-79586206D01*
X125917455Y-79672452D01*
X125827408Y-79792738D01*
X125771474Y-79834608D01*
X125701782Y-79839592D01*
X125640459Y-79806106D01*
X125628876Y-79792738D01*
X125563450Y-79705341D01*
X125557546Y-79697454D01*
X125557544Y-79697453D01*
X125557544Y-79697452D01*
X125442335Y-79611206D01*
X125442328Y-79611202D01*
X125307482Y-79560908D01*
X125307483Y-79560908D01*
X125247883Y-79554501D01*
X125247881Y-79554500D01*
X125247873Y-79554500D01*
X125247864Y-79554500D01*
X124252129Y-79554500D01*
X124252123Y-79554501D01*
X124192516Y-79560908D01*
X124057671Y-79611202D01*
X124057664Y-79611206D01*
X123942455Y-79697452D01*
X123942452Y-79697455D01*
X123850888Y-79819769D01*
X123848618Y-79818070D01*
X123809420Y-79857264D01*
X123741146Y-79872111D01*
X123675683Y-79847690D01*
X123650554Y-79818689D01*
X123649112Y-79819769D01*
X123557547Y-79697455D01*
X123557544Y-79697452D01*
X123442335Y-79611206D01*
X123442328Y-79611202D01*
X123307482Y-79560908D01*
X123307483Y-79560908D01*
X123247883Y-79554501D01*
X123247881Y-79554500D01*
X123247873Y-79554500D01*
X123247864Y-79554500D01*
X123244548Y-79554322D01*
X123244615Y-79553065D01*
X123182461Y-79534815D01*
X123136706Y-79482011D01*
X123125500Y-79430500D01*
X123125500Y-79105564D01*
X123119326Y-79082525D01*
X123119325Y-79082522D01*
X123099910Y-79010063D01*
X123099909Y-79010060D01*
X123085004Y-78984244D01*
X123050475Y-78924438D01*
X122980562Y-78854525D01*
X122230563Y-78104526D01*
X122230562Y-78104525D01*
X122144940Y-78055091D01*
X122144939Y-78055090D01*
X122057993Y-78031793D01*
X122057993Y-78031792D01*
X122057990Y-78031792D01*
X122049437Y-78029500D01*
X122049436Y-78029500D01*
X122049435Y-78029500D01*
X118549436Y-78029500D01*
X118450564Y-78029500D01*
X118442011Y-78031792D01*
X118442007Y-78031793D01*
X118355060Y-78055090D01*
X118355059Y-78055091D01*
X118269436Y-78104526D01*
X117660526Y-78713436D01*
X117611089Y-78799063D01*
X117606288Y-78816981D01*
X117606288Y-78816985D01*
X117602105Y-78832592D01*
X117565743Y-78892252D01*
X117502897Y-78922783D01*
X117482331Y-78924500D01*
X117172323Y-78924500D01*
X117099264Y-78939032D01*
X117099260Y-78939033D01*
X117016399Y-78994399D01*
X116961033Y-79077260D01*
X116961032Y-79077264D01*
X116946500Y-79150321D01*
X116946500Y-79849678D01*
X116961032Y-79922735D01*
X116961033Y-79922739D01*
X116977589Y-79947517D01*
X117015860Y-80004795D01*
X117016400Y-80005602D01*
X117055755Y-80031898D01*
X117100561Y-80085510D01*
X117109268Y-80154835D01*
X117079114Y-80217862D01*
X117055755Y-80238102D01*
X117016400Y-80264397D01*
X116961033Y-80347260D01*
X116961032Y-80347264D01*
X116946500Y-80420321D01*
X116946500Y-81119678D01*
X116961032Y-81192735D01*
X116961033Y-81192739D01*
X116961034Y-81192740D01*
X117016398Y-81275600D01*
X117016400Y-81275602D01*
X117055755Y-81301898D01*
X117100561Y-81355510D01*
X117109268Y-81424835D01*
X117079114Y-81487862D01*
X117055755Y-81508102D01*
X117016400Y-81534397D01*
X116961033Y-81617260D01*
X116961032Y-81617264D01*
X116946500Y-81690321D01*
X116946500Y-82297599D01*
X116926815Y-82364638D01*
X116874011Y-82410393D01*
X116804853Y-82420337D01*
X116741297Y-82391312D01*
X116715114Y-82359600D01*
X116690513Y-82316991D01*
X116690510Y-82316988D01*
X116690509Y-82316985D01*
X116588015Y-82214491D01*
X116588013Y-82214490D01*
X116588011Y-82214488D01*
X116462488Y-82142017D01*
X116462489Y-82142017D01*
X116451006Y-82138940D01*
X116322475Y-82104500D01*
X116177525Y-82104500D01*
X116048993Y-82138940D01*
X116037511Y-82142017D01*
X115911988Y-82214488D01*
X115911982Y-82214493D01*
X115809493Y-82316982D01*
X115809488Y-82316988D01*
X115737017Y-82442511D01*
X115737016Y-82442515D01*
X115699500Y-82582525D01*
X115699500Y-82727475D01*
X115733920Y-82855929D01*
X115737017Y-82867488D01*
X115809488Y-82993011D01*
X115809490Y-82993013D01*
X115809491Y-82993015D01*
X115911985Y-83095509D01*
X115911986Y-83095510D01*
X115911988Y-83095511D01*
X116037511Y-83167982D01*
X116037512Y-83167982D01*
X116037515Y-83167984D01*
X116177525Y-83205500D01*
X116218101Y-83205500D01*
X116285140Y-83225185D01*
X116305782Y-83241819D01*
X116674432Y-83610471D01*
X116674434Y-83610472D01*
X116674437Y-83610475D01*
X116685412Y-83616811D01*
X116685416Y-83616815D01*
X116685417Y-83616814D01*
X116760062Y-83659910D01*
X116760066Y-83659911D01*
X116807811Y-83672705D01*
X116807812Y-83672705D01*
X116817903Y-83675408D01*
X116855564Y-83685500D01*
X116855565Y-83685500D01*
X116863189Y-83685500D01*
X116869271Y-83687286D01*
X116875502Y-83686113D01*
X116902392Y-83697011D01*
X116930228Y-83705185D01*
X116935856Y-83710574D01*
X116940255Y-83712357D01*
X116959298Y-83733021D01*
X116964502Y-83738004D01*
X116965427Y-83739315D01*
X117016399Y-83815601D01*
X117021816Y-83819220D01*
X117032249Y-83834004D01*
X117040243Y-83857425D01*
X117052102Y-83879142D01*
X117051332Y-83889908D01*
X117054820Y-83900127D01*
X117048883Y-83924151D01*
X117047118Y-83948834D01*
X117040647Y-83957476D01*
X117038058Y-83967957D01*
X117020075Y-83984957D01*
X117005246Y-84004767D01*
X116995132Y-84008539D01*
X116987286Y-84015957D01*
X116962966Y-84020536D01*
X116939782Y-84029184D01*
X116930936Y-84029500D01*
X116206899Y-84029500D01*
X116139860Y-84009815D01*
X116119218Y-83993181D01*
X115411819Y-83285782D01*
X115378334Y-83224459D01*
X115375500Y-83198101D01*
X115375500Y-80105566D01*
X115375500Y-80105565D01*
X115368217Y-80078386D01*
X115361817Y-80054500D01*
X115358169Y-80040885D01*
X115349910Y-80010063D01*
X115349910Y-80010062D01*
X115313800Y-79947517D01*
X115313799Y-79947515D01*
X115300477Y-79924440D01*
X115300473Y-79924435D01*
X114589823Y-79213785D01*
X114589821Y-79213784D01*
X114575563Y-79199526D01*
X114575562Y-79199525D01*
X114489938Y-79150090D01*
X114442186Y-79137295D01*
X114430099Y-79134056D01*
X114430095Y-79134054D01*
X114394436Y-79124500D01*
X114394435Y-79124500D01*
X113636811Y-79124500D01*
X113569772Y-79104815D01*
X113533709Y-79069391D01*
X113483601Y-78994399D01*
X113400739Y-78939033D01*
X113400735Y-78939032D01*
X113327677Y-78924500D01*
X113327674Y-78924500D01*
X113017669Y-78924500D01*
X112950630Y-78904815D01*
X112904875Y-78852011D01*
X112897895Y-78832597D01*
X112893712Y-78816985D01*
X112888910Y-78799062D01*
X112839475Y-78713438D01*
X112769562Y-78643525D01*
X112230563Y-78104526D01*
X112230562Y-78104525D01*
X112144940Y-78055091D01*
X112144939Y-78055090D01*
X112057993Y-78031793D01*
X112057993Y-78031792D01*
X112057990Y-78031792D01*
X112049437Y-78029500D01*
X112049436Y-78029500D01*
X112049435Y-78029500D01*
X110124500Y-78029500D01*
X110057461Y-78009815D01*
X110011706Y-77957011D01*
X110000500Y-77905500D01*
X110000499Y-77354998D01*
X110000498Y-77354980D01*
X109989999Y-77252203D01*
X109989998Y-77252200D01*
X109981804Y-77227472D01*
X109934814Y-77085666D01*
X109842712Y-76936344D01*
X109718656Y-76812288D01*
X109569334Y-76720186D01*
X109402797Y-76665001D01*
X109402795Y-76665000D01*
X109300010Y-76654500D01*
X106199998Y-76654500D01*
X106199980Y-76654501D01*
X106137101Y-76660925D01*
X106068408Y-76648155D01*
X106017524Y-76600274D01*
X106000500Y-76537567D01*
X106000500Y-75654986D01*
X116150002Y-75654986D01*
X116160495Y-75757697D01*
X116215642Y-75924119D01*
X116215644Y-75924124D01*
X116307685Y-76073345D01*
X116431655Y-76197315D01*
X116580876Y-76289356D01*
X116580881Y-76289358D01*
X116747303Y-76344505D01*
X116747310Y-76344506D01*
X116850020Y-76354999D01*
X116975000Y-76354999D01*
X116975001Y-76354998D01*
X116975001Y-75405000D01*
X116150002Y-75405000D01*
X116150002Y-75654986D01*
X106000500Y-75654986D01*
X106000500Y-74655013D01*
X116150001Y-74655013D01*
X116150001Y-74905000D01*
X117101001Y-74905000D01*
X117168040Y-74924685D01*
X117213795Y-74977489D01*
X117225001Y-75029000D01*
X117225001Y-75155000D01*
X117351001Y-75155000D01*
X117418040Y-75174685D01*
X117463795Y-75227489D01*
X117475001Y-75279000D01*
X117475001Y-76354999D01*
X117599973Y-76354999D01*
X117599987Y-76354998D01*
X117702698Y-76344505D01*
X117869120Y-76289358D01*
X117869125Y-76289356D01*
X118018346Y-76197315D01*
X118142316Y-76073345D01*
X118234357Y-75924124D01*
X118234360Y-75924117D01*
X118264930Y-75831863D01*
X118304702Y-75774418D01*
X118369218Y-75747594D01*
X118437994Y-75759909D01*
X118489194Y-75807451D01*
X118498817Y-75827532D01*
X118506199Y-75847323D01*
X118506205Y-75847335D01*
X118592451Y-75962544D01*
X118592454Y-75962547D01*
X118707663Y-76048793D01*
X118707670Y-76048797D01*
X118752617Y-76065561D01*
X118842516Y-76099091D01*
X118902126Y-76105500D01*
X119647871Y-76105499D01*
X119707482Y-76099091D01*
X119842330Y-76048796D01*
X119957545Y-75962546D01*
X120043795Y-75847331D01*
X120094090Y-75712483D01*
X120100499Y-75652873D01*
X120100499Y-75652845D01*
X120100677Y-75649548D01*
X120101933Y-75649615D01*
X120120184Y-75587461D01*
X120172988Y-75541706D01*
X120224499Y-75530500D01*
X122275501Y-75530500D01*
X122342540Y-75550185D01*
X122388295Y-75602989D01*
X122398437Y-75649611D01*
X122399099Y-75649576D01*
X122399146Y-75649571D01*
X122399146Y-75649573D01*
X122399324Y-75649564D01*
X122399501Y-75652876D01*
X122405908Y-75712483D01*
X122456202Y-75847328D01*
X122456206Y-75847335D01*
X122542452Y-75962544D01*
X122542455Y-75962547D01*
X122657664Y-76048793D01*
X122657671Y-76048797D01*
X122792517Y-76099091D01*
X122792516Y-76099091D01*
X122799444Y-76099835D01*
X122852127Y-76105500D01*
X123647872Y-76105499D01*
X123707483Y-76099091D01*
X123842331Y-76048796D01*
X123957546Y-75962546D01*
X123963428Y-75954687D01*
X124019361Y-75912818D01*
X124062694Y-75905000D01*
X124437306Y-75905000D01*
X124504345Y-75924685D01*
X124536570Y-75954686D01*
X124542454Y-75962546D01*
X124542455Y-75962546D01*
X124542456Y-75962548D01*
X124657664Y-76048793D01*
X124657671Y-76048797D01*
X124792517Y-76099091D01*
X124792516Y-76099091D01*
X124799444Y-76099835D01*
X124852127Y-76105500D01*
X125647872Y-76105499D01*
X125707483Y-76099091D01*
X125842331Y-76048796D01*
X125957546Y-75962546D01*
X126043796Y-75847331D01*
X126094091Y-75712483D01*
X126100500Y-75652873D01*
X126100499Y-74657128D01*
X126094091Y-74597517D01*
X126080209Y-74560298D01*
X126043797Y-74462671D01*
X126043793Y-74462664D01*
X125957547Y-74347455D01*
X125862261Y-74276123D01*
X125820391Y-74220189D01*
X125815407Y-74150497D01*
X125848893Y-74089175D01*
X125862262Y-74077590D01*
X125867329Y-74073796D01*
X125867331Y-74073796D01*
X125982546Y-73987546D01*
X126068796Y-73872331D01*
X126119091Y-73737483D01*
X126125500Y-73677873D01*
X126125499Y-72632128D01*
X126119091Y-72572517D01*
X126107599Y-72541706D01*
X126068797Y-72437671D01*
X126068793Y-72437664D01*
X126034442Y-72391777D01*
X126010024Y-72326313D01*
X126024875Y-72258040D01*
X126074280Y-72208634D01*
X126101608Y-72197693D01*
X126212485Y-72167984D01*
X126338015Y-72095509D01*
X126440509Y-71993015D01*
X126512984Y-71867485D01*
X126550500Y-71727475D01*
X126550500Y-71582525D01*
X126546231Y-71566592D01*
X126547894Y-71496742D01*
X126587058Y-71438880D01*
X126651287Y-71411377D01*
X126666006Y-71410500D01*
X128198640Y-71410500D01*
X128208786Y-71409955D01*
X128252678Y-71407603D01*
X128252686Y-71407602D01*
X128252688Y-71407602D01*
X128252689Y-71407602D01*
X128259682Y-71406849D01*
X128279036Y-71404769D01*
X128279046Y-71404767D01*
X128279049Y-71404767D01*
X128288648Y-71403211D01*
X128332448Y-71396114D01*
X128467257Y-71345832D01*
X128528580Y-71312347D01*
X128643761Y-71226123D01*
X129071123Y-70798761D01*
X129107288Y-70758500D01*
X129123922Y-70737858D01*
X129155567Y-70693974D01*
X129215338Y-70563097D01*
X129235023Y-70496058D01*
X129235024Y-70496054D01*
X129255500Y-70353638D01*
X129255500Y-64706362D01*
X129252603Y-64652322D01*
X129252484Y-64651218D01*
X129249770Y-64625977D01*
X129249767Y-64625950D01*
X129241114Y-64572554D01*
X129241114Y-64572552D01*
X129197455Y-64455500D01*
X129190832Y-64437743D01*
X129157347Y-64376420D01*
X129071123Y-64261239D01*
X129071118Y-64261234D01*
X129071113Y-64261228D01*
X128643776Y-63833892D01*
X128643767Y-63833883D01*
X128643761Y-63833877D01*
X128643737Y-63833855D01*
X128603519Y-63797728D01*
X128603507Y-63797718D01*
X128582856Y-63781076D01*
X128538974Y-63749433D01*
X128408100Y-63689663D01*
X128341055Y-63669976D01*
X128293582Y-63663150D01*
X128198638Y-63649500D01*
X123051362Y-63649500D01*
X123051360Y-63649500D01*
X122997311Y-63652397D01*
X122997310Y-63652397D01*
X122970977Y-63655229D01*
X122970950Y-63655232D01*
X122917566Y-63663883D01*
X122782756Y-63714161D01*
X122723388Y-63746576D01*
X122721903Y-63747352D01*
X122721424Y-63747647D01*
X122606242Y-63833872D01*
X122606230Y-63833883D01*
X122417777Y-64022336D01*
X122356454Y-64055821D01*
X122286762Y-64050837D01*
X122252409Y-64031303D01*
X122199025Y-63988392D01*
X122199022Y-63988390D01*
X122028523Y-63903831D01*
X121843824Y-63857897D01*
X121801097Y-63855000D01*
X121350000Y-63855000D01*
X121350000Y-64981000D01*
X121330315Y-65048039D01*
X121277511Y-65093794D01*
X121226000Y-65105000D01*
X121100000Y-65105000D01*
X121100000Y-65231000D01*
X121080315Y-65298039D01*
X121027511Y-65343794D01*
X120976000Y-65355000D01*
X119600000Y-65355000D01*
X119600000Y-65556096D01*
X119602897Y-65598824D01*
X119648831Y-65783523D01*
X119733390Y-65954022D01*
X119733392Y-65954025D01*
X119824745Y-66067673D01*
X119851404Y-66132257D01*
X119838914Y-66201001D01*
X119795138Y-66249675D01*
X119741462Y-66284170D01*
X119741451Y-66284179D01*
X119688659Y-66329923D01*
X119594433Y-66438664D01*
X119594430Y-66438668D01*
X119534664Y-66569534D01*
X119534663Y-66569538D01*
X119534662Y-66569541D01*
X119514977Y-66636580D01*
X119514976Y-66636584D01*
X119494500Y-66779000D01*
X119494500Y-68031000D01*
X119494501Y-68031009D01*
X119506052Y-68138450D01*
X119506054Y-68138462D01*
X119517260Y-68189972D01*
X119551383Y-68292497D01*
X119551386Y-68292503D01*
X119629171Y-68413537D01*
X119629179Y-68413548D01*
X119674923Y-68466340D01*
X119674926Y-68466343D01*
X119674930Y-68466347D01*
X119783664Y-68560567D01*
X119914541Y-68620338D01*
X119981580Y-68640023D01*
X119981584Y-68640024D01*
X119997624Y-68642330D01*
X120003973Y-68645229D01*
X120010949Y-68644998D01*
X120035339Y-68659553D01*
X120061180Y-68671354D01*
X120064954Y-68677226D01*
X120070947Y-68680803D01*
X120083595Y-68706232D01*
X120098955Y-68730132D01*
X120098955Y-68737112D01*
X120102063Y-68743361D01*
X120098955Y-68771589D01*
X120098956Y-68800001D01*
X120094997Y-68807544D01*
X120094418Y-68812811D01*
X120084349Y-68827839D01*
X120076332Y-68843119D01*
X120072242Y-68848167D01*
X119976830Y-68943580D01*
X119927808Y-69026470D01*
X119922073Y-69033551D01*
X119900522Y-69048432D01*
X119881382Y-69066304D01*
X119871118Y-69068737D01*
X119864579Y-69073253D01*
X119850034Y-69073735D01*
X119825719Y-69079500D01*
X118774499Y-69079500D01*
X118707460Y-69059815D01*
X118661705Y-69007011D01*
X118650499Y-68955500D01*
X118650499Y-68357130D01*
X118650498Y-68357124D01*
X118650497Y-68357117D01*
X118644091Y-68297518D01*
X118642218Y-68292497D01*
X118593797Y-68162672D01*
X118593793Y-68162665D01*
X118507547Y-68047456D01*
X118507544Y-68047453D01*
X118392335Y-67961207D01*
X118392328Y-67961203D01*
X118257482Y-67910909D01*
X118257483Y-67910909D01*
X118197883Y-67904502D01*
X118197881Y-67904501D01*
X118197873Y-67904501D01*
X118197864Y-67904501D01*
X116802129Y-67904501D01*
X116802123Y-67904502D01*
X116742516Y-67910909D01*
X116607671Y-67961203D01*
X116607664Y-67961207D01*
X116492455Y-68047453D01*
X116492452Y-68047456D01*
X116406206Y-68162665D01*
X116406202Y-68162672D01*
X116355908Y-68297518D01*
X116349501Y-68357117D01*
X116349501Y-68357124D01*
X116349500Y-68357136D01*
X116349500Y-70452871D01*
X116349501Y-70452877D01*
X116355908Y-70512484D01*
X116406202Y-70647329D01*
X116406206Y-70647336D01*
X116492451Y-70762544D01*
X116492452Y-70762545D01*
X116492454Y-70762547D01*
X116537312Y-70796128D01*
X116579182Y-70852060D01*
X116587000Y-70895393D01*
X116587000Y-72208321D01*
X116567315Y-72275360D01*
X116537313Y-72307586D01*
X116517459Y-72322449D01*
X116517451Y-72322457D01*
X116431206Y-72437664D01*
X116431202Y-72437671D01*
X116380908Y-72572517D01*
X116374501Y-72632116D01*
X116374501Y-72632123D01*
X116374500Y-72632135D01*
X116374500Y-73677870D01*
X116374501Y-73677876D01*
X116380908Y-73737483D01*
X116431202Y-73872328D01*
X116431206Y-73872334D01*
X116473125Y-73928332D01*
X116497542Y-73993796D01*
X116482690Y-74062069D01*
X116438961Y-74108177D01*
X116431659Y-74112681D01*
X116431656Y-74112683D01*
X116307685Y-74236654D01*
X116215644Y-74385875D01*
X116215642Y-74385880D01*
X116160495Y-74552302D01*
X116160494Y-74552309D01*
X116150001Y-74655013D01*
X106000500Y-74655013D01*
X106000500Y-74279500D01*
X106020185Y-74212461D01*
X106072989Y-74166706D01*
X106124500Y-74155500D01*
X111973952Y-74155500D01*
X111973954Y-74155500D01*
X112015495Y-74152683D01*
X112195021Y-74108037D01*
X112360753Y-74025842D01*
X112504940Y-73909940D01*
X112620842Y-73765753D01*
X112703037Y-73600021D01*
X112747683Y-73420495D01*
X112750500Y-73378954D01*
X112750500Y-72654500D01*
X112770185Y-72587461D01*
X112822989Y-72541706D01*
X112874500Y-72530500D01*
X113061607Y-72530500D01*
X113122029Y-72518481D01*
X113182452Y-72506463D01*
X113215792Y-72492652D01*
X113296286Y-72459312D01*
X113347509Y-72425084D01*
X113398733Y-72390858D01*
X113485858Y-72303733D01*
X113485858Y-72303731D01*
X113496066Y-72293524D01*
X113496067Y-72293521D01*
X114985857Y-70803734D01*
X114993030Y-70793000D01*
X115054311Y-70701286D01*
X115101463Y-70587452D01*
X115125500Y-70466606D01*
X115125500Y-66965452D01*
X115145185Y-66898413D01*
X115161819Y-66877771D01*
X115972771Y-66066819D01*
X115999698Y-66052115D01*
X116025517Y-66035523D01*
X116031717Y-66034631D01*
X116034094Y-66033334D01*
X116060452Y-66030500D01*
X116225501Y-66030500D01*
X116292540Y-66050185D01*
X116338295Y-66102989D01*
X116349501Y-66154500D01*
X116349501Y-66452875D01*
X116355908Y-66512482D01*
X116406202Y-66647327D01*
X116406206Y-66647334D01*
X116492452Y-66762543D01*
X116492455Y-66762546D01*
X116607664Y-66848792D01*
X116607671Y-66848796D01*
X116742517Y-66899090D01*
X116742516Y-66899090D01*
X116749444Y-66899834D01*
X116802127Y-66905499D01*
X118197872Y-66905498D01*
X118257483Y-66899090D01*
X118392331Y-66848795D01*
X118507546Y-66762545D01*
X118593796Y-66647330D01*
X118644091Y-66512482D01*
X118650500Y-66452872D01*
X118650499Y-64653903D01*
X119600000Y-64653903D01*
X119600000Y-64855000D01*
X120850000Y-64855000D01*
X120850000Y-63855000D01*
X120398903Y-63855000D01*
X120356175Y-63857897D01*
X120171476Y-63903831D01*
X120000977Y-63988390D01*
X120000974Y-63988392D01*
X119852633Y-64107632D01*
X119852632Y-64107633D01*
X119733392Y-64255974D01*
X119733390Y-64255977D01*
X119648831Y-64426476D01*
X119602897Y-64611175D01*
X119600000Y-64653903D01*
X118650499Y-64653903D01*
X118650499Y-64357127D01*
X118644091Y-64297516D01*
X118630556Y-64261228D01*
X118593797Y-64162670D01*
X118593793Y-64162663D01*
X118507547Y-64047454D01*
X118507544Y-64047451D01*
X118392335Y-63961205D01*
X118392328Y-63961201D01*
X118257482Y-63910907D01*
X118257483Y-63910907D01*
X118197883Y-63904500D01*
X118197881Y-63904499D01*
X118197873Y-63904499D01*
X118197864Y-63904499D01*
X116802129Y-63904499D01*
X116802123Y-63904500D01*
X116742516Y-63910907D01*
X116607671Y-63961201D01*
X116607664Y-63961205D01*
X116492455Y-64047451D01*
X116492452Y-64047454D01*
X116406206Y-64162663D01*
X116406202Y-64162670D01*
X116355908Y-64297516D01*
X116349501Y-64357115D01*
X116349501Y-64357122D01*
X116349500Y-64357134D01*
X116349500Y-64655500D01*
X116329815Y-64722539D01*
X116277011Y-64768294D01*
X116225500Y-64779500D01*
X115688389Y-64779500D01*
X115637535Y-64789615D01*
X115637530Y-64789616D01*
X115627971Y-64791518D01*
X115567548Y-64803537D01*
X115520397Y-64823067D01*
X115453715Y-64850688D01*
X115453714Y-64850689D01*
X115431347Y-64865633D01*
X115431344Y-64865635D01*
X115351268Y-64919140D01*
X115307705Y-64962703D01*
X115264142Y-65006267D01*
X114014144Y-66256264D01*
X114014138Y-66256272D01*
X113945690Y-66358708D01*
X113945688Y-66358713D01*
X113898540Y-66472538D01*
X113898537Y-66472546D01*
X113890594Y-66512481D01*
X113879247Y-66569534D01*
X113879246Y-66569538D01*
X113879245Y-66569543D01*
X113874500Y-66593394D01*
X113874500Y-70094547D01*
X113854815Y-70161586D01*
X113838181Y-70182228D01*
X112962181Y-71058228D01*
X112900858Y-71091713D01*
X112831166Y-71086729D01*
X112775233Y-71044857D01*
X112750816Y-70979393D01*
X112750500Y-70970547D01*
X112750500Y-70431048D01*
X112750500Y-70431046D01*
X112747683Y-70389505D01*
X112703037Y-70209979D01*
X112620842Y-70044247D01*
X112570945Y-69982173D01*
X112504940Y-69900059D01*
X112402785Y-69817945D01*
X112360753Y-69784158D01*
X112360751Y-69784157D01*
X112360750Y-69784156D01*
X112195023Y-69701964D01*
X112195021Y-69701963D01*
X112015497Y-69657317D01*
X112015501Y-69657317D01*
X111984339Y-69655204D01*
X111973954Y-69654500D01*
X111973952Y-69654500D01*
X106124500Y-69654500D01*
X106057461Y-69634815D01*
X106011706Y-69582011D01*
X106000500Y-69530500D01*
X106000500Y-63832525D01*
X111699500Y-63832525D01*
X111699500Y-63977475D01*
X111719158Y-64050837D01*
X111737017Y-64117488D01*
X111809488Y-64243011D01*
X111809490Y-64243013D01*
X111809491Y-64243015D01*
X111911985Y-64345509D01*
X111911986Y-64345510D01*
X111911988Y-64345511D01*
X112037511Y-64417982D01*
X112037512Y-64417982D01*
X112037515Y-64417984D01*
X112177525Y-64455500D01*
X112177528Y-64455500D01*
X112322472Y-64455500D01*
X112322475Y-64455500D01*
X112462485Y-64417984D01*
X112588015Y-64345509D01*
X112690509Y-64243015D01*
X112762984Y-64117485D01*
X112800500Y-63977475D01*
X112800500Y-63832525D01*
X112762984Y-63692515D01*
X112761337Y-63689663D01*
X112690511Y-63566988D01*
X112690506Y-63566982D01*
X112588017Y-63464493D01*
X112588011Y-63464488D01*
X112462488Y-63392017D01*
X112462489Y-63392017D01*
X112451006Y-63388940D01*
X112322475Y-63354500D01*
X112177525Y-63354500D01*
X112048993Y-63388940D01*
X112037511Y-63392017D01*
X111911988Y-63464488D01*
X111911982Y-63464493D01*
X111809493Y-63566982D01*
X111809488Y-63566988D01*
X111737017Y-63692511D01*
X111737016Y-63692515D01*
X111699500Y-63832525D01*
X106000500Y-63832525D01*
X106000500Y-62779500D01*
X106020185Y-62712461D01*
X106072989Y-62666706D01*
X106124500Y-62655500D01*
X137375500Y-62655500D01*
X137442539Y-62675185D01*
G37*
G04 #@! TD.AperFunction*
G04 #@! TA.AperFunction,Conductor*
G36*
X119732740Y-80805808D02*
G01*
X119788674Y-80847679D01*
X119805590Y-80878657D01*
X119831202Y-80947328D01*
X119831203Y-80947329D01*
X119831204Y-80947331D01*
X119837301Y-80955475D01*
X119917454Y-81062547D01*
X119950309Y-81087141D01*
X119992181Y-81143074D01*
X120000000Y-81186409D01*
X120000000Y-81905000D01*
X121675500Y-81905000D01*
X121742539Y-81924685D01*
X121788294Y-81977489D01*
X121799500Y-82029000D01*
X121799500Y-82802870D01*
X121799501Y-82802876D01*
X121805908Y-82862483D01*
X121856202Y-82997328D01*
X121856204Y-82997331D01*
X121918980Y-83081189D01*
X121943398Y-83146652D01*
X121928547Y-83214926D01*
X121879142Y-83264331D01*
X121819714Y-83279500D01*
X119950564Y-83279500D01*
X119902812Y-83292295D01*
X119902811Y-83292294D01*
X119855063Y-83305089D01*
X119855062Y-83305089D01*
X119769435Y-83354527D01*
X119130782Y-83993181D01*
X119103854Y-84007884D01*
X119078036Y-84024477D01*
X119071835Y-84025368D01*
X119069459Y-84026666D01*
X119043101Y-84029500D01*
X118991064Y-84029500D01*
X118924025Y-84009815D01*
X118878270Y-83957011D01*
X118868326Y-83887853D01*
X118897351Y-83824297D01*
X118903383Y-83817819D01*
X118905598Y-83815603D01*
X118905597Y-83815603D01*
X118905601Y-83815601D01*
X118960966Y-83732740D01*
X118975500Y-83659674D01*
X118975500Y-82960326D01*
X118975500Y-82960323D01*
X118975499Y-82960321D01*
X118960967Y-82887264D01*
X118960966Y-82887260D01*
X118947753Y-82867485D01*
X118905601Y-82804399D01*
X118866244Y-82778102D01*
X118821439Y-82724491D01*
X118812730Y-82655166D01*
X118842884Y-82592139D01*
X118866243Y-82571898D01*
X118905601Y-82545601D01*
X118960966Y-82462740D01*
X118975500Y-82389674D01*
X118975500Y-81690326D01*
X118975500Y-81690323D01*
X118975499Y-81690321D01*
X118960967Y-81617264D01*
X118960966Y-81617260D01*
X118931925Y-81573797D01*
X118905601Y-81534399D01*
X118866244Y-81508102D01*
X118821439Y-81454491D01*
X118812730Y-81385166D01*
X118842884Y-81322139D01*
X118866243Y-81301898D01*
X118905601Y-81275601D01*
X118960966Y-81192740D01*
X118962225Y-81186409D01*
X118973385Y-81130309D01*
X119005770Y-81068398D01*
X119066485Y-81033824D01*
X119095002Y-81030500D01*
X119299435Y-81030500D01*
X119299436Y-81030500D01*
X119347186Y-81017705D01*
X119394938Y-81004910D01*
X119480562Y-80955475D01*
X119550475Y-80885562D01*
X119601728Y-80834308D01*
X119663049Y-80800824D01*
X119732740Y-80805808D01*
G37*
G04 #@! TD.AperFunction*
M02*
